<svg width="150" height="150" viewBox="0 0 150 150" fill="none" xmlns="http://www.w3.org/2000/svg">
<g clip-path="url(#clip0_2404_7608)">
<path d="M16.8184 52.6825C18.4391 47.1019 23.1789 37.0098 36.5113 35.3295C38.927 35.024 41.0574 33.6187 42.3519 31.5616C46.1946 25.5125 56.1634 14.4632 75.0306 21.6019C76.7328 22.2435 78.5981 22.2843 80.3207 21.6834C84.8057 20.1253 94.3871 18.0275 102.664 24.5654C104.499 26.0115 106.843 26.653 109.147 26.2864C115.466 25.2884 128.32 25.5023 135.037 41.4703C135.842 43.3746 137.208 44.9938 138.93 46.1446C144.802 50.0959 157.013 60.748 144.71 74.944C142.834 77.103 142.253 80.0766 143.13 82.7956C145.026 88.6512 145.892 99.4052 132.02 108.326C129.869 109.711 128.646 112.165 128.901 114.711C128.962 115.363 129.033 116.045 129.115 116.717C129.115 116.717 133.559 147.167 112.571 118.265C111.756 117.145 110.635 116.259 109.32 115.842C107.505 115.271 104.845 115.302 101.441 117.746C101.441 117.746 92.3179 124.162 77.7419 115.76C76.4576 115.017 74.8879 114.986 73.573 115.648C68.2726 118.306 54.0942 123.958 43.6871 114.558C41.6384 112.705 38.8251 111.911 36.1036 112.41C27.0828 114.039 7.23702 114.09 0 85.5452C0 85.5452 0.397526 67.5812 12.9451 58.3243C14.8308 56.9291 16.1661 54.9127 16.8184 52.6621V52.6825Z" fill="#F489AC"/>
<path d="M62.5137 43.5173C62.5137 43.5173 71.9524 32.6513 84.7242 41.5213C84.7242 41.5213 101.604 25.7672 107.149 49.5053" stroke="white" stroke-width="0.96" stroke-linecap="round" stroke-linejoin="round"/>
<path d="M120.685 66.1454C120.685 66.1454 96.5887 56.2774 96.4766 84.5575" stroke="white" stroke-width="0.96" stroke-linecap="round" stroke-linejoin="round"/>
<path d="M121.571 79.5674C123.233 80.6163 133.038 84.0686 142.885 80.2293" stroke="white" stroke-width="0.96" stroke-linecap="round" stroke-linejoin="round"/>
<path d="M80.718 97.8777C80.718 97.8777 81.2684 111.463 74.0518 118.459" stroke="white" stroke-width="1.07" stroke-linecap="round" stroke-linejoin="round"/>
<path d="M34.248 102.369C34.248 102.369 41.4749 115.893 47.2951 118.123" stroke="white" stroke-width="1.6" stroke-linecap="round" stroke-linejoin="round"/>
<path d="M14.9941 85.0055C14.9941 85.0055 28.5406 56.2773 49.6401 81.6754C49.6401 81.6754 59.7414 76.5734 68.5175 88.3355" stroke="white" stroke-width="0.96" stroke-linecap="round" stroke-linejoin="round"/>
<path d="M3.94434 64.3734C3.94434 64.3734 16.9914 51.7253 34.085 53.2834" stroke="white" stroke-width="0.96" stroke-linecap="round" stroke-linejoin="round"/>
<path d="M83.9393 19.7791C83.9393 19.7791 69.1187 24.2701 72.0848 37.7532" stroke="white" stroke-width="1.03" stroke-linecap="round" stroke-linejoin="round"/>
</g>
<defs>
<clipPath id="clip0_2404_7608">
<rect width="150" height="111.481" fill="white" transform="translate(0 19.2598)"/>
</clipPath>
</defs>
</svg>
