<svg width="100" height="100" viewBox="0 0 100 100" fill="none" xmlns="http://www.w3.org/2000/svg">
<g clip-path="url(#clip0_2431_9743)">
<path d="M11.2123 35.1218C12.2927 31.4013 15.4526 24.6733 24.3409 23.5531C25.9513 23.3494 27.3716 22.4125 28.2346 21.0411C30.7964 17.0084 37.4422 9.64221 50.0204 14.4014C51.1552 14.8291 52.3988 14.8563 53.5472 14.4557C56.5371 13.417 62.9247 12.0184 68.4425 16.377C69.6657 17.3411 71.2286 17.7688 72.7643 17.5244C76.9774 16.859 85.5463 17.0016 90.0245 27.6469C90.5613 28.9165 91.4719 29.996 92.6203 30.7631C96.5344 33.3973 104.675 40.4987 96.4732 49.9628C95.2229 51.402 94.8355 53.3845 95.4199 55.1972C96.6839 59.1009 97.2615 66.2702 88.013 72.2175C86.5792 73.1408 85.7638 74.777 85.9337 76.4742C85.9744 76.9087 86.022 77.3636 86.0764 77.8117C86.0764 77.8117 89.0391 98.1111 75.0476 78.8436C74.5039 78.0968 73.7565 77.5062 72.8799 77.2278C71.6703 76.8476 69.8967 76.868 67.6271 78.4974C67.6271 78.4974 61.5453 82.7745 51.8279 77.1735C50.9717 76.6779 49.9253 76.6576 49.0487 77.0988C45.5151 78.8708 36.0628 82.6388 29.1248 76.3724C27.7589 75.1368 25.8834 74.6072 24.069 74.9399C18.0552 76.0262 4.82468 76.0601 0 57.0302C0 57.0302 0.265017 45.0542 8.63006 38.8829C9.8872 37.9528 10.7774 36.6086 11.2123 35.1082V35.1218Z" fill="#F489AC"/>
<path d="M41.6758 29.0115C41.6758 29.0115 47.9683 21.7675 56.4828 27.6809C56.4828 27.6809 67.7358 17.1781 71.4325 33.0035" stroke="white" stroke-width="0.96" stroke-linecap="round" stroke-linejoin="round"/>
<path d="M80.4563 44.097C80.4563 44.097 64.3921 37.5184 64.3174 56.3717" stroke="white" stroke-width="0.96" stroke-linecap="round" stroke-linejoin="round"/>
<path d="M81.0479 53.0449C82.1555 53.7442 88.6926 56.0457 95.2569 53.4862" stroke="white" stroke-width="0.96" stroke-linecap="round" stroke-linejoin="round"/>
<path d="M53.8123 65.2517C53.8123 65.2517 54.1793 74.3084 49.3682 78.9725" stroke="white" stroke-width="1.07" stroke-linecap="round" stroke-linejoin="round"/>
<path d="M22.832 68.2458C22.832 68.2458 27.6499 77.2618 31.5301 78.7486" stroke="white" stroke-width="1.6" stroke-linecap="round" stroke-linejoin="round"/>
<path d="M9.99609 56.6705C9.99609 56.6705 19.0271 37.5184 33.0934 54.4504C33.0934 54.4504 39.8276 51.0491 45.6783 58.8905" stroke="white" stroke-width="0.96" stroke-linecap="round" stroke-linejoin="round"/>
<path d="M2.62988 42.9156C2.62988 42.9156 11.3279 34.4835 22.7237 35.5222" stroke="white" stroke-width="0.96" stroke-linecap="round" stroke-linejoin="round"/>
<path d="M55.9595 13.186C55.9595 13.186 46.0791 16.18 48.0566 25.1688" stroke="white" stroke-width="1.03" stroke-linecap="round" stroke-linejoin="round"/>
</g>
<defs>
<clipPath id="clip0_2431_9743">
<rect width="100" height="74.3204" fill="white" transform="translate(0 12.8398)"/>
</clipPath>
</defs>
</svg>
