<svg width="100" height="100" viewBox="0 0 100 100" fill="none" xmlns="http://www.w3.org/2000/svg">
<path d="M94.2632 38.0743C94.7609 22.7086 89.8983 9.18366 71.6474 8.58923C53.3966 7.9948 50.844 21.9352 49.3125 21.884C47.7809 21.8329 46.4026 7.76469 27.8901 7.15748C9.37757 6.55666 3.94699 18.6179 3.40457 35.1085C2.86214 51.5992 45.3369 92.813 46.8429 92.8642C48.3553 92.9153 93.7591 53.44 94.2568 38.0743H94.2632Z" fill="#F489AC"/>
<path d="M81.9952 35.8159L15.3741 41.5248C6.88322 42.2524 0.58889 49.7366 1.31532 58.2412C2.04176 66.7458 9.51387 73.0503 18.0048 72.3227L84.6259 66.6138C93.1168 65.8862 99.4111 58.402 98.6847 49.8974C97.9582 41.3928 90.4861 35.0883 81.9952 35.8159Z" fill="#FDF1DC"/>
<path d="M47.782 43.4205L42.8607 43.8422C37.5232 44.2996 33.5665 49.0043 34.0231 54.3505L34.1526 55.8662C34.6092 61.2123 39.3064 65.1755 44.6439 64.7181L49.5651 64.2964C54.9026 63.839 58.8594 59.1343 58.4027 53.7881L58.2733 52.2724C57.8166 46.9263 53.1195 42.9631 47.782 43.4205Z" fill="#333D7B" stroke="#333D7B" stroke-width="1.17" stroke-miterlimit="10"/>
<path d="M64.6181 45.9551C65.1185 45.9551 65.5242 45.5488 65.5242 45.0475C65.5242 44.5463 65.1185 44.1399 64.6181 44.1399C64.1176 44.1399 63.7119 44.5463 63.7119 45.0475C63.7119 45.5488 64.1176 45.9551 64.6181 45.9551Z" fill="#333D7B"/>
<path d="M65.2489 53.3507C65.7494 53.3507 66.1551 52.9443 66.1551 52.443C66.1551 51.9418 65.7494 51.5354 65.2489 51.5354C64.7485 51.5354 64.3428 51.9418 64.3428 52.443C64.3428 52.9443 64.7485 53.3507 65.2489 53.3507Z" fill="#333D7B"/>
<path d="M65.8808 60.7459C66.3812 60.7459 66.7869 60.3396 66.7869 59.8383C66.7869 59.337 66.3812 58.9307 65.8808 58.9307C65.3803 58.9307 64.9746 59.337 64.9746 59.8383C64.9746 60.3396 65.3803 60.7459 65.8808 60.7459Z" fill="#333D7B"/>
<path d="M73.9726 48.8765C74.473 48.8765 74.8787 48.4702 74.8787 47.9689C74.8787 47.4676 74.473 47.0613 73.9726 47.0613C73.4721 47.0613 73.0664 47.4676 73.0664 47.9689C73.0664 48.4702 73.4721 48.8765 73.9726 48.8765Z" fill="#333D7B"/>
<path d="M74.6044 56.2781C75.1049 56.2781 75.5106 55.8718 75.5106 55.3705C75.5106 54.8692 75.1049 54.4629 74.6044 54.4629C74.1039 54.4629 73.6982 54.8692 73.6982 55.3705C73.6982 55.8718 74.1039 56.2781 74.6044 56.2781Z" fill="#333D7B"/>
<path d="M82.7021 44.4022C83.2025 44.4022 83.6082 43.9958 83.6082 43.4945C83.6082 42.9933 83.2025 42.5869 82.7021 42.5869C82.2016 42.5869 81.7959 42.9933 81.7959 43.4945C81.7959 43.9958 82.2016 44.4022 82.7021 44.4022Z" fill="#333D7B"/>
<path d="M83.3349 51.8038C83.8353 51.8038 84.241 51.3974 84.241 50.8961C84.241 50.3949 83.8353 49.9885 83.3349 49.9885C82.8344 49.9885 82.4287 50.3949 82.4287 50.8961C82.4287 51.3974 82.8344 51.8038 83.3349 51.8038Z" fill="#333D7B"/>
<path d="M83.9657 59.199C84.4662 59.199 84.8719 58.7927 84.8719 58.2914C84.8719 57.7901 84.4662 57.3838 83.9657 57.3838C83.4653 57.3838 83.0596 57.7901 83.0596 58.2914C83.0596 58.7927 83.4653 59.199 83.9657 59.199Z" fill="#333D7B"/>
<path d="M8.09073 50.794C8.59119 50.794 8.99689 50.3877 8.99689 49.8864C8.99689 49.3851 8.59119 48.9788 8.09073 48.9788C7.59027 48.9788 7.18457 49.3851 7.18457 49.8864C7.18457 50.3877 7.59027 50.794 8.09073 50.794Z" fill="#333D7B"/>
<path d="M8.72257 58.1893C9.22303 58.1893 9.62873 57.7829 9.62873 57.2816C9.62873 56.7804 9.22303 56.374 8.72257 56.374C8.22211 56.374 7.81641 56.7804 7.81641 57.2816C7.81641 57.7829 8.22211 58.1893 8.72257 58.1893Z" fill="#333D7B"/>
<path d="M9.3544 65.5843C9.85486 65.5843 10.2606 65.1779 10.2606 64.6767C10.2606 64.1754 9.85486 63.769 9.3544 63.769C8.85394 63.769 8.44824 64.1754 8.44824 64.6767C8.44824 65.1779 8.85394 65.5843 9.3544 65.5843Z" fill="#333D7B"/>
<path d="M21.2401 53.7149C21.7406 53.7149 22.1463 53.3086 22.1463 52.8073C22.1463 52.306 21.7406 51.8997 21.2401 51.8997C20.7397 51.8997 20.334 52.306 20.334 52.8073C20.334 53.3086 20.7397 53.7149 21.2401 53.7149Z" fill="#333D7B"/>
<path d="M18.0839 61.1165C18.5844 61.1165 18.9901 60.7102 18.9901 60.2089C18.9901 59.7076 18.5844 59.3013 18.0839 59.3013C17.5834 59.3013 17.1777 59.7076 17.1777 60.2089C17.1777 60.7102 17.5834 61.1165 18.0839 61.1165Z" fill="#333D7B"/>
<path d="M29.9696 49.2408C30.4701 49.2408 30.8758 48.8344 30.8758 48.3332C30.8758 47.8319 30.4701 47.4255 29.9696 47.4255C29.4692 47.4255 29.0635 47.8319 29.0635 48.3332C29.0635 48.8344 29.4692 49.2408 29.9696 49.2408Z" fill="#333D7B"/>
<path d="M30.6015 56.6422C31.1019 56.6422 31.5076 56.2358 31.5076 55.7345C31.5076 55.2333 31.1019 54.8269 30.6015 54.8269C30.101 54.8269 29.6953 55.2333 29.6953 55.7345C29.6953 56.2358 30.101 56.6422 30.6015 56.6422Z" fill="#333D7B"/>
<path d="M27.4462 64.0377C27.9467 64.0377 28.3524 63.6313 28.3524 63.13C28.3524 62.6288 27.9467 62.2224 27.4462 62.2224C26.9457 62.2224 26.54 62.6288 26.54 63.13C26.54 63.6313 26.9457 64.0377 27.4462 64.0377Z" fill="#333D7B"/>
</svg>
