<svg width="100" height="100" viewBox="0 0 100 100" fill="none" xmlns="http://www.w3.org/2000/svg">
<g clip-path="url(#clip0_2431_9788)">
<path d="M41.6655 23.0311C41.6655 23.0311 41.5786 22.7526 41.4975 22.6366C40.4956 21.2732 38.3295 9.86728 22.2285 9.33933C5.42664 8.79398 0.492089 19.7416 -0.000207852 34.7098C-0.492505 49.6779 38.0572 87.0867 39.4241 87.1331C39.5978 87.1331 39.76 86.1236 39.9164 84.3483C39.9975 83.4026 42.5574 82.2423 42.6385 80.908C42.7022 79.8579 40.2813 78.7033 40.3392 77.456C40.3855 76.5161 42.9049 75.5241 42.9455 74.4914C43.0034 73.0874 40.5767 71.608 40.6288 70.0705C40.6925 68.1444 43.2351 66.1313 43.2988 64.0543C43.3625 61.9773 40.9357 59.8771 40.9937 57.7479C41.04 55.9785 43.5594 54.1974 43.5999 52.4279C43.6405 50.6584 41.2022 48.8541 41.2369 47.102C41.2832 44.7988 43.8084 42.5477 43.849 40.4069C43.8895 38.2661 41.4454 36.253 41.4802 34.3907C41.5265 31.8612 44.0401 29.6218 44.0691 27.7942C44.1096 25.3866 41.9145 23.4778 41.6597 23.0253L41.6655 23.0311Z" fill="#858BB0"/>
<path d="M62.0179 25.5374C62.0643 25.3924 62.1627 25.2647 62.3017 25.2183C63.9003 24.673 69.2924 14.0793 84.7505 18.6219C100.88 23.3618 102.149 35.3073 97.944 49.6779C93.7335 64.0485 45.4536 87.516 44.1331 87.1273C43.9651 87.0809 44.1331 86.0656 44.5327 84.3251C44.747 83.4026 47.4575 82.8283 47.7992 81.5345C48.0657 80.5193 45.9517 78.8484 46.2876 77.6475C46.5424 76.7424 49.2298 76.3363 49.5136 75.3384C49.8958 73.9866 47.8861 72.0141 48.3147 70.5347C48.8533 68.684 51.8419 67.3032 52.4326 65.3132C53.0234 63.3233 51.2048 60.759 51.8187 58.7168C52.3284 57.0227 55.2648 55.8682 55.7802 54.1742C56.2957 52.4801 54.396 50.2001 54.9115 48.5292C55.5833 46.3246 58.6645 44.7291 59.2958 42.6812C59.9271 40.6332 58.0969 38.1617 58.6472 36.3806C59.3943 33.9614 62.4813 32.3775 63.0199 30.6312C63.7381 28.328 61.821 26.1698 62.0179 25.5316V25.5374Z" fill="#858BB0"/>
<path d="M25.6927 59.4647L24.5753 59.8668C23.3531 60.3066 22.7182 61.6556 23.1573 62.8798L23.5587 63.9991C23.9977 65.2234 25.3445 65.8594 26.5666 65.4196L27.684 65.0175C28.9062 64.5777 29.5411 63.2287 29.102 62.0044L28.7006 60.8851C28.2616 59.6608 26.9149 59.0249 25.6927 59.4647Z" fill="#7077A3"/>
<path d="M84.794 31.0093L82.5537 31.8155C80.0792 32.7059 78.7939 35.4371 79.6828 37.9158L80.4875 40.1599C81.3765 42.6386 84.1031 43.9262 86.5776 43.0357L88.8178 42.2296C91.2923 41.3392 92.5776 38.6079 91.6887 36.1292L90.884 33.8851C89.995 31.4064 87.2684 30.1189 84.794 31.0093Z" fill="#7077A3"/>
<path d="M92.3145 37.75L89.5635 42.1592" stroke="#333D7B" stroke-miterlimit="10" stroke-linecap="round"/>
<path d="M90.9645 33.7236L88.0049 38.9277" stroke="#333D7B" stroke-miterlimit="10" stroke-linecap="round"/>
<path d="M89.3378 31.3855L85.6543 37.8485" stroke="#333D7B" stroke-miterlimit="10" stroke-linecap="round"/>
<path d="M88.8224 28.8328L84.9014 35.7193" stroke="#333D7B" stroke-miterlimit="10" stroke-linecap="round"/>
<path d="M29.4051 62.4473L28.0498 64.6171" stroke="#333D7B" stroke-width="0.49" stroke-miterlimit="10" stroke-linecap="round"/>
<path d="M29.2017 60.5618L27.7422 63.1203" stroke="#333D7B" stroke-width="0.49" stroke-miterlimit="10" stroke-linecap="round"/>
<path d="M27.2791 58.8503L25.5879 62.0992" stroke="#333D7B" stroke-width="0.49" stroke-miterlimit="10" stroke-linecap="round"/>
<path d="M28.5302 59.0535L26.6016 62.4474" stroke="#333D7B" stroke-width="0.49" stroke-miterlimit="10" stroke-linecap="round"/>
</g>
<defs>
<clipPath id="clip0_2431_9788">
<rect width="100" height="81.3559" fill="white" transform="translate(0 9.32202)"/>
</clipPath>
</defs>
</svg>
