<svg width="150" height="150" viewBox="0 0 150 150" fill="none" xmlns="http://www.w3.org/2000/svg">
<path d="M112.921 62.9606L104.059 53.2706C103.021 52.1351 101.017 52.2954 99.5841 53.6287L36.3293 112.484C34.8964 113.817 34.5766 115.818 35.615 116.954L44.4768 126.644C45.5152 127.779 47.5187 127.619 48.9516 126.286L112.206 67.4307C113.639 66.0974 113.959 64.0961 112.921 62.9606Z" fill="#333D7B" stroke="#333D7B" stroke-width="1.5" stroke-linecap="round" stroke-linejoin="round"/>
<path d="M118.147 53.8645L113.793 49.1029C112.707 47.9152 110.665 48.0332 109.232 49.3665L105.257 53.0649C103.824 54.3982 103.543 56.4418 104.629 57.6295L108.983 62.3911C110.07 63.5788 112.112 63.4608 113.545 62.1275L117.52 58.4291C118.953 57.0958 119.234 55.0522 118.147 53.8645Z" fill="#333D7B" stroke="#333D7B" stroke-width="1.5" stroke-linecap="round" stroke-linejoin="round"/>
<path d="M126.554 67.9533L101.154 40.6769C100.505 39.9793 100.208 39.0217 100.367 38.0779L101.486 31.2451C101.714 29.8361 102.887 28.7623 104.323 28.6529L111.289 28.0989C112.249 28.0236 113.188 28.3861 113.837 29.0906L139.236 56.367C140.41 57.6255 140.327 59.5884 139.057 60.7512L130.972 68.1379C129.702 69.3007 127.72 69.2186 126.547 67.9601L126.554 67.9533Z" fill="#333D7B" stroke="#333D7B" stroke-width="1.5" stroke-linecap="round" stroke-linejoin="round"/>
<path d="M55.1605 46.1186L45.7666 54.8591C44.6658 55.8833 44.845 57.8853 46.1668 59.3307L105.953 124.705C107.275 126.15 109.239 126.492 110.34 125.467L119.734 116.727C120.835 115.703 120.655 113.701 119.334 112.255L59.5471 46.8811C58.2253 45.4357 56.2613 45.0944 55.1605 46.1186Z" fill="#858BB0" stroke="#858BB0" stroke-width="1.5" stroke-linecap="round" stroke-linejoin="round"/>
<path d="M62.1424 41.8684C62.1424 53.3607 52.9349 62.6718 41.5703 62.6718C30.2058 62.6718 20.9982 53.3607 20.9982 41.8684C20.9982 39.6052 20.2626 34.2026 22.0019 35.413C27.5751 39.2774 32.6371 44.3648 35.5109 42.3286C39.7001 39.3531 38.4534 40.6139 42.7236 35.7787C45.1237 33.0616 39.1827 27.6023 34.713 22.3321C33.2542 20.6111 39.2014 21.0713 41.5703 21.0713C52.9349 21.0713 62.1424 30.3824 62.1424 41.8747V41.8684Z" fill="#858BB0" stroke="#858BB0" stroke-width="1.5" stroke-linecap="round" stroke-linejoin="round"/>
</svg>
