<svg width="100" height="100" viewBox="0 0 100 100" fill="none" xmlns="http://www.w3.org/2000/svg">
<path d="M75.2795 41.9737L69.3717 35.5137C68.6794 34.7567 67.3437 34.8636 66.3885 35.7525L24.2186 74.9891C23.2633 75.8779 23.0501 77.2121 23.7424 77.9691L29.6502 84.4291C30.3425 85.1861 31.6782 85.0793 32.6334 84.1904L74.8033 44.9538C75.7586 44.065 75.9718 42.7307 75.2795 41.9737Z" fill="#333D7B" stroke="#333D7B" stroke-width="1.5" stroke-linecap="round" stroke-linejoin="round"/>
<path d="M78.765 35.9096L75.8619 32.7352C75.1378 31.9434 73.7764 32.0221 72.8211 32.9109L70.1711 35.3765C69.2158 36.2654 69.0284 37.6278 69.7526 38.4196L72.6556 41.594C73.3797 42.3858 74.7412 42.3071 75.6965 41.4183L78.3464 38.9527C79.3017 38.0638 79.4891 36.7014 78.765 35.9096Z" fill="#333D7B" stroke="#333D7B" stroke-width="1.5" stroke-linecap="round" stroke-linejoin="round"/>
<path d="M84.3685 45.3022L67.4356 27.1179C67.0029 26.6528 66.805 26.0145 66.9109 25.3852L67.6565 20.8301C67.8084 19.8908 68.5908 19.1749 69.5481 19.1019L74.1921 18.7326C74.8319 18.6824 75.4579 18.9241 75.8905 19.3937L92.8234 37.578C93.6058 38.417 93.5506 39.7256 92.7037 40.5008L87.3141 45.4253C86.4672 46.2005 85.1463 46.1457 84.3639 45.3067L84.3685 45.3022Z" fill="#333D7B" stroke="#333D7B" stroke-width="1.5" stroke-linecap="round" stroke-linejoin="round"/>
<path d="M36.774 30.7457L30.5114 36.5727C29.7775 37.2555 29.897 38.5902 30.7782 39.5538L70.6359 83.1366C71.5171 84.1001 72.8264 84.3277 73.5602 83.6449L79.8228 77.8179C80.5567 77.1351 80.4373 75.8004 79.5561 74.8369L39.6984 31.2541C38.8172 30.2905 37.5079 30.0629 36.774 30.7457Z" fill="#858BB0" stroke="#858BB0" stroke-width="1.5" stroke-linecap="round" stroke-linejoin="round"/>
<path d="M41.4289 27.9123C41.4289 35.5738 35.2906 41.7812 27.7142 41.7812C20.1379 41.7812 13.9995 35.5738 13.9995 27.9123C13.9995 26.4035 13.5091 22.8018 14.6686 23.6087C18.384 26.185 21.7587 29.5765 23.6746 28.2191C26.4674 26.2354 25.6362 27.0759 28.4831 23.8524C30.0831 22.0411 26.1225 18.4015 23.1426 14.888C22.1701 13.7407 26.1349 14.0475 27.7142 14.0475C35.2906 14.0475 41.4289 20.2549 41.4289 27.9165V27.9123Z" fill="#858BB0" stroke="#858BB0" stroke-width="1.5" stroke-linecap="round" stroke-linejoin="round"/>
</svg>
