<svg width="100" height="100" viewBox="0 0 100 100" fill="none" xmlns="http://www.w3.org/2000/svg">
<path d="M41.5031 64.5152C41.482 67.0717 41.5454 70.1415 41.4662 72.608C41.4292 73.1744 41.3816 73.7672 41.1175 74.2541C40.7108 75.0057 39.7917 75.0798 39.0047 75.138C37.1823 75.2439 34.4461 75.0798 32.5393 75.2492C29.9299 75.318 30.2943 78.5573 30.4264 80.4045C30.6377 82.3417 31.7152 82.5904 33.6802 82.6222C35.4128 82.6645 37.9958 82.5693 39.6491 82.6963C40.79 82.7492 41.4133 83.2309 41.4398 84.3371C41.5718 87.9574 41.2654 94.6794 41.4345 98.2945C41.6035 100.517 44.6408 99.9194 46.4895 99.9459C48.2643 99.8929 48.8612 99.1255 48.819 97.347C48.8718 94.2242 48.8876 87.7563 48.9457 84.914C48.9405 83.5008 49.3578 82.7281 50.9266 82.6857C52.4954 82.5799 54.9041 82.6645 56.5362 82.6169C58.4273 82.5851 59.5101 82.3099 59.7214 80.4045C59.8535 78.5784 60.2179 75.3815 57.6666 75.2598C55.7545 75.0639 52.9496 75.2598 51.2012 75.1222C50.43 75.0586 49.5479 74.9316 49.231 74.143C48.9933 73.5713 48.988 72.8833 48.9669 72.2375C48.9405 69.2576 48.9669 65.6638 48.9563 62.6521L41.519 64.5099L41.5031 64.5152Z" fill="#858BB0"/>
<path d="M60.3701 21.0869C63.3598 17.4454 67.5961 12.9623 70.5066 9.08261C71.7744 7.16129 69.4502 5.71104 68.4783 4.30842C67.6014 2.97461 69.3657 2.44003 70.3535 2.14362C73.1477 1.43967 75.7254 0.32816 78.5461 0C80.453 0.0423432 80.4847 2.41885 80.8069 3.83735C81.24 6.23503 81.8158 8.89736 82.1591 11.2527C82.2331 11.909 82.418 12.9994 81.5887 13.1317C79.6237 12.9941 77.6217 10.5117 75.6937 11.0516C74.6584 11.3374 73.9929 12.343 73.322 13.1423C70.0735 17.1702 65.5519 22.8071 62.8158 26.1893L60.3754 21.0922L60.3701 21.0869Z" fill="#858BB0"/>
<path d="M45.0732 12.364C29.9925 12.364 17.7695 24.6118 17.7695 39.723C17.7695 54.8342 29.9925 67.082 45.0732 67.082C60.1538 67.082 72.3768 54.8342 72.3768 39.723C72.3768 24.6118 60.1538 12.364 45.0732 12.364ZM45.0732 58.3593C34.7993 58.3593 26.4746 50.0177 26.4746 39.723C26.4746 29.4283 34.7993 21.0867 45.0732 21.0867C55.347 21.0867 63.6717 29.4283 63.6717 39.723C63.6717 50.0177 55.347 58.3593 45.0732 58.3593Z" fill="#333D7B"/>
</svg>
