<svg width="150" height="150" viewBox="0 0 150 150" fill="none" xmlns="http://www.w3.org/2000/svg">
<path d="M62.2542 96.7727C62.2225 100.607 62.3176 105.212 62.1988 108.912C62.1433 109.761 62.072 110.651 61.6758 111.381C61.0657 112.508 59.6871 112.62 58.5065 112.707C55.773 112.866 51.6687 112.62 48.8084 112.874C44.8943 112.977 45.441 117.836 45.6391 120.607C45.956 123.512 47.5724 123.886 50.5198 123.933C53.1187 123.997 56.9932 123.854 59.4731 124.044C61.1846 124.124 62.1195 124.846 62.1591 126.506C62.3572 131.936 61.8977 142.019 62.1512 147.442C62.4048 150.776 66.9606 149.879 69.7338 149.919C72.396 149.839 73.2914 148.688 73.228 146.02C73.3072 141.336 73.331 131.634 73.4181 127.371C73.4102 125.251 74.0361 124.092 76.3894 124.028C78.7426 123.87 82.3556 123.997 84.8039 123.925C87.6404 123.878 89.2647 123.465 89.5816 120.607C89.7797 117.868 90.3264 113.072 86.4995 112.89C83.6312 112.596 79.424 112.89 76.8014 112.683C75.6446 112.588 74.3214 112.397 73.846 111.214C73.4894 110.357 73.4815 109.325 73.4498 108.356C73.4102 103.886 73.4498 98.4955 73.434 93.978L62.278 96.7647L62.2542 96.7727Z" fill="#858BB0"/>
<path d="M90.5557 31.6304C95.0402 26.1681 101.395 19.4435 105.76 13.6239C107.662 10.7419 104.176 8.56656 102.718 6.46263C101.403 4.46191 104.049 3.66004 105.531 3.21544C109.722 2.1595 113.589 0.492239 117.82 0C120.68 0.0635148 120.728 3.62828 121.211 5.75603C121.861 9.35255 122.724 13.346 123.239 16.8791C123.35 17.8635 123.627 19.499 122.383 19.6975C119.436 19.4911 116.433 15.7675 113.541 16.5774C111.988 17.0061 110.99 18.5146 109.984 19.7134C105.111 25.7552 98.3284 34.2106 94.2241 39.2839L90.5636 31.6383L90.5557 31.6304Z" fill="#858BB0"/>
<path d="M67.6097 18.5459C44.9888 18.5459 26.6543 36.9175 26.6543 59.5844C26.6543 82.2512 44.9888 100.623 67.6097 100.623C90.2307 100.623 108.565 82.2512 108.565 59.5844C108.565 36.9175 90.2307 18.5459 67.6097 18.5459ZM67.6097 87.5388C52.199 87.5388 39.7119 75.0264 39.7119 59.5844C39.7119 44.1423 52.199 31.6299 67.6097 31.6299C83.0205 31.6299 95.5076 44.1423 95.5076 59.5844C95.5076 75.0264 83.0205 87.5388 67.6097 87.5388Z" fill="#333D7B"/>
</svg>
