<svg width="100" height="100" viewBox="0 0 100 100" fill="none" xmlns="http://www.w3.org/2000/svg">
<g clip-path="url(#clip0_2431_9726)">
<path d="M45.5845 9.88037H20.6494" stroke="#333D7B" stroke-width="1.5" stroke-linecap="round" stroke-linejoin="round"/>
<path d="M79.8706 9.88037H54.9355" stroke="#333D7B" stroke-width="1.5" stroke-linecap="round" stroke-linejoin="round"/>
<path d="M50.2603 14.5696C52.8424 14.5696 54.9356 12.4701 54.9356 9.88025C54.9356 7.29041 52.8424 5.19092 50.2603 5.19092C47.6782 5.19092 45.585 7.29041 45.585 9.88025C45.585 12.4701 47.6782 14.5696 50.2603 14.5696Z" fill="#858BB0" stroke="#858BB0" stroke-width="1.5" stroke-linecap="round" stroke-linejoin="round"/>
<path d="M20.3903 13.0066C21.9683 13.0066 23.2475 11.7235 23.2475 10.1409C23.2475 8.55817 21.9683 7.27515 20.3903 7.27515C18.8124 7.27515 17.5332 8.55817 17.5332 10.1409C17.5332 11.7235 18.8124 13.0066 20.3903 13.0066Z" fill="#333D7B" stroke="#333D7B" stroke-width="1.5" stroke-linecap="round" stroke-linejoin="round"/>
<path d="M79.611 13.0066C81.189 13.0066 82.4682 11.7235 82.4682 10.1409C82.4682 8.55817 81.189 7.27515 79.611 7.27515C78.0331 7.27515 76.7539 8.55817 76.7539 10.1409C76.7539 11.7235 78.0331 13.0066 79.611 13.0066Z" fill="#333D7B" stroke="#333D7B" stroke-width="1.5" stroke-linecap="round" stroke-linejoin="round"/>
<path d="M4.62884 40.6216C3.69897 40.6216 2.98209 41.4344 3.07559 42.3618C3.94313 51.0423 11.2522 57.8158 20.1301 57.8158C29.0081 57.8158 36.3171 51.0423 37.1847 42.3618C37.2782 41.4344 36.5613 40.6216 35.6314 40.6216H4.62884Z" fill="#858BB0" stroke="#858BB0" stroke-width="1.5" stroke-linecap="round" stroke-linejoin="round"/>
<path d="M64.9613 41.1426C63.7146 41.1426 62.7172 42.2368 62.8834 43.4768C64.0211 51.8707 71.1899 58.3368 79.8704 58.3368C88.5509 58.3368 95.6678 51.9176 96.8418 43.5706C97.0237 42.2941 96.0626 41.1426 94.7743 41.1426H64.9613Z" fill="#858BB0" stroke="#858BB0" stroke-width="1.5" stroke-linecap="round" stroke-linejoin="round"/>
<path d="M22.208 12.6497L35.195 42.3488" stroke="#333D7B" stroke-width="1.5" stroke-linecap="round" stroke-linejoin="round"/>
<path d="M18.572 12.6497L6.10449 40.7857" stroke="#333D7B" stroke-width="1.5" stroke-linecap="round" stroke-linejoin="round"/>
<path d="M78.3123 13.0066L65.8447 41.1426" stroke="#333D7B" stroke-width="1.5" stroke-linecap="round" stroke-linejoin="round"/>
<path d="M81.4287 12.4854L94.4157 41.1424" stroke="#333D7B" stroke-width="1.5" stroke-linecap="round" stroke-linejoin="round"/>
<path d="M50.2598 13.1707V79.8635" stroke="#333D7B" stroke-width="1.5" stroke-linecap="round" stroke-linejoin="round"/>
<path d="M75.6003 78.136H25.4393C24.2286 78.136 23.2471 79.1204 23.2471 80.3348V87.9211C23.2471 89.1354 24.2286 90.1198 25.4393 90.1198H75.6003C76.811 90.1198 77.7925 89.1354 77.7925 87.9211V80.3348C77.7925 79.1204 76.811 78.136 75.6003 78.136Z" fill="#858BB0" stroke="#858BB0" stroke-width="1.5" stroke-linecap="round" stroke-linejoin="round"/>
</g>
<defs>
<clipPath id="clip0_2431_9726">
<rect width="100" height="90.4" fill="white" transform="translate(0 4.80005)"/>
</clipPath>
</defs>
</svg>
