<svg width="150" height="150" viewBox="0 0 150 150" fill="none" xmlns="http://www.w3.org/2000/svg">
<path d="M141.394 57.1113C142.141 34.0627 134.847 13.7754 107.471 12.8837C80.0944 11.9921 76.2655 32.9026 73.9682 32.8259C71.6709 32.7492 69.6034 11.6469 41.8346 10.7361C14.0659 9.83486 5.91999 27.9267 5.10636 52.6627C4.29273 77.3986 68.0048 139.219 70.2638 139.296C72.5324 139.373 140.638 80.1599 141.385 57.1113H141.394Z" fill="#F489AC"/>
<path d="M122.993 53.7236L23.0612 62.287C10.3248 63.3784 0.883335 74.6047 1.97298 87.3616C3.06263 100.119 14.2708 109.575 27.0071 108.484L126.939 99.9204C139.675 98.829 149.117 87.6028 148.027 74.8458C146.937 62.0889 135.729 52.6322 122.993 53.7236Z" fill="#FDF1DC"/>
<path d="M71.6725 65.1305L64.2906 65.7631C56.2843 66.4492 50.3492 73.5062 51.0342 81.5255L51.2284 83.799C51.9134 91.8182 58.959 97.7629 66.9653 97.0769L74.3472 96.4443C82.3535 95.7582 88.2886 88.7012 87.6036 80.6819L87.4094 78.4084C86.7244 70.3891 79.6788 64.4445 71.6725 65.1305Z" fill="#333D7B" stroke="#333D7B" stroke-width="1.17" stroke-miterlimit="10"/>
<path d="M96.9266 68.9326C97.6773 68.9326 98.2859 68.3231 98.2859 67.5712C98.2859 66.8193 97.6773 66.2097 96.9266 66.2097C96.1759 66.2097 95.5674 66.8193 95.5674 67.5712C95.5674 68.3231 96.1759 68.9326 96.9266 68.9326Z" fill="#333D7B"/>
<path d="M97.8729 80.0259C98.6236 80.0259 99.2322 79.4163 99.2322 78.6644C99.2322 77.9125 98.6236 77.303 97.8729 77.303C97.1222 77.303 96.5137 77.9125 96.5137 78.6644C96.5137 79.4163 97.1222 80.0259 97.8729 80.0259Z" fill="#333D7B"/>
<path d="M98.8212 91.1189C99.5718 91.1189 100.18 90.5093 100.18 89.7574C100.18 89.0055 99.5718 88.396 98.8212 88.396C98.0705 88.396 97.4619 89.0055 97.4619 89.7574C97.4619 90.5093 98.0705 91.1189 98.8212 91.1189Z" fill="#333D7B"/>
<path d="M110.959 73.3147C111.71 73.3147 112.318 72.7051 112.318 71.9532C112.318 71.2013 111.71 70.5918 110.959 70.5918C110.208 70.5918 109.6 71.2013 109.6 71.9532C109.6 72.7051 110.208 73.3147 110.959 73.3147Z" fill="#333D7B"/>
<path d="M111.906 84.4172C112.657 84.4172 113.265 83.8077 113.265 83.0558C113.265 82.3039 112.657 81.6943 111.906 81.6943C111.155 81.6943 110.547 82.3039 110.547 83.0558C110.547 83.8077 111.155 84.4172 111.906 84.4172Z" fill="#333D7B"/>
<path d="M124.054 66.6032C124.804 66.6032 125.413 65.9937 125.413 65.2418C125.413 64.4899 124.804 63.8804 124.054 63.8804C123.303 63.8804 122.694 64.4899 122.694 65.2418C122.694 65.9937 123.303 66.6032 124.054 66.6032Z" fill="#333D7B"/>
<path d="M125.002 77.7055C125.753 77.7055 126.361 77.096 126.361 76.3441C126.361 75.5922 125.753 74.9827 125.002 74.9827C124.251 74.9827 123.643 75.5922 123.643 76.3441C123.643 77.096 124.251 77.7055 125.002 77.7055Z" fill="#333D7B"/>
<path d="M125.949 88.7986C126.7 88.7986 127.308 88.189 127.308 87.4371C127.308 86.6852 126.7 86.0757 125.949 86.0757C125.198 86.0757 124.59 86.6852 124.59 87.4371C124.59 88.189 125.198 88.7986 125.949 88.7986Z" fill="#333D7B"/>
<path d="M12.1366 76.1909C12.8873 76.1909 13.4958 75.5814 13.4958 74.8295C13.4958 74.0776 12.8873 73.468 12.1366 73.468C11.3859 73.468 10.7773 74.0776 10.7773 74.8295C10.7773 75.5814 11.3859 76.1909 12.1366 76.1909Z" fill="#333D7B"/>
<path d="M13.0839 87.2839C13.8345 87.2839 14.4431 86.6744 14.4431 85.9225C14.4431 85.1706 13.8345 84.561 13.0839 84.561C12.3332 84.561 11.7246 85.1706 11.7246 85.9225C11.7246 86.6744 12.3332 87.2839 13.0839 87.2839Z" fill="#333D7B"/>
<path d="M14.0311 98.3762C14.7818 98.3762 15.3904 97.7667 15.3904 97.0148C15.3904 96.2629 14.7818 95.6533 14.0311 95.6533C13.2804 95.6533 12.6719 96.2629 12.6719 97.0148C12.6719 97.7667 13.2804 98.3762 14.0311 98.3762Z" fill="#333D7B"/>
<path d="M31.8602 80.5722C32.6109 80.5722 33.2195 79.9627 33.2195 79.2108C33.2195 78.4589 32.6109 77.8494 31.8602 77.8494C31.1095 77.8494 30.501 78.4589 30.501 79.2108C30.501 79.9627 31.1095 80.5722 31.8602 80.5722Z" fill="#333D7B"/>
<path d="M27.1258 91.6745C27.8765 91.6745 28.4851 91.065 28.4851 90.3131C28.4851 89.5612 27.8765 88.9517 27.1258 88.9517C26.3752 88.9517 25.7666 89.5612 25.7666 90.3131C25.7666 91.065 26.3752 91.6745 27.1258 91.6745Z" fill="#333D7B"/>
<path d="M44.9549 73.8611C45.7056 73.8611 46.3142 73.2515 46.3142 72.4996C46.3142 71.7477 45.7056 71.1382 44.9549 71.1382C44.2043 71.1382 43.5957 71.7477 43.5957 72.4996C43.5957 73.2515 44.2043 73.8611 44.9549 73.8611Z" fill="#333D7B"/>
<path d="M45.9022 84.9631C46.6529 84.9631 47.2615 84.3536 47.2615 83.6017C47.2615 82.8498 46.6529 82.2402 45.9022 82.2402C45.1515 82.2402 44.543 82.8498 44.543 83.6017C44.543 84.3536 45.1515 84.9631 45.9022 84.9631Z" fill="#333D7B"/>
<path d="M41.1688 96.0564C41.9195 96.0564 42.5281 95.4468 42.5281 94.6949C42.5281 93.943 41.9195 93.3335 41.1688 93.3335C40.4181 93.3335 39.8096 93.943 39.8096 94.6949C39.8096 95.4468 40.4181 96.0564 41.1688 96.0564Z" fill="#333D7B"/>
</svg>
