<svg width="150" height="150" viewBox="0 0 150 150" fill="none" xmlns="http://www.w3.org/2000/svg">
<g clip-path="url(#clip0_2404_7611)">
<path d="M62.4987 34.5469C62.4987 34.5469 62.3684 34.1292 62.2468 33.9552C60.7438 31.9101 57.4947 14.8012 33.3432 14.0092C8.14045 13.1912 0.738622 29.6127 0.000176504 52.0649C-0.738269 74.5171 57.0864 130.63 59.1366 130.7C59.3973 130.7 59.6405 129.186 59.8751 126.523C59.9967 125.104 63.8366 123.364 63.9583 121.362C64.0538 119.787 60.4224 118.055 60.5093 116.184C60.5788 114.774 64.3579 113.286 64.4187 111.737C64.5056 109.631 60.8655 107.412 60.9437 105.106C61.0392 102.217 64.8531 99.1971 64.9486 96.0817C65.0442 92.9662 61.4041 89.8159 61.491 86.6222C61.5605 83.9679 65.3396 81.2963 65.4004 78.642C65.4612 75.9878 61.8037 73.2814 61.8559 70.6532C61.9254 67.1984 65.7131 63.8218 65.774 60.6107C65.8348 57.3995 62.1686 54.3797 62.2207 51.5863C62.2902 47.792 66.0606 44.4329 66.1041 41.6916C66.1649 38.0801 62.8723 35.217 62.49 34.5382L62.4987 34.5469Z" fill="#858BB0"/>
<path d="M93.0269 38.3064C93.0964 38.0888 93.2441 37.8974 93.4526 37.8277C95.8504 37.0097 103.939 21.1191 127.126 27.9331C151.321 35.043 153.223 52.9612 146.916 74.5171C140.6 96.073 68.1804 131.274 66.1996 130.691C65.9477 130.622 66.1996 129.099 66.7991 126.488C67.1205 125.104 71.1863 124.243 71.6989 122.302C72.0985 120.779 68.9275 118.273 69.4314 116.471C69.8137 115.114 73.8447 114.505 74.2704 113.008C74.8438 110.98 71.8292 108.021 72.4721 105.802C73.28 103.026 77.7628 100.955 78.6489 97.9701C79.5351 94.9852 76.8072 91.1387 77.7281 88.0755C78.4926 85.5344 82.8972 83.8026 83.6704 81.2615C84.4436 78.7204 81.594 75.3003 82.3672 72.794C83.375 69.4871 87.9968 67.094 88.9437 64.022C89.8907 60.9501 87.1454 57.2428 87.9707 54.5712C89.0914 50.9423 93.7219 48.5665 94.5299 45.9471C95.6071 42.4922 92.7315 39.2549 93.0269 38.2977V38.3064Z" fill="#858BB0"/>
<path d="M38.5385 89.197L36.8624 89.8001C35.0291 90.4598 34.0769 92.4833 34.7354 94.3198L35.3375 95.9987C35.9961 97.8351 38.0162 98.789 39.8495 98.1293L41.5256 97.5262C43.3589 96.8665 44.3112 94.843 43.6526 93.0066L43.0505 91.3276C42.3919 89.4912 40.3718 88.5373 38.5385 89.197Z" fill="#7077A3"/>
<path d="M127.191 46.514L123.831 47.7232C120.119 49.0588 118.191 53.1557 119.525 56.8738L120.732 60.2399C122.065 63.9579 126.155 65.8893 129.867 64.5536L133.227 63.3444C136.939 62.0087 138.867 57.9119 137.534 54.1938L136.326 50.8277C134.993 47.1096 130.903 45.1783 127.191 46.514Z" fill="#7077A3"/>
<path d="M138.471 56.625L134.345 63.2388" stroke="#333D7B" stroke-miterlimit="10" stroke-linecap="round"/>
<path d="M136.447 50.5854L132.008 58.3915" stroke="#333D7B" stroke-miterlimit="10" stroke-linecap="round"/>
<path d="M134.006 47.0784L128.48 56.7729" stroke="#333D7B" stroke-miterlimit="10" stroke-linecap="round"/>
<path d="M133.233 43.2493L127.352 53.579" stroke="#333D7B" stroke-miterlimit="10" stroke-linecap="round"/>
<path d="M44.1071 93.6711L42.0742 96.9258" stroke="#333D7B" stroke-width="0.49" stroke-miterlimit="10" stroke-linecap="round"/>
<path d="M43.8026 90.8428L41.6133 94.6805" stroke="#333D7B" stroke-width="0.49" stroke-miterlimit="10" stroke-linecap="round"/>
<path d="M40.9186 88.2756L38.3818 93.149" stroke="#333D7B" stroke-width="0.49" stroke-miterlimit="10" stroke-linecap="round"/>
<path d="M42.7953 88.5803L39.9023 93.6712" stroke="#333D7B" stroke-width="0.49" stroke-miterlimit="10" stroke-linecap="round"/>
</g>
<defs>
<clipPath id="clip0_2404_7611">
<rect width="150" height="122.034" fill="white" transform="translate(0 13.9832)"/>
</clipPath>
</defs>
</svg>
