<svg width="180" height="200" viewBox="0 0 180 200" fill="none" xmlns="http://www.w3.org/2000/svg">
<path opacity="0.12" d="M150.686 38.3671C152.232 39.2707 153.813 40.0829 155.447 40.6369C157.901 41.476 162.895 45.9243 163.611 68.1332C164.569 97.7434 151.31 89.6484 157.326 105.661C163.342 121.674 187.256 132.146 177.824 149.928C168.392 167.711 165.522 194.744 158.69 196.573C151.857 198.402 14.2398 206.804 23.6678 187.806C33.0958 168.808 50.0445 150.843 31.8685 140.736C13.6926 130.629 -11.316 139.945 5.62867 112.18C22.5733 84.4148 46.765 91.7192 40.8861 66.1485C35.0072 40.5778 -3.65849 14.9963 55.3762 20.843C114.411 26.6898 109.494 48.4254 117.968 35.0914C124.607 24.6404 143.029 33.8812 150.686 38.3725V38.3671Z" fill="#333D7B"/>
<path d="M89.7066 200C139.25 200 179.413 197.573 179.413 194.579C179.413 191.585 139.25 189.158 89.7066 189.158C40.163 189.158 0 191.585 0 194.579C0 197.573 40.163 200 89.7066 200Z" fill="#F9CDAB"/>
<path d="M82.5086 44.2006L87.6231 57.989C88.0939 59.2503 89.5758 59.7977 90.7474 59.1268L103.502 51.865C108.135 49.2244 113.549 53.7811 111.762 58.8209L106.845 72.6844C106.396 73.9564 107.188 75.3304 108.509 75.572L122.932 78.2341C128.175 79.2002 129.4 86.1829 124.805 88.888L112.158 96.3377C110.997 97.0193 110.724 98.5812 111.58 99.6224L120.926 110.963C124.323 115.085 120.787 121.225 115.533 120.334L101.073 117.887C99.7459 117.662 98.5369 118.681 98.5262 120.029L98.4192 134.74C98.3817 140.086 91.7425 142.512 88.2865 138.438L78.7798 127.237C77.9078 126.212 76.3296 126.212 75.4575 127.237L65.9508 138.438C62.4948 142.506 55.8556 140.086 55.8182 134.74L55.7112 120.029C55.7005 118.681 54.4914 117.662 53.1646 117.887L38.7039 120.334C33.4504 121.225 29.9141 115.085 33.3113 110.963L42.6575 99.6224C43.5135 98.5812 43.2406 97.0193 42.0797 96.3377L29.4326 88.888C24.8371 86.1829 26.0622 79.2002 31.3051 78.2341L45.7283 75.572C47.0497 75.3304 47.8415 73.9564 47.3921 72.6844L42.4756 58.8209C40.6887 53.7811 46.1028 49.2244 50.7358 51.865L63.4899 59.1268C64.6615 59.7924 66.1434 59.2503 66.6142 57.989L71.7287 44.2006C73.5904 39.1877 80.6522 39.1877 82.514 44.2006H82.5086Z" fill="#858BB0"/>
<path d="M59.9848 89.2262C59.6478 87.938 60.782 86.7411 62.082 87.0149C65.1956 87.6697 70.155 89.1295 70.7167 91.8722C71.2784 94.6148 68.5072 95.962 66.6722 96.5524C65.7146 96.8583 64.6606 96.6168 63.9384 95.9137C62.6972 94.7168 60.8355 92.4787 59.9902 89.2262H59.9848Z" fill="#333D7B"/>
<path d="M91.7422 89.2262C92.0792 87.938 90.945 86.7411 89.645 87.0149C86.5314 87.6697 81.5721 89.1295 81.0103 91.8722C80.4486 94.6148 83.2198 95.962 85.0548 96.5524C86.0124 96.8583 87.0664 96.6168 87.7886 95.9137C89.0298 94.7168 90.8915 92.4787 91.7368 89.2262H91.7422Z" fill="#333D7B"/>
<path d="M81.978 104.764C82.0582 103.621 81.0899 102.687 79.9558 102.838C77.3611 103.186 72.6478 103.61 70.1655 102.553C66.6239 101.05 73.4343 109.117 78.3401 108.57C81.1381 108.258 81.8657 106.348 81.9727 104.764H81.978Z" stroke="#333D7B" stroke-miterlimit="10"/>
<path d="M81.106 106.954C81.106 106.954 69.149 102.939 69.2506 102.558C69.3523 102.177 72.8886 103.981 80.6833 102.875C81.7051 103.578 82.6253 104.539 81.106 106.954Z" fill="#333D7B"/>
<path d="M131.893 169.89C131.893 169.89 129.994 175.44 133.476 172.112" stroke="#333D7B" stroke-width="0.98" stroke-miterlimit="10"/>
<path d="M151.029 124.891L162.312 150.278C162.36 150.391 162.424 150.493 162.494 150.595L178.768 173.094C179.651 174.318 178.677 176.014 177.179 175.858L149.622 172.971C149.499 172.96 149.381 172.96 149.258 172.971L121.701 175.858C120.203 176.014 119.224 174.318 120.112 173.094L136.387 150.595C136.456 150.498 136.52 150.391 136.568 150.278L147.851 124.891C148.466 123.512 150.419 123.512 151.034 124.891H151.029Z" fill="#F9CDAB"/>
<path d="M161.242 192.223C161.601 193.812 154.443 193.216 154.443 193.216L153.03 171.532" stroke="#333D7B" stroke-width="1.02" stroke-miterlimit="10" stroke-linecap="round"/>
<path d="M156.074 172.171C156.074 172.171 155.924 187.564 156.695 189.765C156.754 189.936 156.952 190.022 157.107 189.931C158.011 189.416 160.921 189.126 161.242 192.223" stroke="#333D7B" stroke-width="1.02" stroke-miterlimit="10" stroke-linecap="round"/>
<path d="M137.878 192.223C137.52 193.812 144.678 193.216 144.678 193.216L146.112 171.532" stroke="#333D7B" stroke-width="1.02" stroke-miterlimit="10" stroke-linecap="round"/>
<path d="M143.068 172.171C143.068 172.171 143.197 187.489 142.448 189.706C142.378 189.91 142.148 190.001 141.956 189.904C140.993 189.41 138.189 189.19 137.879 192.228" stroke="#333D7B" stroke-width="1.02" stroke-miterlimit="10" stroke-linecap="round"/>
<path d="M155.833 159.107C155.833 159.107 155.817 160.637 157.144 160.943" stroke="#333D7B" stroke-width="1.84" stroke-miterlimit="10" stroke-linecap="round"/>
<path d="M143.668 159.107C143.668 159.107 143.352 160.605 141.993 160.615" stroke="#333D7B" stroke-width="1.84" stroke-miterlimit="10" stroke-linecap="round"/>
<path d="M145.401 160.685C145.401 160.685 142.988 161.061 142.833 161.941C142.678 162.821 142.362 162.413 142.02 162.886C141.677 163.358 141.613 164.05 142.02 164.646C142.426 165.242 142.02 165.967 142.02 165.967C142.02 165.967 141.704 166.659 142.581 166.782C143.459 166.906 143.084 167.539 143.571 167.598C144.058 167.663 144.876 167.346 144.903 166.718C144.903 166.718 144.962 166.353 145.406 166.09C146.171 165.639 145.797 165.51 145.722 164.893C145.658 164.362 145.888 164.587 146.284 163.889C146.856 162.891 145.909 163.041 145.909 162.569C145.909 162.097 146.316 162.317 146.38 161.437C146.444 160.556 145.406 160.68 145.406 160.68L145.401 160.685Z" fill="#333D7B"/>
<path d="M153.057 160.497C153.057 160.497 155.47 160.873 155.625 161.753C155.78 162.634 156.096 162.226 156.438 162.698C156.78 163.17 156.845 163.863 156.438 164.458C156.031 165.054 156.438 165.779 156.438 165.779C156.438 165.779 156.754 166.471 155.876 166.595C154.999 166.718 155.373 167.351 154.886 167.41C154.4 167.469 153.581 167.158 153.554 166.53C153.554 166.53 153.496 166.165 153.051 165.902C152.286 165.451 152.661 165.322 152.736 164.705C152.8 164.174 152.57 164.399 152.174 163.702C151.602 162.703 152.549 162.854 152.549 162.381C152.549 161.909 152.142 162.129 152.078 161.249C152.014 160.369 153.051 160.492 153.051 160.492L153.057 160.497Z" fill="#333D7B"/>
<path d="M133.026 175.869L134.792 173.948" stroke="#333D7B" stroke-width="0.98" stroke-miterlimit="10" stroke-linecap="round"/>
<path d="M132.653 172.16L131.732 173.175" stroke="#333D7B" stroke-width="0.98" stroke-miterlimit="10" stroke-linecap="round"/>
<path d="M167.266 173.175L168.421 177.683C168.614 178.671 168.748 179.637 168.603 180.619C168.448 181.687 167.512 181.827 167.148 181.435C166.725 180.984 166.506 180.377 166.335 179.787L164.548 173.77" stroke="#333D7B" stroke-width="0.98" stroke-miterlimit="10" stroke-linecap="round"/>
<path d="M74.2746 98.9462C75.3767 98.7691 75.81 100.374 74.7508 100.733C74.7347 100.733 74.7187 100.744 74.708 100.75C73.6701 101.077 68.6466 100.954 65.5918 100.846C65.2976 100.835 65.2762 100.411 65.565 100.363L74.28 98.9462H74.2746Z" fill="#333D7B"/>
<path d="M77.4527 98.9462C76.3506 98.7691 75.9173 100.374 76.9765 100.733C76.9926 100.733 77.0086 100.744 77.0193 100.75C78.0572 101.077 83.0807 100.954 86.1355 100.846C86.4298 100.835 86.4512 100.411 86.1623 100.363L77.4473 98.9462H77.4527Z" fill="#333D7B"/>
<path d="M70.9313 124.891C70.9313 124.891 67.2559 190.892 66.1271 193.323L42.3148 192.958C41.828 192.958 41.3946 192.663 41.2235 192.207C40.5119 190.323 39.2707 187.392 41.6621 185.267C44.626 182.642 56.92 186.029 57.4015 182.664C64.6505 131.595 62.8476 125.251 62.8476 125.251" stroke="#333D7B" stroke-width="1.57" stroke-miterlimit="10" stroke-linecap="round"/>
<path d="M81.7695 125.546C81.7695 125.546 83.6741 190.892 84.8029 193.323H110.049C110.536 193.323 110.969 193.028 111.14 192.572C111.852 190.688 113.671 187.757 111.279 185.632C108.316 183.007 96.0216 186.394 95.5401 183.029C88.291 131.96 90.8269 124.886 90.8269 124.886" stroke="#333D7B" stroke-width="1.57" stroke-miterlimit="10" stroke-linecap="round"/>
<path d="M114.537 116.878L132.459 175.418C132.593 175.853 132.663 176.309 132.652 176.765C132.62 178.231 132.187 181.306 129.175 182.235C127.575 182.728 126.43 182.218 125.638 181.429C124.472 180.275 124.162 178.494 124.724 176.948C125.012 176.159 125.242 175.182 125.029 174.377C124.595 172.713 107.106 117.163 107.106 117.163" stroke="#333D7B" stroke-width="1.57" stroke-miterlimit="10" stroke-linecap="round"/>
<path d="M41.7903 112.278L37.5157 173.368C37.4836 173.824 37.5157 174.28 37.6281 174.726C37.9865 176.143 39.1046 179.046 42.2503 179.266C43.9195 179.384 44.9199 178.628 45.5138 177.678C46.3858 176.288 46.2948 174.479 45.3961 173.11C44.936 172.407 44.4973 171.511 44.5187 170.679C44.5668 168.961 49.0928 110.877 49.0928 110.877" stroke="#333D7B" stroke-width="1.57" stroke-miterlimit="10" stroke-linecap="round"/>
</svg>
