<svg width="222" height="107" viewBox="0 0 222 107" fill="none" xmlns="http://www.w3.org/2000/svg">
<path d="M75.521 39.0789C75.5652 23.5158 81.1651 10.0149 100.331 10.0661C119.498 10.1172 121.656 24.3078 123.262 24.312C124.867 24.3163 126.833 10.1368 146.272 10.1887C165.711 10.2405 170.965 22.6352 170.917 39.3335C170.87 56.0318 124.81 96.1929 123.22 96.1886C121.63 96.1844 75.4716 54.637 75.5158 39.0789L75.521 39.0789Z" fill="#F489AC"/>
<path d="M137.45 57.4993C137.45 57.4993 154.172 58.449 152.769 66.8007C151.976 71.5286 142.045 78.7888 137.502 85.0254C134.013 89.8125 134.994 94.2946 137.869 94.742C144.489 95.7722 167.443 81.802 167.878 67.8126" stroke="#333D7B" stroke-width="2.24" stroke-miterlimit="10" stroke-linecap="round"/>
<path d="M147.964 48.9208C147.964 48.9208 168.308 53.9699 167.873 67.6206" stroke="#333D7B" stroke-width="2.24" stroke-miterlimit="10" stroke-linecap="round"/>
<path d="M120.211 53.911C118.504 52.0403 108.975 54.0922 108.166 54.9298C107.358 55.7674 109.759 61.6522 113.585 62.4089C117.412 63.1656 121.919 55.7817 120.211 53.911Z" stroke="#333D7B" stroke-width="2.24" stroke-miterlimit="10"/>
<path d="M120.15 53.9462C120.15 53.9462 120.773 54.7998 120.524 55.6759C120.276 56.552 119.717 57.9055 119.717 57.9055C119.717 57.9055 118.699 56.8567 117.062 57.3704C115.431 57.8891 109.489 59.582 109.489 59.582L108.011 54.9799C108.011 54.9799 110.928 53.3637 114.685 53.1694C118.443 52.9752 120.15 53.9512 120.15 53.9512L120.15 53.9462Z" fill="#333D7B"/>
<path d="M91.3004 63.1414C91.0943 60.1249 66.4156 43.725 62.3525 45.2019C58.3156 46.6686 56.1289 49.4909 56.1289 49.4909C56.1289 49.4909 52.6344 49.9335 51.2082 52.3313C49.7821 54.724 59.9026 54.0148 64.5771 54.8701C69.2515 55.7254 91.0821 79.1804 94.0388 78.1474C96.9956 77.1144 99.8251 72.9382 99.8251 72.9382" stroke="#333D7B" stroke-width="2.24" stroke-miterlimit="10" stroke-linecap="round"/>
<path d="M123.927 49.5799C122.497 49.5761 121.343 47.9675 121.349 45.9871C121.354 44.0067 122.518 42.4043 123.947 42.4081C125.377 42.4119 126.531 44.0205 126.525 46.0009C126.52 47.9813 125.356 49.5837 123.927 49.5799Z" fill="#333D7B"/>
<path d="M105.43 52.3994C104.001 52.3956 102.846 50.7871 102.852 48.8067C102.857 46.8263 104.021 45.2239 105.45 45.2277C106.88 45.2315 108.034 46.8401 108.029 48.8205C108.023 50.8009 106.86 52.4033 105.43 52.3994Z" fill="#333D7B"/>
<path d="M136.854 25.2242C136.854 25.2242 143.624 27.2966 145.523 28.1842C147.421 29.0718 153.356 33.4606 153.356 33.4606C155.28 34.4231 157.67 33.6915 158.67 31.8393C159.67 29.9871 158.91 27.6864 156.985 26.7239C156.985 26.7239 152.809 23.6362 149.177 21.7517C145.546 19.8672 140.484 18.4874 140.484 18.4874C138.56 17.5249 136.17 18.2565 135.17 20.1087C134.17 21.961 134.93 24.2617 136.854 25.2242Z" stroke="#333D7B" stroke-width="1.89" stroke-miterlimit="10"/>
<path d="M144.595 27.1301C145.186 27.3225 146.212 27.9223 146.212 27.9223C147.171 28.3898 148.355 28.0357 148.85 27.1316L150.034 24.9814C150.53 24.0773 150.154 22.9605 149.196 22.493C149.196 22.493 148.118 21.756 147.579 21.7007C147.039 21.6455 145.436 21.5873 144.941 22.4914L143.757 24.6416C143.261 25.5457 143.999 26.9376 144.595 27.1301Z" fill="#333D7B"/>
<path d="M153.775 27.9601L153.459 27.8012C153.361 27.7522 153.323 27.6357 153.373 27.541L153.537 27.2344C153.588 27.1397 153.708 27.1028 153.806 27.1518L154.122 27.3107C154.219 27.3597 154.257 27.4762 154.207 27.5708L154.043 27.8775C153.992 27.9721 153.872 28.0091 153.775 27.9601Z" fill="#333D7B"/>
<path d="M155.713 30.628L155.397 30.4692C155.299 30.4201 155.261 30.3036 155.312 30.209L155.476 29.9023C155.526 29.8077 155.646 29.7707 155.744 29.8198L156.06 29.9786C156.158 30.0277 156.196 30.1442 156.145 30.2388L155.981 30.5455C155.931 30.6401 155.811 30.6771 155.713 30.628Z" fill="#333D7B"/>
<path d="M151.494 28.5133L151.178 28.3544C151.08 28.3054 151.042 28.1889 151.093 28.0943L151.257 27.7876C151.307 27.6929 151.427 27.656 151.525 27.705L151.841 27.8639C151.939 27.9129 151.977 28.0294 151.926 28.1241L151.762 28.4307C151.712 28.5254 151.591 28.5623 151.494 28.5133Z" fill="#333D7B"/>
<path d="M152.964 31.0568L152.648 30.8979C152.55 30.8488 152.512 30.7324 152.563 30.6377L152.727 30.331C152.777 30.2364 152.897 30.1994 152.995 30.2485L153.311 30.4074C153.409 30.4564 153.447 30.5729 153.396 30.6675L153.232 30.9742C153.182 31.0688 153.062 31.1058 152.964 31.0568Z" fill="#333D7B"/>
<path d="M141.892 21.1115L142.208 21.2703C142.306 21.3194 142.344 21.4359 142.293 21.5305L142.129 21.8372C142.079 21.9318 141.958 21.9688 141.861 21.9197L141.545 21.7609C141.447 21.7118 141.409 21.5953 141.46 21.5007L141.624 21.194C141.674 21.0994 141.794 21.0624 141.892 21.1115Z" fill="#333D7B"/>
<path d="M138.518 21.1073L138.834 21.2662C138.931 21.3152 138.969 21.4317 138.919 21.5263L138.755 21.833C138.704 21.9277 138.584 21.9646 138.487 21.9156L138.171 21.7567C138.073 21.7077 138.035 21.5912 138.086 21.4965L138.249 21.1899C138.3 21.0952 138.42 21.0583 138.518 21.1073Z" fill="#333D7B"/>
<path d="M142.737 23.2321L143.053 23.3909C143.151 23.44 143.189 23.5565 143.138 23.6511L142.974 23.9578C142.924 24.0524 142.803 24.0894 142.706 24.0403L142.39 23.8815C142.292 23.8324 142.254 23.716 142.305 23.6213L142.469 23.3146C142.519 23.22 142.639 23.183 142.737 23.2321Z" fill="#333D7B"/>
<path d="M139.744 23.5358L140.06 23.6947C140.158 23.7437 140.196 23.8602 140.145 23.9548L139.981 24.2615C139.931 24.3561 139.811 24.3931 139.713 24.3441L139.397 24.1852C139.299 24.1361 139.261 24.0197 139.312 23.925L139.476 23.6184C139.526 23.5237 139.646 23.4867 139.744 23.5358Z" fill="#333D7B"/>
</svg>
