<svg width="208" height="155" viewBox="0 0 208 155" fill="none" xmlns="http://www.w3.org/2000/svg">
<g clip-path="url(#clip0_2400_5809)">
<path d="M96.5397 144.928C144.334 144.928 183.079 141.3 183.079 136.824C183.079 132.349 144.334 128.72 96.5397 128.72C48.7451 128.72 10 132.349 10 136.824C10 141.3 48.7451 144.928 96.5397 144.928Z" fill="#F9CDAB" stroke="#F9CDAB" stroke-width="1.5" stroke-linecap="round" stroke-linejoin="round"/>
<path d="M58.4868 93.3525C58.4868 93.3525 59.1006 109.445 59.1006 109.939C59.1006 110.433 64.0106 121.403 64.0106 122.622C64.0106 123.842 66.4657 124.452 66.4657 122.012C66.4657 119.573 62.4762 109.713 62.4762 109.713L60.9418 94.5721L58.4868 93.3525Z" fill="#858BB0" stroke="#858BB0" stroke-width="1.5" stroke-linecap="round" stroke-linejoin="round"/>
<path d="M63.1881 132.501C68.0523 132.501 71.9956 128.583 71.9956 123.75C71.9956 118.918 68.0523 115 63.1881 115C58.324 115 54.3807 118.918 54.3807 123.75C54.3807 128.583 58.324 132.501 63.1881 132.501Z" stroke="#858BB0" stroke-width="4" stroke-miterlimit="10"/>
<path d="M97.7672 126.891C111.665 126.891 122.931 115.697 122.931 101.89C122.931 88.0818 111.665 76.8884 97.7672 76.8884C83.8695 76.8884 72.6031 88.0818 72.6031 101.89C72.6031 115.697 83.8695 126.891 97.7672 126.891Z" stroke="#858BB0" stroke-width="4" stroke-miterlimit="10"/>
<path d="M98.6878 106.158C100.213 106.158 101.45 104.93 101.45 103.414C101.45 101.899 100.213 100.67 98.6878 100.67C97.1625 100.67 95.9259 101.899 95.9259 103.414C95.9259 104.93 97.1625 106.158 98.6878 106.158Z" fill="#858BB0" stroke="#858BB0" stroke-width="1.5" stroke-miterlimit="10"/>
<path d="M133.365 88.4743L98.381 83.5961L103.905 39.6917L139.503 44.5699L133.365 88.4743Z" fill="#B6BBD6" stroke="#B6BBD6" stroke-width="1.5" stroke-linecap="round" stroke-linejoin="round"/>
<path d="M98.3809 97.6212L60.9418 87.8647L99.6084 83.5962L127.227 87.8647L98.3809 97.6212Z" fill="#B6BBD6" stroke="#B6BBD6" stroke-width="1.5" stroke-linecap="round" stroke-linejoin="round"/>
<path d="M98.3809 105.548L60.9418 95.7919V87.2549L98.3809 97.0114V105.548Z" fill="#B6BBD6" stroke="#B6BBD6" stroke-width="1.5" stroke-linecap="round" stroke-linejoin="round"/>
<path d="M114.339 100.67L98.381 106.158V97.621L127.228 87.8645L114.339 100.67Z" fill="#B6BBD6" stroke="#B6BBD6" stroke-width="1.5" stroke-linecap="round" stroke-linejoin="round"/>
<path d="M60.9418 96.4016L58.4868 95.182C58.4868 95.182 54.1905 70.7907 64.0106 67.7418C73.8307 64.6929 97.1535 61.6439 97.1535 61.6439L100.836 36.6428C100.836 36.6428 102.064 30.7157 112.804 31.2401C123.545 31.7645 117.407 34.8805 112.804 35.4598C108.201 36.0391 105.746 36.6428 105.132 39.6917C104.519 42.7407 101.873 65.5831 101.873 65.5831C101.873 65.5831 68.3069 69.5711 65.8519 72.0103C63.3968 74.4494 60.9418 82.3766 60.9418 87.8646V96.4016Z" fill="#858BB0" stroke="#858BB0" stroke-width="1.5" stroke-linecap="round" stroke-linejoin="round"/>
<path d="M135.268 74.858L133.365 88.4683H139.503C140.116 88.4683 141.154 74.114 141.154 74.114L135.268 74.8519V74.858Z" fill="#858BB0" stroke="#858BB0" stroke-width="1.5" stroke-linecap="round" stroke-linejoin="round"/>
<path d="M95.9874 66.3208L94.0847 79.9312H100.222C100.836 79.9312 101.873 65.5769 101.873 65.5769L95.9874 66.3147V66.3208Z" fill="#858BB0" stroke="#333D7B" stroke-width="1.5" stroke-linecap="round" stroke-linejoin="round"/>
<path d="M94.6984 80.5471C94.6984 80.5471 94.3486 80.5471 93.7225 80.5532C88.4197 80.6264 61.5555 84.2058 61.5555 87.8645V97.0113L63.3968 87.8645L97.8286 84.2058L98.9947 80.5471" fill="#858BB0"/>
<path d="M94.6984 80.5471C94.6984 80.5471 94.3486 80.5471 93.7225 80.5532C88.4197 80.6264 61.5555 84.2058 61.5555 87.8645V97.0113L63.3968 87.8645L97.8286 84.2058L98.9947 80.5471" stroke="#858BB0" stroke-width="1.5" stroke-linecap="round" stroke-linejoin="round"/>
<path d="M133.979 89.0842V87.2549C133.979 87.2549 108.201 98.231 100.836 100.676V105.548L114.486 102.499C114.486 102.499 124.772 90.3038 133.979 89.0842Z" fill="#858BB0" stroke="#858BB0" stroke-width="1.5" stroke-linecap="round" stroke-linejoin="round"/>
<path d="M97.7672 103.719C97.7672 103.719 98.381 119.811 98.381 120.305C98.381 120.799 103.291 131.769 103.291 132.989C103.291 134.208 105.746 134.818 105.746 132.379C105.746 129.94 101.757 120.079 101.757 120.079L100.222 104.939L97.7672 103.719Z" fill="#858BB0" stroke="#858BB0" stroke-width="1.5" stroke-linecap="round" stroke-linejoin="round"/>
<path d="M97.9943 101.609L62.5867 91.8953L61.5555 96.4016L98.9947 106.158L97.9943 101.609Z" fill="#858BB0" stroke="#858BB0" stroke-width="1.5" stroke-linecap="round" stroke-linejoin="round"/>
<path d="M58.4867 95.182C58.4867 95.182 45.5978 90.9135 41.9153 120.793L44.9841 122.012C44.9841 122.012 48.6666 97.487 58.4867 99.0785V95.182Z" fill="#858BB0" stroke="#858BB0" stroke-width="1.5" stroke-linecap="round" stroke-linejoin="round"/>
<path d="M97.7672 106.768C97.7672 106.768 84.8783 102.499 81.1958 132.379L84.2646 133.598C84.2646 133.598 87.9471 109.073 97.7672 110.664V106.768Z" fill="#858BB0" stroke="#858BB0" stroke-width="1.5" stroke-linecap="round" stroke-linejoin="round"/>
<path d="M112.823 10.3855H74.7329C67.1163 10.3855 60.9418 16.52 60.9418 24.0873V75.3031C60.9418 82.8704 67.1163 89.0049 74.7329 89.0049H112.823C120.439 89.0049 126.614 82.8704 126.614 75.3031V24.0873C126.614 16.52 120.439 10.3855 112.823 10.3855Z" fill="#F489AC"/>
<path d="M79.6614 42.6795C79.6614 43.7345 79.0354 46.1309 78.4707 45.3321C77.8631 44.4662 77.4335 45.1979 76.967 45.3565C76.6049 45.4784 75.5799 45.3565 75.1748 45.3565C74.4629 45.3565 74.6654 45.2894 74.1376 45.6858C73.7632 45.9663 73.7632 45.5089 73.3827 45.3565C72.7996 45.1309 72.6523 44.765 72.8119 44.1735C72.8978 43.8686 72.4866 43.5759 72.6216 43.2527C72.7014 43.0698 72.4866 42.6795 72.4866 42.6795C72.4866 40.7099 74.0946 39.1123 76.0771 39.1123C78.0595 39.1123 79.6675 40.7099 79.6675 42.6795H79.6614Z" fill="#333D7B" stroke="#333D7B" stroke-linecap="round" stroke-linejoin="round"/>
<path d="M94.011 42.6795C94.011 43.7345 93.385 46.1309 92.8203 45.3321C92.2127 44.4662 91.7831 45.1979 91.3166 45.3565C90.9545 45.4784 89.9295 45.3565 89.5244 45.3565C88.8125 45.3565 89.015 45.2894 88.4872 45.6858C88.1128 45.9663 88.1128 45.5089 87.7323 45.3565C87.1492 45.1309 87.0019 44.765 87.1615 44.1735C87.2474 43.8686 86.8362 43.5759 86.9712 43.2527C87.051 43.0698 86.8362 42.6795 86.8362 42.6795C86.8362 40.7099 88.4442 39.1123 90.4267 39.1123C92.4091 39.1123 94.0171 40.7099 94.0171 42.6795H94.011Z" fill="#333D7B" stroke="#333D7B" stroke-linecap="round" stroke-linejoin="round"/>
<path d="M68 38.1673L74.2665 33.5024C74.2665 33.5024 75.3098 33.1 74.2665 32.0024C73.2231 30.9048 68 38.1673 68 38.1673Z" fill="#333D7B" stroke="#333D7B" stroke-linecap="round" stroke-linejoin="round"/>
<path d="M97.1534 38.1673L90.8869 33.5024C90.8869 33.5024 89.8436 33.1 90.8869 32.0024C91.9303 30.9048 97.1534 38.1673 97.1534 38.1673Z" fill="#333D7B" stroke="#333D7B" stroke-linecap="round" stroke-linejoin="round"/>
<path d="M90.0952 57.0706C90.0952 57.0706 90.709 52.8021 83.3439 53.4119C75.9788 54.0217 77.8201 59.5098 77.8201 59.5098C77.8201 59.5098 79.0476 61.3391 81.5026 60.1195C83.9576 58.9 85.7989 58.9 87.0264 59.5098C88.2539 60.1195 90.709 58.9 90.0952 57.0706Z" fill="#333D7B" stroke="#333D7B" stroke-linecap="round" stroke-linejoin="round"/>
<path d="M87.6402 55.2412C87.6402 55.2412 80.8889 57.6803 79.6613 56.4608C78.4338 55.2412 85.7989 53.4119 87.6402 55.2412Z" fill="#F489AC" stroke="#F489AC" stroke-linecap="round" stroke-linejoin="round"/>
<path d="M100.222 104.938L97.7672 103.719C97.7672 103.719 93.4709 79.3276 103.291 76.2786C113.111 73.2297 136.434 70.1808 136.434 70.1808L140.116 45.1797C140.116 45.1797 141.344 39.2526 152.085 39.777C162.825 40.3014 156.688 43.4174 152.085 43.9967C147.481 44.576 145.026 45.1797 144.413 48.2286C143.799 51.2775 141.154 74.12 141.154 74.12C141.154 74.12 107.587 78.108 105.132 80.5471C102.677 82.9863 100.222 90.9134 100.222 96.4015V104.938Z" fill="#858BB0" stroke="#858BB0" stroke-width="1.5" stroke-linecap="round" stroke-linejoin="round"/>
<path d="M41.9154 120.793L28.4127 123.842L64.6244 137.257L84.2646 133.598L44.9841 122.013L41.9154 120.793Z" fill="#858BB0" stroke="#858BB0" stroke-width="1.5" stroke-linecap="round" stroke-linejoin="round"/>
<path d="M72.5909 82.3765C72.5909 82.3765 56.6455 88.4011 52.607 120.848C52.3615 122.805 50.9928 124.494 48.814 124.805C40.7308 125.964 41.9153 126.183 41.9153 126.183C41.9153 126.183 52.2878 129.403 52.6561 129.196C56.0317 127.281 60.9418 126.769 60.9418 126.476C60.9418 126.183 62.1693 86.7608 78.7407 83.4741" stroke="#333D7B" stroke-width="1.5" stroke-linecap="round" stroke-linejoin="round"/>
<path d="M89.1623 82.9863C89.1623 82.9863 73.2169 89.572 69.1784 125.068C68.9329 127.208 67.5642 129.055 65.3854 129.397C57.3022 130.659 58.4868 130.903 58.4868 130.903C58.4868 130.903 68.8592 134.428 69.2275 134.196C72.6032 132.098 77.5132 131.537 77.5132 131.22C77.5132 130.903 78.7407 87.7792 95.3122 84.1815" stroke="#333D7B" stroke-width="1.5" stroke-linecap="round" stroke-linejoin="round"/>
<path d="M147.607 136.22C162.606 136.22 174.764 125.064 174.764 111.303C174.764 97.5422 162.606 86.3867 147.607 86.3867C132.609 86.3867 120.45 97.5422 120.45 111.303C120.45 125.064 132.609 136.22 147.607 136.22Z" stroke="#858BB0" stroke-width="4" stroke-miterlimit="10"/>
<path d="M148.601 115.557C150.247 115.557 151.581 114.333 151.581 112.822C151.581 111.312 150.247 110.088 148.601 110.088C146.954 110.088 145.62 111.312 145.62 112.822C145.62 114.333 146.954 115.557 148.601 115.557Z" fill="#858BB0" stroke="#858BB0" stroke-width="1.5" stroke-miterlimit="10"/>
<path d="M110.289 142.418C115.539 142.418 119.794 138.514 119.794 133.698C119.794 128.881 115.539 124.977 110.289 124.977C105.04 124.977 100.784 128.881 100.784 133.698C100.784 138.514 105.04 142.418 110.289 142.418Z" stroke="#858BB0" stroke-width="4" stroke-miterlimit="10"/>
</g>
<defs>
<clipPath id="clip0_2400_5809">
<rect width="187.781" height="134.543" fill="white" transform="translate(10 10.3855)"/>
</clipPath>
</defs>
</svg>
