<svg width="119" height="124" viewBox="0 0 119 124" fill="none" xmlns="http://www.w3.org/2000/svg">
<g clip-path="url(#clip0_2404_5816)">
<path d="M49.5 113.045C76.8381 113.045 99 111.533 99 109.668C99 107.803 76.8381 106.292 49.5 106.292C22.1619 106.292 0 107.803 0 109.668C0 111.533 22.1619 113.045 49.5 113.045Z" fill="#858BB0"/>
<path d="M45.3051 11.7058L58.5333 35.2009C58.551 35.2343 58.5687 35.2678 58.5864 35.3045L69.94 60.0232C71.0116 62.3567 69.5828 65.1582 67.2625 65.2752L42.6808 66.4987C42.6453 66.4987 42.6099 66.4987 42.5745 66.4987L17.9928 65.2752C15.6724 65.1582 14.2436 62.3567 15.3152 60.0232L26.6688 35.3045C26.6865 35.2678 26.7013 35.2343 26.722 35.2009L39.9531 11.7058C41.2018 9.48934 44.0594 9.48934 45.3081 11.7058H45.3051Z" fill="#999EBD"/>
<path d="M47.9974 53.7248C48.0417 53.0127 47.5073 52.431 46.8815 52.5246C45.4498 52.7419 42.849 53.006 41.4793 52.3474C39.525 51.4114 43.283 56.436 45.99 56.095C47.5339 55.9011 47.9354 54.711 47.9944 53.7248H47.9974Z" stroke="#333D7B" stroke-miterlimit="10"/>
<path d="M47.5162 55.0889C47.5162 55.0889 40.9184 52.5883 40.9745 52.351C41.0306 52.1136 42.9819 53.2369 47.283 52.5482C47.8469 52.9861 48.3546 53.5845 47.5162 55.0889Z" fill="#333D7B"/>
<path d="M72.8537 94.293C72.8537 94.293 71.8057 97.7497 73.7275 95.677" stroke="#333D7B" stroke-width="0.98" stroke-miterlimit="10"/>
<path d="M83.4132 66.265L89.639 82.0777C89.6656 82.1479 89.701 82.2114 89.7394 82.2749L98.7196 96.2891C99.2066 97.0513 98.6694 98.1077 97.8428 98.0108L82.6368 96.2122C82.5689 96.2055 82.5039 96.2055 82.436 96.2122L67.23 98.0108C66.4034 98.1077 65.8632 97.0513 66.3533 96.2891L75.3334 82.2749C75.3718 82.2148 75.4072 82.1479 75.4338 82.0777L81.6596 66.265C81.9991 65.4058 83.0766 65.4058 83.4161 66.265H83.4132Z" fill="#F9CDAB"/>
<path d="M89.0486 108.203C89.2464 109.193 85.2966 108.822 85.2966 108.822L84.5172 95.3159" stroke="#333D7B" stroke-width="1.02" stroke-miterlimit="10" stroke-linecap="round"/>
<path d="M86.1969 95.7104C86.1969 95.7104 86.1143 105.298 86.5393 106.669C86.5718 106.776 86.6811 106.83 86.7667 106.773C87.2656 106.452 88.8715 106.271 89.0486 108.2" stroke="#333D7B" stroke-width="1.02" stroke-miterlimit="10" stroke-linecap="round"/>
<path d="M76.157 108.203C75.9592 109.193 79.9091 108.822 79.9091 108.822L80.7002 95.3159" stroke="#333D7B" stroke-width="1.02" stroke-miterlimit="10" stroke-linecap="round"/>
<path d="M79.0205 95.7104C79.0205 95.7104 79.0914 105.252 78.6781 106.632C78.6397 106.759 78.5128 106.816 78.4065 106.756C77.8751 106.448 76.3283 106.311 76.157 108.204" stroke="#333D7B" stroke-width="1.02" stroke-miterlimit="10" stroke-linecap="round"/>
<path d="M86.0641 87.5737C86.0641 87.5737 86.0552 88.5265 86.7873 88.7171" stroke="#333D7B" stroke-width="1.84" stroke-miterlimit="10" stroke-linecap="round"/>
<path d="M79.3511 87.5737C79.3511 87.5737 79.1769 88.5064 78.4271 88.5131" stroke="#333D7B" stroke-width="1.84" stroke-miterlimit="10" stroke-linecap="round"/>
<path d="M80.3076 88.5564C80.3076 88.5564 78.9762 88.7904 78.8906 89.3386C78.805 89.8869 78.6308 89.6328 78.4419 89.927C78.253 90.2212 78.2175 90.6525 78.4419 91.0235C78.6662 91.3946 78.4419 91.8459 78.4419 91.8459C78.4419 91.8459 78.2677 92.2772 78.7518 92.3541C79.236 92.431 79.0293 92.8254 79.298 92.8622C79.5666 92.9023 80.0183 92.7051 80.033 92.314C80.033 92.314 80.0655 92.0866 80.3105 91.9228C80.7327 91.642 80.526 91.5618 80.4847 91.1773C80.4493 90.8464 80.5762 90.9868 80.7947 90.5522C81.1105 89.9304 80.588 90.024 80.588 89.7298C80.588 89.4356 80.8124 89.5726 80.8478 89.0244C80.8832 88.4761 80.3105 88.553 80.3105 88.553L80.3076 88.5564Z" fill="#333D7B"/>
<path d="M84.532 88.4396C84.532 88.4396 85.8633 88.6737 85.949 89.2219C86.0346 89.7702 86.2087 89.5161 86.3977 89.8103C86.5866 90.1045 86.622 90.5358 86.3977 90.9068C86.1733 91.2779 86.3977 91.7292 86.3977 91.7292C86.3977 91.7292 86.5718 92.1605 86.0877 92.2374C85.6036 92.3143 85.8102 92.7088 85.5416 92.7455C85.2729 92.7823 84.8213 92.5884 84.8065 92.1973C84.8065 92.1973 84.774 91.9699 84.529 91.8061C84.1069 91.5253 84.3135 91.4451 84.3548 91.0606C84.3903 90.7297 84.2633 90.8701 84.0449 90.4355C83.729 89.8137 84.2515 89.9073 84.2515 89.6131C84.2515 89.3189 84.0272 89.4559 83.9917 88.9077C83.9563 88.3594 84.529 88.4363 84.529 88.4363L84.532 88.4396Z" fill="#333D7B"/>
<path d="M73.4795 98.0171L74.4537 96.8203" stroke="#333D7B" stroke-width="0.98" stroke-miterlimit="10" stroke-linecap="round"/>
<path d="M73.2729 95.707L72.7651 96.3389" stroke="#333D7B" stroke-width="0.98" stroke-miterlimit="10" stroke-linecap="round"/>
<path d="M92.3726 96.3389L93.0103 99.147C93.1166 99.7622 93.1904 100.364 93.1106 100.976C93.025 101.641 92.5084 101.728 92.3077 101.484C92.0745 101.203 91.9534 100.825 91.859 100.458L90.873 96.7099" stroke="#333D7B" stroke-width="0.98" stroke-miterlimit="10" stroke-linecap="round"/>
<path d="M43.7465 50.1047C44.3546 49.9943 44.5937 50.9939 44.0092 51.2179C44.0003 51.2179 43.9915 51.2246 43.9856 51.2279C43.4129 51.4319 40.6409 51.355 38.9553 51.2881C38.7929 51.2814 38.7811 51.0173 38.9405 50.9872L43.7494 50.1047H43.7465Z" fill="#333D7B"/>
<path d="M45.497 50.1047C44.8889 49.9943 44.6498 50.9939 45.2343 51.2179C45.2431 51.2179 45.252 51.2246 45.2579 51.2279C45.8306 51.4319 48.6026 51.355 50.2882 51.2881C50.4506 51.2814 50.4624 51.0173 50.3029 50.9872L45.4941 50.1047H45.497Z" fill="#333D7B"/>
<path d="M39.215 66.2617C39.215 66.2617 37.187 107.371 36.5641 108.886L23.4245 108.659C23.1559 108.659 22.9168 108.475 22.8223 108.19C22.4297 107.017 21.7448 105.192 23.0644 103.868C24.6998 102.233 31.4836 104.343 31.7493 102.247C35.7493 70.4372 34.7545 66.4857 34.7545 66.4857" stroke="#333D7B" stroke-width="1.57" stroke-miterlimit="10" stroke-linecap="round"/>
<path d="M45.1959 66.6729C45.1959 66.6729 46.2469 107.375 46.8697 108.889H60.8005C61.0691 108.889 61.3082 108.705 61.4027 108.421C61.7953 107.248 62.799 105.422 61.4794 104.099C59.844 102.464 53.0602 104.573 52.7945 102.477C48.7945 70.6679 50.1937 66.2617 50.1937 66.2617" stroke="#333D7B" stroke-width="1.57" stroke-miterlimit="10" stroke-linecap="round"/>
<path d="M63.2743 61.2705L73.1637 97.7334C73.2375 98.0042 73.2758 98.2883 73.2699 98.5725C73.2522 99.4851 73.0131 101.401 71.3511 101.979C70.4684 102.287 69.8367 101.969 69.3998 101.478C68.7562 100.759 68.585 99.649 68.895 98.6862C69.0544 98.1947 69.1813 97.5863 69.0633 97.0848C68.8241 96.0485 59.1739 61.4477 59.1739 61.4477" stroke="#333D7B" stroke-width="1.57" stroke-miterlimit="10" stroke-linecap="round"/>
<path d="M23.1352 58.4087L20.7765 96.4595C20.7588 96.7437 20.7765 97.0278 20.8385 97.3053C21.0363 98.1879 21.6533 99.9965 23.3891 100.134C24.3101 100.207 24.8622 99.7357 25.1898 99.144C25.671 98.2781 25.6208 97.1515 25.1249 96.299C24.871 95.8611 24.629 95.3028 24.6408 94.7846C24.6673 93.7148 27.1648 57.5361 27.1648 57.5361" stroke="#333D7B" stroke-width="1.57" stroke-miterlimit="10" stroke-linecap="round"/>
<path d="M40.7265 48.5767C41.7765 48.5767 42.6276 47.2745 42.6276 45.6682C42.6276 44.0619 41.7765 42.7598 40.7265 42.7598C39.6765 42.7598 38.8254 44.0619 38.8254 45.6682C38.8254 47.2745 39.6765 48.5767 40.7265 48.5767Z" fill="#333D7B"/>
<path d="M49.1458 49.1084C50.1957 49.1084 51.0469 47.8063 51.0469 46.2C51.0469 44.5937 50.1957 43.2915 49.1458 43.2915C48.0958 43.2915 47.2446 44.5937 47.2446 46.2C47.2446 47.8063 48.0958 49.1084 49.1458 49.1084Z" fill="#333D7B"/>
<path d="M71.0293 32.4863C71.5754 30.9251 71.5754 29.3572 69.9341 28.6217C68.2928 27.8862 67.6079 29.2234 67.4721 29.1633C67.3363 29.1031 67.6669 27.6054 66.0049 26.8599C64.3429 26.1144 63.4543 27.1507 62.8698 28.8256C62.2853 30.5005 64.7975 36.3041 64.9333 36.3642C65.0691 36.4244 70.4802 34.0475 71.0264 32.4896L71.0293 32.4863Z" fill="#F489AC"/>
<path d="M69.0426 43.2511C69.3171 42.4722 69.3142 41.6866 68.4964 41.3188C67.6787 40.9511 67.3333 41.6197 67.2654 41.5896C67.1975 41.5596 67.3629 40.8107 66.5333 40.4363C65.7038 40.0619 65.258 40.5834 64.9658 41.4191C64.6735 42.2549 65.9311 45.1567 65.999 45.1868C66.0669 45.2169 68.7739 44.0301 69.0455 43.2478L69.0426 43.2511Z" fill="#F489AC"/>
</g>
<defs>
<clipPath id="clip0_2404_5816">
<rect width="99" height="103" fill="white" transform="translate(0 10.0444)"/>
</clipPath>
</defs>
</svg>
