<svg width="142" height="198" viewBox="0 0 142 198" fill="none" xmlns="http://www.w3.org/2000/svg">
<path d="M112 35.1365C112 16.3377 105.469 0 82.9716 0C60.474 0 57.8942 17.1465 56 17.1465C54.1058 17.1465 51.8514 0 29.0284 0C6.20544 0 0 14.9628 0 35.1365C0 55.3103 53.9431 104 55.8024 104C57.6618 104 111.988 53.9353 111.988 35.1365H112Z" fill="#F489AC"/>
<path d="M39.5649 57C39.5649 57 20.0346 58.0941 21.6392 68.1733C22.5446 73.8763 34.1207 82.6753 39.4159 90.2173C43.4732 96.0018 42.3156 101.414 38.9574 101.938C31.2209 103.16 4.45846 86.2252 4 69.3488" stroke="#333D7B" stroke-width="1.19" stroke-miterlimit="10" stroke-linecap="round"/>
<path d="M28 46C28 46 3.53399 52.1566 4.00676 69" stroke="#333D7B" stroke-width="1.19" stroke-miterlimit="10" stroke-linecap="round"/>
<path d="M57.4174 52.8888C59.3218 50.691 69.924 53.1402 70.8261 54.1243C71.7282 55.1084 69.0331 62.0515 64.7677 62.9372C60.5023 63.8228 55.513 55.0865 57.4174 52.8888Z" stroke="#333D7B" stroke-width="1.19" stroke-miterlimit="10"/>
<path d="M57.4888 52.9787C57.4888 52.9787 56.7925 54.0383 57.062 55.1212C57.3316 56.2041 57.9605 57.8808 57.9605 57.8808C57.9605 57.8808 59.0949 56.5767 60.9143 57.2288C62.7338 57.8692 69.3378 60 69.3378 60L71 54.3061C71 54.3061 67.7542 52.2917 63.5761 52.0356C59.3981 51.7794 57.4888 52.9904 57.4888 52.9904V52.9787Z" fill="#333D7B"/>
<path d="M93.9813 63.78C94.2352 60.1208 123.106 40.3149 127.848 42.1154C132.556 43.9043 135.107 47.3312 135.107 47.3312C135.107 47.3312 139.191 47.8771 140.841 50.7929C142.503 53.6969 130.676 52.8025 125.218 53.8247C119.76 54.847 94.189 83.2142 90.7388 81.9596C87.2886 80.6934 84 75.6287 84 75.6287" stroke="#333D7B" stroke-width="1.19" stroke-miterlimit="10" stroke-linecap="round"/>
<path d="M53 48C54.6569 48 56 45.9853 56 43.5C56 41.0147 54.6569 39 53 39C51.3431 39 50 41.0147 50 43.5C50 45.9853 51.3431 48 53 48Z" fill="#333D7B"/>
<path d="M74.5 51C76.433 51 78 48.9853 78 46.5C78 44.0147 76.433 42 74.5 42C72.567 42 71 44.0147 71 46.5C71 48.9853 72.567 51 74.5 51Z" fill="#333D7B"/>
<path d="M51 86C51 86 46.2862 193.659 44.7071 197H6.10732C5.4289 197 4.83236 196.594 4.58672 195.967C3.60418 193.38 1.46365 186.605 4.79727 183.682C8.92627 180.062 26.0505 184.738 26.7172 180.097C36.8117 109.794 34.3085 101.058 34.3085 101.058" stroke="#333D7B" stroke-width="1.19" stroke-miterlimit="10" stroke-linecap="round"/>
<path d="M60 85.8099C60 85.8099 61.7871 193.653 63.3522 197H101.897C102.575 197 103.17 196.593 103.416 195.966C104.397 193.374 106.534 186.588 103.205 183.659C99.0822 180.033 81.9823 184.717 81.3165 180.068C71.2364 109.645 76.7028 79 76.7028 79" stroke="#333D7B" stroke-width="1.19" stroke-miterlimit="10" stroke-linecap="round"/>
<path d="M37.4611 17.6216C37.4611 17.6216 29.4135 20.0925 27.149 21.158C24.8845 22.2234 17.824 27.4941 17.824 27.4941C15.5363 28.6502 12.6912 27.7548 11.5183 25.5218C10.3338 23.2889 11.2512 20.5119 13.5389 19.3671C13.5389 19.3671 18.5092 15.6607 22.8291 13.4051C27.149 11.1495 33.176 9.50592 33.176 9.50592C35.4637 8.34979 38.3088 9.24523 39.4817 11.4782C40.6662 13.7111 39.7488 16.4881 37.4611 17.6329V17.6216Z" stroke="#333D7B" stroke-miterlimit="10"/>
<path d="M27.7941 20.7727C27.0746 21.0136 25.8479 21.7477 25.8479 21.7477C24.6919 22.3212 23.2647 21.8853 22.6749 20.7613L21.2595 18.0887C20.6697 16.9647 21.1179 15.5768 22.2739 15.0033C22.2739 15.0033 23.5714 14.0857 24.2201 14.0283C24.8689 13.971 26.8033 13.8907 27.3931 15.0147L28.8085 17.6873C29.3983 18.8113 28.5018 20.5433 27.7941 20.7727Z" fill="#333D7B"/>
<path d="M17.1987 20.8642C17.3104 21.0809 17.5768 21.1661 17.7937 21.0545C18.0106 20.943 18.0959 20.677 17.9842 20.4603C17.8725 20.2437 17.6062 20.1585 17.3893 20.27C17.1724 20.3815 17.0871 20.6476 17.1987 20.8642Z" fill="#333D7B"/>
<path d="M14.9022 24.0891C15.0139 24.3058 15.2802 24.391 15.4972 24.2795C15.7141 24.1679 15.7994 23.9019 15.6877 23.6852C15.576 23.4686 15.3097 23.3834 15.0928 23.4949C14.8759 23.6064 14.7906 23.8725 14.9022 24.0891Z" fill="#333D7B"/>
<path d="M19.8831 21.5344C19.9947 21.751 20.2611 21.8362 20.478 21.7247C20.6949 21.6132 20.7802 21.3471 20.6685 21.1305C20.5569 20.9138 20.2905 20.8286 20.0736 20.9402C19.8567 21.0517 19.7714 21.3177 19.8831 21.5344Z" fill="#333D7B"/>
<path d="M18.1375 24.6146C18.2491 24.8313 18.5155 24.9165 18.7324 24.805C18.9493 24.6934 19.0346 24.4274 18.9229 24.2108C18.8113 23.9941 18.5449 23.9089 18.328 24.0204C18.1111 24.132 18.0258 24.398 18.1375 24.6146Z" fill="#333D7B"/>
<path d="M32.0189 13.1698C31.9073 12.9531 31.6409 12.8679 31.424 12.9794C31.2071 13.091 31.1218 13.357 31.2334 13.5737C31.3451 13.7903 31.6115 13.8755 31.8284 13.764C32.0453 13.6525 32.1306 13.3864 32.0189 13.1698Z" fill="#333D7B"/>
<path d="M35.9901 13.1792C35.8784 12.9625 35.6121 12.8773 35.3952 12.9888C35.1783 13.1004 35.093 13.3664 35.2046 13.5831C35.3163 13.7997 35.5827 13.8849 35.7996 13.7734C36.0165 13.6619 36.1018 13.3958 35.9901 13.1792Z" fill="#333D7B"/>
<path d="M31.005 15.7396C30.8933 15.523 30.627 15.4377 30.4101 15.5493C30.1932 15.6608 30.1079 15.9268 30.2195 16.1435C30.3312 16.3601 30.5975 16.4454 30.8145 16.3338C31.0314 16.2223 31.1167 15.9562 31.005 15.7396Z" fill="#333D7B"/>
<path d="M34.5277 16.1081C34.416 15.8914 34.1497 15.8062 33.9328 15.9177C33.7159 16.0293 33.6306 16.2953 33.7422 16.512C33.8539 16.7286 34.1203 16.8138 34.3372 16.7023C34.5541 16.5908 34.6394 16.3247 34.5277 16.1081Z" fill="#333D7B"/>
</svg>
