<svg width="223" height="112" viewBox="0 0 223 112" fill="none" xmlns="http://www.w3.org/2000/svg">
<path d="M110.598 56.8052C108.084 45.9445 102.231 37.4043 89.5965 40.4997C76.9619 43.5952 77.8064 53.8562 76.7427 54.1168C75.6789 54.3775 72.1195 44.7815 59.3022 47.9217C46.4849 51.062 45.0012 60.5603 47.6994 72.2153C50.3976 83.8703 87.2039 104.578 88.2481 104.322C89.2923 104.066 113.106 67.6675 110.592 56.8068L110.598 56.8052Z" fill="#F489AC"/>
<path d="M90.6489 75.6675C90.1996 77.1287 84.3386 79.2788 83.6625 79.1455C82.9864 79.0123 82.7456 75.3821 84.6756 73.7545C86.6055 72.127 91.0983 74.2062 90.6489 75.6675Z" stroke="#333D7B" stroke-width="1.19" stroke-miterlimit="10"/>
<path d="M79.1844 72.3547C80.1149 72.1267 80.5997 70.778 80.2673 69.3421C79.9349 67.9063 78.9112 66.9271 77.9807 67.1551C77.0502 67.3831 76.5654 68.7318 76.8978 70.1677C77.2302 71.6035 78.2539 72.5827 79.1844 72.3547Z" fill="#333D7B"/>
<path d="M91.66 71.1296C92.7455 70.8637 93.3561 69.4841 93.0237 68.0483C92.6913 66.6125 91.5418 65.6641 90.4562 65.9301C89.3707 66.196 88.7601 67.5756 89.0925 69.0114C89.4249 70.4472 90.5744 71.3956 91.66 71.1296Z" fill="#333D7B"/>
<path d="M112.767 19.4733C117.285 9.32219 124.639 2.11463 136.448 7.67665C148.257 13.2387 145.49 23.1353 146.485 23.6036C147.479 24.0719 152.783 15.3704 164.763 21.0128C176.743 26.6553 176.404 36.2691 171.556 47.1627C166.708 58.0562 126.692 71.0118 125.716 70.5521C124.74 70.0924 108.255 29.6272 112.773 19.4761L112.767 19.4733Z" fill="#858BB0"/>
<path d="M136.053 45.2575C134.836 45.276 129.514 42.1095 129.138 41.6674C128.762 41.2253 130.864 40.3457 133.191 41.203C135.518 42.0603 137.271 45.239 136.053 45.2575Z" stroke="#333D7B" stroke-width="1.19" stroke-miterlimit="10"/>
<path d="M140.645 41.0059C139.775 40.5963 139.554 39.1763 140.151 37.8343C140.749 36.4923 141.938 35.7364 142.808 36.146C143.677 36.5556 143.898 37.9756 143.301 39.3176C142.704 40.6596 141.514 41.4155 140.645 41.0059Z" fill="#333D7B"/>
<path d="M128.638 37.3103C127.624 36.8324 127.285 35.357 127.883 34.015C128.48 32.673 129.787 31.9725 130.801 32.4504C131.816 32.9283 132.154 34.4036 131.557 35.7456C130.96 37.0876 129.653 37.7881 128.638 37.3103Z" fill="#333D7B"/>
</svg>
