<svg width="223" height="112" viewBox="0 0 223 112" fill="none" xmlns="http://www.w3.org/2000/svg">
<path d="M105.528 14.2396C108.894 6.88856 114.372 1.66912 123.17 5.69692C131.967 9.72472 129.906 16.8915 130.647 17.2306C131.388 17.5698 135.339 11.2684 144.264 15.3545C153.188 19.4405 152.936 26.4025 149.324 34.2912C145.712 42.1799 115.902 51.5618 115.175 51.2289C114.448 50.8961 102.167 21.5927 105.533 14.2417L105.528 14.2396Z" fill="#858BB0"/>
<path d="M158.65 52.3674C166.001 55.733 171.221 61.2117 167.193 70.0091C163.165 78.8065 155.998 76.7455 155.659 77.4862C155.32 78.2269 161.622 82.1783 157.535 91.1029C153.449 100.028 146.487 99.7753 138.599 96.1635C130.71 92.5518 121.328 62.741 121.661 62.0139C121.994 61.2869 151.297 49.0063 158.648 52.3719L158.65 52.3674Z" fill="#F489AC"/>
<path d="M119.675 98.2602C116.309 105.611 110.83 110.831 102.033 106.803C93.2355 102.775 95.2965 95.6082 94.5558 95.2691C93.8151 94.93 89.8638 101.231 80.9391 97.1453C72.0145 93.0592 72.2668 86.0972 75.8785 78.2086C79.4903 70.3199 109.301 60.9379 110.028 61.2708C110.755 61.6037 123.036 90.9071 119.67 98.2581L119.675 98.2602Z" fill="#F489AC"/>
<path d="M64.3496 64.5384C56.9985 61.1728 51.7791 55.694 55.8069 46.8966C59.8347 38.0992 67.0015 40.1602 67.3406 39.4195C67.6797 38.6788 61.3784 34.7275 65.4645 25.8029C69.5505 16.8782 76.5125 17.1305 84.4012 20.7422C92.2899 24.354 101.672 54.1648 101.339 54.8918C101.006 55.6189 71.7027 67.8994 64.3516 64.5338L64.3496 64.5384Z" fill="#F489AC"/>
<path d="M119.246 32.4819C119.483 33.71 123.959 35.0776 124.506 34.9051C125.054 34.7325 125.543 31.567 124.145 30.3199C122.747 29.0728 119.01 31.2538 119.246 32.4819Z" stroke="#333D7B" stroke-width="1.19" stroke-miterlimit="10"/>
<path d="M136.838 65.465C135.61 65.7017 134.242 70.1772 134.414 70.7248C134.587 71.2724 137.752 71.7616 139 70.3634C140.247 68.9652 138.066 65.2283 136.838 65.465Z" stroke="#333D7B" stroke-width="1.19" stroke-miterlimit="10"/>
<path d="M106.944 77.1819C106.708 75.9539 102.232 74.5862 101.685 74.7588C101.137 74.9313 100.648 78.0968 102.046 79.3439C103.444 80.591 107.181 78.41 106.944 77.1819Z" stroke="#333D7B" stroke-width="1.19" stroke-miterlimit="10"/>
<path d="M84.7947 50.2259C86.0228 49.9892 87.3905 45.5137 87.2179 44.9661C87.0454 44.4185 83.8798 43.9293 82.6327 45.3275C81.3857 46.7257 83.5667 50.4626 84.7947 50.2259Z" stroke="#333D7B" stroke-width="1.19" stroke-miterlimit="10"/>
<path d="M126.689 30.2184C126.221 30.0044 125.843 28.3367 126.648 28.0713C126.71 27.1796 127.868 26.3117 128.3 26.699C128.735 26.3117 129.025 28.0473 128.34 28.846C128.446 29.7831 127.156 30.4323 126.689 30.2184Z" fill="#333D7B"/>
<path d="M139.101 72.9072C139.315 72.4399 140.982 72.0611 141.248 72.8668C142.14 72.929 143.008 74.0861 142.62 74.5185C143.008 74.954 141.272 75.2433 140.473 74.5588C139.536 74.6647 138.887 73.3744 139.101 72.9072Z" fill="#333D7B"/>
<path d="M99.5022 79.445C99.9694 79.6589 100.348 81.3266 99.5426 81.592C99.4804 82.4837 98.3232 83.3517 97.8909 82.9643C97.4554 83.3517 97.1661 81.616 97.8505 80.8173C97.7447 79.8802 99.035 79.2311 99.5022 79.445Z" fill="#333D7B"/>
<path d="M82.5313 42.7835C82.3174 43.2508 80.6496 43.6295 80.3843 42.8239C79.4925 42.7617 78.6246 41.6046 79.0119 41.1722C78.6246 40.7367 80.3603 40.4474 81.159 41.1319C82.0961 41.026 82.7452 42.3163 82.5313 42.7835Z" fill="#333D7B"/>
<path d="M121.078 28.088C120.611 27.8741 120.232 26.2063 121.038 25.941C121.1 25.0492 122.257 24.1813 122.689 24.5686C123.125 24.1813 123.414 25.917 122.73 26.7157C122.836 27.6528 121.545 28.3019 121.078 28.088Z" fill="#333D7B"/>
<path d="M141.231 67.2968C141.445 66.8296 143.113 66.4508 143.378 67.2564C144.27 67.3186 145.138 68.4758 144.751 68.9081C145.138 69.3436 143.402 69.6329 142.604 68.9485C141.667 69.0543 141.017 67.7641 141.231 67.2968Z" fill="#333D7B"/>
<path d="M105.113 81.5753C105.58 81.7893 105.959 83.457 105.153 83.7224C105.091 84.6141 103.934 85.482 103.501 85.0947C103.066 85.482 102.777 83.7464 103.461 82.9477C103.355 82.0106 104.645 81.3614 105.113 81.5753Z" fill="#333D7B"/>
<path d="M119.675 98.2602C116.309 105.611 110.83 110.831 102.033 106.803C93.2355 102.775 95.2965 95.6082 94.5558 95.2691C93.8151 94.93 89.8638 101.231 80.9391 97.1453C72.0145 93.0592 72.2668 86.0972 75.8785 78.2086C79.4903 70.3199 109.301 60.9379 110.028 61.2708C110.755 61.6037 123.036 90.9071 119.67 98.2581L119.675 98.2602Z" fill="#F489AC"/>
<path d="M106.944 77.1819C106.708 75.9539 102.232 74.5862 101.685 74.7588C101.137 74.9313 100.648 78.0968 102.046 79.3439C103.444 80.591 107.181 78.41 106.944 77.1819Z" stroke="#333D7B" stroke-width="1.19" stroke-miterlimit="10"/>
<path d="M99.5022 79.445C99.9694 79.6589 100.348 81.3266 99.5426 81.592C99.4804 82.4837 98.3232 83.3517 97.8909 82.9643C97.4554 83.3517 97.1661 81.616 97.8505 80.8173C97.7447 79.8802 99.035 79.2311 99.5022 79.445Z" fill="#333D7B"/>
<path d="M105.113 81.5753C105.58 81.7893 105.959 83.457 105.153 83.7224C105.091 84.6141 103.934 85.482 103.501 85.0947C103.066 85.482 102.777 83.7464 103.461 82.9477C103.355 82.0106 104.645 81.3614 105.113 81.5753Z" fill="#333D7B"/>
<path d="M80.4008 48.3944C80.1869 48.8616 78.5192 49.2404 78.2538 48.4347C77.3621 48.3725 76.4942 47.2154 76.8815 46.7831C76.4942 46.3475 78.2298 46.0583 79.0285 46.7427C79.9656 46.6368 80.6148 47.9271 80.4008 48.3944Z" fill="#333D7B"/>
</svg>
