<svg width="223" height="112" viewBox="0 0 223 112" fill="none" xmlns="http://www.w3.org/2000/svg">
<path d="M111.5 111.5C142.904 111.5 168.363 109.807 168.363 107.718C168.363 105.629 142.904 103.936 111.5 103.936C80.0956 103.936 54.6373 105.629 54.6373 107.718C54.6373 109.807 80.0956 111.5 111.5 111.5Z" fill="#F9CDAB"/>
<path d="M115.35 2.64366L118.59 12.339C118.888 13.2259 119.827 13.6108 120.569 13.1391L128.648 8.03289C131.582 6.1761 135.012 9.3802 133.88 12.924L130.766 22.6721C130.481 23.5665 130.983 24.5327 131.82 24.7025L140.956 26.5744C144.276 27.2537 145.052 32.1636 142.142 34.0657L134.131 39.304C133.395 39.7833 133.222 40.8815 133.765 41.6137L139.685 49.588C141.837 52.4865 139.597 56.8039 136.269 56.1774L127.109 54.4565C126.269 54.298 125.503 55.015 125.496 55.9623L125.428 66.3067C125.405 70.0656 121.199 71.7714 119.01 68.907L112.988 61.0307C112.436 60.3099 111.436 60.3099 110.884 61.0307L104.862 68.907C102.673 71.7677 98.4678 70.0656 98.4441 66.3067L98.3764 55.9623C98.3696 55.015 97.6037 54.298 96.7633 54.4565L87.6036 56.1774C84.2759 56.8039 82.036 52.4865 84.1878 49.588L90.1079 41.6137C90.6501 40.8815 90.4773 39.7833 89.7419 39.304L81.731 34.0657C78.8201 32.1636 79.5961 27.2537 82.9171 26.5744L92.053 24.7025C92.89 24.5327 93.3916 23.5665 93.1069 22.6721L89.9927 12.924C88.8609 9.3802 92.2902 6.1761 95.2249 8.03289L103.304 13.1391C104.046 13.607 104.984 13.2259 105.283 12.339L108.522 2.64366C109.701 -0.881222 114.175 -0.881222 115.354 2.64366H115.35Z" fill="#858BB0"/>
<path d="M107.85 58.9973C107.85 58.9973 105.565 105.686 104.864 107.406L90.0596 107.147C89.7569 107.147 89.4875 106.939 89.3811 106.616C88.9387 105.283 88.1671 103.21 89.6538 101.707C91.4964 99.85 99.1396 102.246 99.4389 99.8652C103.946 63.7394 102.825 59.2517 102.825 59.2517" stroke="#333D7B" stroke-width="1.57" stroke-miterlimit="10" stroke-linecap="round"/>
<path d="M114.66 59.4643C114.66 59.4643 115.885 105.686 116.611 107.406H132.849C133.162 107.406 133.441 107.197 133.551 106.874C134.009 105.541 135.179 103.469 133.641 101.965C131.734 100.109 123.827 102.504 123.517 100.124C118.855 64.001 120.486 58.9973 120.486 58.9973" stroke="#333D7B" stroke-width="1.57" stroke-miterlimit="10" stroke-linecap="round"/>
<path d="M137.454 51.7862L140.003 94.4799C140.023 94.797 139.999 95.1203 139.925 95.4328C139.688 96.4368 138.962 98.4948 136.941 98.7288C135.867 98.8535 135.226 98.3487 134.848 97.6993C134.289 96.7484 134.359 95.4805 134.939 94.4923C135.236 93.9882 135.524 93.347 135.51 92.7642C135.485 91.5609 132.764 50.9827 132.764 50.9827" stroke="#333D7B" stroke-width="1.57" stroke-miterlimit="10" stroke-linecap="round"/>
<path d="M89.5102 50.1559L86.7472 93.3897C86.7264 93.7125 86.7472 94.0354 86.8198 94.3507C87.0515 95.3534 87.7742 97.4084 89.8076 97.5641C90.8865 97.6477 91.5331 97.1121 91.917 96.4398C92.4807 95.456 92.4219 94.1759 91.8409 93.2073C91.5435 92.7097 91.2599 92.0754 91.2738 91.4866C91.3049 90.2711 94.2304 49.1646 94.2304 49.1646" stroke="#333D7B" stroke-width="1.57" stroke-miterlimit="10" stroke-linecap="round"/>
<path d="M101.918 30.8737C101.525 27.7241 104.281 20.8343 109.005 20.2435C114.311 19.5799 117.273 20.8341 119.044 25.5585C121.932 33.2601 117.003 33.6129 113.139 37.9603C108.414 43.2752 111.564 48.1964 111.958 49.1806" stroke="#333D7B" stroke-width="2" stroke-linecap="round"/>
<circle cx="113.101" cy="54.9208" r="1.77164" fill="#333D7B"/>
</svg>
