<svg width="223" height="112" viewBox="0 0 223 112" fill="none" xmlns="http://www.w3.org/2000/svg">
<path d="M109.765 111.5C142.808 111.5 169.595 109.813 169.595 107.733C169.595 105.653 142.808 103.966 109.765 103.966C76.7211 103.966 49.9341 105.653 49.9341 107.733C49.9341 109.813 76.7211 111.5 109.765 111.5Z" fill="#F9CDAB"/>
<path d="M89.689 2.63318L93.0977 12.29C93.4114 13.1734 94.3991 13.5568 95.18 13.087L103.68 8.00103C106.768 6.1516 110.376 9.34299 109.186 12.8727L105.909 22.5822C105.609 23.4731 106.137 24.4354 107.018 24.6045L116.631 26.469C120.125 27.1456 120.941 32.0361 117.878 33.9306L109.449 39.1481C108.676 39.6255 108.494 40.7193 109.064 41.4486L115.293 49.3913C117.558 52.2783 115.201 56.5785 111.699 55.9546L102.062 54.2405C101.177 54.0826 100.371 54.7968 100.364 55.7403L100.293 66.0437C100.268 69.7877 95.8432 71.4867 93.5398 68.6337L87.2038 60.7886C86.6226 60.0707 85.5707 60.0707 84.9896 60.7886L78.6535 68.6337C76.3501 71.483 71.9253 69.7877 71.9003 66.0437L71.829 55.7403C71.8219 54.7968 71.016 54.0826 70.1318 54.2405L60.494 55.9546C56.9926 56.5785 54.6358 52.2783 56.8999 49.3913L63.129 41.4486C63.6995 40.7193 63.5176 39.6255 62.7439 39.1481L54.3149 33.9306C51.252 32.0361 52.0685 27.1456 55.5628 26.469L65.1756 24.6045C66.0563 24.4354 66.584 23.4731 66.2845 22.5822L63.0077 12.8727C61.8168 9.34299 65.4252 6.1516 68.513 8.00103L77.0133 13.087C77.7942 13.5531 78.7819 13.1734 79.0956 12.29L82.5043 2.63318C83.7452 -0.877726 88.4517 -0.877726 89.6925 2.63318H89.689Z" fill="#858BB0"/>
<path d="M135.797 2.63318L132.388 12.29C132.074 13.1734 131.086 13.5568 130.306 13.087L121.805 8.00103C118.717 6.1516 115.109 9.34299 116.3 12.8727L119.577 22.5822C119.876 23.4731 119.349 24.4354 118.468 24.6045L108.855 26.469C105.361 27.1456 104.544 32.0361 107.607 33.9306L116.036 39.1481C116.81 39.6255 116.992 40.7193 116.421 41.4486L110.192 49.3913C107.928 52.2783 110.285 56.5785 113.786 55.9546L123.424 54.2404C124.308 54.0826 125.114 54.7968 125.121 55.7403L125.193 66.0437C125.217 69.7877 129.642 71.4867 131.946 68.6337L138.282 60.7886C138.863 60.0707 139.915 60.0707 140.496 60.7886L146.832 68.6337C149.135 71.483 153.56 69.7877 153.585 66.0437L153.657 55.7403C153.664 54.7968 154.47 54.0826 155.354 54.2404L164.992 55.9546C168.493 56.5785 170.85 52.2783 168.586 49.3913L162.357 41.4486C161.786 40.7193 161.968 39.6255 162.742 39.1481L171.171 33.9306C174.234 32.0361 173.417 27.1456 169.923 26.469L160.31 24.6045C159.429 24.4354 158.902 23.4731 159.201 22.5822L162.478 12.8727C163.669 9.34299 160.06 6.1516 156.973 8.00103L148.472 13.087C147.691 13.5531 146.704 13.1734 146.39 12.29L142.981 2.63318C141.74 -0.877726 137.034 -0.877726 135.793 2.63318H135.797Z" fill="#F489AC"/>
<path d="M74.6717 33.9674C74.4495 33.0676 75.1974 32.2316 76.0547 32.4228C78.108 32.8802 81.3784 33.8999 81.7488 35.8156C82.1193 37.7314 80.2918 38.6724 79.0817 39.0847C78.4502 39.2984 77.7552 39.1297 77.2789 38.6386C76.4604 37.8026 75.2327 36.2393 74.6753 33.9674H74.6717Z" fill="#333D7B"/>
<path d="M146.953 31.8281C146.389 31.0533 145.19 30.9286 144.737 31.5985C143.652 33.2025 142.157 35.9633 143.43 37.5489C144.704 39.1346 146.751 38.6602 147.937 38.1971C148.555 37.9543 148.911 37.4016 148.854 36.7572C148.763 35.6556 148.378 33.7844 146.951 31.8303L146.953 31.8281Z" fill="#333D7B"/>
<path d="M96.0885 33.9674C96.3108 33.0676 95.5629 32.2316 94.7056 32.4228C92.6523 32.8802 89.3819 33.8999 89.0114 35.8156C88.641 37.7314 90.4685 38.6724 91.6786 39.0847C92.3101 39.2984 93.0051 39.1297 93.4814 38.6386C94.2998 37.8026 95.5276 36.2393 96.085 33.9674H96.0885Z" fill="#333D7B"/>
<path d="M133.673 31.8282C134.237 31.0533 135.436 30.9286 135.889 31.5985C136.974 33.2025 138.469 35.9633 137.195 37.549C135.921 39.1346 133.875 38.6602 132.689 38.1971C132.071 37.9544 131.714 37.4016 131.771 36.7573C131.863 35.6556 132.248 33.7845 133.675 31.8304L133.673 31.8282Z" fill="#333D7B"/>
<path d="M89.6762 44.6825C89.7301 43.8531 89.0796 43.1755 88.3177 43.2845C86.5746 43.5377 83.4082 43.8453 81.7406 43.0782C79.3613 41.9878 83.9365 47.8406 87.2323 47.4434C89.112 47.2175 89.6007 45.8312 89.6726 44.6825H89.6762Z" stroke="#333D7B" stroke-miterlimit="10"/>
<path d="M135.809 44.6825C135.755 43.8531 136.406 43.1755 137.168 43.2845C138.911 43.5377 142.077 43.8453 143.745 43.0782C146.124 41.9878 144.571 46.9829 141.275 46.5857C139.396 46.3599 135.885 45.8313 135.813 44.6825H135.809Z" stroke="#333D7B" stroke-miterlimit="10"/>
<path d="M89.1336 46.7093C89.1336 46.7093 81.0123 43.9904 81.0814 43.7323C81.1504 43.4742 83.5523 44.6956 88.8465 43.9468C89.5405 44.4229 90.1655 45.0736 89.1336 46.7093Z" fill="#333D7B"/>
<path d="M84.6037 40.6925C85.3935 40.5609 85.704 41.753 84.9449 42.0201C84.9334 42.0201 84.9219 42.028 84.9142 42.032C84.1705 42.2752 80.5705 42.1835 78.3814 42.1038C78.1705 42.0958 78.1552 41.7809 78.3622 41.745L84.6075 40.6925H84.6037Z" fill="#333D7B"/>
<path d="M86.1566 40.6925C85.3669 40.5609 85.0563 41.753 85.8154 42.0201C85.8269 42.0201 85.8384 42.028 85.8461 42.032C86.5898 42.2752 90.1898 42.1835 92.3789 42.1038C92.5898 42.0958 92.6051 41.7809 92.3981 41.745L86.1528 40.6925H86.1566Z" fill="#333D7B"/>
<path d="M81.7975 58.7634C81.7975 58.7634 79.3932 105.266 78.6548 106.98L63.0782 106.722C62.7597 106.722 62.4762 106.514 62.3642 106.193C61.8988 104.866 61.0869 102.801 62.6512 101.303C64.59 99.4541 72.632 101.84 72.947 99.4692C77.6889 63.4867 76.5096 59.0168 76.5096 59.0168" stroke="#333D7B" stroke-width="1.57" stroke-miterlimit="10" stroke-linecap="round"/>
<path d="M143.688 58.7634C143.688 58.7634 146.092 105.266 146.831 106.98L162.407 106.722C162.726 106.722 163.009 106.514 163.121 106.193C163.587 104.866 164.399 102.801 162.834 101.303C160.896 99.4541 152.853 101.84 152.539 99.4692C147.797 63.4867 148.976 59.0168 148.976 59.0168" stroke="#333D7B" stroke-width="1.57" stroke-miterlimit="10" stroke-linecap="round"/>
<path d="M88.9628 59.2285C88.9628 59.2285 90.2517 105.267 91.0156 106.98H108.101C108.431 106.98 108.724 106.772 108.84 106.45C109.321 105.123 110.552 103.058 108.934 101.561C106.928 99.7118 98.6079 102.098 98.2821 99.7269C93.3762 63.7473 95.0924 58.7634 95.0924 58.7634" stroke="#333D7B" stroke-width="1.57" stroke-miterlimit="10" stroke-linecap="round"/>
<path d="M136.523 59.2285C136.523 59.2285 135.234 105.267 134.47 106.98H117.384C117.055 106.98 116.762 106.772 116.646 106.45C116.164 105.123 114.933 103.058 116.552 101.561C118.557 99.7118 126.878 102.098 127.203 99.7269C132.109 63.7473 130.393 58.7634 130.393 58.7634" stroke="#333D7B" stroke-width="1.57" stroke-miterlimit="10" stroke-linecap="round"/>
<path d="M111.162 53.49L123.226 94.5308C123.316 94.8355 123.363 95.1554 123.356 95.4752C123.334 96.5025 123.042 98.6585 121.015 99.3095C119.938 99.6557 119.167 99.2982 118.634 98.7451C117.849 97.9361 117.64 96.6868 118.019 95.6032C118.213 95.05 118.368 94.3652 118.224 93.8008C117.932 92.6343 106.16 53.6894 106.16 53.6894" stroke="#333D7B" stroke-width="1.57" stroke-miterlimit="10" stroke-linecap="round"/>
<path d="M114.324 53.49L102.259 94.5308C102.169 94.8355 102.123 95.1554 102.13 95.4752C102.151 96.5025 102.443 98.6585 104.471 99.3095C105.547 99.6557 106.318 99.2982 106.851 98.7451C107.636 97.9361 107.845 96.6868 107.467 95.6032C107.272 95.05 107.118 94.3652 107.262 93.8008C107.553 92.6343 119.326 53.6894 119.326 53.6894" stroke="#333D7B" stroke-width="1.57" stroke-miterlimit="10" stroke-linecap="round"/>
<path d="M62.5001 49.9571L59.5929 93.0193C59.5711 93.3409 59.5929 93.6624 59.6693 93.9765C59.9131 94.9753 60.6736 97.0221 62.8131 97.1772C63.9483 97.2604 64.6287 96.727 65.0326 96.0573C65.6257 95.0774 65.5638 93.8024 64.9525 92.8377C64.6396 92.3421 64.3413 91.7102 64.3558 91.1238C64.3886 89.9131 67.4668 48.9696 67.4668 48.9696" stroke="#333D7B" stroke-width="1.57" stroke-miterlimit="10" stroke-linecap="round"/>
<path d="M162.985 49.9571L165.893 93.0193C165.914 93.3409 165.893 93.6624 165.816 93.9765C165.572 94.9753 164.812 97.0221 162.672 97.1772C161.537 97.2604 160.857 96.727 160.453 96.0573C159.86 95.0774 159.922 93.8024 160.533 92.8377C160.846 92.3421 161.144 91.7102 161.13 91.1238C161.097 89.9131 158.019 48.9696 158.019 48.9696" stroke="#333D7B" stroke-width="1.57" stroke-miterlimit="10" stroke-linecap="round"/>
</svg>
