<svg width="223" height="112" viewBox="0 0 223 112" fill="none" xmlns="http://www.w3.org/2000/svg">
<path d="M111.5 111.5C142.78 111.5 168.137 109.813 168.137 107.733C168.137 105.653 142.78 103.966 111.5 103.966C80.2201 103.966 54.8627 105.653 54.8627 107.733C54.8627 109.813 80.2201 111.5 111.5 111.5Z" fill="#F9CDAB"/>
<path d="M117.169 2.63318L120.395 12.29C120.692 13.1734 121.627 13.5568 122.367 13.0869L130.413 8.00102C133.336 6.1516 136.752 9.34298 135.625 12.8727L132.523 22.5822C132.239 23.473 132.739 24.4354 133.572 24.6045L142.672 26.469C145.98 27.1456 146.753 32.036 143.854 33.9306L135.874 39.1481C135.142 39.6255 134.97 40.7193 135.51 41.4486L141.406 49.3913C143.55 52.2782 141.319 56.5785 138.004 55.9545L128.881 54.2404C128.044 54.0825 127.281 54.7968 127.274 55.7403L127.207 66.0437C127.183 69.7876 122.994 71.4867 120.814 68.6336L114.816 60.7886C114.266 60.0706 113.27 60.0706 112.72 60.7886L106.722 68.6336C104.542 71.4829 100.353 69.7876 100.329 66.0437L100.262 55.7403C100.255 54.7968 99.4923 54.0825 98.6552 54.2404L89.5319 55.9545C86.2173 56.5785 83.9863 52.2782 86.1296 49.3913L92.0262 41.4486C92.5662 40.7193 92.3941 39.6255 91.6617 39.1481L83.6825 33.9306C80.7831 32.036 81.5561 27.1456 84.8639 26.469L93.9636 24.6045C94.7973 24.4354 95.2968 23.473 95.0133 22.5822L91.9114 12.8727C90.7841 9.34298 94.1999 6.1516 97.1229 8.00102L105.17 13.0869C105.909 13.5531 106.844 13.1734 107.141 12.29L110.367 2.63318C111.542 -0.877725 115.997 -0.877725 117.172 2.63318H117.169Z" fill="#858BB0"/>
<path d="M102.953 33.9674C102.742 33.0676 103.45 32.2316 104.262 32.4228C106.206 32.8802 109.301 33.8999 109.652 35.8156C110.003 37.7314 108.273 38.6724 107.127 39.0847C106.53 39.2984 105.872 39.1297 105.421 38.6386C104.646 37.8026 103.484 36.2393 102.956 33.9674H102.953Z" fill="#333D7B"/>
<path d="M123.227 33.9674C123.437 33.0676 122.729 32.2316 121.917 32.4228C119.974 32.8802 116.878 33.8999 116.527 35.8156C116.176 37.7314 117.906 38.6724 119.052 39.0847C119.65 39.2984 120.308 39.1297 120.758 38.6386C121.533 37.8026 122.696 36.2393 123.223 33.9674H123.227Z" fill="#333D7B"/>
<path d="M117.156 44.6826C117.207 43.8532 116.592 43.1756 115.87 43.2847C114.22 43.5378 111.223 43.8454 109.644 43.0783C107.392 41.9879 111.723 47.8407 114.843 47.4435C116.622 47.2177 117.085 45.8314 117.153 44.6826H117.156Z" stroke="#333D7B" stroke-miterlimit="10"/>
<path d="M116.643 46.7094C116.643 46.7094 108.955 43.9905 109.02 43.7324C109.086 43.4743 111.359 44.6957 116.371 43.9469C117.028 44.4231 117.62 45.0737 116.643 46.7094Z" fill="#333D7B"/>
<path d="M112.355 40.6925C113.102 40.5609 113.396 41.753 112.678 42.0201C112.667 42.0201 112.656 42.028 112.649 42.032C111.945 42.2752 108.537 42.1835 106.464 42.1038C106.265 42.0958 106.25 41.7809 106.446 41.745L112.358 40.6925H112.355Z" fill="#333D7B"/>
<path d="M113.825 40.6925C113.077 40.5609 112.783 41.753 113.502 42.0201C113.513 42.0201 113.523 42.028 113.531 42.032C114.235 42.2752 117.643 42.1835 119.715 42.1038C119.915 42.0958 119.929 41.7809 119.733 41.745L113.821 40.6925H113.825Z" fill="#333D7B"/>
<path d="M107.42 59.1272C107.42 59.1272 105.144 105.63 104.445 107.343L89.6994 107.086C89.398 107.086 89.1296 106.878 89.0236 106.557C88.583 105.229 87.8145 103.165 89.2953 101.667C91.1306 99.8178 98.7434 102.204 99.0416 99.833C103.53 63.8505 102.414 59.3806 102.414 59.3806" stroke="#333D7B" stroke-width="1.57" stroke-miterlimit="10" stroke-linecap="round"/>
<path d="M119.014 59.5923C119.014 59.5923 120.234 105.63 120.957 107.343H137.131C137.443 107.343 137.72 107.135 137.83 106.814C138.286 105.487 139.451 103.422 137.919 101.925C136.02 100.076 128.144 102.462 127.836 100.091C123.192 64.111 124.817 59.1272 124.817 59.1272" stroke="#333D7B" stroke-width="1.57" stroke-miterlimit="10" stroke-linecap="round"/>
<path d="M137.495 53.49L148.916 94.5307C149.001 94.8355 149.045 95.1554 149.038 95.4752C149.018 96.5024 148.742 98.6585 146.823 99.3095C145.803 99.6557 145.074 99.2982 144.569 98.7451C143.826 97.9361 143.628 96.6868 143.986 95.6031C144.17 95.05 144.317 94.3652 144.181 93.8008C143.904 92.6343 132.76 53.6894 132.76 53.6894" stroke="#333D7B" stroke-width="1.57" stroke-miterlimit="10" stroke-linecap="round"/>
<path d="M91.4308 49.9569L88.6788 93.0191C88.6581 93.3407 88.6788 93.6623 88.7511 93.9763C88.9819 94.9751 89.7018 97.0219 91.7271 97.177C92.8017 97.2603 93.4458 96.7268 93.8281 96.0572C94.3896 95.0773 94.331 93.8023 93.7524 92.8375C93.4561 92.3419 93.1737 91.7101 93.1875 91.1237C93.2185 89.913 96.1324 48.9695 96.1324 48.9695" stroke="#333D7B" stroke-width="1.57" stroke-miterlimit="10" stroke-linecap="round"/>
<path d="M108.815 52.5499H117.249H118.625C118.788 52.5499 118.882 52.7339 118.788 52.8663L115.529 57.4215C115.5 57.4608 115.487 57.5091 115.492 57.5573L117.239 75.4564C117.245 75.5261 117.215 75.5943 117.159 75.6362L112.972 78.7574C112.894 78.8151 112.787 78.8092 112.716 78.7434L108.508 74.8231C108.457 74.7756 108.435 74.705 108.449 74.6367L111.938 57.568C111.949 57.5135 111.937 57.4568 111.905 57.4116L108.653 52.8663C108.558 52.7339 108.653 52.5499 108.815 52.5499Z" fill="#333D7B" stroke="#333D7B" stroke-width="3"/>
</svg>
