<svg width="220" height="220" viewBox="0 0 220 220" fill="none" xmlns="http://www.w3.org/2000/svg">
<g clip-path="url(#clip0_2352_4489)">
<path opacity="0.12" d="M46.5361 208.734C42.6906 208.747 39.2838 206.908 38.1353 204.191C35.4512 197.862 31.7412 185.97 28.2118 173.827C-3.67499 166.833 24.7147 144.896 24.7147 144.896C13.746 128.765 16.101 94.891 31.1669 93.9231C36.1803 93.6005 41.7937 99.5624 45.936 103.105C61.4923 118.442 60.7116 105.098 61.3052 99.3494L63.2925 79.967C63.828 74.7343 72.0997 72.1147 77.5841 75.4376L107.277 93.4263C110.071 95.1233 113.987 95.3684 117.136 94.0586L153.759 88.7614C159.998 86.1611 183.613 92.5295 182.794 97.7945C196.989 118.442 171.025 134.056 170.993 134.533C170.535 142.386 208.945 157.832 210.538 164.872C213.764 179.17 184.91 195.745 176.625 205.34C175.032 207.185 172.27 208.288 169.309 208.301L46.5361 208.734Z" fill="#858BB0" stroke="#858BB0" stroke-linecap="round" stroke-linejoin="round"/>
<path d="M154.404 22.7597C160.211 25.8632 156.985 36.1867 145.048 34.6769C146.661 40.6968 142.145 47.149 131.866 39.871C129.24 44.5682 118.917 43.2777 109.884 38.7612C109.884 43.9229 104.077 45.8586 100.851 42.6325C98.2698 49.0847 86.0106 43.9229 86.0106 37.4707C80.8488 43.9229 73.1062 41.9873 72.3448 38.6837C62.1374 43.2777 60.847 38.116 60.9438 33.3349C56.3304 35.5351 47.2973 29.7281 56.9757 24.5663C52.4591 14.2428 62.7826 15.5332 66.654 18.7593C68.3961 7.06793 71.8157 6.5453 76.3323 9.08102C76.3323 5.25486 84.0749 -4.46862 92.1273 2.81592C96.9793 -3.8234 104.722 4.95806 106.012 9.08102C111.819 -1.88774 120.207 -2.53296 128.066 4.71287C141.5 0.0479265 145.371 4.56447 145.81 11.2812C152.468 9.08102 160.856 12.9523 154.404 22.7532V22.7597Z" fill="#858BB0" stroke="#858BB0" stroke-linecap="round" stroke-linejoin="round"/>
<path d="M73.6613 48.4394L74.4872 50.9235C74.7259 51.6332 74.4227 52.4462 73.7452 52.743C73.3 52.9366 72.8225 52.8398 72.558 51.8203C71.9708 49.5621 73.6613 48.4329 73.6613 48.4329V48.4394Z" fill="#858BB0" stroke="#858BB0" stroke-linecap="round" stroke-linejoin="round"/>
<path d="M99.1213 60.2491L99.9471 62.7332C100.186 63.4429 99.8826 64.2559 99.2051 64.5527C98.7599 64.7463 98.2825 64.6495 98.0179 63.63C97.4308 61.3718 99.1213 60.2426 99.1213 60.2426V60.2491Z" fill="#858BB0" stroke="#858BB0" stroke-linecap="round" stroke-linejoin="round"/>
<path d="M91.4563 78.3734L92.0822 80.2445C92.2564 80.7736 92.037 81.3866 91.5208 81.6124C91.1853 81.7608 90.824 81.6834 90.624 80.922C90.1788 79.2251 91.4563 78.3734 91.4563 78.3734Z" fill="#858BB0" stroke="#858BB0" stroke-linecap="round" stroke-linejoin="round"/>
<path d="M84.075 66.9658L84.7008 68.8369C84.875 69.366 84.6557 69.9789 84.1395 70.2048C83.804 70.3532 83.4426 70.2757 83.2426 69.5144C82.7974 67.8174 84.075 66.9658 84.075 66.9658Z" fill="#858BB0" stroke="#858BB0" stroke-linecap="round" stroke-linejoin="round"/>
<path d="M76.907 78.6959L77.5329 80.567C77.7071 81.0961 77.4877 81.709 76.9715 81.9349C76.636 82.0833 76.2747 82.0058 76.0747 81.2445C75.6295 79.5476 76.907 78.6959 76.907 78.6959Z" fill="#858BB0" stroke="#858BB0" stroke-linecap="round" stroke-linejoin="round"/>
<path d="M85.2614 51.2397L86.0873 53.7238C86.326 54.4336 86.0228 55.2465 85.3453 55.5434C84.9001 55.7369 84.4226 55.6401 84.1581 54.6207C83.5709 52.3624 85.2614 51.2333 85.2614 51.2333V51.2397Z" fill="#858BB0" stroke="#858BB0" stroke-linecap="round" stroke-linejoin="round"/>
<path d="M140.642 47.562L141.468 50.0461C141.706 50.7558 141.403 51.5688 140.726 51.8656C140.28 52.0592 139.803 51.9624 139.538 50.943C138.951 48.6847 140.642 47.5555 140.642 47.5555V47.562Z" fill="#858BB0" stroke="#858BB0" stroke-linecap="round" stroke-linejoin="round"/>
<path d="M104.29 50.6977L105.116 53.1818C105.355 53.8916 105.052 54.7046 104.374 55.0014C103.929 55.1949 103.451 55.0981 103.187 54.0787C102.6 51.8204 104.29 50.6913 104.29 50.6913V50.6977Z" fill="#858BB0" stroke="#858BB0" stroke-linecap="round" stroke-linejoin="round"/>
<path d="M137.911 60.9523L138.537 62.8235C138.711 63.3525 138.492 63.9655 137.976 64.1913C137.64 64.3397 137.279 64.2623 137.079 63.501C136.634 61.804 137.911 60.9523 137.911 60.9523Z" fill="#858BB0" stroke="#858BB0" stroke-linecap="round" stroke-linejoin="round"/>
<path d="M119.613 46.3747L120.439 48.8588C120.678 49.5685 120.375 50.3815 119.697 50.6783C119.252 50.8719 118.775 50.7751 118.51 49.7556C117.923 47.4974 119.613 46.3682 119.613 46.3682V46.3747Z" fill="#858BB0" stroke="#858BB0" stroke-linecap="round" stroke-linejoin="round"/>
<path d="M123.363 61.2749L123.988 63.146C124.163 63.6751 123.943 64.2881 123.427 64.5139C123.092 64.6623 122.73 64.5849 122.53 63.8235C122.085 62.1266 123.363 61.2749 123.363 61.2749Z" fill="#858BB0" stroke="#858BB0" stroke-linecap="round" stroke-linejoin="round"/>
<path d="M102.613 71.1211L103.238 72.9922C103.413 73.5213 103.193 74.1343 102.677 74.3601C102.342 74.5085 101.98 74.4311 101.78 73.6697C101.335 71.9728 102.613 71.1211 102.613 71.1211Z" fill="#858BB0" stroke="#858BB0" stroke-linecap="round" stroke-linejoin="round"/>
<path d="M114.556 56.3261L115.382 58.8102C115.62 59.5199 115.317 60.3329 114.64 60.6297C114.195 60.8233 113.717 60.7265 113.453 59.707C112.865 57.4488 114.556 56.3196 114.556 56.3196V56.3261Z" fill="#858BB0" stroke="#858BB0" stroke-linecap="round" stroke-linejoin="round"/>
<path d="M123.343 70.7856L123.968 72.6568C124.143 73.1859 123.923 73.7988 123.407 74.0247C123.072 74.1731 122.71 74.0956 122.51 73.3343C122.065 71.6373 123.343 70.7856 123.343 70.7856Z" fill="#858BB0" stroke="#858BB0" stroke-linecap="round" stroke-linejoin="round"/>
<path d="M98.8962 65.0817L99.5221 66.9529C99.6963 67.4819 99.477 68.0949 98.9608 68.3207C98.6253 68.4691 98.2639 68.3917 98.0639 67.6303C97.6187 65.9334 98.8962 65.0817 98.8962 65.0817Z" fill="#858BB0" stroke="#858BB0" stroke-linecap="round" stroke-linejoin="round"/>
<path d="M110 220C168.542 220 216 216.642 216 212.5C216 208.358 168.542 205 110 205C51.4578 205 4 208.358 4 212.5C4 216.642 51.4578 220 110 220Z" fill="#F9CDAB"/>
<path d="M132.486 58.7585H82.7657C74.7586 58.7585 68.2676 65.2495 68.2676 73.2566V139.108C68.2676 147.115 74.7586 153.606 82.7657 153.606H132.486C140.493 153.606 146.984 147.115 146.984 139.108V73.2566C146.984 65.2495 140.493 58.7585 132.486 58.7585Z" fill="#F489AC"/>
<path d="M86.9788 144.573C86.9788 144.573 96.0119 200.507 89.5597 203.856C83.1075 207.204 79.2362 202.423 77.9457 206.727C77.4812 208.269 77.3521 209.495 77.3715 210.437C77.4037 211.798 78.8103 212.87 80.5072 212.87H94.9989C97.0959 212.87 98.7928 211.508 98.7928 209.824V147.773" stroke="#333D7B" stroke-width="2" stroke-linecap="round" stroke-linejoin="round"/>
<path d="M122.736 144.573C122.736 144.573 113.703 200.507 120.155 203.856C126.608 207.204 130.479 202.423 131.769 206.727C132.182 208.095 132.331 209.218 132.344 210.108C132.363 211.631 130.821 212.87 128.917 212.87H114.845C112.684 212.87 110.929 211.463 110.929 209.721V147.773" stroke="#333D7B" stroke-width="2" stroke-linecap="round" stroke-linejoin="round"/>
<path d="M89.8815 105.795C89.8815 106.911 89.2234 109.447 88.6298 108.602C87.991 107.686 87.5393 108.46 87.049 108.628C86.6683 108.757 85.5908 108.628 85.1649 108.628C84.4165 108.628 84.6294 108.557 84.0745 108.976C83.6809 109.273 83.6809 108.789 83.2809 108.628C82.6679 108.389 82.5131 108.002 82.6808 107.376C82.7712 107.053 82.3389 106.744 82.4808 106.402C82.5647 106.208 82.3389 105.795 82.3389 105.795C82.3389 103.711 84.0293 102.021 86.1134 102.021C88.1975 102.021 89.888 103.711 89.888 105.795H89.8815Z" fill="#333D7B" stroke="#333D7B" stroke-linecap="round" stroke-linejoin="round"/>
<path d="M104.975 105.795C104.975 106.911 104.317 109.447 103.723 108.602C103.084 107.686 102.633 108.46 102.142 108.628C101.762 108.757 100.684 108.628 100.258 108.628C99.5097 108.628 99.7227 108.557 99.1678 108.976C98.7742 109.273 98.7742 108.789 98.3741 108.628C97.7612 108.389 97.6063 108.002 97.7741 107.376C97.8644 107.053 97.4321 106.744 97.5741 106.402C97.658 106.208 97.4321 105.795 97.4321 105.795C97.4321 103.711 99.1226 102.021 101.207 102.021C103.291 102.021 104.981 103.711 104.981 105.795H104.975Z" fill="#333D7B" stroke="#333D7B" stroke-linecap="round" stroke-linejoin="round"/>
<path d="M77.6235 101.021L84.2112 96.0846C84.2112 96.0846 85.3081 95.6588 84.2112 94.4974C83.1144 93.336 77.6235 101.021 77.6235 101.021Z" fill="#333D7B" stroke="#333D7B" stroke-linecap="round" stroke-linejoin="round"/>
<path d="M108.271 101.021L101.683 96.0846C101.683 96.0846 100.586 95.6588 101.683 94.4974C102.78 93.336 108.271 101.021 108.271 101.021Z" fill="#333D7B" stroke="#333D7B" stroke-linecap="round" stroke-linejoin="round"/>
<path d="M100.851 121.022C100.851 121.022 101.497 116.506 93.754 117.151C86.0113 117.796 87.947 123.603 87.947 123.603C87.947 123.603 89.2374 125.539 91.8183 124.248C94.3992 122.958 96.3349 122.958 97.6253 123.603C98.9158 124.248 101.497 122.958 100.851 121.022Z" fill="#333D7B" stroke="#333D7B" stroke-linecap="round" stroke-linejoin="round"/>
<path d="M98.2694 119.087C98.2694 119.087 91.172 121.668 89.8815 120.377C88.5911 119.087 96.3337 117.151 98.2694 119.087Z" fill="#F489AC" stroke="#F489AC" stroke-linecap="round" stroke-linejoin="round"/>
<path d="M88.3522 69.2562L89.1781 71.7402C89.4168 72.45 89.1136 73.263 88.4361 73.5598C87.9909 73.7533 87.5134 73.6566 87.2489 72.6371C86.6617 70.3788 88.3522 69.2497 88.3522 69.2497V69.2562Z" fill="#858BB0" stroke="#858BB0" stroke-linecap="round" stroke-linejoin="round"/>
<path d="M109.794 82.1157L110.62 84.5998C110.859 85.3095 110.555 86.1225 109.878 86.4193C109.433 86.6129 108.955 86.5161 108.691 85.4967C108.104 83.2384 109.794 82.1093 109.794 82.1093V82.1157Z" fill="#858BB0" stroke="#858BB0" stroke-linecap="round" stroke-linejoin="round"/>
<path d="M128.692 55.5776L129.517 58.0617C129.756 58.7714 129.453 59.5844 128.775 59.8812C128.33 60.0747 127.853 59.978 127.588 58.9585C127.001 56.7002 128.692 55.5711 128.692 55.5711V55.5776Z" fill="#858BB0" stroke="#858BB0" stroke-linecap="round" stroke-linejoin="round"/>
<path d="M119.659 69.1273L120.485 71.6114C120.723 72.3211 120.42 73.1341 119.743 73.4309C119.298 73.6245 118.82 73.5277 118.556 72.5083C117.968 70.25 119.659 69.1208 119.659 69.1208V69.1273Z" fill="#858BB0" stroke="#858BB0" stroke-linecap="round" stroke-linejoin="round"/>
<path d="M100.852 62.4429L101.678 64.927C101.916 65.6368 101.613 66.4497 100.936 66.7465C100.49 66.9401 100.013 66.8433 99.7484 65.8239C99.1613 63.5656 100.852 62.4365 100.852 62.4365V62.4429Z" fill="#858BB0" stroke="#858BB0" stroke-linecap="round" stroke-linejoin="round"/>
<path d="M73.2093 125.158C72.2801 124.881 56.4851 126.888 46.6907 117.435C48.5489 110.015 45.297 114.654 44.5098 115.112C35.0896 103.053 38.5674 116.48 38.5674 116.48C38.5674 116.48 46.2197 131.824 72.2027 131.359" stroke="#333D7B" stroke-width="1.5" stroke-linecap="round" stroke-linejoin="round"/>
<path d="M132.711 125.971C132.711 125.971 138.957 123.416 128.13 117.061C119.568 119.022 125.672 115.519 124.781 114.815C118.568 109.892 122.555 108.795 127.627 110.383C133.421 112.196 147.629 121.351 137.176 130.701" stroke="#333D7B" stroke-width="1.5" stroke-linecap="round" stroke-linejoin="round"/>
</g>
<defs>
<clipPath id="clip0_2352_4489">
<rect width="211.081" height="220" fill="white" transform="translate(4.45947)"/>
</clipPath>
</defs>
</svg>
