<svg width="220" height="220" viewBox="0 0 220 220" fill="none" xmlns="http://www.w3.org/2000/svg">
<path opacity="0.12" d="M184.172 22.4487C186.061 23.5531 187.994 24.5458 189.99 25.2229C192.99 26.2485 199.094 31.6852 199.969 58.8295C201.14 95.0197 184.935 85.1258 192.287 104.697C199.64 124.268 228.868 137.067 217.34 158.801C205.812 180.535 202.305 213.576 193.954 215.812C185.603 218.047 17.4042 228.315 28.9273 205.096C40.4505 181.876 61.1655 159.919 38.9504 147.566C16.7354 135.214 -13.8306 146.6 6.87949 112.665C27.5896 78.7292 57.1573 87.6568 49.9719 56.4037C42.7866 25.1506 -4.47149 -6.11564 67.682 1.03036C139.836 8.17637 133.826 34.7422 144.183 18.4451C152.298 5.67165 174.813 16.9659 184.172 22.4552V22.4487Z" fill="#333D7B"/>
<path d="M109.641 220C170.195 220 219.283 217.034 219.283 213.375C219.283 209.715 170.195 206.749 109.641 206.749C49.0881 206.749 0 209.715 0 213.375C0 217.034 49.0881 220 109.641 220Z" fill="#F9CDAB"/>
<path d="M100.843 29.5786L107.094 46.4311C107.67 47.9726 109.481 48.6417 110.913 47.8218L126.501 38.9462C132.164 35.7187 138.781 41.2881 136.597 47.4478L130.588 64.3921C130.039 65.9468 131.007 67.6262 132.622 67.9213L150.25 71.1751C156.658 72.3559 158.155 80.8903 152.539 84.1965L137.081 93.3017C135.662 94.1348 135.329 96.0437 136.375 97.3164L147.798 111.177C151.95 116.215 147.628 123.72 141.207 122.631L123.533 119.64C121.911 119.364 120.434 120.611 120.42 122.257L120.29 140.238C120.244 146.772 112.129 149.737 107.905 144.758L96.286 131.067C95.2202 129.814 93.2912 129.814 92.2254 131.067L80.6061 144.758C76.3821 149.73 68.2675 146.772 68.2218 140.238L68.091 122.257C68.0779 120.611 66.6002 119.364 64.9785 119.64L47.3044 122.631C40.8833 123.72 36.5612 116.215 40.7133 111.177L52.1365 97.3164C53.1827 96.0437 52.8492 94.1348 51.4303 93.3017L35.9728 84.1965C30.356 80.8903 31.8534 72.3559 38.2613 71.1751L55.8897 67.9213C57.5048 67.6262 58.4725 65.9468 57.9233 64.3921L51.9142 47.4478C49.7302 41.2881 56.3474 35.7187 62.01 38.9462L77.5983 47.8218C79.0303 48.6352 80.8415 47.9726 81.4169 46.4311L87.6679 29.5786C89.9434 23.4517 98.5745 23.4517 100.85 29.5786H100.843Z" fill="#858BB0"/>
<path d="M73.3146 84.6097C72.9027 83.0353 74.2889 81.5725 75.8778 81.907C79.6833 82.7074 85.7447 84.4917 86.4313 87.8438C87.1179 91.1959 83.7308 92.8424 81.488 93.564C80.3176 93.9379 79.0294 93.6427 78.1467 92.7834C76.6297 91.3205 74.3543 88.585 73.3211 84.6097H73.3146Z" fill="#333D7B"/>
<path d="M112.129 84.6097C112.541 83.0353 111.154 81.5725 109.566 81.907C105.76 82.7074 99.6986 84.4917 99.0121 87.8438C98.3255 91.1959 101.713 92.8424 103.955 93.564C105.126 93.9379 106.414 93.6427 107.297 92.7834C108.814 91.3205 111.089 88.585 112.122 84.6097H112.129Z" fill="#333D7B"/>
<path d="M100.195 103.601C100.293 102.204 99.1098 101.062 97.7236 101.246C94.5523 101.672 88.7917 102.19 85.7577 100.898C81.4291 99.0614 89.7529 108.921 95.7489 108.252C99.1687 107.871 100.058 105.536 100.189 103.601H100.195Z" stroke="#333D7B" stroke-miterlimit="10"/>
<path d="M99.1293 106.277C99.1293 106.277 84.5152 101.37 84.6395 100.905C84.7637 100.439 89.0858 102.643 98.6127 101.292C99.8616 102.151 100.986 103.325 99.1293 106.277Z" fill="#333D7B"/>
<path d="M161.202 183.199C161.202 183.199 158.881 189.982 163.137 185.915" stroke="#333D7B" stroke-width="0.98" stroke-miterlimit="10"/>
<path d="M184.591 128.2L198.381 159.229C198.44 159.367 198.518 159.491 198.603 159.616L218.494 187.115C219.573 188.611 218.383 190.684 216.552 190.493L182.871 186.964C182.721 186.951 182.577 186.951 182.426 186.964L148.745 190.493C146.915 190.684 145.718 188.611 146.803 187.115L166.694 159.616C166.779 159.498 166.858 159.367 166.917 159.229L180.707 128.2C181.459 126.515 183.845 126.515 184.597 128.2H184.591Z" fill="#F9CDAB"/>
<path d="M197.074 210.495C197.512 212.436 188.763 211.708 188.763 211.708L187.037 185.206" stroke="#333D7B" stroke-width="1.02" stroke-miterlimit="10" stroke-linecap="round"/>
<path d="M190.757 185.987C190.757 185.987 190.574 204.801 191.516 207.49C191.587 207.7 191.829 207.805 192.019 207.694C193.124 207.064 196.681 206.71 197.073 210.495" stroke="#333D7B" stroke-width="1.02" stroke-miterlimit="10" stroke-linecap="round"/>
<path d="M168.518 210.495C168.08 212.436 176.829 211.708 176.829 211.708L178.581 185.206" stroke="#333D7B" stroke-width="1.02" stroke-miterlimit="10" stroke-linecap="round"/>
<path d="M174.862 185.987C174.862 185.987 175.019 204.709 174.103 207.418C174.018 207.667 173.737 207.779 173.502 207.661C172.325 207.057 168.898 206.788 168.519 210.501" stroke="#333D7B" stroke-width="1.02" stroke-miterlimit="10" stroke-linecap="round"/>
<path d="M190.463 170.02C190.463 170.02 190.443 171.89 192.065 172.264" stroke="#333D7B" stroke-width="1.84" stroke-miterlimit="10" stroke-linecap="round"/>
<path d="M175.594 170.02C175.594 170.02 175.208 171.85 173.547 171.863" stroke="#333D7B" stroke-width="1.84" stroke-miterlimit="10" stroke-linecap="round"/>
<path d="M177.712 171.949C177.712 171.949 174.763 172.408 174.574 173.484C174.384 174.559 173.998 174.061 173.58 174.638C173.161 175.215 173.083 176.062 173.58 176.79C174.077 177.518 173.58 178.404 173.58 178.404C173.58 178.404 173.194 179.25 174.266 179.401C175.339 179.552 174.881 180.326 175.476 180.398C176.071 180.477 177.071 180.089 177.104 179.322C177.104 179.322 177.176 178.876 177.719 178.554C178.654 178.003 178.196 177.846 178.105 177.092C178.026 176.442 178.307 176.718 178.791 175.865C179.491 174.645 178.333 174.828 178.333 174.251C178.333 173.674 178.83 173.943 178.909 172.867C178.987 171.791 177.719 171.942 177.719 171.942L177.712 171.949Z" fill="#333D7B"/>
<path d="M187.069 171.719C187.069 171.719 190.018 172.178 190.208 173.254C190.397 174.33 190.783 173.831 191.202 174.409C191.62 174.986 191.699 175.832 191.202 176.56C190.705 177.288 191.202 178.174 191.202 178.174C191.202 178.174 191.588 179.02 190.515 179.171C189.443 179.322 189.901 180.096 189.306 180.168C188.71 180.24 187.71 179.86 187.677 179.092C187.677 179.092 187.605 178.646 187.063 178.325C186.128 177.774 186.585 177.616 186.677 176.862C186.755 176.213 186.474 176.488 185.99 175.635C185.291 174.415 186.448 174.599 186.448 174.022C186.448 173.444 185.951 173.713 185.873 172.637C185.794 171.562 187.063 171.712 187.063 171.712L187.069 171.719Z" fill="#333D7B"/>
<path d="M162.588 190.507L164.746 188.158" stroke="#333D7B" stroke-width="0.98" stroke-miterlimit="10" stroke-linecap="round"/>
<path d="M162.131 185.974L161.006 187.213" stroke="#333D7B" stroke-width="0.98" stroke-miterlimit="10" stroke-linecap="round"/>
<path d="M204.436 187.214L205.848 192.724C206.084 193.931 206.247 195.112 206.071 196.312C205.881 197.618 204.737 197.788 204.292 197.309C203.776 196.758 203.507 196.017 203.298 195.295L201.114 187.942" stroke="#333D7B" stroke-width="0.98" stroke-miterlimit="10" stroke-linecap="round"/>
<path d="M90.7802 96.4898C92.1272 96.2733 92.6568 98.2347 91.3622 98.6742C91.3425 98.6742 91.3229 98.6873 91.3099 98.6939C90.0413 99.0941 83.9015 98.9432 80.1679 98.812C79.8082 98.7989 79.7821 98.2806 80.1352 98.2216L90.7868 96.4898H90.7802Z" fill="#333D7B"/>
<path d="M94.6642 96.4898C93.3172 96.2733 92.7876 98.2347 94.0822 98.6742C94.1018 98.6742 94.1215 98.6873 94.1345 98.6939C95.4031 99.0941 101.543 98.9432 105.277 98.812C105.636 98.7989 105.662 98.2806 105.309 98.2216L94.6576 96.4898H94.6642Z" fill="#333D7B"/>
<path d="M86.6932 128.2C86.6932 128.2 82.2011 208.868 80.8215 211.839L51.7176 211.393C51.1225 211.393 50.5929 211.033 50.3837 210.475C49.514 208.172 47.997 204.591 50.9198 201.993C54.5423 198.785 69.5683 202.924 70.1568 198.811C79.0168 136.394 76.8132 128.64 76.8132 128.64" stroke="#333D7B" stroke-width="1.57" stroke-miterlimit="10" stroke-linecap="round"/>
<path d="M99.9404 129.001C99.9404 129.001 102.268 208.868 103.648 211.839H134.504C135.099 211.839 135.629 211.479 135.838 210.921C136.708 208.618 138.931 205.037 136.008 202.439C132.386 199.231 117.36 203.371 116.771 199.257C107.911 136.84 111.011 128.194 111.011 128.194" stroke="#333D7B" stroke-width="1.57" stroke-miterlimit="10" stroke-linecap="round"/>
<path d="M139.99 118.406L161.895 189.956C162.058 190.487 162.143 191.044 162.13 191.602C162.091 193.393 161.561 197.152 157.88 198.287C155.925 198.89 154.526 198.267 153.558 197.303C152.132 195.892 151.753 193.714 152.44 191.825C152.793 190.861 153.074 189.667 152.812 188.683C152.283 186.649 130.908 118.754 130.908 118.754" stroke="#333D7B" stroke-width="1.57" stroke-miterlimit="10" stroke-linecap="round"/>
<path d="M51.0768 112.785L45.8523 187.45C45.8131 188.007 45.8523 188.565 45.9896 189.109C46.4277 190.841 47.7943 194.39 51.6391 194.659C53.6792 194.803 54.9019 193.878 55.6277 192.717C56.6935 191.018 56.5824 188.808 55.4839 187.135C54.9215 186.275 54.3854 185.18 54.4115 184.163C54.4704 182.064 60.0021 111.073 60.0021 111.073" stroke="#333D7B" stroke-width="1.57" stroke-miterlimit="10" stroke-linecap="round"/>
</svg>
