<svg width="220" height="220" viewBox="0 0 220 220" fill="none" xmlns="http://www.w3.org/2000/svg">
<path d="M110 220C155.09 220 191.644 216.898 191.644 213.071C191.644 209.244 155.09 206.142 110 206.142C64.9092 206.142 28.356 209.244 28.356 213.071C28.356 216.898 64.9092 220 110 220Z" fill="#F9CDAB"/>
<path d="M125.08 68.3808C123.015 62.1491 164.959 35.7244 176.306 45.7365C181.328 50.1651 181.132 62.4052 176.268 65.7661C173.784 67.482 170.434 66.6432 168.549 66.1257C148.133 60.5749 140.082 50.4429 123.473 47.752C123.473 47.752 108.89 45.3879 99.8044 51.6413C99.3196 51.9736 98.8675 52.344 98.8675 52.344C98.8675 52.344 96.2419 54.4903 94.7875 57.6333C92.5977 62.3779 101.716 79.5532 109.07 78.4801C118.516 77.0965 114.621 47.0929 126.905 43.1872C138.072 39.6355 157.987 59.1259 154.762 68.1139C152.605 74.1277 139.297 77.5922 129.977 73.6375C118.641 68.8221 116.212 54.3105 108.912 55.0132C107.736 55.1276 106.499 55.6287 102.768 59.5236C90.6911 72.134 91.0724 80.0162 84.4322 82.62C78.3149 85.0168 69.986 81.4761 65.6391 75.8382C61.047 69.8788 59.5544 59.8232 64.506 55.4109C70.9774 49.6476 83.8657 57.617 84.4485 57.9874C95.1579 64.7747 101.193 79.5641 97.3804 83.5134C92.6249 88.4323 69.8716 79.2754 69.4685 70.1022C69.0654 60.8963 91.0561 48.8523 103.372 54.6373C114.033 59.6434 111.527 75.2444 121.964 78.4638C129.171 80.6917 137.211 75.3697 145.654 69.7808C159.572 60.5694 162.704 52.0935 167.073 53.3954C173.228 55.2256 175.424 74.5526 169.802 77.6467C165.695 79.9073 159.986 72.0904 140.093 60.8799C127.193 53.6133 118.783 48.9994 113.597 52.2242C106.619 56.5602 111.255 71.4967 105.579 73.6211C99.6573 75.8382 90.702 61.0597 84.7699 63.7289C81.1093 65.3739 81.7685 72.243 79.0448 72.5643C75.722 72.962 73.9462 62.8301 68.8039 62.3126C64.2663 61.855 61.8205 69.3668 58.7973 68.626C55.2511 67.7544 52.3422 55.8684 57.4681 48.9014C63.5201 40.676 79.5569 40.9592 85.0205 47.5995C91.3502 55.3019 79.6168 66.8502 85.8103 78.4038C90.9036 87.8985 105.252 92.0656 116.348 89.3692C127.433 86.6728 136.873 76.7315 135.206 72.4391C133.855 68.9691 125.93 70.9628 125.085 68.3972L125.08 68.3808Z" stroke="#333D7B" stroke-width="1.89" stroke-miterlimit="10" stroke-linecap="round"/>
<path d="M179.986 105.155C179.986 81.8519 171.941 61.6044 144.214 61.6044C116.487 61.6044 113.306 82.8542 110.98 82.8542C108.654 82.8542 105.865 61.6044 77.7464 61.6044C49.6276 61.6044 41.9741 80.1469 41.9741 105.155C41.9741 130.164 108.447 190.503 110.746 190.503C113.045 190.503 179.992 128.459 179.992 105.155H179.986Z" fill="#F489AC"/>
<path d="M69.9192 137.147C69.0749 149.115 70.8562 157.776 72.73 163.593C73.9012 167.227 75.6552 171.465 73.6779 173.731C71.755 175.932 66.7762 175.735 63.7529 173.497C59.4877 170.343 59.9453 163.735 59.7982 157.743C59.613 150.101 58.3547 139.538 53.6646 126.568" stroke="#333D7B" stroke-width="1.89" stroke-miterlimit="10" stroke-linecap="round"/>
<path d="M113.146 131.841C114.841 131.988 114.926 131.03 117.018 130.837C119.405 130.619 119.696 131.827 122.096 131.686C124.417 131.549 125.009 130.366 126.457 130.875C127.81 131.353 128.851 132.936 128.525 133.769C128.221 134.545 126.961 134.067 124.841 135.117C123.253 135.907 123.267 136.518 122.058 136.852C120.938 137.161 120.49 136.76 118.261 136.35C117.676 136.241 116.005 136.125 112.66 135.886C109.438 135.658 109.137 135.686 108.825 135.732C107.377 135.942 106.778 136.357 105.703 136.079C105.614 136.055 103.823 135.567 103.56 134.306C103.269 132.915 105.035 131.574 105.967 131.068C106.196 130.942 107.439 130.289 109.161 130.45C111.15 130.636 111.397 131.686 113.146 131.837V131.841Z" stroke="#333D7B" stroke-width="1.89" stroke-miterlimit="10"/>
<path d="M100.042 176.618C100.685 188.651 101.328 200.684 101.971 212.718H54.7101C53.8821 212.718 53.1413 212.216 52.8526 211.443C51.6433 208.245 49.0286 199.884 53.114 196.278C59.885 190.297 71.7655 197.912 79.9419 191.854C84.0764 188.793 87.2739 181.777 84.9044 165.234" stroke="#333D7B" stroke-width="1.89" stroke-miterlimit="10" stroke-linecap="round"/>
<path d="M122.441 176.406C121.167 188.51 119.892 200.613 118.612 212.717H165.872C166.7 212.717 167.441 212.216 167.73 211.443C168.939 208.245 171.554 199.883 167.468 196.277C162.413 191.811 141.452 197.574 140.641 191.854C138.832 182.392 137.029 172.936 135.221 163.474" stroke="#333D7B" stroke-width="1.89" stroke-miterlimit="10" stroke-linecap="round"/>
<path d="M89.4091 103.058C89.4255 103.761 89.7523 105.057 89.7523 105.057C89.9538 106.239 89.1531 107.378 87.9656 107.579L85.1439 108.059C83.9618 108.26 82.8233 107.459 82.6218 106.272C82.6218 106.272 82.1533 104.861 82.2786 104.273C82.4039 103.684 82.8778 101.952 84.0653 101.751L86.887 101.271C88.0691 101.07 89.3928 102.355 89.4091 103.058Z" fill="#333D7B"/>
<path d="M87.2387 112.156L87.1828 111.828C87.1595 111.692 87.03 111.6 86.8936 111.623L86.5661 111.679C86.4297 111.703 86.338 111.832 86.3613 111.968L86.4172 112.296C86.4405 112.432 86.57 112.524 86.7064 112.501L87.0339 112.445C87.1703 112.422 87.262 112.292 87.2387 112.156Z" fill="#333D7B"/>
<path d="M89.4902 115.119L89.4343 114.791C89.411 114.655 89.2815 114.563 89.1451 114.586L88.8175 114.642C88.6811 114.665 88.5894 114.795 88.6127 114.931L88.6687 115.259C88.6919 115.395 88.8214 115.487 88.9578 115.464L89.2854 115.408C89.4218 115.384 89.5135 115.255 89.4902 115.119Z" fill="#333D7B"/>
<path d="M88.603 109.945L88.5471 109.617C88.5238 109.481 88.3943 109.389 88.2579 109.412L87.9303 109.468C87.7939 109.492 87.7022 109.621 87.7255 109.758L87.7814 110.085C87.8047 110.222 87.9342 110.313 88.0706 110.29L88.3982 110.234C88.5346 110.211 88.6263 110.081 88.603 109.945Z" fill="#333D7B"/>
<path d="M90.8769 112.376L90.821 112.048C90.7977 111.912 90.6682 111.82 90.5318 111.843L90.2043 111.899C90.0679 111.923 89.9761 112.052 89.9994 112.188L90.0554 112.516C90.0787 112.652 90.2081 112.744 90.3446 112.721L90.6721 112.665C90.8085 112.642 90.9002 112.512 90.8769 112.376Z" fill="#333D7B"/>
<path d="M83.8033 97.3254L83.8592 97.6529C83.8825 97.7894 84.012 97.8811 84.1484 97.8578L84.4759 97.8018C84.6123 97.7785 84.704 97.6491 84.6807 97.5127L84.6248 97.1851C84.6015 97.0487 84.472 96.957 84.3356 96.9803L84.0081 97.0362C83.8717 97.0595 83.78 97.189 83.8033 97.3254Z" fill="#333D7B"/>
<path d="M84.9434 93.7766L84.9993 94.1041C85.0226 94.2406 85.1521 94.3323 85.2885 94.309L85.616 94.253C85.7525 94.2297 85.8442 94.1003 85.8209 93.9639L85.7649 93.6363C85.7416 93.4999 85.6122 93.4082 85.4758 93.4315L85.1482 93.4874C85.0118 93.5107 84.9201 93.6402 84.9434 93.7766Z" fill="#333D7B"/>
<path d="M85.8267 98.9637L85.8826 99.2912C85.9059 99.4276 86.0354 99.5193 86.1718 99.496L86.4993 99.4401C86.6358 99.4168 86.7275 99.2873 86.7042 99.1509L86.6482 98.8234C86.6249 98.687 86.4955 98.5953 86.3591 98.6186L86.0315 98.6745C85.8951 98.6978 85.8034 98.8272 85.8267 98.9637Z" fill="#333D7B"/>
<path d="M87.1646 95.9066L87.2205 96.2341C87.2438 96.3706 87.3733 96.4623 87.5097 96.439L87.8372 96.383C87.9737 96.3597 88.0654 96.2303 88.0421 96.0939L87.9861 95.7663C87.9628 95.6299 87.8334 95.5382 87.697 95.5615L87.3694 95.6174C87.233 95.6407 87.1413 95.7702 87.1646 95.9066Z" fill="#333D7B"/>
<path d="M90.2807 90.9104C90.2807 90.9104 90.2644 100.421 90.673 103.216C91.0815 106.01 94.4697 115.44 94.4697 115.44C94.96 118.299 93.0153 121.039 90.1555 121.53C87.2956 122.02 84.5557 120.075 84.0654 117.215C84.0654 117.215 81.674 110.581 80.6554 105.155C79.6368 99.7241 79.8764 92.6862 79.8764 92.6862C79.3862 89.8264 81.3309 87.0864 84.1907 86.5962C87.0505 86.1059 89.7905 88.0506 90.2807 90.9104Z" stroke="#333D7B" stroke-width="1.91" stroke-miterlimit="10"/>
<path d="M103.971 61.7949C106.035 68.0266 64.0914 94.4514 52.7447 84.4393C47.7223 80.0106 47.9184 67.7706 52.7828 64.4096C55.2668 62.6937 58.6168 63.5326 60.5016 64.0501C80.918 69.6009 88.9691 79.7328 105.578 82.4238C105.578 82.4238 120.16 84.7879 129.246 78.5344C129.731 78.2021 130.183 77.8317 130.183 77.8317C130.183 77.8317 132.809 75.6855 134.263 72.5424C136.453 67.7978 127.334 50.6225 119.98 51.6956C110.535 53.0792 114.43 83.0829 102.146 86.9886C90.9791 90.5402 71.0639 71.0498 74.2887 62.0618C76.4458 56.048 89.7535 52.5835 99.0738 56.5383C110.41 61.3537 112.839 75.8652 120.138 75.1625C121.315 75.0481 122.552 74.547 126.283 70.6522C138.36 58.0417 137.978 50.1595 144.619 47.5557C150.736 45.1589 159.065 48.6996 163.412 54.3376C168.004 60.2969 169.496 70.3526 164.545 74.7649C158.073 80.5281 145.185 72.5587 144.602 72.1883C133.893 65.401 127.857 50.6116 131.67 46.6623C136.426 41.7435 159.179 50.9003 159.582 60.0736C159.985 69.2795 137.995 81.3234 125.678 75.5384C115.018 70.5323 117.524 54.9313 107.087 51.712C99.88 49.484 91.8398 54.806 83.3965 60.395C69.4787 69.6063 66.3465 78.0823 61.9778 76.7804C55.8224 74.9501 53.6271 55.6231 59.2487 52.5291C63.356 50.2685 69.0647 58.0853 88.9582 69.2958C101.857 76.5625 110.268 81.1763 115.454 77.9515C122.432 73.6155 117.796 58.6791 123.472 56.5546C129.393 54.3376 138.349 69.1161 144.281 66.4469C147.941 64.8018 147.282 57.9328 150.006 57.6114C153.329 57.2137 155.105 67.3457 160.247 67.8632C164.784 68.3207 167.23 60.8089 170.253 61.5498C173.8 62.4213 176.708 74.3073 171.583 81.2744C165.531 89.4998 149.494 89.2165 144.03 82.5763C137.7 74.8738 149.434 63.3256 143.24 51.7719C138.147 42.2773 123.799 38.1101 112.703 40.8065C101.618 43.5029 92.1775 53.4442 93.8444 57.7367C95.1953 61.2066 103.121 59.2129 103.965 61.7786L103.971 61.7949Z" stroke="#333D7B" stroke-width="1.89" stroke-miterlimit="10" stroke-linecap="round"/>
<path d="M147.254 140.05C149.15 149.485 148.807 156.85 148.148 161.818C147.309 168.126 145.653 172.941 147.984 174.771C149.978 176.335 153.987 175.033 156.531 173.148C161.624 169.362 162.104 162.264 162.518 157.983C163.291 149.97 165.105 138.705 169.675 123.965" stroke="#333D7B" stroke-width="1.89" stroke-miterlimit="10" stroke-linecap="round"/>
<path d="M104.471 109.295C105.201 109.317 105.779 109.257 106.176 109.197C106.83 109.105 107.021 109.007 107.598 108.974C108.35 108.93 108.764 108.909 109.15 109.154C109.978 109.677 109.995 110.995 109.995 111.06C109.995 111.932 109.554 112.466 109.848 112.765C110.011 112.929 110.234 112.858 110.616 113.152C110.616 113.152 110.812 113.299 110.959 113.495C111.449 114.138 110.643 115.151 110.926 116.208C111.166 117.096 111.885 116.938 112.081 117.804C112.293 118.741 111.662 119.847 110.948 120.359C110.752 120.5 110.392 120.865 109.88 120.936C108.197 121.176 108.922 122.38 107.99 122.5C107.059 122.619 105.49 122.02 105.435 120.816C105.435 120.816 105.321 120.114 104.477 119.612C103.011 118.746 103.73 118.512 103.877 117.33C104.003 116.311 103.567 116.742 102.799 115.407C101.699 113.495 103.518 113.784 103.518 112.885C103.518 111.986 102.739 112.406 102.619 110.723C102.603 110.483 102.625 110.129 102.832 109.824C103.137 109.366 103.79 109.176 104.482 109.279L104.471 109.295Z" fill="#333D7B"/>
<path d="M130.765 111.779C130.846 112.193 130.912 112.558 131.217 112.852C131.495 113.119 131.68 113.043 131.985 113.239C132.633 113.664 132.824 114.688 132.748 115.401C132.66 116.24 132.246 116.306 132.328 116.943C132.415 117.635 132.938 117.842 132.916 118.436C132.9 118.882 132.584 119.236 132.328 119.465C132.524 120.037 132.383 120.326 132.317 120.451C132.17 120.707 131.86 120.941 131.25 121.028C129.822 121.23 130.127 122.129 129.681 122.467C129.659 122.483 129.534 122.559 129.359 122.586C128.64 122.701 128.303 121.889 127.513 121.758C126.728 121.633 126.45 122.347 125.84 122.151C125.726 122.112 125.443 121.993 124.849 120.555C124.277 119.165 124.026 118.479 124.141 117.978C124.326 117.183 124.876 116.807 124.669 116.224C124.566 115.93 124.413 115.946 124.152 115.499C123.787 114.862 123.743 114.47 123.852 114.198C124.108 113.544 124.718 113.549 124.876 112.977C125.1 112.171 123.819 111.637 123.977 110.815C124.092 110.21 124.887 109.883 126.135 109.371C126.864 109.072 127.311 108.886 127.965 108.87C128.324 108.859 129.713 108.827 130.291 109.66C130.378 109.785 130.509 110.45 130.759 111.774L130.765 111.779Z" fill="#333D7B"/>
<path d="M50.7883 123.921C50.0311 121.17 49.8622 116.638 53.8115 116.698C55.4893 116.725 57.1725 117.406 58.6705 118.109C60.3482 118.893 61.9497 119.836 63.5077 120.838C64.5699 121.524 65.6158 122.249 66.629 123.006C66.9994 123.284 67.4079 122.892 67.446 122.538C67.6421 120.827 67.9254 119.122 68.2904 117.439C68.4647 116.638 68.6608 115.837 68.8732 115.048C68.9876 114.634 69.0857 114.209 69.2273 113.8C69.3145 113.555 69.309 113.479 69.5705 113.386C69.832 113.294 70.0825 113.37 70.3386 113.408C73.5633 113.871 76.6955 114.851 79.6098 116.3C79.9748 116.48 80.4269 116.262 80.4269 115.832C80.4269 113.904 80.4269 111.975 80.4324 110.047C80.4324 109.105 80.4324 108.162 80.4324 107.22C80.4324 106.648 80.1437 104.927 80.9008 104.725C81.2658 104.627 81.7615 104.758 82.1265 104.807C82.6331 104.872 83.1397 104.943 83.6463 105.025C84.5396 105.166 85.433 105.33 86.3154 105.52C88.173 105.912 90.0032 106.414 91.8063 107.002C92.1277 107.105 92.5199 106.822 92.4981 106.479C92.3674 104.431 92.2366 102.388 92.1059 100.34C92.0351 99.2722 91.9697 98.2045 91.8989 97.1369C91.8662 96.6466 91.8335 96.1564 91.8063 95.6716C91.7791 95.1868 91.6538 94.5876 91.7082 94.0973C91.7627 93.607 92.2584 93.8467 92.6125 93.9284C93.1354 94.0428 93.6584 94.1627 94.1813 94.2825C95.1836 94.5113 96.1859 94.7346 97.1882 94.9634C99.2364 95.4264 101.285 95.8895 103.333 96.3525C103.665 96.4287 104.035 96.1945 104.025 95.8295C103.894 91.9729 103.284 88.1543 102.205 84.4502L101.824 85.1202C105.893 83.8401 109.968 82.56 114.037 81.2744C114.701 81.0674 114.418 80.0106 113.748 80.2231C109.679 81.5032 105.604 82.7833 101.535 84.0689C101.257 84.156 101.072 84.4447 101.154 84.7389C102.205 88.3504 102.804 92.0655 102.935 95.8295L103.627 95.3066C101.274 94.7728 98.9204 94.2389 96.5672 93.7051C95.4342 93.4491 94.3011 93.193 93.1681 92.937C92.4763 92.7791 91.5612 92.5067 90.9729 93.0732C90.3246 93.7051 90.6842 95.0179 90.7332 95.8023C90.8094 96.9571 90.8803 98.1174 90.9565 99.2722C91.109 101.674 91.267 104.077 91.4195 106.479L92.1113 105.956C90.0632 105.286 87.9769 104.736 85.8579 104.322C84.8174 104.115 83.7716 103.946 82.7257 103.804C81.9031 103.695 80.8682 103.407 80.1164 103.908C79.5172 104.306 79.3865 105.035 79.3593 105.7C79.3157 106.833 79.3593 107.977 79.3538 109.115C79.3538 111.36 79.3484 113.599 79.3429 115.843L80.16 115.374C78.455 114.53 76.6792 113.822 74.8544 113.294C73.9447 113.027 73.0186 112.803 72.0926 112.624C71.27 112.466 70.2405 112.155 69.4016 112.286C68.6336 112.4 68.3448 112.983 68.1433 113.658C67.86 114.612 67.6095 115.576 67.3861 116.54C66.9231 118.523 66.5908 120.533 66.362 122.559L67.1791 122.091C64.6026 120.168 61.8571 118.387 58.921 117.058C57.2651 116.306 55.4184 115.581 53.5664 115.636C51.54 115.696 49.9494 116.943 49.4591 118.915C49.0342 120.642 49.2739 122.543 49.7424 124.237C49.9276 124.913 50.9789 124.624 50.7937 123.948L50.7883 123.921Z" fill="#333D7B"/>
</svg>
