<svg width="152" height="94" viewBox="0 0 152 94" fill="none" xmlns="http://www.w3.org/2000/svg">
<path d="M79.3417 35.3015C83.0721 35.3015 85.9391 35.9577 87.9428 37.2702C89.941 38.5827 90.9401 40.7304 90.9401 43.7134C90.9401 46.6963 89.9301 48.8928 87.9047 50.227C85.8794 51.5612 82.9906 52.2283 79.2331 52.2283H77.463V60.6022H71.8267V35.9577C73.0538 35.7191 74.357 35.551 75.7308 35.4533C77.1046 35.3557 78.31 35.3069 79.3417 35.3069V35.3015ZM79.7055 40.1013C79.2983 40.1013 78.891 40.1122 78.4946 40.1393C78.0983 40.161 77.7562 40.1881 77.463 40.2098V47.4285H79.2331C81.1825 47.4285 82.654 47.1627 83.6422 46.6366C84.6305 46.1106 85.1246 45.1235 85.1246 43.6754C85.1246 42.9758 84.9997 42.4009 84.7445 41.9453C84.4893 41.4897 84.1309 41.1209 83.6585 40.8443C83.1916 40.5677 82.616 40.3779 81.9427 40.2694C81.2693 40.161 80.52 40.1067 79.7001 40.1067L79.7055 40.1013Z" fill="#333D7B"/>
<path d="M106.187 46.3818C105.703 46.2625 105.139 46.1377 104.487 46.0021C103.835 45.872 103.14 45.8015 102.391 45.8015C102.054 45.8015 101.653 45.834 101.18 45.8937C100.713 45.9533 100.355 46.0184 100.116 46.0943V60.6023H94.7349V42.6341C95.696 42.2979 96.8363 41.9779 98.1503 41.6796C99.4644 41.3813 100.925 41.2294 102.538 41.2294C102.825 41.2294 103.173 41.2457 103.586 41.2837C103.993 41.3216 104.406 41.3704 104.813 41.4301C105.22 41.4898 105.633 41.5603 106.04 41.647C106.447 41.7338 106.8 41.8314 107.088 41.9562L106.187 46.3926V46.3818Z" fill="#333D7B"/>
<path d="M127.391 51.0731C127.391 52.5646 127.174 53.9313 126.74 55.1679C126.305 56.4099 125.681 57.4675 124.861 58.3461C124.041 59.2247 123.058 59.9026 121.918 60.3853C120.772 60.868 119.491 61.1066 118.068 61.1066C116.646 61.1066 115.402 60.868 114.256 60.3853C113.111 59.9026 112.128 59.2247 111.313 58.3461C110.493 57.4675 109.858 56.4099 109.397 55.1679C108.94 53.9313 108.712 52.5646 108.712 51.0731C108.712 49.5817 108.946 48.2204 109.418 46.9946C109.891 45.7689 110.537 44.7222 111.368 43.8544C112.198 42.9867 113.187 42.3141 114.332 41.8314C115.478 41.3488 116.722 41.1101 118.074 41.1101C119.426 41.1101 120.707 41.3488 121.847 41.8314C122.993 42.3141 123.971 42.9867 124.79 43.8544C125.61 44.7222 126.246 45.7689 126.707 46.9946C127.163 48.2204 127.391 49.5817 127.391 51.0731ZM121.902 51.0731C121.902 49.4135 121.571 48.1065 120.908 47.1573C120.246 46.2082 119.301 45.731 118.074 45.731C116.846 45.731 115.896 46.2082 115.217 47.1573C114.544 48.1065 114.208 49.4135 114.208 51.0731C114.208 52.7327 114.544 54.0506 115.217 55.0269C115.891 56.0031 116.841 56.4858 118.074 56.4858C119.306 56.4858 120.246 55.9977 120.908 55.0269C121.571 54.0506 121.902 52.7382 121.902 51.0731Z" fill="#333D7B"/>
<path d="M79.2325 22.0735C80.0252 22.0735 80.6823 22.0084 81.2035 21.8728C81.7194 21.7427 82.1375 21.5583 82.4524 21.3305C82.7674 21.1027 82.9791 20.8315 83.104 20.517C83.2235 20.2024 83.2832 19.8553 83.2832 19.4702C83.2832 18.6513 82.8977 17.9733 82.1266 17.431C81.3556 16.8886 80.0307 16.3083 78.1519 15.6792C77.332 15.3917 76.5121 15.0609 75.6976 14.6867C74.8777 14.3124 74.1446 13.846 73.493 13.282C72.8414 12.7179 72.3147 12.0291 71.902 11.2265C71.4948 10.4184 71.2885 9.44212 71.2885 8.28691C71.2885 7.1317 71.5057 6.09038 71.94 5.16296C72.3744 4.23554 72.988 3.44913 73.7808 2.7983C74.5736 2.14748 75.5401 1.64852 76.6695 1.30141C77.799 0.954307 79.075 0.780754 80.4976 0.780754C82.1809 0.780754 83.6416 0.95973 84.8688 1.32311C86.0959 1.68648 87.1113 2.0824 87.9041 2.51628L86.2806 6.95272C85.5801 6.58935 84.8036 6.27478 83.9511 5.99818C83.0932 5.72158 82.0669 5.58057 80.8615 5.58057C79.5148 5.58057 78.5429 5.76497 77.951 6.13919C77.3591 6.51342 77.0659 7.08289 77.0659 7.85303C77.0659 8.3086 77.1745 8.69367 77.3917 9.00824C77.6089 9.3228 77.913 9.60483 78.3148 9.85431C78.7112 10.1092 79.1673 10.337 79.6886 10.5377C80.2044 10.7438 80.78 10.9499 81.4044 11.1668C82.7076 11.6495 83.8371 12.1213 84.7982 12.5932C85.7593 13.0596 86.5629 13.6074 87.1982 14.2365C87.8335 14.8602 88.3113 15.5978 88.6263 16.4385C88.9412 17.2791 89.0933 18.3042 89.0933 19.5082C89.0933 21.8403 88.2733 23.6518 86.6389 24.9371C84.9991 26.2225 82.5339 26.8679 79.2325 26.8679C78.1248 26.8679 77.1257 26.8028 76.2351 26.6672C75.3446 26.5371 74.5573 26.3744 73.8677 26.1791C73.1781 25.9839 72.5916 25.7832 72.0975 25.5663C71.6034 25.3493 71.1907 25.1432 70.8486 24.9534L72.4396 20.479C73.1835 20.8858 74.1066 21.2546 75.2034 21.58C76.3003 21.9054 77.6415 22.0681 79.2325 22.0681V22.0735Z" fill="#333D7B"/>
<path d="M92.1675 17.0243C92.1675 15.343 92.4281 13.8678 92.944 12.6041C93.4598 11.3404 94.144 10.2882 94.9856 9.4476C95.8273 8.60695 96.7992 7.96698 97.8961 7.5331C98.9929 7.09922 100.117 6.88227 101.274 6.88227C103.972 6.88227 106.101 7.70665 107.67 9.3554C109.234 11.0042 110.016 13.4285 110.016 16.6283C110.016 16.9429 110.005 17.2846 109.978 17.6588C109.956 18.033 109.929 18.3639 109.907 18.6513H97.6952C97.8146 19.7577 98.3305 20.6363 99.2481 21.2872C100.166 21.938 101.393 22.2634 102.935 22.2634C103.923 22.2634 104.89 22.1712 105.846 21.9922C106.796 21.8132 107.572 21.5909 108.175 21.3251L108.897 25.6911C108.609 25.8375 108.224 25.9785 107.741 26.1249C107.257 26.2714 106.725 26.3961 106.133 26.5046C105.541 26.6131 104.912 26.7053 104.238 26.7758C103.565 26.8463 102.892 26.8842 102.213 26.8842C100.502 26.8842 99.0146 26.6293 97.7495 26.1249C96.4843 25.6205 95.4363 24.9263 94.6055 24.0477C93.7747 23.1691 93.1612 22.1278 92.7648 20.9238C92.3684 19.7198 92.1675 18.4235 92.1675 17.0243ZM104.814 14.9633C104.792 14.5077 104.711 14.063 104.58 13.6291C104.45 13.1953 104.244 12.8102 103.967 12.4739C103.69 12.1377 103.342 11.8611 102.919 11.6441C102.495 11.4272 101.974 11.3187 101.35 11.3187C100.725 11.3187 100.231 11.4218 99.7966 11.6279C99.3622 11.834 99.0038 12.1051 98.7106 12.4414C98.4228 12.7776 98.2002 13.1681 98.0427 13.6129C97.8852 14.0576 97.7712 14.5077 97.7006 14.9687H104.819L104.814 14.9633Z" fill="#333D7B"/>
<path d="M121.701 12.707L125.481 7.38653H131.046L124.449 16.6174C125.958 18.3529 127.305 20.0722 128.478 21.786C129.651 23.4998 130.59 25.0238 131.296 26.3689H125.524C125.329 26.0055 125.084 25.5553 124.796 25.013C124.509 24.4706 124.183 23.9066 123.824 23.3154C123.461 22.7243 123.086 22.2253 122.695 21.8185C122.304 21.4118 121.913 21.0375 121.533 20.7013C121.169 21.0104 120.8 21.3575 120.42 21.7318C120.045 22.1114 119.687 22.5778 119.35 23.1419C119.013 23.7059 118.677 24.2645 118.351 24.8177C118.025 25.3709 117.737 25.8862 117.482 26.3634H112.003C112.307 25.7723 112.704 25.0618 113.203 24.2374C113.703 23.413 114.246 22.5616 114.838 21.6884C115.43 20.8098 116.07 19.9583 116.76 19.1339C117.45 18.3095 118.128 17.5339 118.791 16.8072C117.607 15.1313 116.472 13.5205 115.386 11.9694C114.295 10.4237 113.22 8.89427 112.15 7.38111H117.966L121.701 12.7016V12.707Z" fill="#333D7B"/>
<path d="M151.093 16.8398C151.093 18.3313 150.876 19.698 150.441 20.9346C150.007 22.1765 149.383 23.2341 148.563 24.1127C147.743 24.9914 146.76 25.6693 145.62 26.152C144.474 26.6347 143.193 26.8733 141.77 26.8733C140.347 26.8733 139.104 26.6347 137.958 26.152C136.812 25.6693 135.83 24.9914 135.015 24.1127C134.195 23.2341 133.56 22.1765 133.098 20.9346C132.642 19.698 132.414 18.3313 132.414 16.8398C132.414 15.3483 132.648 13.987 133.12 12.7613C133.592 11.5356 134.239 10.4889 135.069 9.62109C135.9 8.75332 136.888 8.08081 138.034 7.59811C139.18 7.11542 140.423 6.87679 141.775 6.87679C143.127 6.87679 144.409 7.11542 145.549 7.59811C146.695 8.08081 147.672 8.75332 148.492 9.62109C149.312 10.4889 149.947 11.5356 150.409 12.7613C150.865 13.987 151.093 15.3483 151.093 16.8398ZM145.598 16.8398C145.598 15.1802 145.267 13.8731 144.604 12.924C143.942 11.9749 142.997 11.4976 141.77 11.4976C140.543 11.4976 139.592 11.9749 138.914 12.924C138.24 13.8731 137.904 15.1802 137.904 16.8398C137.904 18.4994 138.24 19.8173 138.914 20.7935C139.587 21.7698 140.537 22.2525 141.77 22.2525C143.002 22.2525 143.942 21.7644 144.604 20.7935C145.267 19.8173 145.598 18.5048 145.598 16.8398Z" fill="#333D7B"/>
<path d="M72.1519 68.065H77.7881V93.0728H72.1519V68.065Z" fill="#333D7B"/>
<path d="M83.2065 74.7414C84.1242 74.4756 85.3025 74.2315 86.7469 74.0038C88.1912 73.776 89.7116 73.6621 91.2972 73.6621C92.8827 73.6621 94.2511 73.8736 95.3262 74.2912C96.3959 74.7142 97.2484 75.3054 97.8728 76.0755C98.4973 76.8457 98.9425 77.7568 99.2086 78.8198C99.4747 79.8774 99.605 81.0598 99.605 82.356V93.0729H94.2239V83.0068C94.2239 81.2767 93.9959 80.0456 93.5397 79.3242C93.0836 78.6029 92.2257 78.2395 90.9768 78.2395C90.5913 78.2395 90.184 78.2558 89.7496 78.2938C89.3152 78.3317 88.9297 78.3697 88.5931 78.4185V93.0674H83.212V74.7359L83.2065 74.7414Z" fill="#333D7B"/>
<path d="M112.724 65.0712C113.734 65.0712 114.663 65.1742 115.504 65.3803C116.346 65.5864 116.997 65.7817 117.454 65.9769L116.406 70.2723C115.922 70.0554 115.401 69.8927 114.836 69.7842C114.272 69.6758 113.745 69.6215 113.267 69.6215C112.615 69.6215 112.067 69.7137 111.622 69.8927C111.177 70.0717 110.829 70.3212 110.574 70.6303C110.319 70.9449 110.139 71.3137 110.031 71.7475C109.922 72.1814 109.868 72.6479 109.868 73.1522V74.0905H116.514V78.5649H109.868V93.0728H104.487V73.0817C104.487 70.6303 105.176 68.6778 106.566 67.2352C107.951 65.7925 110.004 65.0712 112.724 65.0712Z" fill="#333D7B"/>
<path d="M137.219 83.5437C137.219 85.0352 137.001 86.4019 136.567 87.6385C136.133 88.8805 135.508 89.9381 134.688 90.8167C133.868 91.6953 132.885 92.3732 131.745 92.8559C130.599 93.3386 129.318 93.5772 127.895 93.5772C126.473 93.5772 125.229 93.3386 124.084 92.8559C122.938 92.3732 121.955 91.6953 121.141 90.8167C120.321 89.9381 119.685 88.8805 119.224 87.6385C118.768 86.4019 118.54 85.0352 118.54 83.5437C118.54 82.0523 118.773 80.691 119.245 79.4652C119.718 78.2395 120.364 77.1928 121.195 76.325C122.026 75.4573 123.014 74.7847 124.16 74.302C125.305 73.8194 126.549 73.5807 127.901 73.5807C129.253 73.5807 130.534 73.8194 131.675 74.302C132.82 74.7847 133.798 75.4573 134.618 76.325C135.438 77.1928 136.073 78.2395 136.534 79.4652C136.991 80.691 137.219 82.0523 137.219 83.5437ZM131.729 83.5437C131.729 81.8841 131.398 80.5771 130.735 79.6279C130.073 78.6788 129.128 78.2016 127.901 78.2016C126.674 78.2016 125.723 78.6788 125.045 79.6279C124.371 80.5771 124.035 81.8841 124.035 83.5437C124.035 85.2033 124.371 86.5212 125.045 87.4975C125.718 88.4737 126.668 88.9564 127.901 88.9564C129.133 88.9564 130.073 88.4683 130.735 87.4975C131.398 86.5212 131.729 85.2088 131.729 83.5437Z" fill="#333D7B"/>
<path d="M52.827 16.9157C52.827 8.09164 49.7754 0.422775 39.263 0.422775C28.7506 0.422775 27.5452 8.47129 26.6601 8.47129C25.775 8.47129 24.7216 0.422775 14.0572 0.422775C3.39276 0.422775 0.493164 7.44624 0.493164 16.9157C0.493164 26.3852 25.699 49.2399 26.5678 49.2399C27.4366 49.2399 52.8216 25.7398 52.8216 16.9157H52.827Z" fill="#F489AC"/>
<path d="M18.9819 27.2312C18.9819 27.2312 9.72931 27.741 10.4895 32.4377C10.9185 35.0953 16.4027 39.1955 18.9114 42.7099C20.8336 45.4054 20.2851 47.9273 18.6942 48.1714C15.0289 48.7409 2.35001 40.8496 2.13281 32.9855" stroke="#333D7B" stroke-width="1.19" stroke-miterlimit="10" stroke-linecap="round"/>
<path d="M13.1504 22.247C13.1504 22.247 1.91042 25.1215 2.12762 32.9856" stroke="#333D7B" stroke-width="1.19" stroke-miterlimit="10" stroke-linecap="round"/>
<path d="M27.2411 25.1812C28.1696 24.091 33.3389 25.3059 33.7788 25.794C34.2186 26.2821 32.9045 29.7261 30.8249 30.1654C28.7452 30.6047 26.3126 26.2713 27.2411 25.1812Z" stroke="#333D7B" stroke-width="1.19" stroke-miterlimit="10"/>
<path d="M27.2407 25.1812C27.2407 25.1812 26.9041 25.6747 27.0344 26.1791C27.1647 26.6835 27.4688 27.4645 27.4688 27.4645C27.4688 27.4645 28.0172 26.8571 28.8969 27.1608C29.7765 27.4591 32.9693 28.4516 32.9693 28.4516L33.7729 25.7995C33.7729 25.7995 32.2037 24.8612 30.1838 24.7419C28.1638 24.6226 27.2407 25.1866 27.2407 25.1866V25.1812Z" fill="#333D7B"/>
<path d="M44.2306 30.3281C44.3501 28.6197 57.9358 19.3726 60.1675 20.2132C62.3829 21.0484 63.5829 22.6484 63.5829 22.6484C63.5829 22.6484 65.5051 22.9033 66.2816 24.2646C67.0635 25.6205 61.4978 25.2029 58.9295 25.6801C56.3611 26.1574 44.3283 39.4017 42.7048 38.8159C41.0812 38.2247 39.5337 35.8601 39.5337 35.8601" stroke="#333D7B" stroke-width="1.19" stroke-miterlimit="10" stroke-linecap="round"/>
<path d="M25.1994 22.8111C26.0061 22.8111 26.6601 21.9296 26.6601 20.8423C26.6601 19.755 26.0061 18.8736 25.1994 18.8736C24.3927 18.8736 23.7388 19.755 23.7388 20.8423C23.7388 21.9296 24.3927 22.8111 25.1994 22.8111Z" fill="#333D7B"/>
<path d="M35.32 24.2157C36.1267 24.2157 36.7807 23.3343 36.7807 22.247C36.7807 21.1597 36.1267 20.2782 35.32 20.2782C34.5133 20.2782 33.8594 21.1597 33.8594 22.247C33.8594 23.3343 34.5133 24.2157 35.32 24.2157Z" fill="#333D7B"/>
<path d="M24.3149 40.8931C24.3149 40.8931 22.1266 91.2234 21.3935 92.7854H3.47471C3.15977 92.7854 2.88285 92.5955 2.76882 92.3027C2.3127 91.0932 1.31902 87.9259 2.86656 86.5592C4.78333 84.867 12.7328 87.0527 13.0423 84.8833C17.7283 52.0167 16.5663 47.9328 16.5663 47.9328" stroke="#333D7B" stroke-width="1.19" stroke-miterlimit="10" stroke-linecap="round"/>
<path d="M28.5435 40.8931C28.5435 40.8931 29.3742 91.2234 30.1019 92.7854H48.0207C48.3356 92.7854 48.6126 92.5956 48.7266 92.3027C49.1827 91.0933 50.1764 87.9259 48.6288 86.5592C46.7121 84.8671 38.7626 87.0527 38.4531 84.8833C33.7671 52.0168 36.3083 37.715 36.3083 37.715" stroke="#333D7B" stroke-width="1.19" stroke-miterlimit="10" stroke-linecap="round"/>
<path d="M17.973 8.86716C17.973 8.86716 14.21 10.0495 13.1512 10.5593C12.0923 11.0691 8.79093 13.591 8.79093 13.591C7.72123 14.1442 6.39089 13.7158 5.84246 12.6474C5.28861 11.5789 5.71757 10.2502 6.78727 9.70238C6.78727 9.70238 9.11129 7.92889 11.1312 6.84961C13.1512 5.77033 15.9693 4.98392 15.9693 4.98392C17.039 4.43072 18.3694 4.85917 18.9178 5.92761C19.4716 6.99604 19.0427 8.32481 17.973 8.87258V8.86716Z" stroke="#333D7B" stroke-miterlimit="10"/>
<path d="M13.3679 10.1308C13.0366 10.2447 12.4719 10.5918 12.4719 10.5918C11.9398 10.863 11.2828 10.6569 11.0113 10.1254L10.3597 8.86169C10.0882 8.33018 10.2945 7.67394 10.8267 7.40276C10.8267 7.40276 11.4239 6.96888 11.7226 6.94176C12.0212 6.91465 12.9118 6.87668 13.1833 7.40819L13.8348 8.67187C14.1063 9.20337 13.6937 10.0223 13.3679 10.1308Z" fill="#333D7B"/>
<path d="M8.52693 10.3406C8.57909 10.4418 8.70351 10.4816 8.80483 10.4295C8.90615 10.3774 8.946 10.2531 8.89384 10.1519C8.84168 10.0507 8.71726 10.0109 8.61594 10.063C8.51462 10.1151 8.47477 10.2394 8.52693 10.3406Z" fill="#333D7B"/>
<path d="M7.45417 11.847C7.50633 11.9482 7.63075 11.988 7.73207 11.9359C7.83339 11.8838 7.87324 11.7595 7.82108 11.6583C7.76892 11.5571 7.6445 11.5173 7.54318 11.5694C7.44186 11.6215 7.40201 11.7458 7.45417 11.847Z" fill="#333D7B"/>
<path d="M9.78083 10.6536C9.83299 10.7548 9.95741 10.7946 10.0587 10.7425C10.1601 10.6904 10.1999 10.5661 10.1477 10.4649C10.0956 10.3637 9.97116 10.3239 9.86984 10.376C9.76852 10.4281 9.72867 10.5524 9.78083 10.6536Z" fill="#333D7B"/>
<path d="M8.9654 12.0925C9.01756 12.1937 9.14198 12.2335 9.2433 12.1814C9.34462 12.1293 9.38447 12.005 9.33231 11.9038C9.28015 11.8026 9.15573 11.7628 9.05441 11.8149C8.95309 11.867 8.91324 11.9913 8.9654 12.0925Z" fill="#333D7B"/>
<path d="M15.4496 6.74641C15.3975 6.64521 15.2731 6.60541 15.1717 6.65751C15.0704 6.7096 15.0306 6.83388 15.0827 6.93508C15.1349 7.03628 15.2593 7.07608 15.3606 7.02398C15.4619 6.97188 15.5018 6.84761 15.4496 6.74641Z" fill="#333D7B"/>
<path d="M17.3046 6.75079C17.2525 6.64959 17.128 6.60979 17.0267 6.66189C16.9254 6.71399 16.8855 6.83826 16.9377 6.93946C16.9899 7.04066 17.1143 7.08046 17.2156 7.02836C17.3169 6.97626 17.3568 6.85199 17.3046 6.75079Z" fill="#333D7B"/>
<path d="M14.976 7.94678C14.9238 7.84559 14.7994 7.80578 14.6981 7.85788C14.5968 7.90998 14.5569 8.03425 14.6091 8.13545C14.6613 8.23665 14.7857 8.27645 14.887 8.22436C14.9883 8.17226 15.0282 8.04798 14.976 7.94678Z" fill="#333D7B"/>
<path d="M16.6215 8.11888C16.5693 8.01769 16.4449 7.97788 16.3436 8.02998C16.2423 8.08208 16.2024 8.20635 16.2546 8.30755C16.3068 8.40875 16.4312 8.44855 16.5325 8.39646C16.6338 8.34436 16.6737 8.22008 16.6215 8.11888Z" fill="#333D7B"/>
</svg>
