<svg width="180" height="200" viewBox="0 0 180 200" fill="none" xmlns="http://www.w3.org/2000/svg">
<g clip-path="url(#clip0_2166_10528)">
<path opacity="0.12" d="M35.8807 190.393C32.6014 190.404 29.6963 188.836 28.7169 186.519C26.428 181.122 23.2643 170.981 20.2546 160.626C-6.93696 154.662 17.2724 135.954 17.2724 135.954C7.91881 122.199 9.92709 93.3129 22.7746 92.4876C27.0497 92.2125 31.8366 97.2964 35.369 100.317C48.6346 113.396 47.9689 102.017 48.4751 97.1149L50.1697 80.5864C50.6264 76.1242 57.6801 73.8903 62.357 76.7239L87.6778 92.0639C90.0602 93.511 93.4 93.7201 96.0851 92.6031L127.315 88.0859C132.636 85.8685 152.774 91.2991 152.075 95.7888C164.18 113.396 142.039 126.711 142.011 127.118C141.621 133.814 174.375 146.986 175.734 152.989C178.485 165.182 153.88 179.317 146.815 187.498C145.456 189.072 143.101 190.013 140.575 190.024L35.8807 190.393Z" fill="#858BB0" stroke="#858BB0" stroke-linecap="round" stroke-linejoin="round"/>
<path d="M127.865 31.8027C132.817 34.4493 130.066 43.2527 119.887 41.9652C121.263 47.0987 117.411 52.6008 108.647 46.3944C106.407 50.4 97.6037 49.2995 89.9007 45.448C89.9007 49.8498 84.9488 51.5004 82.1977 48.7493C79.9969 54.2515 69.5428 49.8498 69.5428 44.3476C65.1411 49.8498 58.5386 48.1991 57.8893 45.382C49.1849 49.2995 48.0845 44.8978 48.167 40.8207C44.233 42.697 36.53 37.745 44.7832 33.3433C40.9317 24.5399 49.7351 25.6403 53.0364 28.3914C54.522 18.4215 57.4381 17.9759 61.2896 20.1382C61.2896 16.8754 67.8922 8.58371 74.7589 14.7956C78.8965 9.13392 85.499 16.6223 86.5994 20.1382C91.5514 10.7846 98.7042 10.2344 105.406 16.4133C116.861 12.4352 120.162 16.2867 120.537 22.0144C126.215 20.1382 133.368 23.4395 127.865 31.7972V31.8027Z" fill="#858BB0" stroke="#858BB0" stroke-linecap="round" stroke-linejoin="round"/>
<path d="M59.0123 53.7011L59.7166 55.8194C59.9202 56.4247 59.6616 57.1179 59.0839 57.371C58.7042 57.5361 58.2971 57.4536 58.0715 56.5842C57.5708 54.6585 59.0123 53.6956 59.0123 53.6956V53.7011Z" fill="#858BB0" stroke="#858BB0" stroke-linecap="round" stroke-linejoin="round"/>
<path d="M80.7233 63.7719L81.4275 65.8902C81.6311 66.4955 81.3725 67.1887 80.7948 67.4418C80.4152 67.6069 80.008 67.5244 79.7824 66.655C79.2817 64.7293 80.7233 63.7664 80.7233 63.7664V63.7719Z" fill="#858BB0" stroke="#858BB0" stroke-linecap="round" stroke-linejoin="round"/>
<path d="M74.1866 79.2275L74.7203 80.8232C74.8688 81.2743 74.6818 81.797 74.2416 81.9896C73.9555 82.1162 73.6474 82.0501 73.4768 81.4009C73.0972 79.9538 74.1866 79.2275 74.1866 79.2275Z" fill="#858BB0" stroke="#858BB0" stroke-linecap="round" stroke-linejoin="round"/>
<path d="M67.8917 69.4996L68.4254 71.0952C68.5739 71.5464 68.3869 72.0691 67.9467 72.2616C67.6606 72.3882 67.3525 72.3222 67.1819 71.6729C66.8022 70.2259 67.8917 69.4996 67.8917 69.4996Z" fill="#858BB0" stroke="#858BB0" stroke-linecap="round" stroke-linejoin="round"/>
<path d="M61.7794 79.5025L62.3131 81.0981C62.4616 81.5493 62.2745 82.072 61.8344 82.2646C61.5483 82.3911 61.2401 82.3251 61.0696 81.6758C60.6899 80.2288 61.7794 79.5025 61.7794 79.5025Z" fill="#858BB0" stroke="#858BB0" stroke-linecap="round" stroke-linejoin="round"/>
<path d="M68.9039 56.0892L69.6082 58.2075C69.8118 58.8127 69.5532 59.506 68.9755 59.7591C68.5958 59.9242 68.1887 59.8416 67.9631 58.9723C67.4624 57.0466 68.9039 56.0837 68.9039 56.0837V56.0892Z" fill="#858BB0" stroke="#858BB0" stroke-linecap="round" stroke-linejoin="round"/>
<path d="M116.13 52.9529L116.834 55.0713C117.037 55.6765 116.779 56.3698 116.201 56.6229C115.821 56.7879 115.414 56.7054 115.189 55.8361C114.688 53.9103 116.13 52.9474 116.13 52.9474V52.9529Z" fill="#858BB0" stroke="#858BB0" stroke-linecap="round" stroke-linejoin="round"/>
<path d="M85.1305 55.627L85.8348 57.7453C86.0383 58.3505 85.7797 59.0438 85.202 59.2969C84.8224 59.4619 84.4152 59.3794 84.1896 58.5101C83.6889 56.5843 85.1305 55.6215 85.1305 55.6215V55.627Z" fill="#858BB0" stroke="#858BB0" stroke-linecap="round" stroke-linejoin="round"/>
<path d="M113.801 64.3716L114.335 65.9673C114.483 66.4184 114.296 66.9411 113.856 67.1337C113.57 67.2603 113.262 67.1942 113.091 66.545C112.711 65.0979 113.801 64.3716 113.801 64.3716Z" fill="#858BB0" stroke="#858BB0" stroke-linecap="round" stroke-linejoin="round"/>
<path d="M98.1979 51.9404L98.9021 54.0588C99.1057 54.664 98.8471 55.3573 98.2694 55.6104C97.8898 55.7754 97.4826 55.6929 97.257 54.8236C96.7563 52.8978 98.1979 51.9349 98.1979 51.9349V51.9404Z" fill="#858BB0" stroke="#858BB0" stroke-linecap="round" stroke-linejoin="round"/>
<path d="M101.395 64.6467L101.928 66.2423C102.077 66.6935 101.89 67.2162 101.45 67.4088C101.164 67.5353 100.855 67.4693 100.685 66.8201C100.305 65.373 101.395 64.6467 101.395 64.6467Z" fill="#858BB0" stroke="#858BB0" stroke-linecap="round" stroke-linejoin="round"/>
<path d="M83.7003 73.0431L84.234 74.6387C84.3825 75.0899 84.1954 75.6126 83.7553 75.8052C83.4692 75.9317 83.161 75.8657 82.9905 75.2164C82.6108 73.7694 83.7003 73.0431 83.7003 73.0431Z" fill="#858BB0" stroke="#858BB0" stroke-linecap="round" stroke-linejoin="round"/>
<path d="M93.8844 60.4266L94.5887 62.5449C94.7923 63.1501 94.5337 63.8434 93.9559 64.0965C93.5763 64.2616 93.1691 64.179 92.9435 63.3097C92.4428 61.384 93.8844 60.4211 93.8844 60.4211V60.4266Z" fill="#858BB0" stroke="#858BB0" stroke-linecap="round" stroke-linejoin="round"/>
<path d="M101.378 72.757L101.912 74.3526C102.06 74.8038 101.873 75.3265 101.433 75.519C101.147 75.6456 100.839 75.5796 100.668 74.9303C100.289 73.4832 101.378 72.757 101.378 72.757Z" fill="#858BB0" stroke="#858BB0" stroke-linecap="round" stroke-linejoin="round"/>
<path d="M80.5313 67.893L81.065 69.4886C81.2136 69.9398 81.0265 70.4625 80.5863 70.6551C80.3002 70.7816 79.9921 70.7156 79.8215 70.0663C79.4419 68.6193 80.5313 67.893 80.5313 67.893Z" fill="#858BB0" stroke="#858BB0" stroke-linecap="round" stroke-linejoin="round"/>
<path d="M90.9379 200C140.153 200 180.051 197.27 180.051 193.903C180.051 190.535 140.153 187.806 90.9379 187.806C41.7223 187.806 1.8252 190.535 1.8252 193.903C1.8252 197.27 41.7223 200 90.9379 200Z" fill="#F9CDAB"/>
<path d="M109.175 62.5008H66.7754C59.9473 62.5008 54.4121 68.036 54.4121 74.8641V131.019C54.4121 137.847 59.9473 143.382 66.7754 143.382H109.175C116.003 143.382 121.538 137.847 121.538 131.019V74.8641C121.538 68.036 116.003 62.5008 109.175 62.5008Z" fill="#F489AC"/>
<path d="M70.3681 135.679C70.3681 135.679 78.0711 183.377 72.5689 186.233C67.0668 189.089 63.7655 185.011 62.6651 188.681C62.2689 189.996 62.1589 191.042 62.1754 191.845C62.2029 193.006 63.4024 193.919 64.8494 193.919H77.2072C78.9954 193.919 80.4425 192.758 80.4425 191.322V138.408" stroke="#333D7B" stroke-width="2" stroke-linecap="round" stroke-linejoin="round"/>
<path d="M100.861 135.679C100.861 135.679 93.1579 183.377 98.6601 186.233C104.162 189.089 107.463 185.011 108.564 188.681C108.916 189.848 109.043 190.805 109.054 191.565C109.07 192.863 107.755 193.919 106.132 193.919H94.1318C92.2886 193.919 90.792 192.72 90.792 191.234V138.408" stroke="#333D7B" stroke-width="2" stroke-linecap="round" stroke-linejoin="round"/>
<path d="M72.8441 102.612C72.8441 103.563 72.2829 105.726 71.7767 105.005C71.232 104.224 70.8468 104.884 70.4287 105.027C70.104 105.137 69.1852 105.027 68.822 105.027C68.1838 105.027 68.3654 104.966 67.8922 105.324C67.5566 105.577 67.5566 105.165 67.2154 105.027C66.6927 104.823 66.5607 104.493 66.7037 103.96C66.7808 103.684 66.4121 103.42 66.5332 103.129C66.6047 102.964 66.4121 102.612 66.4121 102.612C66.4121 100.834 67.8537 99.3928 69.6309 99.3928C71.4081 99.3928 72.8496 100.834 72.8496 102.612H72.8441Z" fill="#333D7B" stroke="#333D7B" stroke-linecap="round" stroke-linejoin="round"/>
<path d="M85.7142 102.612C85.7142 103.563 85.153 105.726 84.6468 105.005C84.1021 104.224 83.7169 104.884 83.2988 105.027C82.9742 105.137 82.0553 105.027 81.6922 105.027C81.0539 105.027 81.2355 104.966 80.7623 105.324C80.4267 105.577 80.4267 105.165 80.0855 105.027C79.5628 104.823 79.4308 104.493 79.5738 103.96C79.6509 103.684 79.2822 103.42 79.4033 103.129C79.4748 102.964 79.2822 102.612 79.2822 102.612C79.2822 100.834 80.7238 99.3928 82.501 99.3928C84.2782 99.3928 85.7197 100.834 85.7197 102.612H85.7142Z" fill="#333D7B" stroke="#333D7B" stroke-linecap="round" stroke-linejoin="round"/>
<path d="M62.3906 98.54L68.0083 94.3308C68.0083 94.3308 68.9437 93.9677 68.0083 92.9773C67.0729 91.9869 62.3906 98.54 62.3906 98.54Z" fill="#333D7B" stroke="#333D7B" stroke-linecap="round" stroke-linejoin="round"/>
<path d="M88.5256 98.54L82.9079 94.3308C82.9079 94.3308 81.9725 93.9677 82.9079 92.9773C83.8433 91.9869 88.5256 98.54 88.5256 98.54Z" fill="#333D7B" stroke="#333D7B" stroke-linecap="round" stroke-linejoin="round"/>
<path d="M82.1984 115.597C82.1984 115.597 82.7486 111.745 76.1461 112.295C69.5435 112.845 71.1941 117.797 71.1941 117.797C71.1941 117.797 72.2946 119.448 74.4954 118.348C76.6963 117.247 78.3469 117.247 79.4473 117.797C80.5478 118.348 82.7486 117.247 82.1984 115.597Z" fill="#333D7B" stroke="#333D7B" stroke-linecap="round" stroke-linejoin="round"/>
<path d="M79.9965 113.946C79.9965 113.946 73.9441 116.147 72.8437 115.046C71.7433 113.946 78.3458 112.295 79.9965 113.946Z" fill="#F489AC" stroke="#F489AC" stroke-linecap="round" stroke-linejoin="round"/>
<path d="M71.5397 71.4527L72.244 73.571C72.4475 74.1763 72.1889 74.8695 71.6112 75.1226C71.2316 75.2877 70.8244 75.2052 70.5988 74.3358C70.0981 72.4101 71.5397 71.4472 71.5397 71.4472V71.4527Z" fill="#858BB0" stroke="#858BB0" stroke-linecap="round" stroke-linejoin="round"/>
<path d="M89.8239 82.4187L90.5281 84.537C90.7317 85.1423 90.4731 85.8355 89.8954 86.0886C89.5157 86.2537 89.1086 86.1712 88.883 85.3018C88.3823 83.3761 89.8239 82.4132 89.8239 82.4132V82.4187Z" fill="#858BB0" stroke="#858BB0" stroke-linecap="round" stroke-linejoin="round"/>
<path d="M105.939 59.7883L106.643 61.9066C106.847 62.5118 106.588 63.2051 106.011 63.4582C105.631 63.6233 105.224 63.5407 104.998 62.6714C104.498 60.7456 105.939 59.7828 105.939 59.7828V59.7883Z" fill="#858BB0" stroke="#858BB0" stroke-linecap="round" stroke-linejoin="round"/>
<path d="M98.236 71.3428L98.9402 73.4612C99.1438 74.0664 98.8852 74.7597 98.3075 75.0128C97.9279 75.1778 97.5207 75.0953 97.2951 74.226C96.7944 72.3002 98.236 71.3373 98.236 71.3373V71.3428Z" fill="#858BB0" stroke="#858BB0" stroke-linecap="round" stroke-linejoin="round"/>
<path d="M82.1989 65.6427L82.9031 67.761C83.1067 68.3663 82.8481 69.0595 82.2704 69.3126C81.8907 69.4777 81.4836 69.3952 81.258 68.5258C80.7573 66.6001 82.1989 65.6372 82.1989 65.6372V65.6427Z" fill="#858BB0" stroke="#858BB0" stroke-linecap="round" stroke-linejoin="round"/>
<path d="M58.6268 119.124C57.8345 118.887 44.3652 120.598 36.013 112.538C37.5976 106.21 34.8245 110.166 34.1533 110.557C26.1202 100.273 29.0858 111.723 29.0858 111.723C29.0858 111.723 35.6113 124.807 57.7685 124.411" stroke="#333D7B" stroke-width="1.5" stroke-linecap="round" stroke-linejoin="round"/>
<path d="M109.367 119.817C109.367 119.817 114.693 117.638 105.46 112.218C98.1589 113.891 103.364 110.903 102.605 110.303C97.3061 106.105 100.706 105.17 105.031 106.523C109.972 108.07 122.088 115.877 113.174 123.85" stroke="#333D7B" stroke-width="1.5" stroke-linecap="round" stroke-linejoin="round"/>
</g>
<defs>
<clipPath id="clip0_2166_10528">
<rect width="180" height="187.606" fill="white" transform="translate(0 12.3943)"/>
</clipPath>
</defs>
</svg>
