<svg width="165" height="126" viewBox="0 0 165 126" fill="none" xmlns="http://www.w3.org/2000/svg">
<path d="M35.1568 42.2468C35.2165 19.6362 42.7885 0.0215919 68.7048 0.0958981C94.621 0.170204 97.5392 20.7868 99.7101 20.793C101.881 20.7992 104.539 0.198641 130.824 0.274005C157.109 0.349369 164.213 18.3568 164.149 42.6167C164.085 66.8766 101.804 125.224 99.6543 125.218C97.5046 125.212 35.09 64.8501 35.1497 42.2468L35.1568 42.2468Z" fill="#F489AC"/>
<path d="M118.895 69.0081C118.895 69.0081 141.506 70.3879 139.61 82.5216C138.536 89.3904 125.109 99.9384 118.965 108.999C114.248 115.954 115.574 122.466 119.462 123.116C128.413 124.612 159.452 104.316 160.04 83.9917" stroke="#333D7B" stroke-width="2.24" stroke-miterlimit="10" stroke-linecap="round"/>
<path d="M133.112 56.5455C133.112 56.5455 160.621 63.8809 160.033 83.7132" stroke="#333D7B" stroke-width="2.24" stroke-miterlimit="10" stroke-linecap="round"/>
<path d="M95.5856 63.7952C93.2769 61.0774 80.3918 64.0584 79.2987 65.2753C78.2057 66.4923 81.4526 75.0419 86.6264 76.1412C91.8002 77.2406 97.8943 66.513 95.5856 63.7952Z" stroke="#333D7B" stroke-width="2.24" stroke-miterlimit="10"/>
<path d="M95.5027 63.8464C95.5027 63.8464 96.3448 65.0864 96.0091 66.3593C95.6734 67.6321 94.9167 69.5986 94.9167 69.5986C94.9167 69.5986 93.5406 68.0747 91.3276 68.8211C89.1217 69.5747 81.0875 72.0342 81.0875 72.0342L79.0891 65.3481C79.0891 65.3481 83.0334 63 88.1138 62.7178C93.1942 62.4356 95.5027 63.8536 95.5027 63.8536L95.5027 63.8464Z" fill="#333D7B"/>
<path d="M56.4932 77.206C56.2144 72.8235 22.8446 48.9971 17.3506 51.1428C11.8921 53.2737 8.93524 57.374 8.93524 57.374C8.93524 57.374 4.21003 58.017 2.28169 61.5006C0.353363 64.9769 14.038 63.9465 20.3586 65.1891C26.6793 66.4318 56.198 100.508 60.196 99.0072C64.1941 97.5065 68.0201 91.4391 68.0201 91.4391" stroke="#333D7B" stroke-width="2.24" stroke-miterlimit="10" stroke-linecap="round"/>
<path d="M100.61 57.5028C98.6767 57.4973 97.1159 55.1603 97.1235 52.2831C97.1311 49.4059 98.7042 47.0779 100.637 47.0835C102.57 47.089 104.131 49.426 104.123 52.3032C104.116 55.1804 102.543 57.5084 100.61 57.5028Z" fill="#333D7B"/>
<path d="M75.599 61.599C73.666 61.5935 72.1051 59.2565 72.1127 56.3793C72.1203 53.5021 73.6935 51.1741 75.6265 51.1797C77.5595 51.1852 79.1203 53.5222 79.1127 56.3994C79.1051 59.2766 77.532 61.6046 75.599 61.599Z" fill="#333D7B"/>
<path d="M118.09 22.1183C118.09 22.1183 127.244 25.1291 129.811 26.4187C132.378 27.7083 140.403 34.0845 140.403 34.0845C143.005 35.4829 146.237 34.42 147.588 31.729C148.94 29.038 147.913 25.6955 145.311 24.2971C145.311 24.2971 139.663 19.8112 134.753 17.0733C129.843 14.3354 122.998 12.3309 122.998 12.3309C120.396 10.9325 117.164 11.9954 115.812 14.6864C114.46 17.3774 115.488 20.7199 118.09 22.1183Z" stroke="#333D7B" stroke-width="1.89" stroke-miterlimit="10"/>
<path d="M128.557 24.8867C129.356 25.1662 130.743 26.0377 130.743 26.0377C132.04 26.7169 133.641 26.2024 134.311 24.8889L135.912 21.765C136.582 20.4515 136.074 18.8289 134.778 18.1497C134.778 18.1497 133.321 17.079 132.592 16.9987C131.862 16.9184 129.694 16.834 129.024 18.1475L127.423 21.2714C126.753 22.5849 127.751 24.607 128.557 24.8867Z" fill="#333D7B"/>
<path d="M140.969 26.0929L140.542 25.862C140.41 25.7908 140.358 25.6216 140.427 25.4841L140.648 25.0385C140.717 24.901 140.879 24.8473 141.011 24.9186L141.438 25.1494C141.57 25.2206 141.622 25.3899 141.553 25.5274L141.332 25.9729C141.263 26.1104 141.101 26.1641 140.969 26.0929Z" fill="#333D7B"/>
<path d="M143.59 29.9692L143.163 29.7384C143.031 29.6671 142.979 29.4979 143.048 29.3604L143.269 28.9149C143.338 28.7774 143.5 28.7237 143.632 28.7949L144.059 29.0257C144.191 29.097 144.243 29.2662 144.174 29.4037L143.953 29.8492C143.884 29.9867 143.722 30.0404 143.59 29.9692Z" fill="#333D7B"/>
<path d="M137.885 26.8971L137.458 26.6662C137.326 26.595 137.274 26.4258 137.343 26.2883L137.564 25.8427C137.633 25.7052 137.795 25.6515 137.927 25.7228L138.354 25.9536C138.486 26.0248 138.538 26.194 138.469 26.3316L138.248 26.7771C138.179 26.9146 138.017 26.9683 137.885 26.8971Z" fill="#333D7B"/>
<path d="M139.873 30.5919L139.445 30.3611C139.313 30.2898 139.262 30.1206 139.33 29.9831L139.552 29.5376C139.62 29.4 139.783 29.3463 139.915 29.4176L140.342 29.6484C140.474 29.7197 140.526 29.8889 140.457 30.0264L140.236 30.4719C140.167 30.6094 140.005 30.6631 139.873 30.5919Z" fill="#333D7B"/>
<path d="M124.902 16.143L125.329 16.3738C125.461 16.4451 125.512 16.6143 125.444 16.7518L125.222 17.1973C125.154 17.3348 124.992 17.3885 124.86 17.3173L124.432 17.0865C124.3 17.0152 124.249 16.846 124.317 16.7085L124.539 16.263C124.607 16.1255 124.77 16.0717 124.902 16.143Z" fill="#333D7B"/>
<path d="M120.339 16.1374L120.767 16.3682C120.898 16.4394 120.95 16.6087 120.882 16.7462L120.66 17.1917C120.592 17.3292 120.429 17.3829 120.297 17.3117L119.87 17.0808C119.738 17.0096 119.686 16.8404 119.755 16.7029L119.976 16.2573C120.045 16.1198 120.207 16.0661 120.339 16.1374Z" fill="#333D7B"/>
<path d="M126.044 19.224L126.472 19.4549C126.604 19.5261 126.655 19.6953 126.587 19.8328L126.365 20.2784C126.297 20.4159 126.134 20.4696 126.002 20.3983L125.575 20.1675C125.443 20.0963 125.391 19.927 125.46 19.7895L125.681 19.344C125.75 19.2065 125.912 19.1528 126.044 19.224Z" fill="#333D7B"/>
<path d="M121.997 19.6652L122.425 19.896C122.557 19.9673 122.608 20.1365 122.54 20.274L122.318 20.7195C122.25 20.857 122.087 20.9107 121.955 20.8395L121.528 20.6087C121.396 20.5374 121.345 20.3682 121.413 20.2307L121.635 19.7852C121.703 19.6477 121.865 19.594 121.997 19.6652Z" fill="#333D7B"/>
</svg>
