<svg width="220" height="220" viewBox="0 0 220 220" fill="none" xmlns="http://www.w3.org/2000/svg">
<g clip-path="url(#clip0_2188_23756)">
<path d="M0 200.765C0 203.713 15.082 220.61 105.262 219.986C197.008 219.348 212.409 203.713 212.409 200.765C212.409 197.816 164.86 188.879 106.205 188.879C47.5494 188.879 0 197.809 0 200.765Z" fill="#999EBD"/>
<path d="M157.319 33.3462L170.792 74.8217C171.175 76.0053 172.274 76.7991 173.521 76.7991H217.13C219.908 76.7991 221.063 80.3499 218.816 81.9871L183.535 107.622C182.529 108.352 182.111 109.649 182.494 110.826L195.967 152.301C196.824 154.945 193.805 157.135 191.558 155.505L156.277 129.87C155.271 129.14 153.91 129.14 152.911 129.87L117.63 155.505C115.383 157.135 112.364 154.938 113.221 152.301L126.694 110.826C127.077 109.642 126.659 108.352 125.653 107.622L90.3715 81.9871C88.1248 80.357 89.2801 76.7991 92.0583 76.7991H135.667C136.907 76.7991 138.006 75.9982 138.396 74.8217L151.869 33.3462C152.726 30.7026 156.462 30.7026 157.319 33.3462Z" fill="#F9CDAB"/>
<path d="M159.629 129.699C159.629 129.699 160.366 195.683 161.401 197.909L179.793 198.022C180.24 198.022 180.629 197.661 180.792 197.249C181.444 195.527 182.444 191.218 180.24 189.269C177.511 186.859 171.394 190.141 170.955 187.051C164.286 140.238 167.163 127.325 167.163 127.325" stroke="#333D7B" stroke-width="1.29" stroke-miterlimit="10" stroke-linecap="round"/>
<path d="M150.444 127.432C150.444 127.432 147.404 195.187 146.369 197.413L138.169 197.242C137.722 197.242 128.353 197.327 128.197 196.909C127.545 195.187 126.546 190.651 128.75 188.709C131.478 186.299 137.51 189.248 137.949 186.158C144.619 139.345 142.96 133.534 142.96 133.534" stroke="#333D7B" stroke-width="1.29" stroke-miterlimit="10" stroke-linecap="round"/>
<path d="M150.38 99.8686C152.755 99.6489 153.336 100.407 157.652 100.705" stroke="#333D7B" stroke-width="1.83" stroke-miterlimit="10" stroke-linecap="round"/>
<path d="M161.926 87.2602C163.513 86.4522 164.307 86.2254 166.469 87.4728" stroke="#333D7B" stroke-width="1.21" stroke-miterlimit="10" stroke-linecap="round"/>
<path d="M140.848 89.2659C143.442 88.2666 143.286 90.1872 146.73 90.4211" stroke="#333D7B" stroke-width="1.46" stroke-miterlimit="10" stroke-linecap="round"/>
<path d="M143.314 97.6787C144.657 97.6787 145.745 96.2095 145.745 94.3972C145.745 92.5849 144.657 91.1157 143.314 91.1157C141.972 91.1157 140.883 92.5849 140.883 94.3972C140.883 96.2095 141.972 97.6787 143.314 97.6787Z" fill="#333D7B"/>
<path d="M163.967 97.7707C165.31 97.7707 166.398 96.3015 166.398 94.4892C166.398 92.6769 165.31 91.2078 163.967 91.2078C162.625 91.2078 161.536 92.6769 161.536 94.4892C161.536 96.3015 162.625 97.7707 163.967 97.7707Z" fill="#333D7B"/>
<path d="M152.003 96.3603C152.414 96.3603 152.748 96.0271 152.748 95.6161C152.748 95.2051 152.414 94.8719 152.003 94.8719C151.592 94.8719 151.259 95.2051 151.259 95.6161C151.259 96.0271 151.592 96.3603 152.003 96.3603Z" fill="#FF7B73"/>
<path d="M166.037 84.3117C166.448 84.3117 166.781 83.9785 166.781 83.5675C166.781 83.1565 166.448 82.8234 166.037 82.8234C165.626 82.8234 165.292 83.1565 165.292 83.5675C165.292 83.9785 165.626 84.3117 166.037 84.3117Z" fill="#FF7B73"/>
<path d="M167.66 107.289C168.071 107.289 168.404 106.956 168.404 106.545C168.404 106.134 168.071 105.801 167.66 105.801C167.249 105.801 166.916 106.134 166.916 106.545C166.916 106.956 167.249 107.289 167.66 107.289Z" fill="#FF7B73"/>
<path d="M132.627 86.1899C133.038 86.1899 133.371 85.8567 133.371 85.4457C133.371 85.0347 133.038 84.7015 132.627 84.7015C132.216 84.7015 131.882 85.0347 131.882 85.4457C131.882 85.8567 132.216 86.1899 132.627 86.1899Z" fill="#FF7B73"/>
<path d="M130.415 110.549C130.415 110.549 121.464 111.18 122.201 116.956C122.619 120.231 127.921 125.27 130.344 129.593C132.201 132.91 131.67 136.014 130.132 136.319C126.588 137.021 114.327 127.311 114.114 117.63" stroke="#333D7B" stroke-width="0.99" stroke-miterlimit="10" stroke-linecap="round"/>
<path d="M124.412 104.277C124.412 104.277 113.632 108.09 114.086 117.764" stroke="#333D7B" stroke-width="0.99" stroke-miterlimit="10" stroke-linecap="round"/>
<path d="M174.513 108.019C174.513 108.019 183.465 107.388 182.728 101.612C182.309 98.3378 177.008 93.2986 174.584 88.9753C172.727 85.6584 173.259 82.5541 174.797 82.2494C178.341 81.5477 190.602 91.2575 190.814 100.939" stroke="#333D7B" stroke-width="0.99" stroke-miterlimit="10" stroke-linecap="round"/>
<path d="M180.155 114.157C180.155 114.157 191.027 110.613 190.814 100.932" stroke="#333D7B" stroke-width="0.99" stroke-miterlimit="10" stroke-linecap="round"/>
<path d="M142.932 115.624C145.157 117.616 148.382 118.473 151.316 115.227" stroke="#F7B98A" stroke-width="1.31" stroke-linecap="round" stroke-linejoin="round"/>
<path d="M158.205 115.433C160.431 117.424 163.669 118.416 166.604 115.17" stroke="#F7B98A" stroke-width="1.31" stroke-miterlimit="10" stroke-linecap="round"/>
<path d="M54.0627 136.553L64.8001 162.819C64.8781 163.01 64.9844 163.195 65.112 163.358L82.4903 185.789C83.7589 187.419 82.3981 189.765 80.357 189.489L52.2412 185.655C52.0357 185.626 51.8231 185.626 51.6176 185.655L23.5018 189.489C21.4536 189.765 20.0999 187.419 21.3685 185.789L38.7468 163.358C38.8744 163.195 38.9807 163.01 39.0587 162.819L49.7961 136.553C50.5757 134.639 53.2831 134.639 54.0698 136.553H54.0627Z" fill="#F9CDAB"/>
<path d="M49.7749 171.629C49.945 171.657 50.9443 173.407 52.9926 171.707" stroke="#333D7B" stroke-width="0.65" stroke-miterlimit="10" stroke-linecap="round"/>
<path d="M56.9546 164.981C57.6562 164.619 58.0106 164.52 58.9674 165.073" stroke="#333D7B" stroke-width="0.54" stroke-miterlimit="10" stroke-linecap="round"/>
<path d="M44.4663 164.952C45.175 164.591 45.5365 164.484 46.5004 165.044" stroke="#333D7B" stroke-width="0.54" stroke-miterlimit="10" stroke-linecap="round"/>
<path d="M45.4871 169.651C46.2738 169.651 46.9116 168.788 46.9116 167.723C46.9116 166.659 46.2738 165.796 45.4871 165.796C44.7003 165.796 44.0625 166.659 44.0625 167.723C44.0625 168.788 44.7003 169.651 45.4871 169.651Z" fill="#333D7B"/>
<path d="M57.6062 169.708C58.393 169.708 59.0308 168.845 59.0308 167.78C59.0308 166.715 58.393 165.852 57.6062 165.852C56.8194 165.852 56.1816 166.715 56.1816 167.78C56.1816 168.845 56.8194 169.708 57.6062 169.708Z" fill="#333D7B"/>
<path d="M64.616 195.995C65.0908 198.093 55.6079 197.306 55.6079 197.306L53.7227 183.635" stroke="#333D7B" stroke-width="1.02" stroke-miterlimit="10" stroke-linecap="round"/>
<path d="M57.7552 184.478C57.7552 184.478 57.5426 190.552 58.8041 193.273C59.1302 192.494 64.1268 191.303 64.6158 195.995" stroke="#333D7B" stroke-width="1.02" stroke-miterlimit="10" stroke-linecap="round"/>
<path d="M37.861 195.634C37.3862 197.731 46.8691 196.945 46.8691 196.945L48.7543 183.273" stroke="#333D7B" stroke-width="1.02" stroke-miterlimit="10" stroke-linecap="round"/>
<path d="M44.7214 184.117C44.7214 184.117 44.9341 190.19 43.6725 192.912C43.3465 192.132 38.3499 190.942 37.8608 195.634" stroke="#333D7B" stroke-width="1.02" stroke-miterlimit="10" stroke-linecap="round"/>
<path d="M99.6632 118.523C99.2379 119.494 98.9119 120.472 98.7206 121.514C98.5292 122.555 98.267 123.456 97.8559 124.391C97.7567 124.625 97.785 124.894 98.026 125.036C98.2244 125.156 98.5717 125.1 98.671 124.866C99.0962 123.895 99.4222 122.917 99.6136 121.875C99.8049 120.833 100.067 119.933 100.478 118.998C100.577 118.764 100.549 118.494 100.308 118.353C100.11 118.232 99.7624 118.289 99.6632 118.523Z" fill="#333D7B"/>
<path d="M73.1205 141.032C75.7712 139.856 77.7769 137.751 79.5842 135.532C81.3915 133.314 83.1917 130.954 85.2116 128.835C89.1876 124.66 93.8582 121.457 99.3368 119.614C99.9109 119.423 99.6628 118.509 99.0887 118.707C94.9709 120.089 91.1934 122.187 87.8835 125.001C84.3469 127.999 81.5899 131.634 78.6557 135.185C76.9689 137.226 75.0979 139.126 72.6456 140.217C72.0928 140.465 72.5748 141.28 73.1205 141.032Z" fill="#333D7B"/>
<path d="M35.6144 174.06C35.6144 174.06 33.0984 181.388 37.7123 176.994" stroke="#333D7B" stroke-width="0.98" stroke-miterlimit="10"/>
<path d="M65.7214 174.485C65.7214 174.485 68.2374 181.813 63.6235 177.419" stroke="#333D7B" stroke-width="0.98" stroke-miterlimit="10"/>
<path d="M93.3905 118.679C95.5167 118.827 97.6359 118.976 99.7621 119.132C100.372 119.175 100.365 118.232 99.7621 118.19C97.6359 118.041 95.5167 117.892 93.3905 117.736C92.781 117.693 92.7881 118.636 93.3905 118.679Z" fill="#333D7B"/>
</g>
<defs>
<clipPath id="clip0_2188_23756">
<rect width="220" height="188.631" fill="white" transform="translate(0 31.3689)"/>
</clipPath>
</defs>
</svg>
