<svg width="21" height="20" viewBox="0 0 21 20" fill="none" xmlns="http://www.w3.org/2000/svg">
<path fill-rule="evenodd" clip-rule="evenodd" d="M15.8245 8.29835C15.8245 9.85781 15.3399 11.3041 14.5131 12.4948L19.0929 17.2147L17.1834 19.0675L12.6273 14.372C11.4419 15.1871 10.006 15.6642 8.45865 15.6642C4.39059 15.6642 1.09277 12.3664 1.09277 8.29835C1.09277 4.23028 4.39059 0.932465 8.45865 0.932465C12.5267 0.932465 15.8245 4.23028 15.8245 8.29835ZM8.4587 13.209C11.1707 13.209 13.3693 11.0104 13.3693 8.29839C13.3693 5.58635 11.1707 3.3878 8.4587 3.3878C5.74665 3.3878 3.54811 5.58635 3.54811 8.29839C3.54811 11.0104 5.74665 13.209 8.4587 13.209Z" fill="#333D7B"/>
</svg>
