<svg width="220" height="220" viewBox="0 0 220 220" fill="none" xmlns="http://www.w3.org/2000/svg">
<path d="M220 210.665C220 215.821 170.753 220 110 220C49.2468 220 0 215.815 0 210.665C0 205.515 49.2468 201.33 110 201.33C170.753 201.33 220 205.509 220 210.665Z" fill="#858BB0"/>
<path d="M123.199 23.2293L129.871 50.644C130.612 53.6945 132.856 56.1545 135.821 57.1845L154.865 61.2124C158.643 62.0127 161.687 64.7942 162.829 68.481L167.237 82.7296C168.477 86.7312 165.84 90.8838 161.694 91.4742L150.096 93.1142C146.435 94.4459 144.008 97.9359 144.027 101.826L144.218 143.227C146.1 149.026 139.468 153.841 134.535 150.259L114.415 125.252C111.87 122.09 107.566 120.962 103.801 122.464L69.0257 136.352C65.4176 138.976 60.5631 135.447 61.9408 131.202L74.2016 100.527C75.4808 97.3324 74.8707 93.6915 72.6337 91.0872L55.1445 70.7377C52.3039 67.4314 54.5541 62.2489 58.91 62.157C58.969 62.157 59.0281 62.157 59.0937 62.157L94.105 62.2423C97.9295 62.2489 101.36 59.9069 102.738 56.3448L115.511 23.2818C115.511 23.2818 121.316 17.4302 123.199 23.2293Z" fill="#858BB0"/>
<path d="M106.254 99.53C107.881 101.026 108.117 102.758 107.232 104.778C106.937 105.447 107.035 106.425 106.595 106.923C106.156 107.422 105.106 107.579 104.562 107.861C104.017 108.143 103.86 108.799 103.25 108.826C102.01 108.872 101.367 108.065 100.429 107.133C99.8714 106.576 98.8808 106.149 98.5069 105.342C98.2641 104.817 98.5659 104.365 98.4281 103.761C98.3035 103.197 97.7262 102.482 97.7065 101.872C97.5688 97.9293 99.8845 95.3971 102.509 96.6829C103.617 97.2274 105.08 98.4476 106.248 99.5235L106.254 99.53Z" fill="#333D7B"/>
<path d="M117.544 99.53C115.917 101.026 115.681 102.758 116.567 104.778C116.862 105.447 116.763 106.425 117.203 106.923C117.642 107.422 118.692 107.579 119.236 107.861C119.781 108.143 119.938 108.799 120.549 108.826C121.788 108.872 122.431 108.065 123.369 107.133C123.927 106.576 124.918 106.149 125.291 105.342C125.534 104.817 125.232 104.365 125.37 103.761C125.495 103.197 126.072 102.482 126.092 101.872C126.23 97.9293 123.914 95.3971 121.29 96.6829C120.181 97.2274 118.718 98.4476 117.551 99.5235L117.544 99.53Z" fill="#333D7B"/>
<path d="M70.7246 120.772L65.3584 182.575C65.3584 184.379 65.8373 186.176 66.8803 187.645C67.8381 188.997 69.347 190.224 71.6561 190.224C73.7094 190.224 74.864 189.213 75.5135 188.006C76.4647 186.235 76.1892 184.044 74.9755 182.443C74.3523 181.623 73.7357 180.567 73.6963 179.55C73.611 177.451 79.7579 131.556 79.7579 131.556" stroke="#333D7B" stroke-width="1.57" stroke-miterlimit="10" stroke-linecap="round"/>
<path d="M142.949 112.267L148.75 174.672C148.794 175.228 148.76 175.79 148.625 176.334C148.197 178.072 146.86 181.627 143.008 181.933C140.961 182.095 139.731 181.179 138.988 180.027C137.899 178.337 138.001 176.131 139.084 174.439C139.64 173.572 140.171 172.471 140.13 171.454C140.049 169.355 134.797 123.733 134.797 123.733" stroke="#333D7B" stroke-width="1.57" stroke-miterlimit="10" stroke-linecap="round"/>
<path d="M107.291 112.506C107.291 112.506 107.232 111.588 109.03 110.584C110.821 109.58 112.441 110.584 112.441 110.584" stroke="#333D7B" stroke-width="3.14" stroke-miterlimit="10" stroke-linecap="round"/>
<path d="M29.0812 214.64L15.3706 214.949L17.811 206.998H28.5564L28.3728 207.411L28.6089 207.733L28.4252 208.251L28.6811 208.763L28.4908 209.34L28.7467 209.74L28.5433 210.166L28.8057 210.573L28.5958 210.986L28.8516 211.301L28.6352 211.675L28.8976 211.911L28.6876 212.476L28.9632 212.876L28.7467 213.433L29.0222 213.781L28.7992 214.273L29.0812 214.64Z" stroke="#333D7B" stroke-width="0.36" stroke-miterlimit="10"/>
<path d="M26.8438 210.39C26.8569 211.852 24.9479 213.171 22.5469 213.217C20.1459 213.263 18.4403 211.977 18.8076 210.475C19.1422 209.104 21.084 208.067 23.1504 208.061C25.1906 208.054 26.8372 209.051 26.8438 210.39Z" stroke="#333D7B" stroke-width="0.32" stroke-miterlimit="10"/>
<path d="M28.4648 207.424C30.4985 207.739 32.1779 208.868 32.4468 210.33C32.7355 211.925 31.2988 213.427 28.9634 213.958" stroke="#333D7B" stroke-width="0.42" stroke-miterlimit="10"/>
<path d="M23.9707 208.71C23.9707 208.71 25.5583 209.012 25.6829 210.134" stroke="#333D7B" stroke-width="0.32" stroke-miterlimit="10" stroke-linecap="round"/>
<path d="M17.6208 207.004C17.6208 207.004 16.5646 207.136 16.4727 207.392C16.3809 207.647 17.3846 207.759 17.3846 207.759" stroke="#333D7B" stroke-width="0.42" stroke-miterlimit="10" stroke-linecap="round"/>
<path d="M17.3581 207.851C17.3581 207.851 16.2691 207.995 16.1707 208.264C16.0723 208.533 17.1022 208.651 17.1022 208.651" stroke="#333D7B" stroke-width="0.42" stroke-miterlimit="10" stroke-linecap="round"/>
<path d="M17.0765 208.743C17.0765 208.743 15.9481 208.9 15.8497 209.189C15.7513 209.478 16.8075 209.602 16.8075 209.602" stroke="#333D7B" stroke-width="0.42" stroke-miterlimit="10" stroke-linecap="round"/>
<path d="M16.7807 209.694C16.7807 209.694 15.613 209.865 15.5081 210.166C15.4031 210.468 16.4986 210.599 16.4986 210.599" stroke="#333D7B" stroke-width="0.42" stroke-miterlimit="10" stroke-linecap="round"/>
<path d="M16.4591 210.711C16.4591 210.711 15.2521 210.895 15.1406 211.223C15.029 211.551 16.1574 211.682 16.1574 211.682" stroke="#333D7B" stroke-width="0.42" stroke-miterlimit="10" stroke-linecap="round"/>
<path d="M16.1182 211.787C16.1182 211.787 14.8652 211.984 14.7472 212.331C14.6291 212.679 15.7968 212.823 15.7968 212.823" stroke="#333D7B" stroke-width="0.42" stroke-miterlimit="10" stroke-linecap="round"/>
<path d="M15.7574 212.948C15.7574 212.948 14.4585 213.164 14.3273 213.538C14.1961 213.912 15.4097 214.063 15.4097 214.063" stroke="#333D7B" stroke-width="0.42" stroke-miterlimit="10" stroke-linecap="round"/>
<path d="M15.4095 214.057C15.4095 214.057 14.1631 214.004 14.0253 214.398C13.8876 214.791 15.1274 214.942 15.1274 214.942" stroke="#333D7B" stroke-width="0.42" stroke-miterlimit="10" stroke-linecap="round"/>
<path d="M35.4702 214.982C35.4702 214.982 36.6642 214.942 36.6707 214.562C36.6773 214.181 35.5227 213.879 35.5227 213.879" stroke="#333D7B" stroke-width="0.42" stroke-miterlimit="10" stroke-linecap="round"/>
<path d="M35.5298 213.761C35.5298 213.761 36.6844 213.729 36.6844 213.374C36.6844 213.02 35.5757 212.738 35.5757 212.738" stroke="#333D7B" stroke-width="0.42" stroke-miterlimit="10" stroke-linecap="round"/>
<path d="M35.5825 212.626C35.5825 212.626 36.6977 212.594 36.6977 212.266C36.6977 211.938 35.6219 211.662 35.6219 211.662" stroke="#333D7B" stroke-width="0.42" stroke-miterlimit="10" stroke-linecap="round"/>
<path d="M35.6279 211.564C35.6279 211.564 36.7038 211.537 36.7103 211.229C36.7169 210.921 35.6673 210.665 35.6673 210.665" stroke="#333D7B" stroke-width="0.42" stroke-miterlimit="10" stroke-linecap="round"/>
<path d="M35.6738 210.567C35.6738 210.567 36.7169 210.547 36.7234 210.252C36.73 209.957 35.7132 209.714 35.7132 209.714" stroke="#333D7B" stroke-width="0.42" stroke-miterlimit="10" stroke-linecap="round"/>
<path d="M35.7197 209.628C35.7197 209.628 36.7365 209.609 36.7365 209.34C36.7365 209.071 35.7591 208.835 35.7591 208.835" stroke="#333D7B" stroke-width="0.42" stroke-miterlimit="10" stroke-linecap="round"/>
<path d="M35.7593 208.743C35.7593 208.743 36.7433 208.73 36.7499 208.474C36.7564 208.218 35.7986 207.995 35.7986 207.995" stroke="#333D7B" stroke-width="0.42" stroke-miterlimit="10" stroke-linecap="round"/>
<path d="M35.7983 207.989C35.7983 207.989 36.7561 208.159 36.7561 207.91C36.7561 207.661 35.8246 207.444 35.8246 207.444" stroke="#333D7B" stroke-width="0.42" stroke-miterlimit="10" stroke-linecap="round"/>
<path d="M35.2537 215.014L33.9089 214.831L33.6465 214.194L34.0073 213.801L33.7318 213.302L34.086 212.902L33.8236 212.377L34.1713 211.931L33.9089 211.57L34.2238 211.373L33.9679 210.947L34.2894 210.685L34.0467 210.186L34.3615 209.871L34.1319 209.32L34.4468 208.9L34.2303 208.343L34.5452 207.87L34.3222 207.437L34.5977 207.254L35.6604 207.391L35.2537 215.014Z" stroke="#333D7B" stroke-width="0.36" stroke-miterlimit="10"/>
<path d="M28.7922 213.447C30.7733 212.981 32.0132 211.708 31.7901 210.337C31.5933 209.11 30.2551 208.146 28.5757 207.818" stroke="#333D7B" stroke-width="0.37" stroke-miterlimit="10"/>
<path d="M163.268 205.043C161.595 206.512 162.225 208.402 164.862 209.156C167.532 209.917 170.871 209.117 172.17 207.503C173.357 206.02 172.36 204.407 170.058 203.79C167.781 203.18 164.803 203.698 163.275 205.043H163.268Z" stroke="#333D7B" stroke-width="0.44" stroke-miterlimit="10"/>
<path d="M162.231 204.695C160.158 206.512 160.946 208.861 164.206 209.792C167.512 210.737 171.645 209.747 173.259 207.739C174.728 205.909 173.495 203.902 170.641 203.141C167.821 202.386 164.134 203.029 162.231 204.695Z" stroke="#333D7B" stroke-width="0.55" stroke-miterlimit="10"/>
<path d="M40.1744 206.178C39.0264 207.188 39.4593 208.487 41.2699 209.005C43.1002 209.53 45.3962 208.979 46.2884 207.87C47.1019 206.854 46.4196 205.745 44.8386 205.318C43.2773 204.899 41.2305 205.259 40.1809 206.178H40.1744Z" stroke="#333D7B" stroke-width="0.3" stroke-miterlimit="10"/>
<path d="M39.4593 205.942C38.0357 207.188 38.5736 208.802 40.8106 209.445C43.0804 210.094 45.921 209.412 47.0296 208.034C48.0399 206.775 47.1936 205.397 45.2322 204.872C43.2707 204.348 40.7647 204.794 39.4593 205.942Z" stroke="#333D7B" stroke-width="0.38" stroke-miterlimit="10"/>
<path d="M172.479 211.977L187.003 216.208L193.117 207.752L181.472 204.676L181.217 205.128L180.6 205.378L180.233 205.935L179.393 206.362L178.96 206.978L178.245 207.293L177.996 207.772L177.261 208.093L177.038 208.553L176.408 208.789L176.231 209.215L175.693 209.373L175.299 209.983L174.551 210.298L174.178 210.901L173.489 211.157L173.194 211.701L172.479 211.977Z" stroke="#333D7B" stroke-width="0.49" stroke-miterlimit="10"/>
<path d="M179.596 208.474C177.976 209.897 178.586 211.728 181.138 212.462C183.69 213.197 186.957 212.423 188.216 210.855C189.364 209.419 188.4 207.857 186.17 207.26C183.965 206.67 181.079 207.175 179.596 208.474Z" stroke="#333D7B" stroke-width="0.43" stroke-miterlimit="10"/>
<path d="M184.549 207.66C184.549 207.66 182.496 207.496 181.125 208.559" stroke="#333D7B" stroke-width="0.43" stroke-miterlimit="10" stroke-linecap="round"/>
<path d="M193.32 207.818C193.32 207.818 194.324 208.251 194.133 208.526C193.943 208.802 192.743 208.625 192.743 208.625" stroke="#333D7B" stroke-width="0.56" stroke-miterlimit="10" stroke-linecap="round"/>
<path d="M192.677 208.717C192.677 208.717 193.701 209.169 193.504 209.458C193.307 209.747 192.061 209.569 192.061 209.569" stroke="#333D7B" stroke-width="0.56" stroke-miterlimit="10" stroke-linecap="round"/>
<path d="M191.995 209.668C191.995 209.668 193.044 210.14 192.835 210.455C192.625 210.77 191.339 210.58 191.339 210.58" stroke="#333D7B" stroke-width="0.56" stroke-miterlimit="10" stroke-linecap="round"/>
<path d="M191.266 210.685C191.266 210.685 192.342 211.183 192.126 211.511C191.909 211.839 190.578 211.656 190.578 211.656" stroke="#333D7B" stroke-width="0.56" stroke-miterlimit="10" stroke-linecap="round"/>
<path d="M190.492 211.76C190.492 211.76 191.601 212.285 191.365 212.633C191.128 212.981 189.757 212.79 189.757 212.79" stroke="#333D7B" stroke-width="0.56" stroke-miterlimit="10" stroke-linecap="round"/>
<path d="M189.672 212.915C189.672 212.915 190.807 213.466 190.558 213.84C190.302 214.221 188.885 214.017 188.885 214.017" stroke="#333D7B" stroke-width="0.56" stroke-miterlimit="10" stroke-linecap="round"/>
<path d="M188.794 214.142C188.794 214.142 189.961 214.726 189.692 215.126C189.423 215.526 187.947 215.323 187.947 215.323" stroke="#333D7B" stroke-width="0.56" stroke-miterlimit="10" stroke-linecap="round"/>
<path d="M187.94 215.329C187.94 215.329 189.344 215.638 189.062 216.057C188.78 216.477 187.265 216.274 187.265 216.274" stroke="#333D7B" stroke-width="0.56" stroke-miterlimit="10" stroke-linecap="round"/>
<path d="M47.4629 210.711L56.9226 213.473L60.9111 207.962L53.3211 205.955L53.1505 206.25L52.7503 206.414L52.5142 206.775L51.9697 207.05L51.6876 207.457L51.2153 207.66L51.0578 207.969L50.5789 208.185L50.4281 208.48L50.0213 208.631L49.9033 208.913L49.5556 209.012L49.2997 209.412L48.8077 209.615L48.565 210.009L48.1189 210.179L47.9287 210.534L47.4629 210.711Z" stroke="#333D7B" stroke-width="0.32" stroke-miterlimit="10"/>
<path d="M52.1003 208.428C51.0442 209.353 51.4443 210.553 53.104 211.026C54.7637 211.498 56.8958 210.999 57.7158 209.983C58.4637 209.051 57.8339 208.028 56.3841 207.641C54.9474 207.254 53.0647 207.582 52.1003 208.434V208.428Z" stroke="#333D7B" stroke-width="0.28" stroke-miterlimit="10"/>
<path d="M55.3281 207.903C55.3281 207.903 53.9898 207.798 53.0977 208.487" stroke="#333D7B" stroke-width="0.28" stroke-miterlimit="10" stroke-linecap="round"/>
<path d="M61.0419 208.002C61.0419 208.002 61.6913 208.284 61.5733 208.461C61.4552 208.638 60.668 208.526 60.668 208.526" stroke="#333D7B" stroke-width="0.37" stroke-miterlimit="10" stroke-linecap="round"/>
<path d="M60.6218 208.585C60.6218 208.585 61.291 208.881 61.1598 209.071C61.0286 209.261 60.2217 209.143 60.2217 209.143" stroke="#333D7B" stroke-width="0.37" stroke-miterlimit="10" stroke-linecap="round"/>
<path d="M60.1757 209.209C60.1757 209.209 60.858 209.517 60.7268 209.72C60.5956 209.924 59.7559 209.799 59.7559 209.799" stroke="#333D7B" stroke-width="0.37" stroke-miterlimit="10" stroke-linecap="round"/>
<path d="M59.7036 209.871C59.7036 209.871 60.4056 210.199 60.2612 210.409C60.1169 210.619 59.251 210.501 59.251 210.501" stroke="#333D7B" stroke-width="0.37" stroke-miterlimit="10" stroke-linecap="round"/>
<path d="M59.2057 210.573C59.2057 210.573 59.9273 210.914 59.7698 211.144C59.6124 211.373 58.7202 211.249 58.7202 211.249" stroke="#333D7B" stroke-width="0.37" stroke-miterlimit="10" stroke-linecap="round"/>
<path d="M58.667 211.321C58.667 211.321 59.4083 211.682 59.2442 211.925C59.0737 212.174 58.1553 212.043 58.1553 212.043" stroke="#333D7B" stroke-width="0.37" stroke-miterlimit="10" stroke-linecap="round"/>
<path d="M58.0901 212.128C58.0901 212.128 58.8511 212.508 58.674 212.771C58.4968 213.033 57.5391 212.902 57.5391 212.902" stroke="#333D7B" stroke-width="0.37" stroke-miterlimit="10" stroke-linecap="round"/>
<path d="M57.5386 212.895C57.5386 212.895 58.4505 213.099 58.2668 213.374C58.0831 213.65 57.0991 213.512 57.0991 213.512" stroke="#333D7B" stroke-width="0.37" stroke-miterlimit="10" stroke-linecap="round"/>
<path d="M100.075 215.08C100.075 215.08 98.3428 214.68 98.8676 214.135C99.3924 213.591 101.544 213.492 101.544 213.492" stroke="#333D7B" stroke-width="0.77" stroke-miterlimit="10" stroke-linecap="round"/>
<path d="M101.695 213.322C101.695 213.322 100.016 212.941 100.501 212.436C100.98 211.938 103.066 211.839 103.066 211.839" stroke="#333D7B" stroke-width="0.77" stroke-miterlimit="10" stroke-linecap="round"/>
<path d="M103.217 211.682C103.217 211.682 101.583 211.321 102.042 210.849C102.502 210.376 104.502 210.297 104.502 210.297" stroke="#333D7B" stroke-width="0.77" stroke-miterlimit="10" stroke-linecap="round"/>
<path d="M104.634 210.14C104.634 210.14 103.046 209.792 103.479 209.353C103.899 208.92 105.841 208.841 105.841 208.841" stroke="#333D7B" stroke-width="0.77" stroke-miterlimit="10" stroke-linecap="round"/>
<path d="M105.965 208.697C105.965 208.697 104.424 208.369 104.831 207.949C105.237 207.529 107.1 207.47 107.1 207.47" stroke="#333D7B" stroke-width="0.77" stroke-miterlimit="10" stroke-linecap="round"/>
<path d="M107.218 207.345C107.218 207.345 105.723 207.031 106.097 206.637C106.471 206.243 108.281 206.191 108.281 206.191" stroke="#333D7B" stroke-width="0.77" stroke-miterlimit="10" stroke-linecap="round"/>
<path d="M108.4 206.066C108.4 206.066 106.943 205.764 107.298 205.391C107.652 205.023 109.404 204.977 109.404 204.977" stroke="#333D7B" stroke-width="0.77" stroke-miterlimit="10" stroke-linecap="round"/>
<path d="M109.403 204.977C109.403 204.977 107.73 204.944 108.071 204.59C108.412 204.242 110.125 204.197 110.125 204.197" stroke="#333D7B" stroke-width="0.77" stroke-miterlimit="10" stroke-linecap="round"/>
<path d="M100.343 215.185L102.626 215.309L103.919 214.476L103.932 213.807L105.034 213.177L105.067 212.502L106.195 211.826L106.3 211.085L107.212 210.645L107.008 210.278L107.992 209.733L107.881 209.268L108.95 208.625L108.924 208.08L110.039 207.359L110.151 206.67L111.266 205.928L111.456 205.167L112.394 204.61L112.237 204.269L110.459 204.157L100.343 215.185Z" stroke="#333D7B" stroke-width="0.66" stroke-miterlimit="10"/>
<path d="M40.3116 215.828C40.3116 215.828 39.4851 215.638 39.7344 215.375C39.9836 215.113 41.0136 215.067 41.0136 215.067" stroke="#333D7B" stroke-width="0.37" stroke-miterlimit="10" stroke-linecap="round"/>
<path d="M41.0858 214.988C41.0858 214.988 40.2854 214.804 40.515 214.562C40.7446 214.319 41.7418 214.28 41.7418 214.28" stroke="#333D7B" stroke-width="0.37" stroke-miterlimit="10" stroke-linecap="round"/>
<path d="M41.814 214.207C41.814 214.207 41.0334 214.037 41.2499 213.807C41.4663 213.578 42.4241 213.545 42.4241 213.545" stroke="#333D7B" stroke-width="0.37" stroke-miterlimit="10" stroke-linecap="round"/>
<path d="M42.4901 213.473C42.4901 213.473 41.7357 213.309 41.9391 213.092C42.1425 212.876 43.0674 212.85 43.0674 212.85" stroke="#333D7B" stroke-width="0.37" stroke-miterlimit="10" stroke-linecap="round"/>
<path d="M43.1262 212.784C43.1262 212.784 42.3915 212.627 42.5818 212.43C42.772 212.233 43.6642 212.2 43.6642 212.2" stroke="#333D7B" stroke-width="0.37" stroke-miterlimit="10" stroke-linecap="round"/>
<path d="M43.7297 212.135C43.7297 212.135 43.0147 211.984 43.1918 211.793C43.3689 211.603 44.2348 211.583 44.2348 211.583" stroke="#333D7B" stroke-width="0.37" stroke-miterlimit="10" stroke-linecap="round"/>
<path d="M44.2876 211.524C44.2876 211.524 43.5922 211.38 43.7628 211.203C43.9333 211.026 44.7665 211.006 44.7665 211.006" stroke="#333D7B" stroke-width="0.37" stroke-miterlimit="10" stroke-linecap="round"/>
<path d="M44.7727 211.006C44.7727 211.006 43.9724 210.993 44.1364 210.823C44.3004 210.652 45.1204 210.632 45.1204 210.632" stroke="#333D7B" stroke-width="0.37" stroke-miterlimit="10" stroke-linecap="round"/>
<path d="M40.4434 215.88L41.5323 215.939L42.149 215.546L42.1555 215.224L42.6804 214.923L42.7 214.601L43.238 214.273L43.2904 213.925L43.7234 213.716L43.625 213.538L44.0973 213.276L44.0449 213.053L44.55 212.745L44.5369 212.489L45.0748 212.141L45.1273 211.813L45.6586 211.459L45.7505 211.092L46.2031 210.829L46.1244 210.665L45.2782 210.613L40.4434 215.88Z" stroke="#333D7B" stroke-width="0.32" stroke-miterlimit="10"/>
<path d="M153.106 217.291L154.438 217.376C154.819 217.402 155.147 217.074 155.173 216.654C155.199 216.234 154.911 215.867 154.537 215.847L153.205 215.762C152.903 214.05 151.257 212.672 149.19 212.541L134.653 211.629L134.305 217.12L147.294 218.15C149.361 218.281 152.595 218.957 153.106 217.297V217.291Z" stroke="#333D7B" stroke-width="0.69" stroke-miterlimit="10"/>
<path d="M132.75 216.976L133.072 212.062C133.098 211.636 133.466 211.314 133.892 211.341C134.318 211.367 134.64 211.734 134.614 212.161L134.292 217.074C134.266 217.501 133.971 217.481 133.544 217.455L133.118 217.402C132.691 217.376 132.724 217.402 132.75 216.976Z" stroke="#333D7B" stroke-width="0.69" stroke-miterlimit="10"/>
<path d="M152.346 215.25C152.346 215.25 152.057 214.214 150.948 213.624" stroke="#333D7B" stroke-width="0.69" stroke-miterlimit="10" stroke-linecap="round"/>
<path d="M67.4376 214.916L66.4471 215.159C66.165 215.224 66.001 215.539 66.0731 215.847C66.1453 216.156 66.4405 216.359 66.7226 216.293L67.7132 216.051C68.3167 217.232 69.8255 217.861 71.3606 217.487L82.1454 214.863L80.8006 209.34L70.0158 211.964C68.4807 212.338 67.4311 213.591 67.4311 214.916H67.4376Z" stroke="#333D7B" stroke-width="0.52" stroke-miterlimit="10"/>
<path d="M80.8308 209.438L82.1228 214.754C82.1596 214.905 82.3122 214.998 82.4636 214.962L83.0628 214.816C83.2141 214.779 83.307 214.627 83.2702 214.475L81.9782 209.159C81.9414 209.007 81.7889 208.915 81.6375 208.951L81.0383 209.097C80.8869 209.134 80.794 209.286 80.8308 209.438Z" stroke="#333D7B" stroke-width="0.52" stroke-miterlimit="10"/>
<path d="M68.4551 216.221C68.4551 216.221 68.9012 216.91 69.8393 217.087" stroke="#333D7B" stroke-width="0.52" stroke-miterlimit="10" stroke-linecap="round"/>
<path d="M72.7782 46.3866C69.9049 48.3021 67.7073 51.5231 67.5761 55.059C67.5105 56.7909 68.4354 58.2079 70.0427 58.8705C71.7352 59.5658 73.6376 59.3231 75.3432 58.8245C78.2362 57.9848 82.4478 56.1086 83.0514 52.763C83.2219 51.8314 83.0382 50.9327 82.7168 50.0537C82.4544 49.3386 82.1657 48.3218 81.3917 48.0003C80.67 47.7051 79.7123 47.9741 79.0235 48.2496C78.1444 48.5973 77.4162 49.2074 76.7274 49.8437C75.376 51.0836 74.2346 52.5596 73.3752 54.18C73.0472 54.8032 72.5093 55.6232 73.08 56.253C73.5917 56.8237 74.5757 56.9418 75.2907 57.0139C78.7282 57.3682 82.5331 55.9053 84.6652 53.15C85.741 51.7658 86.3839 50.093 86.6135 48.3611C86.8169 46.8458 86.8694 44.6744 85.4196 43.7166C83.9698 42.7588 81.8115 43.4542 80.4011 44.1036C78.8332 44.8187 77.2916 45.9077 76.1567 47.2066C75.6056 47.8363 75.0808 48.5711 74.8315 49.3845C74.5363 50.3423 74.9955 51.0114 75.8024 51.51C77.3047 52.4415 79.2006 52.4809 80.9062 52.2907C85.0588 51.838 89.2441 50.4669 93.108 48.9253C96.2306 47.6789 100.357 46.0126 99.7403 41.8994C99.2286 38.4685 96.2175 36.0478 93.3376 34.5259C89.9657 32.7481 85.9378 31.108 82.0673 31.3836C78.3412 31.646 74.6938 33.6074 71.4728 35.3787C68.4289 37.0515 65.5293 39.1048 63.3251 41.8142C61.1209 44.5235 59.3628 48.3415 60.3206 51.8708C61.2783 55.4002 64.5781 57.2435 67.8385 57.7552C69.9377 58.0832 72.0697 57.9192 74.1493 57.5781C76.2288 57.237 78.2231 56.8303 80.1059 56.0562C83.3663 54.7245 85.1965 51.7658 85.2818 48.2759C85.3343 46.1569 84.7439 44.0774 83.9763 42.1225C83.2941 40.3906 82.52 38.6653 81.4966 37.104C80.6438 35.8051 79.5811 34.5521 78.2166 33.778C76.7799 32.9646 75.1267 32.8137 73.5195 33.1089C69.7737 33.7977 66.8413 36.6185 64.7093 39.6231C62.5772 42.6276 61.4227 46.1241 62.387 49.6469C63.3513 53.1697 66.5264 55.1968 70.1083 55.7478C71.9057 56.0234 73.7622 56.1021 75.5138 55.551C77.2653 55 78.4396 53.8257 78.8791 51.9692C79.791 48.1315 77.777 44.8384 74.72 42.6801C71.663 40.5218 68.1402 39.0917 64.4666 39.0327C60.7929 38.9736 57.3095 40.3972 54.8166 43.1459C52.3238 45.8945 50.0015 49.3386 48.309 52.822C47.4365 54.6129 46.7083 56.4826 46.1638 58.3981C45.6193 60.3137 45.0749 62.3473 45.3307 64.2825C45.7899 67.7594 49.1749 69.8849 52.1926 70.9739C56.0893 72.3777 60.2878 72.6926 64.3682 72.0169C67.4055 71.5118 72.1025 70.4162 72.2337 66.5851C72.2993 64.6565 71.1579 62.9968 69.8655 61.6782C68.5732 60.3596 66.9922 59.0279 65.2735 58.1816C63.5547 57.3354 61.6851 56.9877 59.822 57.6437C58.346 58.1685 57.3816 59.2444 56.8437 60.7007C56.273 62.2423 56.0368 63.9939 55.9384 65.6274C55.8269 67.4708 56.0499 69.3929 57.1717 70.9214C59.061 73.5126 62.5248 74.1949 65.5424 74.3326C69.4326 74.5163 73.5786 74.0374 77.0357 72.1416C80.4929 70.2457 82.3363 67.2215 82.3035 63.3904C82.2904 61.4223 81.9558 59.3297 81.4245 57.4338C80.8931 55.5379 79.0628 55.715 77.5474 56.3842C76.032 57.0533 74.7135 58.6736 73.7032 60.0382C72.5945 61.5339 71.7286 63.2395 71.4662 65.1026C70.9873 68.5138 72.7061 71.6299 76.0386 72.6532C77.9148 73.2305 79.955 73.4405 81.8968 73.6832C83.937 73.939 85.9969 74.0768 88.0502 73.9259C91.7107 73.6504 95.7518 72.3908 98.1396 69.4388C100.58 66.4277 100.003 62.3342 98.4676 59.0476C96.9326 55.761 94.5053 52.6974 91.2909 50.9983C88.0764 49.2992 84.5143 49.2861 81.2867 50.5719C78.1772 51.8052 75.5204 54.8229 75.9074 58.3522C76.0583 59.7233 76.7209 61.173 77.987 61.8487C79.627 62.7278 81.7197 62.1899 83.3531 61.5798C85.3277 60.845 87.2367 59.8873 89.1063 58.9229C90.7857 58.057 92.4848 57.1714 93.974 55.9906C100.514 50.8015 96.0404 41.9519 91.0022 37.491C85.0719 32.2364 76.9964 30.6029 69.2686 30.9768C65.0176 31.1802 60.6289 31.7969 56.6141 33.2598C54.797 33.9223 52.842 34.7489 51.4775 36.1593C50.113 37.5698 49.5751 39.3213 49.1684 41.1253C48.414 44.4972 48.1712 48.1447 49.2274 51.4838C50.2836 54.8229 52.7043 57.3485 55.9056 58.6802C59.1069 60.0119 62.4264 60.2546 65.7458 60.2481C69.8852 60.2481 74.169 59.9791 78.046 58.4244C81.3195 57.1058 84.2912 54.7901 85.4196 51.3263C86.5479 47.8626 85.8066 43.7822 83.9501 40.5415C80.2436 34.0667 73.244 29.5795 66.4346 26.9621C62.8987 25.6041 59.0413 24.443 55.2496 24.1281C51.6612 23.8329 48.1253 25.2958 46.5115 28.6349C44.7534 32.2692 45.8162 36.5136 46.9576 40.161C47.4824 41.8338 48.1516 43.5132 49.2996 44.858C50.4476 46.2029 52.127 47.036 53.9179 47.4231C55.899 47.8495 57.9917 47.9413 60.0122 47.9938C62.1968 48.0528 64.3878 47.9741 66.5592 47.7642C68.8487 47.5477 71.1316 47.1803 73.3752 46.6752C75.3563 46.2291 77.3441 45.6912 79.1678 44.7728C82.1461 43.2639 84.9604 40.22 84.0223 36.6251C83.1367 33.2401 79.7123 31.3639 76.3863 31.5279C72.8438 31.705 69.3342 33.4894 67.2546 36.3889C65.175 39.2885 64.788 43.3164 67.3071 46.0323C69.8262 48.7482 74.6347 48.4923 78.0657 47.9807C80.2174 47.6592 82.3232 47.1147 84.3962 46.4718C86.1937 45.9142 88.1158 45.3632 89.6377 44.2217C92.6619 41.9585 92.7079 37.2155 92.4061 33.8108C92.1043 30.4061 90.5627 26.516 87.3089 24.6726C83.8911 22.7373 79.522 23.5967 75.9927 24.7447C72.4633 25.8928 69.2226 27.7427 66.7298 30.4258C64.237 33.1089 62.6625 36.4086 62.3476 39.997C62.0984 42.8769 62.6822 46.9179 65.8442 48.0135C66.2968 48.1709 66.8479 48.0135 67.2808 47.8626C67.3596 47.8363 68.2911 47.3837 67.9565 47.2656C65.175 46.3013 64.4797 42.9294 64.5387 40.3316C64.6043 37.0843 65.8442 33.9158 67.8122 31.3442C69.7803 28.7726 72.3846 26.9293 75.2842 25.7288C78.1838 24.5282 81.8771 23.741 84.8751 25.2433C87.709 26.6668 89.3425 29.6386 89.9329 32.6497C90.274 34.3947 90.3069 36.1921 90.2019 37.9634C90.11 39.4656 89.9264 41.0073 89.2769 42.3783C88.5291 43.9527 87.2302 44.8056 85.6295 45.3697C83.9042 45.9798 82.1329 46.5112 80.3355 46.8851C77.2457 47.528 73.2702 48.0266 70.4756 46.1701C67.681 44.3136 67.2152 40.7317 68.3895 37.8912C69.4916 35.2344 72.1353 32.5381 75.1595 32.3807C78.1838 32.2233 80.88 34.2175 81.7262 36.999C82.6906 40.1676 80.5257 43.1721 77.7902 44.5825C76.2682 45.3697 74.5626 45.7633 72.8897 46.111C71.0201 46.4981 69.1374 46.7802 67.2349 46.9507C63.6531 47.2722 59.8679 47.3246 56.3123 46.6949C54.6854 46.4062 53.1307 45.8289 51.9236 44.6612C50.8346 43.5985 50.1458 42.1815 49.621 40.7777C48.4533 37.6419 47.4234 33.9814 47.9679 30.616C48.1909 29.2122 48.7748 27.8411 49.6604 26.7259C50.0933 26.1814 50.6182 25.6828 51.2151 25.3351C51.9236 24.9219 52.7043 24.9219 53.5046 24.9743C56.7584 25.2039 60.1303 26.2011 63.1939 27.2835C69.1242 29.3893 74.7791 32.7284 79.0103 37.4386C83.2416 42.1487 85.9575 49.5288 81.4769 54.9278C79.3449 57.4994 76.1304 58.6802 72.8963 59.0804C69.7343 59.4674 66.4149 59.5461 63.2464 59.1919C60.4715 58.877 57.6703 58.1488 55.3939 56.4695C52.9732 54.6917 51.5563 52.0086 51.038 49.0828C50.5198 46.1569 50.8084 42.8835 51.5759 39.9248C51.9761 38.3635 52.5862 36.7825 53.8064 35.6739C55.0266 34.5652 56.7781 33.8633 58.3919 33.3647C61.8228 32.3085 65.5424 31.8756 69.1177 31.7969C72.6929 31.7181 76.3338 32.1117 79.791 33.1679C85.4655 34.9064 90.7398 38.7047 93.4754 44.0643C94.9055 46.8589 95.778 50.4079 94.3413 53.3796C92.9047 56.3514 89.5721 57.834 86.8103 59.2116C85.9837 59.6249 85.144 60.0185 84.2978 60.4055C83.504 60.7663 82.6643 61.2255 81.8049 61.3895C80.3552 61.6651 79.1284 60.5958 78.5839 59.3559C77.3834 56.6334 78.7151 53.3337 81.0177 51.6412C83.3203 49.9487 86.7316 50.4341 89.1982 51.7396C91.9862 53.2156 94.1117 55.7085 95.6271 58.4309C97.1425 61.1534 98.2512 64.5581 97.195 67.6216C96.1388 70.6852 93.0687 72.5876 89.9132 72.9944C86.4757 73.4339 82.8611 72.8238 79.4827 72.194C77.9607 71.912 76.4388 71.4462 75.3367 70.2916C74.3855 69.301 73.8606 67.9365 73.7032 66.5851C73.3162 63.3838 75.0349 60.4514 77.1276 58.1751C77.4031 57.8799 77.6786 57.5847 77.9673 57.3026C78.0919 57.1845 78.21 57.0664 78.3412 56.9615L78.4724 56.8631C78.6364 56.7253 78.6495 56.7319 78.4921 56.8827C79.1022 57.296 79.2137 58.0767 79.358 58.7458C79.7254 60.4711 80.0665 62.2227 80.0796 63.9939C80.1059 67.2805 78.6102 70.167 75.7762 71.8792C72.9422 73.5913 69.3604 73.7094 66.1919 73.4077C63.535 73.1584 60.5699 72.2859 59.1201 69.8521C57.5981 67.3002 58.0704 63.6593 58.8577 60.9303C59.0413 60.294 59.2775 59.6642 59.6318 59.1066C59.7892 58.8508 59.9729 58.6146 60.1894 58.4047C60.5436 58.0701 60.5174 58.1095 60.9503 58.1685C62.551 58.3916 64.0664 59.3297 65.3325 60.2874C67.6679 62.0521 71.0267 65.0829 69.7737 68.3957C69.2554 69.7668 67.9893 70.495 66.638 70.8623C64.9717 71.315 63.2333 71.5118 61.5079 71.5052C58.1164 71.4855 54.5149 70.718 51.5759 68.9665C50.3754 68.2514 49.2537 67.3396 48.4927 66.1522C47.5939 64.7483 47.4103 63.1608 47.6202 61.5339C48.0531 58.1948 49.2602 54.9081 50.769 51.9167C52.2779 48.9253 54.1147 46.2029 56.2271 43.6707C57.257 42.4308 58.4247 41.2041 59.9007 40.5021C61.1996 39.8855 62.6822 39.8199 64.0926 39.9773C67.2087 40.325 70.2001 41.6961 72.7323 43.5132C75.4154 45.4419 77.2719 48.2759 76.8193 51.7002C76.629 53.1369 76.0124 55.0656 74.3199 55.1115C72.7848 55.1574 71.1316 54.8885 69.6753 54.3833C66.6839 53.3403 64.7683 50.8671 64.3813 47.7379C63.9942 44.6088 65.2472 41.5386 67.084 39.013C68.0221 37.7272 69.1046 36.5136 70.3313 35.4902C71.558 34.4668 72.8045 33.6402 74.3855 33.9092C77.226 34.3947 79.0825 37.1171 80.3027 39.4984C81.8115 42.4242 83.2154 45.7896 83.0579 49.1352C82.9136 52.1463 81.3654 55.0787 78.3543 55.9971C75.0874 56.9943 71.2366 57.6371 67.9303 56.5088C65.0898 55.5379 62.715 53.2812 62.3739 50.198C62.0328 47.1147 63.5481 43.9068 65.4703 41.5124C67.3924 39.1179 69.7671 37.3926 72.319 35.91C73.5851 35.1753 74.8906 34.5127 76.2223 33.8961C77.6721 33.2204 79.194 32.4332 80.8078 32.2757C84.1535 31.9477 87.7615 33.5615 90.7005 35.0179C93.2523 36.284 95.7583 38.0355 96.9719 40.7055C97.6411 42.175 97.8903 43.9724 97.0507 45.4288C96.3159 46.6949 94.9645 47.3837 93.6788 47.9544C90.3725 49.4108 86.8956 50.5325 83.3531 51.241C81.8115 51.5494 80.1256 51.7724 78.6298 51.1426C77.9279 50.8474 76.9964 50.3423 76.9833 49.4764C76.9701 48.6957 77.6065 47.797 78.0657 47.2131C78.9841 46.0454 80.3552 44.9892 81.7131 44.3726C83.3072 43.651 84.2847 45.3435 84.4487 46.708C84.8095 49.7519 83.5303 53.1304 81.0702 55.0065C79.896 55.9053 78.5314 56.3579 77.0489 56.2005C76.4519 56.1349 75.4023 56.0299 75.1333 55.3739C74.8643 54.7179 75.6778 53.642 75.9992 53.0975C76.8193 51.7134 77.8558 50.4669 79.0694 49.4042C79.1875 49.3058 80.0272 48.7744 80.0534 48.6301L79.7713 48.7482C79.4433 48.7941 79.4039 48.8728 79.6598 48.9909C79.7516 49.1484 79.8894 49.2796 79.9812 49.4436C80.3814 50.1586 80.6832 51.0246 80.8275 51.8314C81.4048 55.0525 78.21 57.1058 75.6056 58.0767C74.1362 58.6212 72.588 58.5884 71.2825 57.6634C69.9771 56.7384 69.7015 55.3017 69.8983 53.7995C70.2919 50.8605 72.0369 48.0791 74.497 46.4325C74.8447 46.2029 74.7922 46.0192 74.3789 45.9864C73.8934 45.9536 73.2046 46.1373 72.7979 46.4128L72.7782 46.3866Z" fill="#333D7B"/>
<path d="M71.1318 42.8834C67.937 44.8646 64.9194 47.2262 62.3412 49.9683C60.1174 52.3365 58.0903 55.282 58.1428 58.667C58.1887 61.6388 59.7894 64.3743 62.7086 65.2862C64.4602 65.8372 66.4019 65.8044 68.2191 65.7979C70.0363 65.7913 71.8403 65.6667 73.5984 65.2337C80.4144 63.5543 83.9503 56.758 82.7366 50.0733C82.12 46.6686 80.434 43.2311 78.1577 40.6202C77.1212 39.4328 75.8026 38.37 74.2347 38.0027C72.3717 37.5697 70.5873 38.2388 68.9014 38.9867C65.5229 40.4955 62.3544 42.4701 59.5138 44.8383C57.0407 46.8982 54.5675 49.5944 54.0296 52.8876C53.7737 54.4489 53.9509 56.207 54.9611 57.4862C55.9714 58.7654 57.6114 59.2902 59.1005 59.7232C62.8136 60.7925 66.7431 61.0943 70.5873 60.7204C74.1166 60.3792 77.7313 59.5199 80.8604 57.8142C83.4582 56.4038 85.9314 54.0684 86.2135 50.9655C86.5481 47.3049 84.1339 44.2217 81.4574 42.0371C78.6234 39.7149 75.4811 37.6091 72.2011 35.9756C68.8817 34.3225 65.1883 33.0039 61.4622 33.8895C58.2084 34.6636 55.3744 36.8875 53.6556 39.728C51.8516 42.726 51.0578 46.439 51.2022 49.9158C51.3465 53.3927 53.7672 55.9643 57.0341 57.1385C58.7791 57.7683 60.6028 58.0373 62.4331 58.2931C62.9644 58.3653 63.6205 58.2734 64.0141 57.8667C64.3158 57.5584 64.2962 57.0926 63.7845 57.0204C60.7471 56.594 57.4015 56.1348 55.171 53.7929C52.9406 51.4509 53.2555 47.8363 53.859 44.858C54.4625 41.8797 55.768 39.0129 58.0903 37.0121C59.1465 36.1002 60.4126 35.3983 61.7771 35.0834C63.3843 34.7095 65.0178 35.0178 66.566 35.5033C69.682 36.4807 72.5816 38.1536 75.2843 39.9641C77.9871 41.7747 80.6374 43.5197 82.4217 46.1044C84.2061 48.6891 84.5997 51.8839 82.7038 54.4292C81.1491 56.5219 78.5578 57.683 76.124 58.3915C72.9096 59.3296 69.5508 59.697 66.2117 59.4674C64.5061 59.3493 62.8136 59.0738 61.1604 58.6474C59.7697 58.2866 58.1756 57.8864 57.1784 56.7777C55.112 54.4882 56.4699 50.8277 58.0116 48.676C59.7894 46.2028 62.3675 44.2741 64.9062 42.6407C66.2708 41.7682 67.6812 40.9744 69.1506 40.2856C70.6201 39.5968 72.0174 38.8227 73.5787 39.5181C76.229 40.6989 78.033 43.933 79.1614 46.4521C81.4837 51.6346 81.4837 58.5096 76.7276 62.3801C74.3069 64.3481 71.0465 64.5055 68.0682 64.4531C66.5528 64.4268 64.9062 64.4531 63.5024 63.797C62.3412 63.246 61.4622 62.2357 60.9702 61.0615C58.4577 55.1049 64.329 49.7453 68.5143 46.4259C69.7935 45.409 71.1449 44.4841 72.5291 43.6247C72.8833 43.4082 73.1392 42.9752 72.7128 42.6932C72.2864 42.4111 71.5188 42.6472 71.1252 42.89L71.1318 42.8834Z" fill="#333D7B"/>
<path d="M102.41 120.772C102.41 120.772 97.9033 201.441 96.5191 204.413L67.32 203.967C66.7231 203.967 66.1917 203.606 65.9818 203.049C65.1093 200.746 63.5873 197.164 66.5197 194.566C70.154 191.358 85.2291 195.498 85.8196 191.385C94.7085 128.965 92.4977 121.211 92.4977 121.211" stroke="#333D7B" stroke-width="1.57" stroke-miterlimit="10" stroke-linecap="round"/>
<path d="M115.708 121.572C115.708 121.572 118.043 201.441 119.427 204.413H150.384C150.981 204.413 151.513 204.052 151.723 203.495C152.595 201.192 154.825 197.61 151.893 195.013C148.259 191.805 133.184 195.944 132.593 191.831C123.704 129.411 126.814 120.765 126.814 120.765" stroke="#333D7B" stroke-width="1.57" stroke-miterlimit="10" stroke-linecap="round"/>
</svg>
