<svg width="180" height="200" viewBox="0 0 180 200" fill="none" xmlns="http://www.w3.org/2000/svg">
<path d="M180 192.362C180 196.581 139.707 200 90 200C40.2928 200 0 196.576 0 192.362C0 188.149 40.2928 184.724 90 184.724C139.707 184.724 180 188.144 180 192.362Z" fill="#858BB0"/>
<path d="M100.799 39.0058L106.258 61.436C106.865 63.9318 108.7 65.9446 111.126 66.7873L126.708 70.0828C129.799 70.7377 132.29 73.0134 133.224 76.0299L136.831 87.6878C137.845 90.9619 135.687 94.3594 132.295 94.8425L122.806 96.1843C119.811 97.2739 117.825 100.129 117.841 103.312L117.997 137.186C119.537 141.93 114.111 145.87 110.074 142.939L93.6126 122.479C91.5301 119.892 88.0091 118.969 84.9282 120.198L56.4758 131.561C53.5237 133.708 49.5519 130.82 50.679 127.347L60.7106 102.249C61.7573 99.6356 61.2581 96.6567 59.4278 94.5258L45.1184 77.8763C42.7944 75.1711 44.6354 70.9309 48.1993 70.8557C48.2476 70.8557 48.2959 70.8557 48.3496 70.8557L76.9952 70.9255C80.1244 70.9309 82.9315 69.0147 84.0587 66.1003L94.5089 39.0487C94.5089 39.0487 99.2591 34.261 100.799 39.0058Z" fill="#858BB0"/>
<path d="M86.935 101.434C88.2661 102.657 88.4593 104.074 87.7347 105.728C87.4932 106.275 87.5737 107.075 87.2141 107.483C86.8545 107.891 85.9957 108.019 85.5502 108.25C85.1047 108.481 84.9759 109.018 84.4767 109.039C83.4623 109.077 82.9363 108.417 82.1688 107.654C81.7125 107.198 80.9021 106.849 80.5961 106.189C80.3975 105.76 80.6444 105.389 80.5317 104.896C80.4297 104.434 79.9574 103.849 79.9413 103.35C79.8286 100.124 81.7233 98.0522 83.8702 99.1042C84.7773 99.5497 85.9742 100.548 86.9296 101.428L86.935 101.434Z" fill="#333D7B"/>
<path d="M96.1722 101.434C94.8411 102.657 94.6478 104.074 95.3724 105.728C95.614 106.275 95.5335 107.075 95.8931 107.483C96.2527 107.891 97.1115 108.019 97.557 108.25C98.0024 108.481 98.1313 109.018 98.6304 109.039C99.6449 109.077 100.171 108.417 100.938 107.654C101.395 107.198 102.205 106.849 102.511 106.189C102.71 105.76 102.463 105.389 102.575 104.896C102.677 104.434 103.15 103.849 103.166 103.35C103.279 100.124 101.384 98.0522 99.2369 99.1042C98.3299 99.5497 97.1329 100.548 96.1775 101.428L96.1722 101.434Z" fill="#333D7B"/>
<path d="M57.8651 118.813L53.4746 169.379C53.4746 170.855 53.8664 172.326 54.7198 173.528C55.5035 174.634 56.738 175.637 58.6273 175.637C60.3073 175.637 61.2519 174.811 61.7833 173.823C62.5616 172.374 62.3361 170.581 61.3432 169.272C60.8333 168.601 60.3287 167.737 60.2965 166.905C60.2268 165.187 65.256 127.637 65.256 127.637" stroke="#333D7B" stroke-width="1.57" stroke-miterlimit="10" stroke-linecap="round"/>
<path d="M116.959 111.855L121.705 162.914C121.741 163.369 121.713 163.828 121.603 164.273C121.252 165.696 120.159 168.604 117.007 168.854C115.332 168.987 114.325 168.237 113.717 167.295C112.827 165.912 112.91 164.107 113.796 162.723C114.251 162.014 114.686 161.112 114.652 160.28C114.586 158.563 110.289 121.236 110.289 121.236" stroke="#333D7B" stroke-width="1.57" stroke-miterlimit="10" stroke-linecap="round"/>
<path d="M87.7834 112.05C87.7834 112.05 87.7351 111.299 89.2057 110.478C90.671 109.656 91.9968 110.478 91.9968 110.478" stroke="#333D7B" stroke-width="3.14" stroke-miterlimit="10" stroke-linecap="round"/>
<path d="M23.794 195.615L12.5762 195.867L14.5728 189.362H23.3646L23.2143 189.7L23.4075 189.963L23.2572 190.387L23.4666 190.806L23.3109 191.278L23.5202 191.605L23.3538 191.954L23.5685 192.287L23.3968 192.625L23.6061 192.883L23.429 193.189L23.6437 193.382L23.4719 193.844L23.6974 194.171L23.5202 194.627L23.7457 194.912L23.5632 195.314L23.794 195.615Z" stroke="#333D7B" stroke-width="0.36" stroke-miterlimit="10"/>
<path d="M21.9635 192.137C21.9742 193.334 20.4123 194.413 18.4478 194.45C16.4834 194.488 15.0879 193.436 15.3884 192.207C15.6622 191.085 17.2509 190.237 18.9416 190.231C20.6109 190.226 21.9581 191.042 21.9635 192.137Z" stroke="#333D7B" stroke-width="0.32" stroke-miterlimit="10"/>
<path d="M23.2891 189.711C24.9529 189.968 26.327 190.892 26.5471 192.088C26.7832 193.393 25.6078 194.622 23.697 195.057" stroke="#333D7B" stroke-width="0.42" stroke-miterlimit="10"/>
<path d="M19.6123 190.763C19.6123 190.763 20.9112 191.01 21.0132 191.927" stroke="#333D7B" stroke-width="0.32" stroke-miterlimit="10" stroke-linecap="round"/>
<path d="M14.4168 189.367C14.4168 189.367 13.5527 189.475 13.4775 189.684C13.4024 189.893 14.2236 189.985 14.2236 189.985" stroke="#333D7B" stroke-width="0.42" stroke-miterlimit="10" stroke-linecap="round"/>
<path d="M14.2025 190.06C14.2025 190.06 13.3115 190.178 13.231 190.398C13.1505 190.618 13.9932 190.714 13.9932 190.714" stroke="#333D7B" stroke-width="0.42" stroke-miterlimit="10" stroke-linecap="round"/>
<path d="M13.9719 190.79C13.9719 190.79 13.0487 190.918 12.9682 191.155C12.8877 191.391 13.7518 191.493 13.7518 191.493" stroke="#333D7B" stroke-width="0.42" stroke-miterlimit="10" stroke-linecap="round"/>
<path d="M13.7297 191.568C13.7297 191.568 12.7743 191.707 12.6884 191.954C12.6025 192.201 13.4989 192.309 13.4989 192.309" stroke="#333D7B" stroke-width="0.42" stroke-miterlimit="10" stroke-linecap="round"/>
<path d="M13.467 192.4C13.467 192.4 12.4794 192.55 12.3882 192.818C12.2969 193.087 13.2201 193.194 13.2201 193.194" stroke="#333D7B" stroke-width="0.42" stroke-miterlimit="10" stroke-linecap="round"/>
<path d="M13.1872 193.28C13.1872 193.28 12.1621 193.441 12.0655 193.726C11.9688 194.01 12.9242 194.128 12.9242 194.128" stroke="#333D7B" stroke-width="0.42" stroke-miterlimit="10" stroke-linecap="round"/>
<path d="M12.8921 194.23C12.8921 194.23 11.8293 194.407 11.722 194.713C11.6146 195.019 12.6076 195.143 12.6076 195.143" stroke="#333D7B" stroke-width="0.42" stroke-miterlimit="10" stroke-linecap="round"/>
<path d="M12.6081 195.137C12.6081 195.137 11.5883 195.094 11.4755 195.416C11.3628 195.738 12.3773 195.862 12.3773 195.862" stroke="#333D7B" stroke-width="0.42" stroke-miterlimit="10" stroke-linecap="round"/>
<path d="M29.0215 195.894C29.0215 195.894 29.9983 195.862 30.0037 195.55C30.0091 195.239 29.0644 194.992 29.0644 194.992" stroke="#333D7B" stroke-width="0.42" stroke-miterlimit="10" stroke-linecap="round"/>
<path d="M29.0703 194.896C29.0703 194.896 30.015 194.869 30.015 194.579C30.015 194.289 29.1079 194.058 29.1079 194.058" stroke="#333D7B" stroke-width="0.42" stroke-miterlimit="10" stroke-linecap="round"/>
<path d="M29.1133 193.967C29.1133 193.967 30.0257 193.94 30.0257 193.672C30.0257 193.403 29.1455 193.178 29.1455 193.178" stroke="#333D7B" stroke-width="0.42" stroke-miterlimit="10" stroke-linecap="round"/>
<path d="M29.1504 193.098C29.1504 193.098 30.0306 193.076 30.036 192.824C30.0414 192.572 29.1826 192.362 29.1826 192.362" stroke="#333D7B" stroke-width="0.42" stroke-miterlimit="10" stroke-linecap="round"/>
<path d="M29.1875 192.282C29.1875 192.282 30.0409 192.266 30.0463 192.024C30.0516 191.783 29.2197 191.584 29.2197 191.584" stroke="#333D7B" stroke-width="0.42" stroke-miterlimit="10" stroke-linecap="round"/>
<path d="M29.2256 191.514C29.2256 191.514 30.0575 191.498 30.0575 191.278C30.0575 191.058 29.2578 190.865 29.2578 190.865" stroke="#333D7B" stroke-width="0.42" stroke-miterlimit="10" stroke-linecap="round"/>
<path d="M29.2578 190.79C29.2578 190.79 30.0629 190.779 30.0683 190.57C30.0737 190.36 29.29 190.178 29.29 190.178" stroke="#333D7B" stroke-width="0.42" stroke-miterlimit="10" stroke-linecap="round"/>
<path d="M29.2891 190.172C29.2891 190.172 30.0727 190.312 30.0727 190.108C30.0727 189.904 29.3105 189.727 29.3105 189.727" stroke="#333D7B" stroke-width="0.42" stroke-miterlimit="10" stroke-linecap="round"/>
<path d="M28.8443 195.921L27.744 195.77L27.5293 195.25L27.8245 194.928L27.5991 194.52L27.8889 194.192L27.6742 193.763L27.9587 193.398L27.744 193.103L28.0016 192.942L27.7923 192.593L28.0553 192.378L27.8567 191.97L28.1143 191.713L27.9265 191.262L28.1841 190.918L28.007 190.462L28.2646 190.076L28.0821 189.721L28.3076 189.571L29.1771 189.684L28.8443 195.921Z" stroke="#333D7B" stroke-width="0.36" stroke-miterlimit="10"/>
<path d="M23.557 194.638C25.1779 194.257 26.1924 193.216 26.0099 192.094C25.8489 191.09 24.7539 190.301 23.3799 190.033" stroke="#333D7B" stroke-width="0.37" stroke-miterlimit="10"/>
<path d="M133.583 187.762C132.214 188.965 132.73 190.51 134.887 191.128C137.072 191.75 139.804 191.095 140.866 189.775C141.838 188.562 141.022 187.242 139.138 186.737C137.276 186.238 134.839 186.662 133.588 187.762H133.583Z" stroke="#333D7B" stroke-width="0.44" stroke-miterlimit="10"/>
<path d="M132.734 187.478C131.038 188.965 131.682 190.886 134.35 191.648C137.055 192.421 140.437 191.611 141.757 189.968C142.959 188.471 141.95 186.829 139.615 186.206C137.307 185.589 134.291 186.115 132.734 187.478Z" stroke="#333D7B" stroke-width="0.55" stroke-miterlimit="10"/>
<path d="M32.8704 188.691C31.9311 189.518 32.2853 190.58 33.7667 191.004C35.2642 191.434 37.1428 190.983 37.8728 190.076C38.5383 189.244 37.9801 188.337 36.6866 187.988C35.4091 187.644 33.7345 187.94 32.8758 188.691H32.8704Z" stroke="#333D7B" stroke-width="0.3" stroke-miterlimit="10"/>
<path d="M32.2853 188.498C31.1205 189.517 31.5607 190.838 33.3909 191.364C35.248 191.895 37.5721 191.337 38.4792 190.21C39.3058 189.179 38.6134 188.052 37.0085 187.623C35.4037 187.193 33.3534 187.558 32.2853 188.498Z" stroke="#333D7B" stroke-width="0.38" stroke-miterlimit="10"/>
<path d="M141.119 193.436L153.002 196.898L158.005 189.979L148.478 187.462L148.268 187.832L147.764 188.036L147.463 188.492L146.776 188.841L146.422 189.346L145.837 189.603L145.633 189.995L145.032 190.258L144.849 190.634L144.334 190.827L144.189 191.176L143.749 191.305L143.427 191.804L142.815 192.062L142.509 192.555L141.946 192.765L141.704 193.21L141.119 193.436Z" stroke="#333D7B" stroke-width="0.49" stroke-miterlimit="10"/>
<path d="M146.942 190.569C145.616 191.734 146.116 193.232 148.203 193.833C150.291 194.434 152.964 193.801 153.995 192.518C154.934 191.342 154.145 190.065 152.32 189.577C150.517 189.093 148.155 189.507 146.942 190.569Z" stroke="#333D7B" stroke-width="0.43" stroke-miterlimit="10"/>
<path d="M150.995 189.904C150.995 189.904 149.315 189.77 148.193 190.639" stroke="#333D7B" stroke-width="0.43" stroke-miterlimit="10" stroke-linecap="round"/>
<path d="M158.171 190.033C158.171 190.033 158.992 190.387 158.836 190.612C158.68 190.838 157.698 190.693 157.698 190.693" stroke="#333D7B" stroke-width="0.56" stroke-miterlimit="10" stroke-linecap="round"/>
<path d="M157.645 190.768C157.645 190.768 158.482 191.138 158.321 191.375C158.16 191.611 157.141 191.466 157.141 191.466" stroke="#333D7B" stroke-width="0.56" stroke-miterlimit="10" stroke-linecap="round"/>
<path d="M157.087 191.546C157.087 191.546 157.945 191.933 157.774 192.19C157.602 192.448 156.55 192.292 156.55 192.292" stroke="#333D7B" stroke-width="0.56" stroke-miterlimit="10" stroke-linecap="round"/>
<path d="M156.49 192.378C156.49 192.378 157.371 192.786 157.193 193.055C157.016 193.323 155.927 193.173 155.927 193.173" stroke="#333D7B" stroke-width="0.56" stroke-miterlimit="10" stroke-linecap="round"/>
<path d="M155.857 193.259C155.857 193.259 156.764 193.688 156.571 193.972C156.378 194.257 155.256 194.101 155.256 194.101" stroke="#333D7B" stroke-width="0.56" stroke-miterlimit="10" stroke-linecap="round"/>
<path d="M155.187 194.203C155.187 194.203 156.116 194.654 155.912 194.96C155.702 195.271 154.543 195.105 154.543 195.105" stroke="#333D7B" stroke-width="0.56" stroke-miterlimit="10" stroke-linecap="round"/>
<path d="M154.468 195.207C154.468 195.207 155.423 195.685 155.203 196.012C154.983 196.339 153.775 196.173 153.775 196.173" stroke="#333D7B" stroke-width="0.56" stroke-miterlimit="10" stroke-linecap="round"/>
<path d="M153.77 196.178C153.77 196.178 154.918 196.431 154.687 196.774C154.457 197.118 153.217 196.951 153.217 196.951" stroke="#333D7B" stroke-width="0.56" stroke-miterlimit="10" stroke-linecap="round"/>
<path d="M38.833 192.4L46.5728 194.659L49.8361 190.151L43.6261 188.508L43.4865 188.75L43.1591 188.884L42.9659 189.179L42.5204 189.405L42.2896 189.738L41.9031 189.904L41.7743 190.156L41.3825 190.333L41.2591 190.575L40.9263 190.698L40.8297 190.929L40.5452 191.01L40.3359 191.337L39.9333 191.503L39.7347 191.825L39.3697 191.965L39.2141 192.255L38.833 192.4Z" stroke="#333D7B" stroke-width="0.32" stroke-miterlimit="10"/>
<path d="M42.6274 190.532C41.7633 191.289 42.0907 192.271 43.4486 192.657C44.8066 193.044 46.551 192.636 47.2219 191.804C47.8338 191.042 47.3185 190.204 46.1323 189.888C44.9569 189.571 43.4164 189.84 42.6274 190.537V190.532Z" stroke="#333D7B" stroke-width="0.28" stroke-miterlimit="10"/>
<path d="M45.2683 190.103C45.2683 190.103 44.1733 190.017 43.4434 190.58" stroke="#333D7B" stroke-width="0.28" stroke-miterlimit="10" stroke-linecap="round"/>
<path d="M49.9436 190.183C49.9436 190.183 50.475 190.414 50.3784 190.559C50.2818 190.704 49.6377 190.612 49.6377 190.612" stroke="#333D7B" stroke-width="0.37" stroke-miterlimit="10" stroke-linecap="round"/>
<path d="M49.5999 190.661C49.5999 190.661 50.1473 190.902 50.04 191.058C49.9326 191.214 49.2725 191.117 49.2725 191.117" stroke="#333D7B" stroke-width="0.37" stroke-miterlimit="10" stroke-linecap="round"/>
<path d="M49.2351 191.171C49.2351 191.171 49.7933 191.423 49.686 191.589C49.5786 191.756 48.8916 191.654 48.8916 191.654" stroke="#333D7B" stroke-width="0.37" stroke-miterlimit="10" stroke-linecap="round"/>
<path d="M48.8489 191.713C48.8489 191.713 49.4232 191.981 49.3051 192.153C49.187 192.325 48.4785 192.228 48.4785 192.228" stroke="#333D7B" stroke-width="0.37" stroke-miterlimit="10" stroke-linecap="round"/>
<path d="M48.4411 192.287C48.4411 192.287 49.0315 192.566 48.9027 192.754C48.7739 192.942 48.0439 192.84 48.0439 192.84" stroke="#333D7B" stroke-width="0.37" stroke-miterlimit="10" stroke-linecap="round"/>
<path d="M48.0007 192.899C48.0007 192.899 48.6072 193.194 48.473 193.393C48.3335 193.597 47.582 193.489 47.582 193.489" stroke="#333D7B" stroke-width="0.37" stroke-miterlimit="10" stroke-linecap="round"/>
<path d="M47.528 193.559C47.528 193.559 48.1506 193.87 48.0057 194.085C47.8608 194.3 47.0771 194.192 47.0771 194.192" stroke="#333D7B" stroke-width="0.37" stroke-miterlimit="10" stroke-linecap="round"/>
<path d="M47.0774 194.187C47.0774 194.187 47.8235 194.353 47.6732 194.579C47.5229 194.804 46.7178 194.692 46.7178 194.692" stroke="#333D7B" stroke-width="0.37" stroke-miterlimit="10" stroke-linecap="round"/>
<path d="M81.8792 195.974C81.8792 195.974 80.4622 195.647 80.8916 195.201C81.321 194.756 83.0815 194.675 83.0815 194.675" stroke="#333D7B" stroke-width="0.77" stroke-miterlimit="10" stroke-linecap="round"/>
<path d="M83.2052 194.536C83.2052 194.536 81.8311 194.225 82.2283 193.811C82.6201 193.403 84.327 193.323 84.327 193.323" stroke="#333D7B" stroke-width="0.77" stroke-miterlimit="10" stroke-linecap="round"/>
<path d="M84.4502 193.194C84.4502 193.194 83.1137 192.899 83.4895 192.512C83.8652 192.126 85.5022 192.062 85.5022 192.062" stroke="#333D7B" stroke-width="0.77" stroke-miterlimit="10" stroke-linecap="round"/>
<path d="M85.6094 191.933C85.6094 191.933 84.3105 191.648 84.6647 191.289C85.0082 190.934 86.597 190.87 86.597 190.87" stroke="#333D7B" stroke-width="0.77" stroke-miterlimit="10" stroke-linecap="round"/>
<path d="M86.6993 190.752C86.6993 190.752 85.438 190.484 85.7708 190.14C86.1035 189.797 87.6279 189.748 87.6279 189.748" stroke="#333D7B" stroke-width="0.77" stroke-miterlimit="10" stroke-linecap="round"/>
<path d="M87.7238 189.646C87.7238 189.646 86.5 189.389 86.8059 189.067C87.1119 188.744 88.5933 188.702 88.5933 188.702" stroke="#333D7B" stroke-width="0.77" stroke-miterlimit="10" stroke-linecap="round"/>
<path d="M88.6903 188.6C88.6903 188.6 87.4988 188.353 87.7886 188.047C88.0784 187.746 89.5115 187.709 89.5115 187.709" stroke="#333D7B" stroke-width="0.77" stroke-miterlimit="10" stroke-linecap="round"/>
<path d="M89.5119 187.709C89.5119 187.709 88.1432 187.682 88.4223 187.392C88.7014 187.107 90.1023 187.07 90.1023 187.07" stroke="#333D7B" stroke-width="0.77" stroke-miterlimit="10" stroke-linecap="round"/>
<path d="M82.0986 196.06L83.9665 196.162L85.0238 195.481L85.0346 194.933L85.9363 194.418L85.9631 193.865L86.8863 193.312L86.9722 192.706L87.7183 192.346L87.5519 192.045L88.357 191.6L88.2657 191.219L89.1406 190.693L89.1191 190.247L90.0316 189.657L90.1228 189.093L91.0353 188.487L91.1909 187.864L91.9585 187.408L91.8297 187.129L90.3751 187.038L82.0986 196.06Z" stroke="#333D7B" stroke-width="0.66" stroke-miterlimit="10"/>
<path d="M32.9823 196.586C32.9823 196.586 32.3061 196.431 32.51 196.216C32.714 196.001 33.5567 195.964 33.5567 195.964" stroke="#333D7B" stroke-width="0.37" stroke-miterlimit="10" stroke-linecap="round"/>
<path d="M33.6161 195.899C33.6161 195.899 32.9612 195.749 33.1491 195.55C33.337 195.352 34.1528 195.32 34.1528 195.32" stroke="#333D7B" stroke-width="0.37" stroke-miterlimit="10" stroke-linecap="round"/>
<path d="M34.2114 195.261C34.2114 195.261 33.5727 195.121 33.7498 194.933C33.9269 194.745 34.7105 194.719 34.7105 194.719" stroke="#333D7B" stroke-width="0.37" stroke-miterlimit="10" stroke-linecap="round"/>
<path d="M34.7645 194.66C34.7645 194.66 34.1472 194.525 34.3136 194.348C34.48 194.171 35.2368 194.15 35.2368 194.15" stroke="#333D7B" stroke-width="0.37" stroke-miterlimit="10" stroke-linecap="round"/>
<path d="M35.2847 194.096C35.2847 194.096 34.6836 193.967 34.8392 193.806C34.9949 193.645 35.7248 193.618 35.7248 193.618" stroke="#333D7B" stroke-width="0.37" stroke-miterlimit="10" stroke-linecap="round"/>
<path d="M35.7786 193.565C35.7786 193.565 35.1936 193.441 35.3385 193.285C35.4834 193.13 36.1919 193.114 36.1919 193.114" stroke="#333D7B" stroke-width="0.37" stroke-miterlimit="10" stroke-linecap="round"/>
<path d="M36.2356 193.065C36.2356 193.065 35.6667 192.947 35.8062 192.802C35.9458 192.657 36.6274 192.641 36.6274 192.641" stroke="#333D7B" stroke-width="0.37" stroke-miterlimit="10" stroke-linecap="round"/>
<path d="M36.6325 192.641C36.6325 192.641 35.9777 192.631 36.1119 192.491C36.2461 192.352 36.917 192.335 36.917 192.335" stroke="#333D7B" stroke-width="0.37" stroke-miterlimit="10" stroke-linecap="round"/>
<path d="M33.0898 196.629L33.9808 196.678L34.4854 196.356L34.4907 196.093L34.9201 195.846L34.9362 195.583L35.3763 195.314L35.4193 195.03L35.7735 194.858L35.693 194.713L36.0795 194.498L36.0365 194.316L36.4498 194.064L36.4391 193.854L36.8792 193.57L36.9221 193.302L37.3569 193.012L37.432 192.711L37.8024 192.496L37.738 192.362L37.0456 192.319L33.0898 196.629Z" stroke="#333D7B" stroke-width="0.32" stroke-miterlimit="10"/>
<path d="M125.269 197.783L126.358 197.853C126.669 197.874 126.938 197.606 126.959 197.263C126.981 196.919 126.745 196.618 126.439 196.602L125.349 196.533C125.102 195.132 123.755 194.005 122.064 193.897L110.17 193.151L109.886 197.644L120.513 198.486C122.204 198.594 124.85 199.147 125.269 197.789V197.783Z" stroke="#333D7B" stroke-width="0.69" stroke-miterlimit="10"/>
<path d="M108.614 197.526L108.877 193.505C108.898 193.157 109.199 192.894 109.548 192.915C109.896 192.937 110.159 193.237 110.138 193.586L109.875 197.606C109.854 197.955 109.612 197.939 109.263 197.917L108.914 197.874C108.565 197.853 108.592 197.874 108.614 197.526Z" stroke="#333D7B" stroke-width="0.69" stroke-miterlimit="10"/>
<path d="M124.646 196.114C124.646 196.114 124.41 195.266 123.503 194.783" stroke="#333D7B" stroke-width="0.69" stroke-miterlimit="10" stroke-linecap="round"/>
<path d="M55.1772 195.84L54.3667 196.039C54.1359 196.092 54.0017 196.35 54.0608 196.602C54.1198 196.855 54.3613 197.021 54.5921 196.967L55.4026 196.769C55.8964 197.735 57.1309 198.25 58.3869 197.944L67.2108 195.797L66.1105 191.278L57.2866 193.425C56.0306 193.731 55.1718 194.756 55.1718 195.84H55.1772Z" stroke="#333D7B" stroke-width="0.52" stroke-miterlimit="10"/>
<path d="M66.1354 191.358L67.1926 195.708C67.2227 195.832 67.3475 195.908 67.4713 195.878L67.9616 195.758C68.0855 195.728 68.1615 195.604 68.1314 195.48L67.0742 191.13C67.0441 191.006 66.9193 190.93 66.7954 190.96L66.3052 191.079C66.1813 191.109 66.1053 191.234 66.1354 191.358Z" stroke="#333D7B" stroke-width="0.52" stroke-miterlimit="10"/>
<path d="M56.0098 196.908C56.0098 196.908 56.3747 197.472 57.1423 197.617" stroke="#333D7B" stroke-width="0.52" stroke-miterlimit="10" stroke-linecap="round"/>
<path d="M59.5455 57.9526C57.1946 59.5198 55.3965 62.1552 55.2891 65.0482C55.2355 66.4652 55.9923 67.6246 57.3073 68.1667C58.6921 68.7356 60.2486 68.537 61.6441 68.1291C64.0111 67.4421 67.457 65.907 67.9508 63.1696C68.0903 62.4075 67.94 61.6722 67.677 60.9529C67.4623 60.3679 67.2262 59.5359 66.5928 59.2729C66.0024 59.0314 65.2188 59.2515 64.6552 59.4769C63.936 59.7614 63.3402 60.2605 62.7766 60.7812C61.6709 61.7956 60.737 63.0033 60.0339 64.329C59.7655 64.8389 59.3254 65.5098 59.7924 66.0251C60.211 66.492 61.0161 66.5887 61.6012 66.6477C64.4137 66.9375 67.5267 65.7406 69.2711 63.4863C70.1514 62.3538 70.6774 60.9851 70.8652 59.5681C71.0316 58.3283 71.0746 56.5517 69.8884 55.768C68.7022 54.9844 66.9363 55.5534 65.7823 56.0847C64.4995 56.6698 63.2382 57.5607 62.3097 58.6235C61.8588 59.1388 61.4294 59.7399 61.2255 60.4055C60.9839 61.1891 61.3596 61.7366 62.0198 62.1445C63.2489 62.9066 64.8001 62.9389 66.1956 62.7832C69.5932 62.4128 73.0175 61.2911 76.1789 60.0297C78.7338 59.0099 82.1099 57.6466 81.6053 54.2813C81.1867 51.4742 78.7231 49.4936 76.3668 48.2484C73.608 46.7938 70.3124 45.452 67.1457 45.6774C64.097 45.8921 61.1127 47.4969 58.4774 48.9461C55.9869 50.3148 53.6145 51.9948 51.8111 54.2115C50.0077 56.4282 48.5692 59.552 49.3528 62.4397C50.1365 65.3273 52.8363 66.8356 55.5038 67.2542C57.2214 67.5226 58.9658 67.3884 60.6672 67.1093C62.3687 66.8302 64.0004 66.4974 65.5408 65.8641C68.2084 64.7745 69.7059 62.3538 69.7757 59.4984C69.8186 57.7647 69.3355 56.0633 68.7076 54.4638C68.1493 53.0468 67.516 51.6352 66.6787 50.3577C65.9809 49.295 65.1114 48.2698 63.995 47.6365C62.8196 46.9709 61.467 46.8475 60.152 47.089C57.0872 47.6526 54.688 49.9606 52.9436 52.4188C51.1992 54.8771 50.2546 57.7379 51.0436 60.6201C51.8326 63.5024 54.4304 65.1609 57.3609 65.6118C58.8316 65.8372 60.3506 65.9016 61.7837 65.4508C63.2167 64.9999 64.1775 64.0392 64.5371 62.5202C65.2832 59.3803 63.6354 56.6859 61.1342 54.92C58.633 53.1541 55.7507 51.9841 52.745 51.9357C49.7393 51.8874 46.8892 53.0522 44.8496 55.3011C42.81 57.55 40.91 60.3679 39.5252 63.218C38.8113 64.6832 38.2156 66.2129 37.7701 67.7802C37.3246 69.3475 36.8791 71.0114 37.0884 72.5947C37.4641 75.4394 40.2337 77.1785 42.7027 78.0695C45.8909 79.2181 49.326 79.4757 52.6645 78.9229C55.1496 78.5096 58.9926 77.6132 59.1 74.4787C59.1536 72.9007 58.2197 71.5427 57.1624 70.4639C56.105 69.3851 54.8114 68.2955 53.4052 67.6031C51.9989 66.9107 50.4692 66.6262 48.9449 67.163C47.7373 67.5924 46.9483 68.4726 46.5081 69.6642C46.0412 70.9255 45.8479 72.3586 45.7674 73.6951C45.6762 75.2033 45.8587 76.7759 46.7765 78.0265C48.3223 80.1466 51.1563 80.7048 53.6253 80.8175C56.8081 80.9678 60.2003 80.576 63.0289 79.0248C65.8575 77.4737 67.3657 74.9993 67.3389 71.8648C67.3281 70.2546 67.0544 68.5424 66.6197 66.9912C66.1849 65.44 64.6874 65.585 63.4475 66.1324C62.2077 66.6799 61.1288 68.0056 60.3023 69.1221C59.3952 70.3458 58.6867 71.7413 58.472 73.2657C58.0802 76.0567 59.4864 78.6062 62.213 79.4435C63.7481 79.9158 65.4174 80.0876 67.0061 80.2862C68.6754 80.4955 70.3607 80.6082 72.0407 80.4848C75.0357 80.2593 78.342 79.2288 80.2957 76.8135C82.2924 74.3499 81.82 71.0006 80.5641 68.3116C79.3081 65.6225 77.3222 63.116 74.6922 61.7258C72.0622 60.3357 69.1477 60.3249 66.5069 61.3769C63.9628 62.386 61.789 64.855 62.1057 67.7426C62.2291 68.8644 62.7712 70.0506 63.8072 70.6035C65.149 71.3227 66.8612 70.8826 68.1977 70.3834C69.8132 69.7822 71.3751 68.9986 72.9048 68.2096C74.2789 67.5011 75.669 66.7765 76.8874 65.8104C82.2387 61.5648 78.5781 54.3242 74.456 50.6744C69.6039 46.3752 62.9967 45.0387 56.6739 45.3446C53.1959 45.511 49.6051 46.0155 46.3203 47.2125C44.8335 47.7546 43.234 48.4309 42.1176 49.5848C41.0012 50.7388 40.5611 52.1719 40.2283 53.6479C39.6111 56.4068 39.4125 59.391 40.2766 62.123C41.1408 64.855 43.1213 66.9214 45.7406 68.011C48.3599 69.1006 51.0758 69.2992 53.7916 69.2938C57.1785 69.2938 60.6833 69.0738 63.8555 67.8017C66.5338 66.7228 68.9652 64.8282 69.8884 61.9942C70.8116 59.1602 70.2051 55.8217 68.6861 53.1702C65.6535 47.8727 59.9265 44.2014 54.3552 42.0598C51.4622 40.9487 48.3062 39.9987 45.2039 39.7411C42.2679 39.4996 39.3749 40.6965 38.0545 43.4285C36.6161 46.402 37.4856 49.8747 38.4195 52.8589C38.8489 54.2276 39.3964 55.6017 40.3357 56.702C41.2749 57.8023 42.649 58.4839 44.1143 58.8006C45.7352 59.1495 47.4474 59.2246 49.1006 59.2676C50.8879 59.3159 52.6806 59.2515 54.4572 59.0797C56.3304 58.9026 58.1983 58.602 60.0339 58.1887C61.6548 57.8238 63.2812 57.3836 64.7733 56.6322C67.2101 55.3977 69.5127 52.9072 68.7451 49.9659C68.0205 47.1964 65.2188 45.6613 62.4975 45.7955C59.5991 45.9404 56.7276 47.4003 55.0261 49.7727C53.3247 52.1451 53.008 55.4406 55.0691 57.6627C57.1301 59.8848 61.0644 59.6755 63.8716 59.2568C65.6321 58.9938 67.355 58.5483 69.0511 58.0223C70.5217 57.5661 72.0944 57.1153 73.3396 56.1813C75.8139 54.3296 75.8515 50.449 75.6046 47.6633C75.3577 44.8777 74.0964 41.6948 71.4342 40.1866C68.6378 38.6032 65.0631 39.3063 62.1755 40.2456C59.2878 41.1849 56.6364 42.6985 54.5968 44.8938C52.5572 47.089 51.269 49.7888 51.0114 52.7248C50.8074 55.081 51.2851 58.3873 53.8722 59.2837C54.2425 59.4125 54.6934 59.2837 55.0476 59.1602C55.112 59.1388 55.8742 58.7684 55.6004 58.6718C53.3247 57.8828 52.7557 55.124 52.8041 52.9985C52.8577 50.3416 53.8722 47.7492 55.4824 45.6452C57.0926 43.5412 59.2234 42.033 61.5958 41.0507C63.9682 40.0685 66.99 39.4244 69.4429 40.6535C71.7616 41.8183 73.0981 44.2497 73.5811 46.7133C73.8602 48.141 73.8871 49.6117 73.8012 51.0609C73.726 52.29 73.5758 53.5513 73.0444 54.6731C72.4325 55.9613 71.3698 56.659 70.0601 57.1206C68.6485 57.6198 67.1993 58.0545 65.7287 58.3605C63.2006 58.8865 59.948 59.2944 57.6615 57.7754C55.375 56.2565 54.9939 53.3259 55.9547 51.0018C56.8564 48.828 59.0195 46.6221 61.4938 46.4932C63.9682 46.3644 66.1742 47.9961 66.8666 50.2719C67.6556 52.8643 65.8843 55.3226 63.6461 56.4765C62.4009 57.1206 61.0054 57.4427 59.6367 57.7271C58.107 58.0438 56.5666 58.2746 55.01 58.4142C52.0795 58.6772 48.9825 58.7201 46.0734 58.2048C44.7423 57.9687 43.4702 57.4963 42.4826 56.541C41.5916 55.6714 41.028 54.5121 40.5987 53.3635C39.6433 50.7979 38.8006 47.8029 39.2461 45.0494C39.4286 43.9008 39.9063 42.779 40.6309 41.8666C40.9851 41.4211 41.4145 41.0132 41.9029 40.7287C42.4826 40.3905 43.1213 40.3905 43.7761 40.4335C46.4384 40.6213 49.1972 41.4372 51.7037 42.3228C56.5558 44.0457 61.1825 46.7777 64.6445 50.6315C68.1064 54.4852 70.3285 60.5235 66.6626 64.9409C64.9182 67.0449 62.2882 68.011 59.6421 68.3384C57.055 68.6551 54.3391 68.7195 51.7467 68.4297C49.4763 68.172 47.1844 67.5763 45.3219 66.2022C43.3414 64.7477 42.182 62.5524 41.758 60.1586C41.334 57.7647 41.5702 55.0864 42.1981 52.6657C42.5255 51.3883 43.0247 50.0947 44.023 49.1877C45.0214 48.2806 46.4545 47.7063 47.7748 47.2983C50.582 46.4342 53.6253 46.08 56.5505 46.0155C59.4757 45.9511 62.4546 46.2732 65.2832 47.1373C69.9259 48.5597 74.2413 51.6674 76.4795 56.0525C77.6496 58.339 78.3634 61.2428 77.188 63.6742C76.0125 66.1056 73.2859 67.3186 71.0263 68.4458C70.35 68.7839 69.6629 69.106 68.9706 69.4226C68.3211 69.7178 67.6341 70.0936 66.931 70.2277C65.7448 70.4532 64.7411 69.5783 64.2956 68.5639C63.3134 66.3364 64.4029 63.6366 66.2869 62.2518C68.1708 60.867 70.9619 61.2642 72.98 62.3323C75.2611 63.54 77.0001 65.5796 78.24 67.8071C79.4799 70.0345 80.3869 72.8202 79.5228 75.3267C78.6587 77.8333 76.1467 79.3898 73.565 79.7226C70.7525 80.0822 67.7951 79.5831 65.0309 79.0678C63.7857 78.837 62.5405 78.4559 61.6387 77.5112C60.8605 76.7008 60.4311 75.5844 60.3023 74.4787C59.9856 71.8594 61.3918 69.4602 63.104 67.5977C63.3295 67.3562 63.5549 67.1147 63.791 66.8839C63.893 66.7873 63.9896 66.6906 64.097 66.6048L64.2043 66.5243C64.3385 66.4115 64.3493 66.4169 64.2204 66.5404C64.7196 66.8785 64.8109 67.5172 64.9289 68.0647C65.2295 69.4763 65.5086 70.9094 65.5193 72.3586C65.5408 75.0476 64.3171 77.4093 61.9984 78.8102C59.6796 80.211 56.7491 80.3076 54.1566 80.0607C51.9828 79.8568 49.5568 79.1429 48.3706 77.1516C47.1254 75.0637 47.5118 72.0848 48.1559 69.852C48.3062 69.3314 48.4994 68.8161 48.7893 68.3599C48.9181 68.1506 49.0684 67.9573 49.2455 67.7856C49.5353 67.5118 49.5139 67.5441 49.8681 67.5924C51.1777 67.7748 52.4176 68.5424 53.4535 69.326C55.3643 70.7698 58.1124 73.2496 57.0872 75.9601C56.6632 77.0819 55.6273 77.6776 54.5216 77.9782C53.1583 78.3486 51.7359 78.5096 50.3243 78.5042C47.5494 78.4881 44.6027 77.8601 42.1981 76.427C41.2159 75.842 40.2981 75.0959 39.6755 74.1244C38.9401 72.9758 38.7899 71.6769 38.9616 70.3458C39.3159 67.6138 40.3035 64.9248 41.5379 62.4773C42.7724 60.0297 44.2753 57.8023 46.0036 55.7305C46.8463 54.716 47.8017 53.7123 49.0093 53.138C50.0721 52.6335 51.2851 52.5798 52.4391 52.7086C54.9886 52.9931 57.4361 54.1149 59.5079 55.6017C61.7031 57.1797 63.2221 59.4984 62.8518 62.3001C62.6961 63.4756 62.1916 65.0536 60.8068 65.0912C59.5508 65.1287 58.1983 64.9087 57.0067 64.4954C54.5592 63.642 52.9919 61.6185 52.6752 59.0582C52.3586 56.498 53.3837 53.9861 54.8866 51.9196C55.6541 50.8676 56.5397 49.8747 57.5434 49.0374C58.5471 48.2001 59.5669 47.5238 60.8605 47.7438C63.1845 48.141 64.7035 50.3685 65.7018 52.3168C66.9363 54.7107 68.0849 57.4641 67.9561 60.2015C67.838 62.6651 66.5713 65.0643 64.1077 65.8158C61.4348 66.6316 58.2841 67.1576 55.579 66.2344C53.2549 65.44 51.3119 63.5937 51.0328 61.071C50.7537 58.5483 51.9936 55.9237 53.5662 53.9646C55.1389 52.0055 57.0818 50.5939 59.1697 49.3809C60.2056 48.7797 61.2738 48.2376 62.3633 47.7331C63.5495 47.1803 64.7947 46.5362 66.1151 46.4074C68.8525 46.139 71.8045 47.4594 74.2091 48.6509C76.297 49.6868 78.3474 51.1199 79.3403 53.3044C79.8878 54.5067 80.0917 55.9774 79.4047 57.1689C78.8036 58.2048 77.6979 58.7684 76.6459 59.2354C73.9407 60.4269 71.096 61.3447 68.1977 61.9244C66.9363 62.1767 65.5569 62.3592 64.3332 61.8439C63.7588 61.6024 62.9967 61.1891 62.9859 60.4806C62.9752 59.8419 63.4958 59.1066 63.8716 58.6289C64.623 57.6735 65.7448 56.8093 66.8558 56.3048C68.1601 55.7144 68.9598 57.0992 69.094 58.2156C69.3892 60.706 68.3426 63.4702 66.3298 65.0053C65.3691 65.7406 64.2526 66.111 63.0396 65.9821C62.5512 65.9285 61.6924 65.8426 61.4723 65.3059C61.2523 64.7691 61.9178 63.8889 62.1808 63.4434C62.8518 62.3109 63.6998 61.2911 64.6928 60.4216C64.7894 60.341 65.4764 59.9063 65.4979 59.7882L65.2671 59.8848C64.9987 59.9224 64.9665 59.9868 65.1758 60.0834C65.251 60.2122 65.3637 60.3196 65.4388 60.4538C65.7662 61.0388 66.0131 61.7473 66.1312 62.4075C66.6035 65.0429 63.9896 66.7228 61.8588 67.5172C60.6565 67.9627 59.3898 67.9359 58.3217 67.1791C57.2536 66.4223 57.0282 65.2468 57.1892 64.0177C57.5112 61.6131 58.9389 59.3373 60.9517 57.9901C61.2362 57.8023 61.1932 57.652 60.8551 57.6252C60.4579 57.5983 59.8943 57.7486 59.5616 57.974L59.5455 57.9526Z" fill="#333D7B"/>
<path d="M58.1986 55.0863C55.5847 56.7073 53.1157 58.6395 51.0063 60.8831C49.1868 62.8207 47.5282 65.2307 47.5712 68.0002C47.6087 70.4316 48.9184 72.6698 51.3069 73.4159C52.7399 73.8667 54.3287 73.8399 55.8155 73.8345C57.3022 73.8292 58.7782 73.7272 60.2167 73.3729C65.7934 71.9989 68.6864 66.4383 67.6934 60.969C67.1889 58.1833 65.8095 55.3708 63.947 53.2346C63.099 52.2631 62.0201 51.3936 60.7373 51.093C59.213 50.7388 57.7531 51.2862 56.3737 51.8981C53.6095 53.1326 51.017 54.7482 48.693 56.6858C46.6695 58.3712 44.646 60.5771 44.2058 63.2716C43.9965 64.549 44.1414 65.9875 44.968 67.0341C45.7946 68.0807 47.1364 68.5101 48.3548 68.8644C51.3927 69.7392 54.6078 69.9861 57.7531 69.6802C60.6407 69.4011 63.5981 68.698 66.1584 67.3025C68.2838 66.1485 70.3073 64.2377 70.5381 61.6989C70.8119 58.7039 68.8367 56.1813 66.6468 54.3939C64.3281 52.4939 61.7571 50.771 59.0734 49.4345C56.3576 48.0819 53.3357 47.0031 50.2871 47.7277C47.6249 48.361 45.3061 50.1806 43.8999 52.5046C42.4239 54.9575 41.7744 57.9954 41.8925 60.8401C42.0106 63.6849 43.9911 65.7889 46.6641 66.7496C48.0918 67.2649 49.5839 67.4849 51.0814 67.6943C51.5162 67.7533 52.0529 67.6782 52.375 67.3454C52.6219 67.0931 52.6058 66.712 52.1871 66.653C49.702 66.3041 46.9647 65.9284 45.1398 64.0123C43.3149 62.0961 43.5725 59.1387 44.0663 56.7019C44.5601 54.2651 45.6282 51.9196 47.5282 50.2825C48.3924 49.5365 49.4283 48.9622 50.5447 48.7045C51.8597 48.3986 53.1962 48.6509 54.4629 49.048C57.0124 49.8478 59.3848 51.2165 61.5961 52.6979C63.8075 54.1792 65.9759 55.607 67.4358 57.7217C68.8957 59.8364 69.2178 62.4504 67.6666 64.5329C66.3945 66.2451 64.2744 67.1951 62.2831 67.7748C59.6531 68.5423 56.905 68.8429 54.173 68.655C52.7775 68.5584 51.3927 68.333 50.0402 67.9841C48.9023 67.6889 47.598 67.3615 46.7822 66.4544C45.0915 64.5812 46.2025 61.5862 47.4638 59.8257C48.9184 57.8022 51.0278 56.2242 53.1049 54.8877C54.2213 54.1739 55.3753 53.5244 56.5776 52.9609C57.7799 52.3973 58.9232 51.7639 60.2006 52.3329C62.369 53.299 63.845 55.9451 64.7682 58.0062C66.6683 62.2464 66.6683 67.8714 62.7769 71.0381C60.7964 72.6484 58.1288 72.7772 55.692 72.7342C54.4521 72.7128 53.1049 72.7342 51.9563 72.1975C51.0063 71.7466 50.2871 70.9201 49.8845 69.9593C47.8288 65.0857 52.6326 60.7006 56.057 57.9847C57.1036 57.1528 58.2093 56.396 59.3418 55.6928C59.6316 55.5157 59.841 55.1615 59.4921 54.9307C59.1432 54.6999 58.5152 54.8931 58.1932 55.0917L58.1986 55.0863Z" fill="#333D7B"/>
<path d="M83.7904 118.813C83.7904 118.813 80.103 184.816 78.9705 187.247L55.0803 186.882C54.5919 186.882 54.1571 186.587 53.9854 186.131C53.2715 184.247 52.0263 181.316 54.4255 179.191C57.399 176.566 69.7332 179.953 70.2163 176.587C77.4891 125.517 75.6803 119.173 75.6803 119.173" stroke="#333D7B" stroke-width="1.57" stroke-miterlimit="10" stroke-linecap="round"/>
<path d="M94.6699 119.468C94.6699 119.468 96.5807 184.816 97.7132 187.247H123.042C123.53 187.247 123.965 186.952 124.137 186.496C124.851 184.612 126.676 181.681 124.276 179.556C121.303 176.931 108.969 180.318 108.486 176.952C101.213 125.882 103.757 118.808 103.757 118.808" stroke="#333D7B" stroke-width="1.57" stroke-miterlimit="10" stroke-linecap="round"/>
</svg>
