<svg width="220" height="220" viewBox="0 0 220 220" fill="none" xmlns="http://www.w3.org/2000/svg">
<path d="M110 220C170.199 220 219 215.791 219 210.6C219 205.408 170.199 201.199 110 201.199C49.801 201.199 1 205.408 1 210.6C1 215.791 49.801 220 110 220Z" fill="#F9CDAB"/>
<path d="M109.904 74.8071C108.755 76.1252 108.663 76.4143 109.743 77.7439C115.305 85.1208 116.006 82.1955 109.387 88.5896C108.456 89.8267 110.662 90.8905 111.409 91.8502C113.892 94.3939 115.432 94.4055 112.524 97.5852C111.812 98.7646 109.938 99.9786 110.306 101.412C110.823 102.569 113.673 104.118 114.225 105.529C114.305 105.829 114.202 106.153 114.053 106.442C112.8 108.662 109.801 113.692 108.456 115.97C108.341 116.039 108.249 116.074 108.203 116.074C106.365 116.074 53.02 67.3493 53.02 47.1611C53.02 26.973 59.1681 11.9996 81.7263 11.9996C104.285 11.9996 106.525 29.1468 108.399 29.1468C108.445 29.1468 108.491 29.1352 108.537 29.1121C109.249 30.7539 112.064 31.6789 112.651 33.0433C112.639 33.9683 111.812 34.558 110.938 35.5871C110.065 36.6855 109.111 37.1711 109.088 38.2696C110.042 39.9693 112.823 41.9118 114.271 43.4843C114.914 44.1664 115.73 44.6058 115.891 45.4383C115.615 46.6755 112.398 48.5833 111.674 49.6702C111.019 50.5143 111.823 51.2774 112.352 52.0289C113.168 53.1158 114.351 54.6536 115.121 55.6827C116.167 57.0355 116.167 57.4633 114.799 58.3305C113.662 59.1052 111.996 59.9839 110.927 60.8396C110.467 61.198 110.467 61.6489 110.846 62.0652C111.708 63.0364 114.386 65.2911 115.42 66.3549C115.73 66.6902 116.064 67.0371 115.949 67.4996C115.523 68.4708 114.087 69.8236 113.237 70.9105C112.133 72.1939 110.984 73.5352 109.904 74.8071Z" fill="#F49B58"/>
<path d="M166.903 49.8089C165.949 68.1008 112.731 113.784 108.204 116.074C109.663 113.865 112.789 108.546 114.156 106.396C114.317 106.118 114.444 105.795 114.375 105.494C113.892 104.06 111.134 102.36 110.674 101.181C110.387 99.7242 112.318 98.6142 113.088 97.4811C116.156 94.4633 114.616 94.3708 112.272 91.6998C111.571 90.7054 109.433 89.5261 110.422 88.3351C117.363 82.2995 116.512 85.1786 111.341 77.5242C110.33 76.1367 110.433 75.8592 111.651 74.5989C112.8 73.3848 114.018 72.1014 115.179 70.8873C116.087 69.8467 117.592 68.5748 118.064 67.6267C118.201 67.1758 117.891 66.8058 117.592 66.4589C116.616 65.3373 114.053 62.9439 113.248 61.9379C112.892 61.4986 112.915 61.0476 113.398 60.7239C114.513 59.9261 116.225 59.1398 117.397 58.423C118.81 57.6251 118.833 57.1973 117.857 55.7983C117.144 54.7345 116.041 53.1273 115.283 52.0058C114.788 51.2311 114.03 50.4217 114.731 49.6123C115.512 48.5601 118.822 46.8258 119.167 45.6117C119.052 44.7676 118.259 44.2936 117.65 43.5767C116.282 41.9348 113.605 39.842 112.743 38.0961C112.823 36.9976 113.8 36.5698 114.731 35.5176C115.662 34.5348 116.512 33.9914 116.57 33.0664C116.052 31.6673 113.294 30.6036 112.662 28.927C114.559 28.2333 118.374 12.092 140.047 13.2367C161.721 14.3814 167.869 31.0661 166.88 49.8667L166.903 49.8089Z" fill="#F49B58"/>
<path d="M103.767 59.1629C105.474 59.1629 106.858 57.2838 106.858 54.9657C106.858 52.6477 105.474 50.7685 103.767 50.7685C102.059 50.7685 100.675 52.6477 100.675 54.9657C100.675 57.2838 102.059 59.1629 103.767 59.1629Z" fill="#333D7B"/>
<path d="M125.188 60.516C126.895 60.516 128.279 58.6369 128.279 56.3188C128.279 54.0008 126.895 52.1216 125.188 52.1216C123.481 52.1216 122.097 54.0008 122.097 56.3188C122.097 58.6369 123.481 60.516 125.188 60.516Z" fill="#333D7B"/>
<path d="M103.768 106.269C103.768 106.269 99.5156 207.868 97.9643 211.198H60.0416C59.3751 211.198 58.789 210.794 58.5477 210.169C57.5824 207.591 55.4794 200.838 58.7545 197.925C62.8111 194.317 79.635 198.977 80.29 194.352C90.2073 124.283 92.5631 100.557 92.5631 100.557" stroke="#333D7B" stroke-width="1.19" stroke-miterlimit="10" stroke-linecap="round"/>
<path d="M114.052 106.442C114.052 106.442 114.857 207.857 116.397 211.198H154.319C154.986 211.198 155.572 210.793 155.813 210.169C156.778 207.591 158.881 200.838 155.606 197.924C151.55 194.317 134.726 198.977 134.071 194.352C124.153 124.283 129.532 93.7925 129.532 93.7925" stroke="#333D7B" stroke-width="1.19" stroke-miterlimit="10" stroke-linecap="round"/>
<path d="M137.472 85.0859C140.517 98.9493 148.228 111.252 155.813 123.231C156.675 124.595 157.583 126.006 158.927 126.919C160.272 127.832 162.179 128.087 163.455 127.104C164.512 126.283 164.903 124.838 164.914 123.497C164.937 121.554 164.363 119.658 163.731 117.808C160.639 108.743 156.215 100.21 151.802 91.7228C149.332 86.959 146.861 82.2068 144.39 77.4431" stroke="#333D7B" stroke-width="1.19" stroke-miterlimit="10" stroke-linecap="round"/>
<path d="M75.4516 81.941C70.6596 95.9085 67.6717 110.5 66.603 125.243C66.3387 128.943 66.4191 133.244 69.2691 135.614C69.9011 136.146 70.7055 136.551 71.5214 136.435C73.0498 136.227 73.7508 134.435 74.1415 132.932C78.0028 118.166 81.5192 103.309 84.7024 88.3813" stroke="#333D7B" stroke-width="1.19" stroke-miterlimit="10" stroke-linecap="round"/>
<path d="M100.688 76.6922C101.412 75.8712 102.159 75.0387 103.113 74.5184C104.067 73.9981 105.285 73.8247 106.227 74.3681C107.181 74.9231 107.641 76.0331 108.411 76.8309C109.709 78.1837 111.996 78.4381 113.559 77.3975C115.088 76.38 116.145 74.2756 117.972 74.4028C119.282 74.4953 120.144 75.7325 120.948 76.7731C121.753 77.8137 122.982 78.8775 124.212 78.4265C124.672 78.2647 125.028 77.9062 125.373 77.5594C126.361 76.5881 127.349 75.6053 128.326 74.634" stroke="#333D7B" stroke-width="1.19" stroke-miterlimit="10" stroke-linecap="round"/>
<path d="M127.119 62.8864C127.119 62.8864 130.521 68.5173 129.843 69.5348C129.165 70.5523 125.246 71.1536 127.119 62.8864Z" stroke="#333D7B" stroke-width="1.19" stroke-linecap="round" stroke-linejoin="round"/>
<path d="M108.458 115.97C108.458 115.97 108.423 116.041 108.399 116.077" stroke="white" stroke-width="0.25" stroke-miterlimit="10"/>
<path d="M108.537 29.1123C108.365 28.7654 108.319 28.3723 108.399 27.9445" stroke="white" stroke-width="0.25" stroke-miterlimit="10"/>
<path d="M110.687 76.2761C110.687 76.2761 110.388 76.3686 113.18 80.0455L112.066 80.6005C112.066 80.6005 109.388 78.0567 109.009 76.4842C108.917 76.0911 109.066 75.7673 109.319 75.5477C110.411 74.5995 110.698 76.2761 110.698 76.2761H110.687Z" fill="white"/>
</svg>
