<svg width="22" height="20" viewBox="0 0 22 20" fill="none" xmlns="http://www.w3.org/2000/svg">
<g clip-path="url(#clip0_2580_812)">
<path d="M8.18883 12.4559C7.4647 14.0147 7.56814 14.4559 6.94745 16.0588L3.72578 11.9706C3.41543 11.5588 2.79475 12.0882 3.10509 12.5147L6.74056 17.1471C6.90312 17.3088 7.16913 17.3235 7.33169 17.1765C7.37603 17.1323 7.42036 17.0735 7.44992 17.0147C8.15928 15.1912 8.1445 14.5 8.97209 12.7206C9.19376 12.25 8.41051 11.9853 8.18883 12.4559Z" fill="#333D7B"/>
<path d="M4.37598 9.92647L6.53362 9.5147C8.55825 9.11764 10.5385 10.3971 10.9376 12.3676L11.3661 14.4706C11.7651 16.4412 10.4499 18.3529 8.42524 18.75L6.26761 19.1618C4.24298 19.5588 2.26268 18.2794 1.86367 16.3088L1.4351 14.2059C1.03608 12.2353 2.35135 10.3235 4.37598 9.92647Z" stroke="#333D7B" stroke-width="1.04" stroke-miterlimit="10"/>
<path d="M10.2725 5.44118C10.2725 4.61765 10.5089 3.77941 10.967 2.92647C11.4399 2.05882 12.1345 1.33824 12.9769 0.823529C13.8636 0.279412 14.8833 0 16.0656 0C17.1592 0 18.1198 0.235294 18.9621 0.691176C19.7749 1.13235 20.4399 1.77941 20.8981 2.58824C21.3562 3.38235 21.5927 4.27941 21.5779 5.19118C21.5779 5.92647 21.4449 6.57353 21.1936 7.13235C20.9572 7.64706 20.6468 8.13235 20.2626 8.57353C19.9079 8.97059 19.2577 9.66176 18.3266 10.6176C17.5582 11.4118 17.2035 12.2206 16.9966 13.2941C16.9227 13.7941 16.8193 14.3088 16.5976 14.7647C16.3464 15.25 15.8882 15.4412 15.3414 15.4118C14.2478 15.3529 14.2626 13.7059 14.2626 12.8971C14.2626 12.1618 14.3661 11.5294 14.5582 11C14.7355 10.4853 15.0015 10.0147 15.3414 9.58823C15.7552 9.08823 16.1986 8.60294 16.6567 8.14706C17.1444 7.66176 17.4843 7.29412 17.706 7.04412C17.9276 6.79412 18.105 6.51471 18.2528 6.22059C18.4005 5.91176 18.4744 5.57353 18.4744 5.23529C18.4892 4.58823 18.2528 3.95588 17.7946 3.47059C17.3513 3 16.7601 2.75 16.0508 2.75C15.2232 2.75 14.6025 2.98529 14.2183 3.47059C13.8193 3.95588 13.4941 4.66176 13.2281 5.60294C12.9769 6.58823 12.4892 7.07353 11.7651 7.07353C11.3513 7.07353 10.9523 6.88235 10.701 6.55882C10.4202 6.25 10.2725 5.85294 10.2725 5.44118ZM17.3069 18.1765C17.3069 18.6176 17.1739 19.0294 16.9079 19.3824C16.6419 19.7206 16.2577 19.8971 15.77 19.8971C15.3562 19.8971 14.9572 19.7206 14.6764 19.3971C14.3808 19.0588 14.2183 18.6324 14.2331 18.1765C14.2331 17.7353 14.3808 17.3088 14.6764 16.9853C14.9572 16.6765 15.3414 16.5 15.77 16.5C16.2429 16.5 16.6271 16.6618 16.8931 17C17.1592 17.3235 17.3069 17.75 17.3069 18.1618V18.1765Z" fill="#333D7B"/>
</g>
<defs>
<clipPath id="clip0_2580_812">
<rect width="21" height="20" fill="white" transform="translate(0.592773)"/>
</clipPath>
</defs>
</svg>
