<svg width="180" height="200" viewBox="0 0 180 200" fill="none" xmlns="http://www.w3.org/2000/svg">
<path d="M90.0001 200C130.081 200 162.572 197.242 162.572 193.841C162.572 190.439 130.081 187.682 90.0001 187.682C49.9195 187.682 17.4277 190.439 17.4277 193.841C17.4277 197.242 49.9195 200 90.0001 200Z" fill="#F9CDAB"/>
<path d="M103.404 65.2274C101.569 59.6881 138.853 36.1994 148.939 45.0991C153.403 49.0356 153.229 59.9157 148.905 62.9032C146.697 64.4284 143.719 63.6828 142.044 63.2228C123.896 58.2887 116.739 49.2826 101.976 46.8906C101.976 46.8906 89.0136 44.7892 80.9371 50.3478C80.5062 50.6432 80.1043 50.9724 80.1043 50.9724C80.1043 50.9724 77.7705 52.8802 76.4776 55.6741C74.5311 59.8915 82.6367 75.1584 89.1734 74.2045C97.5695 72.9746 94.1075 46.3047 105.026 42.833C114.952 39.676 132.655 57.0008 129.788 64.9901C127.871 70.3357 116.042 73.4152 107.757 69.8999C97.6809 65.6196 95.5213 52.7204 89.033 53.345C87.9871 53.4467 86.888 53.8922 83.5712 57.3542C72.8364 68.5635 73.1754 75.57 67.2729 77.8844C61.8353 80.0149 54.4319 76.8676 50.5679 71.8561C46.4861 66.5589 45.1594 57.6205 49.5608 53.6985C55.3131 48.5756 66.7694 55.6595 67.2875 55.9888C76.8069 62.022 82.1719 75.1681 78.7824 78.6785C74.5554 83.0509 54.3302 74.9114 53.9719 66.7575C53.6136 58.5744 73.1608 47.8687 84.1087 53.0109C93.5845 57.4608 91.3572 71.3283 100.635 74.19C107.041 76.1704 114.187 71.4397 121.693 66.4718C134.064 58.2839 136.848 50.7497 140.731 51.907C146.203 53.5339 148.154 70.7134 143.157 73.4637C139.506 75.4731 134.432 68.5248 116.749 58.5599C105.283 52.1006 97.8068 47.9994 93.1972 50.8659C86.9945 54.7202 91.1151 67.997 86.0697 69.8854C80.8064 71.8561 72.8461 58.7197 67.5732 61.0923C64.3193 62.5546 64.9052 68.6604 62.4842 68.9461C59.5305 69.2995 57.952 60.2933 53.3812 59.8334C49.3477 59.4266 47.1737 66.1038 44.4864 65.4453C41.3342 64.6705 38.7485 54.1052 43.3049 47.9123C48.6844 40.6008 62.9393 40.8526 67.7959 46.755C73.4223 53.6017 62.9926 63.8668 68.498 74.1367C73.0253 82.5764 85.7792 86.2805 95.6424 83.8837C105.496 81.4869 113.887 72.6502 112.405 68.8347C111.205 65.7503 104.16 67.5225 103.409 65.2419L103.404 65.2274Z" stroke="#333D7B" stroke-width="1.89" stroke-miterlimit="10" stroke-linecap="round"/>
<path d="M152.211 97.9159C152.211 77.2017 145.059 59.2039 120.413 59.2039C95.7673 59.2039 92.9396 78.0926 90.872 78.0926C88.8045 78.0926 86.3254 59.2039 61.3308 59.2039C36.3363 59.2039 29.5332 75.6861 29.5332 97.9159C29.5332 120.146 88.6205 173.781 90.6638 173.781C92.7071 173.781 152.216 118.63 152.216 97.9159H152.211Z" fill="#F489AC"/>
<path d="M54.3724 126.353C53.6219 136.991 55.2053 144.69 56.8709 149.861C57.912 153.091 59.4711 156.858 57.7134 158.872C56.0042 160.828 51.5786 160.654 48.8913 158.664C45.1 155.86 45.5067 149.987 45.376 144.661C45.2113 137.867 44.0928 128.479 39.9238 116.95" stroke="#333D7B" stroke-width="1.89" stroke-miterlimit="10" stroke-linecap="round"/>
<path d="M92.7967 121.636C94.3031 121.767 94.3792 120.915 96.2386 120.744C98.3598 120.55 98.6185 121.624 100.752 121.499C102.815 121.377 103.342 120.325 104.629 120.778C105.831 121.202 106.756 122.61 106.467 123.35C106.196 124.04 105.076 123.615 103.193 124.549C101.78 125.251 101.793 125.794 100.718 126.09C99.7232 126.365 99.3245 126.009 97.3433 125.644C96.8229 125.547 95.3378 125.444 92.3645 125.232C89.5008 125.029 89.233 125.054 88.9561 125.095C87.6688 125.282 87.1362 125.65 86.1806 125.404C86.1015 125.382 84.5098 124.948 84.2755 123.828C84.0168 122.591 85.5871 121.399 86.4149 120.95C86.6188 120.837 87.7235 120.257 89.2543 120.4C91.0224 120.566 91.2416 121.499 92.7967 121.633V121.636Z" stroke="#333D7B" stroke-width="1.89" stroke-miterlimit="10"/>
<path d="M81.149 161.439C81.7204 172.135 82.2917 182.831 82.8631 193.527H40.8536C40.1176 193.527 39.4591 193.081 39.2025 192.394C38.1276 189.551 35.8034 182.119 39.4349 178.914C45.4536 173.597 56.014 180.366 63.2819 174.982C66.957 172.261 69.7993 166.024 67.693 151.319" stroke="#333D7B" stroke-width="1.89" stroke-miterlimit="10" stroke-linecap="round"/>
<path d="M101.059 161.249C99.9262 172.008 98.7932 182.767 97.6553 193.526H139.665C140.401 193.526 141.059 193.081 141.316 192.393C142.391 189.551 144.715 182.119 141.083 178.913C136.59 174.943 117.958 180.066 117.236 174.981C115.629 166.571 114.026 158.165 112.419 149.754" stroke="#333D7B" stroke-width="1.89" stroke-miterlimit="10" stroke-linecap="round"/>
<path d="M71.698 96.0515C71.7125 96.6761 72.003 97.8285 72.003 97.8285C72.1822 98.8792 71.4704 99.8912 70.4148 100.07L67.9067 100.496C66.8559 100.676 65.8439 99.9638 65.6648 98.9083C65.6648 98.9083 65.2484 97.6542 65.3597 97.1312C65.4711 96.6083 65.8924 95.0685 66.9479 94.8894L69.4561 94.4633C70.5068 94.2841 71.6834 95.4268 71.698 96.0515Z" fill="#333D7B"/>
<path d="M69.7679 104.138L69.7182 103.847C69.6974 103.726 69.5824 103.644 69.4611 103.665L69.17 103.715C69.0487 103.736 68.9672 103.851 68.9879 103.972L69.0376 104.263C69.0583 104.384 69.1734 104.466 69.2947 104.445L69.5858 104.395C69.7071 104.375 69.7886 104.26 69.7679 104.138Z" fill="#333D7B"/>
<path d="M71.7688 106.772L71.7191 106.481C71.6984 106.36 71.5833 106.278 71.4621 106.299L71.1709 106.348C71.0497 106.369 70.9682 106.484 70.9889 106.605L71.0386 106.897C71.0593 107.018 71.1744 107.099 71.2956 107.079L71.5868 107.029C71.708 107.008 71.7896 106.893 71.7688 106.772Z" fill="#333D7B"/>
<path d="M70.9798 102.173L70.9301 101.882C70.9094 101.761 70.7943 101.679 70.673 101.7L70.3819 101.75C70.2606 101.77 70.1791 101.886 70.1998 102.007L70.2495 102.298C70.2702 102.419 70.3853 102.501 70.5066 102.48L70.7977 102.43C70.919 102.41 71.0005 102.295 70.9798 102.173Z" fill="#333D7B"/>
<path d="M73.0022 104.334L72.9525 104.043C72.9318 103.922 72.8167 103.84 72.6955 103.861L72.4043 103.91C72.2831 103.931 72.2016 104.046 72.2223 104.167L72.272 104.459C72.2927 104.58 72.4078 104.661 72.529 104.641L72.8202 104.591C72.9414 104.57 73.0229 104.455 73.0022 104.334Z" fill="#333D7B"/>
<path d="M66.7136 90.956L66.7633 91.2471C66.784 91.3684 66.8991 91.4499 67.0203 91.4292L67.3115 91.3795C67.4327 91.3588 67.5143 91.2437 67.4936 91.1224L67.4438 90.8313C67.4231 90.71 67.308 90.6285 67.1868 90.6492L66.8956 90.6989C66.7744 90.7196 66.6929 90.8347 66.7136 90.956Z" fill="#333D7B"/>
<path d="M67.7272 87.8014L67.777 88.0926C67.7977 88.2138 67.9128 88.2953 68.034 88.2746L68.3252 88.2249C68.4464 88.2042 68.5279 88.0891 68.5072 87.9679L68.4575 87.6767C68.4368 87.5555 68.3217 87.474 68.2005 87.4947L67.9093 87.5444C67.7881 87.5651 67.7065 87.6802 67.7272 87.8014Z" fill="#333D7B"/>
<path d="M68.5124 92.4122L68.5621 92.7033C68.5828 92.8246 68.6979 92.9061 68.8192 92.8854L69.1103 92.8357C69.2316 92.815 69.3131 92.6999 69.2924 92.5786L69.2427 92.2875C69.222 92.1662 69.1069 92.0847 68.9856 92.1054L68.6945 92.1551C68.5732 92.1758 68.4917 92.2909 68.5124 92.4122Z" fill="#333D7B"/>
<path d="M69.7028 89.6948L69.7525 89.986C69.7733 90.1072 69.8883 90.1887 70.0096 90.168L70.3007 90.1183C70.422 90.0976 70.5035 89.9825 70.4828 89.8613L70.4331 89.5701C70.4124 89.4489 70.2973 89.3673 70.176 89.388L69.8849 89.4378C69.7636 89.4585 69.6821 89.5735 69.7028 89.6948Z" fill="#333D7B"/>
<path d="M72.4727 85.2536C72.4727 85.2536 72.4582 93.7078 72.8214 96.1918C73.1845 98.6757 76.1963 107.057 76.1963 107.057C76.6321 109.599 74.9034 112.035 72.3614 112.471C69.8193 112.906 67.3838 111.178 66.948 108.636C66.948 108.636 64.8223 102.738 63.9169 97.9155C63.0114 93.088 63.2245 86.8321 63.2245 86.8321C62.7887 84.2901 64.5173 81.8545 67.0594 81.4188C69.6014 80.983 72.037 82.7116 72.4727 85.2536Z" stroke="#333D7B" stroke-width="1.91" stroke-miterlimit="10"/>
<path d="M84.6407 59.3732C86.4758 64.9125 49.1922 88.4012 39.1063 79.5016C34.6419 75.565 34.8162 64.685 39.1402 61.6974C41.3481 60.1722 44.326 60.9179 46.0013 61.3778C64.1492 66.3119 71.3058 75.318 86.0691 77.71C86.0691 77.71 99.0312 79.8115 107.108 74.2528C107.539 73.9574 107.941 73.6282 107.941 73.6282C107.941 73.6282 110.274 71.7204 111.567 68.9266C113.514 64.7092 105.408 49.4422 98.8714 50.3961C90.4753 51.626 93.9374 78.2959 83.0186 81.7676C73.0925 84.9246 55.39 67.5999 58.2565 59.6105C60.1739 54.2649 72.003 51.1854 80.2877 54.7007C90.364 58.981 92.5235 71.8802 99.0118 71.2556C100.058 71.1539 101.157 70.7084 104.474 67.2464C115.208 56.0371 114.869 49.0307 120.772 46.7162C126.21 44.5857 133.613 47.733 137.477 52.7445C141.559 58.0417 142.885 66.9801 138.484 70.9021C132.732 76.025 121.275 68.9411 120.757 68.6118C111.238 62.5787 105.873 49.4326 109.262 45.9221C113.49 41.5497 133.715 49.6892 134.073 57.8432C134.431 66.0262 114.884 76.7319 103.936 71.5897C94.4603 67.1399 96.6877 53.2723 87.4103 50.4107C81.0043 48.4303 73.8575 53.1609 66.3524 58.1288C53.981 66.3167 51.1968 73.8509 47.3135 72.6937C41.842 71.0667 39.8907 53.8872 44.8877 51.137C48.5385 49.1275 53.613 56.0758 71.2961 66.0407C82.762 72.5 90.2381 76.6012 94.8477 73.7347C101.05 69.8804 96.9298 56.6036 101.975 54.7152C107.238 52.7445 115.199 65.8809 120.472 63.5083C123.726 62.046 123.14 55.9402 125.561 55.6546C128.514 55.3011 130.093 64.3073 134.664 64.7673C138.697 65.174 140.871 58.4968 143.559 59.1554C146.711 59.9301 149.296 70.4954 144.74 76.6883C139.36 83.9998 125.106 83.748 120.249 77.8456C114.623 70.999 125.052 60.7339 119.547 50.4639C115.02 42.0243 102.266 38.3201 92.4025 40.7169C82.5489 43.1137 74.1577 51.9504 75.6394 55.7659C76.8402 58.8503 83.8853 57.0781 84.6359 59.3587L84.6407 59.3732Z" stroke="#333D7B" stroke-width="1.89" stroke-miterlimit="10" stroke-linecap="round"/>
<path d="M123.115 128.934C124.8 137.32 124.495 143.867 123.909 148.282C123.163 153.89 121.691 158.17 123.764 159.797C125.536 161.186 129.1 160.029 131.361 158.354C135.888 154.989 136.314 148.68 136.682 144.874C137.37 137.751 138.982 127.738 143.045 114.635" stroke="#333D7B" stroke-width="1.89" stroke-miterlimit="10" stroke-linecap="round"/>
<path d="M85.0859 101.596C85.7348 101.615 86.248 101.562 86.6015 101.509C87.1825 101.426 87.352 101.339 87.8653 101.31C88.5335 101.271 88.9015 101.252 89.2452 101.47C89.9812 101.935 89.9958 103.107 89.9958 103.165C89.9958 103.939 89.6036 104.414 89.865 104.68C90.0103 104.825 90.2088 104.762 90.5477 105.024C90.5477 105.024 90.7221 105.155 90.8528 105.329C91.2886 105.9 90.572 106.801 90.8237 107.74C91.0368 108.53 91.6759 108.389 91.8503 109.159C92.0391 109.992 91.4774 110.975 90.8431 111.43C90.6688 111.556 90.3492 111.88 89.8941 111.943C88.3979 112.156 89.0419 113.226 88.2139 113.333C87.3859 113.439 85.9914 112.907 85.943 111.837C85.943 111.837 85.8413 111.212 85.0908 110.767C83.7883 109.997 84.4274 109.789 84.5582 108.738C84.6695 107.832 84.2822 108.215 83.5994 107.029C82.6213 105.329 84.2386 105.586 84.2386 104.787C84.2386 103.988 83.5462 104.361 83.4396 102.864C83.4251 102.651 83.4445 102.337 83.6285 102.065C83.8996 101.659 84.4807 101.489 85.0956 101.581L85.0859 101.596Z" fill="#333D7B"/>
<path d="M108.458 103.804C108.53 104.172 108.588 104.496 108.86 104.757C109.106 104.995 109.271 104.927 109.542 105.101C110.118 105.479 110.288 106.389 110.22 107.023C110.143 107.769 109.775 107.827 109.847 108.394C109.925 109.009 110.39 109.193 110.37 109.72C110.356 110.118 110.075 110.432 109.847 110.636C110.022 111.144 109.896 111.401 109.838 111.512C109.707 111.74 109.431 111.948 108.889 112.025C107.62 112.204 107.891 113.003 107.494 113.304C107.475 113.318 107.363 113.386 107.208 113.41C106.569 113.512 106.269 112.79 105.567 112.674C104.87 112.563 104.623 113.197 104.08 113.023C103.979 112.989 103.727 112.882 103.199 111.604C102.691 110.369 102.468 109.759 102.57 109.314C102.734 108.607 103.223 108.273 103.039 107.755C102.947 107.493 102.812 107.508 102.579 107.111C102.255 106.544 102.216 106.195 102.313 105.953C102.541 105.372 103.083 105.377 103.223 104.869C103.422 104.152 102.284 103.678 102.424 102.946C102.526 102.409 103.233 102.119 104.342 101.663C104.991 101.397 105.388 101.232 105.969 101.218C106.288 101.208 107.523 101.179 108.036 101.92C108.114 102.031 108.23 102.622 108.453 103.799L108.458 103.804Z" fill="#333D7B"/>
<path d="M37.368 114.597C36.6949 112.151 36.5448 108.123 40.0553 108.176C41.5467 108.2 43.0428 108.806 44.3744 109.43C45.8657 110.127 47.2893 110.965 48.6741 111.856C49.6183 112.466 50.548 113.11 51.4486 113.783C51.7779 114.03 52.141 113.682 52.1749 113.367C52.3492 111.846 52.601 110.331 52.9254 108.835C53.0804 108.123 53.2547 107.411 53.4435 106.709C53.5452 106.341 53.6324 105.963 53.7583 105.6C53.8357 105.382 53.8309 105.314 54.0633 105.232C54.2957 105.15 54.5185 105.218 54.746 105.252C57.6125 105.663 60.3967 106.535 62.9872 107.823C63.3116 107.982 63.7135 107.789 63.7135 107.406C63.7135 105.692 63.7135 103.978 63.7183 102.264C63.7183 101.426 63.7183 100.589 63.7183 99.751C63.7183 99.2426 63.4617 97.7125 64.1347 97.5333C64.4591 97.4462 64.8998 97.5624 65.2242 97.606C65.6745 97.6641 66.1248 97.727 66.5751 97.7996C67.3692 97.9255 68.1633 98.0708 68.9477 98.2403C70.5988 98.5889 72.2258 99.0344 73.8285 99.5573C74.1141 99.6493 74.4628 99.3975 74.4434 99.0925C74.3272 97.2719 74.211 95.4561 74.0948 93.6355C74.0318 92.6865 73.9737 91.7374 73.9108 90.7884C73.8817 90.3526 73.8527 89.9168 73.8285 89.4859C73.8043 89.0549 73.6929 88.5223 73.7413 88.0865C73.7897 87.6508 74.2304 87.8638 74.5451 87.9364C75.0099 88.0381 75.4748 88.1446 75.9396 88.2512C76.8305 88.4545 77.7215 88.6531 78.6124 88.8564C80.433 89.268 82.2536 89.6796 84.0742 90.0911C84.3696 90.1589 84.6988 89.9507 84.6891 89.6263C84.5729 86.1981 84.0306 82.8039 83.0719 79.5113L82.733 80.1069C86.35 78.969 89.9718 77.8311 93.5888 76.6884C94.1795 76.5044 93.9277 75.565 93.3322 75.7539C89.7152 76.8918 86.0933 78.0296 82.4763 79.1724C82.2294 79.2498 82.0648 79.5065 82.1374 79.7679C83.0719 82.9782 83.6045 86.2805 83.7207 89.6263L84.3357 89.1615C82.2439 88.6869 80.1522 88.2124 78.0604 87.7379C77.0533 87.5103 76.0461 87.2828 75.039 87.0552C74.424 86.9148 73.6106 86.6727 73.0876 87.1762C72.5114 87.7379 72.831 88.9048 72.8746 89.6021C72.9424 90.6286 73.0053 91.66 73.0731 92.6865C73.2087 94.8218 73.3491 96.9571 73.4847 99.0925L74.0996 98.6276C72.279 98.0321 70.4245 97.543 68.541 97.175C67.6161 96.991 66.6865 96.8409 65.7568 96.715C65.0257 96.6182 64.1057 96.3616 63.4375 96.807C62.9049 97.1605 62.7886 97.8093 62.7644 98.4001C62.7257 99.4072 62.7644 100.424 62.7596 101.436C62.7596 103.431 62.7548 105.421 62.7499 107.416L63.4762 106.999C61.9607 106.249 60.3822 105.62 58.7601 105.15C57.9515 104.913 57.1283 104.714 56.3052 104.554C55.574 104.414 54.6589 104.138 53.9132 104.254C53.2305 104.356 52.9738 104.874 52.7947 105.474C52.5429 106.322 52.3202 107.179 52.1217 108.036C51.7101 109.798 51.4147 111.585 51.2114 113.386L51.9377 112.97C49.6474 111.26 47.207 109.677 44.5971 108.496C43.1252 107.827 41.4837 107.184 39.8374 107.232C38.0362 107.285 36.6223 108.394 36.1865 110.147C35.8089 111.682 36.0219 113.372 36.4383 114.877C36.6029 115.478 37.5375 115.221 37.3728 114.621L37.368 114.597Z" fill="#333D7B"/>
</svg>
