<svg width="188" height="167" viewBox="0 0 188 167" fill="none" xmlns="http://www.w3.org/2000/svg">
<g clip-path="url(#clip0_2580_4515)">
<path d="M139.765 112.977L73.0618 110.801C52.3236 110.125 40.1003 87.208 51.0549 69.5562L86.2854 12.7459C97.24 -4.90601 123.159 -4.06661 132.942 14.2698L164.415 73.2479C174.199 91.5843 160.504 113.653 139.774 112.977H139.765Z" fill="#858BB0"/>
<path d="M114.221 80.8107C112.18 78.3985 100.81 81.0797 99.8505 82.1636C98.8908 83.2474 101.778 90.8428 106.348 91.8044C110.919 92.7661 116.27 83.2148 114.229 80.8107H114.221Z" stroke="#333D7B" stroke-width="1.74" stroke-miterlimit="10"/>
<path d="M114.221 80.8107C114.221 80.8107 114.961 81.8946 114.668 83.011C114.375 84.1275 113.717 85.8552 113.717 85.8552C113.717 85.8552 112.505 84.5187 110.569 85.187C108.634 85.8471 101.607 88.0311 101.607 88.0311L99.8423 82.1716C99.8423 82.1716 103.291 80.1017 107.739 79.8409C112.188 79.5801 114.213 80.8188 114.213 80.8188L114.221 80.8107Z" fill="#333D7B"/>
<path d="M99.6959 75.7254C101.466 75.7254 102.9 73.7843 102.9 71.3898C102.9 68.9953 101.466 67.0543 99.6959 67.0543C97.9263 67.0543 96.4917 68.9953 96.4917 71.3898C96.4917 73.7843 97.9263 75.7254 99.6959 75.7254Z" fill="#333D7B"/>
<path d="M115.108 77.616C116.877 77.616 118.312 75.6749 118.312 73.2805C118.312 70.886 116.877 68.9449 115.108 68.9449C113.338 68.9449 111.903 70.886 111.903 73.2805C111.903 75.6749 113.338 77.616 115.108 77.616Z" fill="#333D7B"/>
<path d="M153.59 77.5143C175.683 113.421 158.106 134.771 158.106 134.771C158.106 134.771 140.581 155.636 131.909 159.941C130.614 160.581 129.075 160.448 127.898 159.605C126.903 158.884 125.837 157.832 125.636 156.487C125.564 156.026 124.963 155.856 124.656 156.209C122.939 158.158 121.773 160.89 120.274 159.26C119.034 157.912 124.242 152.096 127.563 148.655C128.945 147.218 130.452 145.914 132.059 144.737C139.728 139.126 166.674 116.133 147.025 82.4051" stroke="#333D7B" stroke-width="1.74" stroke-miterlimit="10" stroke-linecap="round"/>
</g>
<path d="M65.7445 77.2633C65.7445 77.2633 44.7767 101.479 30.3017 89.7731C15.8267 78.0668 7.04275 65.8327 5.14242 67.2607C3.78147 68.2887 5.53753 70.5775 6.64051 71.7891C6.93785 72.1127 6.79076 72.6461 6.36963 72.7567C5.08887 73.0944 3.12337 74.0826 3.29953 76.9944C3.56568 81.2679 26.5583 102.402 37.3738 104.041C48.1893 105.68 71.5503 82.005 71.5503 82.005" stroke="#333D7B" stroke-width="1.47" stroke-miterlimit="10" stroke-linecap="round"/>
<defs>
<clipPath id="clip0_2580_4515">
<rect width="157" height="167" fill="white" transform="translate(31)"/>
</clipPath>
</defs>
</svg>
