<svg width="428" height="184" viewBox="0 0 428 184" fill="none" xmlns="http://www.w3.org/2000/svg">
<path d="M184 92C184 142.81 142.81 184 92 184C41.1898 184 0 142.81 0 92C0 41.1898 41.1898 0 92 0C142.81 0 184 41.1898 184 92Z" fill="#F489AC" fill-opacity="0.12"/>
<path d="M43.1845 57.628C43.7259 57.404 44.2859 57.152 44.8645 56.872C45.4619 56.5733 46.0405 56.256 46.6005 55.92C47.1605 55.5653 47.6925 55.2013 48.1965 54.828C48.7192 54.436 49.1859 54.0253 49.5965 53.596H52.5085V73H48.3365V59.028C47.7765 59.4013 47.1512 59.7467 46.4605 60.064C45.7699 60.3627 45.0979 60.624 44.4445 60.848L43.1845 57.628ZM64.8106 63.872C64.3999 63.872 63.9613 63.9093 63.4946 63.984C63.0279 64.0587 62.6639 64.1613 62.4026 64.292C62.4026 64.3667 62.3933 64.4787 62.3746 64.628C62.3746 64.7773 62.3746 64.908 62.3746 65.02C62.3746 65.692 62.4213 66.3267 62.5146 66.924C62.6079 67.5213 62.7666 68.044 62.9906 68.492C63.2146 68.94 63.5133 69.2947 63.8866 69.556C64.2599 69.7987 64.7266 69.92 65.2866 69.92C65.7533 69.92 66.1453 69.8267 66.4626 69.64C66.7986 69.4347 67.0693 69.1827 67.2746 68.884C67.4986 68.5853 67.6573 68.2587 67.7506 67.904C67.8626 67.5307 67.9186 67.176 67.9186 66.84C67.9186 65.888 67.6759 65.16 67.1906 64.656C66.7239 64.1333 65.9306 63.872 64.8106 63.872ZM65.3426 60.624C66.5559 60.624 67.5826 60.792 68.4226 61.128C69.2813 61.4453 69.9813 61.884 70.5226 62.444C71.0639 63.004 71.4559 63.6573 71.6986 64.404C71.9413 65.1507 72.0626 65.944 72.0626 66.784C72.0626 67.5307 71.9226 68.296 71.6426 69.08C71.3813 69.864 70.9706 70.5733 70.4106 71.208C69.8693 71.8427 69.1693 72.3653 68.3106 72.776C67.4706 73.1867 66.4719 73.392 65.3146 73.392C62.9813 73.392 61.2079 72.6547 59.9946 71.18C58.7813 69.7053 58.1746 67.6707 58.1746 65.076C58.1746 63.2093 58.4639 61.5573 59.0426 60.12C59.6213 58.6827 60.4426 57.4787 61.5066 56.508C62.5893 55.5187 63.8866 54.772 65.3986 54.268C66.9293 53.7453 68.6466 53.4747 70.5506 53.456C70.5879 54.0347 70.6253 54.604 70.6626 55.164C70.6999 55.7053 70.7373 56.2747 70.7746 56.872C69.8226 56.8907 68.9266 56.984 68.0866 57.152C67.2653 57.3013 66.5093 57.544 65.8186 57.88C65.1466 58.216 64.5586 58.6547 64.0546 59.196C63.5506 59.7187 63.1586 60.3627 62.8786 61.128C63.2893 60.9413 63.7093 60.8107 64.1386 60.736C64.5679 60.6613 64.9693 60.624 65.3426 60.624ZM88.0047 63.256C88.0047 66.5227 87.3793 69.0333 86.1287 70.788C84.8967 72.524 83.1887 73.392 81.0047 73.392C78.8207 73.392 77.1033 72.524 75.8527 70.788C74.6207 69.0333 74.0047 66.5227 74.0047 63.256C74.0047 61.632 74.1633 60.1947 74.4807 58.944C74.8167 57.6933 75.2927 56.6387 75.9087 55.78C76.5247 54.9213 77.262 54.268 78.1207 53.82C78.9793 53.372 79.9407 53.148 81.0047 53.148C83.1887 53.148 84.8967 54.0253 86.1287 55.78C87.3793 57.516 88.0047 60.008 88.0047 63.256ZM83.7487 63.256C83.7487 62.2853 83.702 61.408 83.6087 60.624C83.5153 59.8213 83.366 59.1307 83.1607 58.552C82.9553 57.9733 82.6753 57.5253 82.3207 57.208C81.966 56.8907 81.5273 56.732 81.0047 56.732C80.482 56.732 80.0433 56.8907 79.6887 57.208C79.3527 57.5253 79.0727 57.9733 78.8487 58.552C78.6433 59.1307 78.494 59.8213 78.4007 60.624C78.3073 61.408 78.2607 62.2853 78.2607 63.256C78.2607 64.2267 78.3073 65.1133 78.4007 65.916C78.494 66.7187 78.6433 67.4093 78.8487 67.988C79.0727 68.5667 79.3527 69.0147 79.6887 69.332C80.0433 69.6493 80.482 69.808 81.0047 69.808C81.5273 69.808 81.966 69.6493 82.3207 69.332C82.6753 69.0147 82.9553 68.5667 83.1607 67.988C83.366 67.4093 83.5153 66.7187 83.6087 65.916C83.702 65.1133 83.7487 64.2267 83.7487 63.256ZM110.645 63.256C110.645 66.5227 110.02 69.0333 108.769 70.788C107.537 72.524 105.829 73.392 103.645 73.392C101.461 73.392 99.744 72.524 98.4933 70.788C97.2613 69.0333 96.6453 66.5227 96.6453 63.256C96.6453 61.632 96.804 60.1947 97.1213 58.944C97.4573 57.6933 97.9333 56.6387 98.5493 55.78C99.1653 54.9213 99.9026 54.268 100.761 53.82C101.62 53.372 102.581 53.148 103.645 53.148C105.829 53.148 107.537 54.0253 108.769 55.78C110.02 57.516 110.645 60.008 110.645 63.256ZM106.389 63.256C106.389 62.2853 106.343 61.408 106.249 60.624C106.156 59.8213 106.007 59.1307 105.801 58.552C105.596 57.9733 105.316 57.5253 104.961 57.208C104.607 56.8907 104.168 56.732 103.645 56.732C103.123 56.732 102.684 56.8907 102.329 57.208C101.993 57.5253 101.713 57.9733 101.489 58.552C101.284 59.1307 101.135 59.8213 101.041 60.624C100.948 61.408 100.901 62.2853 100.901 63.256C100.901 64.2267 100.948 65.1133 101.041 65.916C101.135 66.7187 101.284 67.4093 101.489 67.988C101.713 68.5667 101.993 69.0147 102.329 69.332C102.684 69.6493 103.123 69.808 103.645 69.808C104.168 69.808 104.607 69.6493 104.961 69.332C105.316 69.0147 105.596 68.5667 105.801 67.988C106.007 67.4093 106.156 66.7187 106.249 65.916C106.343 65.1133 106.389 64.2267 106.389 63.256ZM126.559 63.256C126.559 66.5227 125.934 69.0333 124.683 70.788C123.451 72.524 121.743 73.392 119.559 73.392C117.375 73.392 115.658 72.524 114.407 70.788C113.175 69.0333 112.559 66.5227 112.559 63.256C112.559 61.632 112.718 60.1947 113.035 58.944C113.371 57.6933 113.847 56.6387 114.463 55.78C115.079 54.9213 115.817 54.268 116.675 53.82C117.534 53.372 118.495 53.148 119.559 53.148C121.743 53.148 123.451 54.0253 124.683 55.78C125.934 57.516 126.559 60.008 126.559 63.256ZM122.303 63.256C122.303 62.2853 122.257 61.408 122.163 60.624C122.07 59.8213 121.921 59.1307 121.715 58.552C121.51 57.9733 121.23 57.5253 120.875 57.208C120.521 56.8907 120.082 56.732 119.559 56.732C119.037 56.732 118.598 56.8907 118.243 57.208C117.907 57.5253 117.627 57.9733 117.403 58.552C117.198 59.1307 117.049 59.8213 116.955 60.624C116.862 61.408 116.815 62.2853 116.815 63.256C116.815 64.2267 116.862 65.1133 116.955 65.916C117.049 66.7187 117.198 67.4093 117.403 67.988C117.627 68.5667 117.907 69.0147 118.243 69.332C118.598 69.6493 119.037 69.808 119.559 69.808C120.082 69.808 120.521 69.6493 120.875 69.332C121.23 69.0147 121.51 68.5667 121.715 67.988C121.921 67.4093 122.07 66.7187 122.163 65.916C122.257 65.1133 122.303 64.2267 122.303 63.256ZM142.473 63.256C142.473 66.5227 141.848 69.0333 140.597 70.788C139.365 72.524 137.657 73.392 135.473 73.392C133.289 73.392 131.572 72.524 130.321 70.788C129.089 69.0333 128.473 66.5227 128.473 63.256C128.473 61.632 128.632 60.1947 128.949 58.944C129.285 57.6933 129.761 56.6387 130.377 55.78C130.993 54.9213 131.731 54.268 132.589 53.82C133.448 53.372 134.409 53.148 135.473 53.148C137.657 53.148 139.365 54.0253 140.597 55.78C141.848 57.516 142.473 60.008 142.473 63.256ZM138.217 63.256C138.217 62.2853 138.171 61.408 138.077 60.624C137.984 59.8213 137.835 59.1307 137.629 58.552C137.424 57.9733 137.144 57.5253 136.789 57.208C136.435 56.8907 135.996 56.732 135.473 56.732C134.951 56.732 134.512 56.8907 134.157 57.208C133.821 57.5253 133.541 57.9733 133.317 58.552C133.112 59.1307 132.963 59.8213 132.869 60.624C132.776 61.408 132.729 62.2853 132.729 63.256C132.729 64.2267 132.776 65.1133 132.869 65.916C132.963 66.7187 133.112 67.4093 133.317 67.988C133.541 68.5667 133.821 69.0147 134.157 69.332C134.512 69.6493 134.951 69.808 135.473 69.808C135.996 69.808 136.435 69.6493 136.789 69.332C137.144 69.0147 137.424 68.5667 137.629 67.988C137.835 67.4093 137.984 66.7187 138.077 65.916C138.171 65.1133 138.217 64.2267 138.217 63.256Z" fill="#333D7B"/>
<path d="M31.1186 89V79.991H37.2026V81.694H33.1466V83.462H36.7476V85.126H33.1466V87.297H37.5016V89H31.1186ZM45.0474 89C44.4667 87.9687 43.8384 86.9503 43.1624 85.945C42.4864 84.9397 41.7671 83.9907 41.0044 83.098V89H39.0024V79.991H40.6534C40.9394 80.277 41.2557 80.628 41.6024 81.044C41.9491 81.46 42.3001 81.9063 42.6554 82.383C43.0194 82.851 43.3791 83.3407 43.7344 83.852C44.0897 84.3547 44.4234 84.84 44.7354 85.308V79.991H46.7504V89H45.0474ZM48.8286 89V79.991H54.8606V81.694H50.8566V83.579H54.4186V85.282H50.8566V89H48.8286ZM61.7033 89C61.608 88.688 61.4997 88.3673 61.3783 88.038C61.2657 87.7087 61.153 87.3793 61.0403 87.05H57.5303C57.4177 87.3793 57.3007 87.7087 57.1793 88.038C57.0667 88.3673 56.9627 88.688 56.8673 89H54.7613C55.0993 88.0293 55.42 87.1323 55.7233 86.309C56.0267 85.4857 56.3213 84.71 56.6073 83.982C56.902 83.254 57.188 82.565 57.4653 81.915C57.7513 81.2563 58.046 80.615 58.3493 79.991H60.2863C60.581 80.615 60.8713 81.2563 61.1573 81.915C61.4433 82.565 61.7293 83.254 62.0153 83.982C62.31 84.71 62.609 85.4857 62.9123 86.309C63.2157 87.1323 63.5363 88.0293 63.8743 89H61.7033ZM59.2723 82.032C59.229 82.162 59.164 82.3397 59.0773 82.565C58.9907 82.7903 58.891 83.0503 58.7783 83.345C58.6657 83.6397 58.54 83.9647 58.4013 84.32C58.2713 84.6753 58.137 85.048 57.9983 85.438H60.5593C60.4207 85.048 60.2863 84.6753 60.1563 84.32C60.0263 83.9647 59.9007 83.6397 59.7793 83.345C59.6667 83.0503 59.567 82.7903 59.4803 82.565C59.3937 82.3397 59.3243 82.162 59.2723 82.032ZM71.0855 89C70.5048 87.9687 69.8765 86.9503 69.2005 85.945C68.5245 84.9397 67.8052 83.9907 67.0425 83.098V89H65.0405V79.991H66.6915C66.9775 80.277 67.2938 80.628 67.6405 81.044C67.9872 81.46 68.3382 81.9063 68.6935 82.383C69.0575 82.851 69.4172 83.3407 69.7725 83.852C70.1278 84.3547 70.4615 84.84 70.7735 85.308V79.991H72.7885V89H71.0855ZM81.5487 79.991V81.72H78.8317V89H76.8037V81.72H74.0867V79.991H81.5487ZM85.309 87.453C85.595 87.453 85.829 87.4313 86.011 87.388C86.2017 87.336 86.3533 87.271 86.466 87.193C86.5787 87.1063 86.6567 87.0067 86.7 86.894C86.7433 86.7813 86.765 86.6557 86.765 86.517C86.765 86.2223 86.6263 85.9797 86.349 85.789C86.0717 85.5897 85.595 85.3773 84.919 85.152C84.6243 85.048 84.3297 84.931 84.035 84.801C83.7403 84.6623 83.476 84.4933 83.242 84.294C83.008 84.086 82.8173 83.839 82.67 83.553C82.5227 83.2583 82.449 82.903 82.449 82.487C82.449 82.071 82.527 81.6983 82.683 81.369C82.839 81.031 83.06 80.745 83.346 80.511C83.632 80.277 83.9787 80.0993 84.386 79.978C84.7933 79.848 85.2527 79.783 85.764 79.783C86.3707 79.783 86.895 79.848 87.337 79.978C87.779 80.108 88.143 80.251 88.429 80.407L87.844 82.006C87.5927 81.876 87.311 81.7633 86.999 81.668C86.6957 81.564 86.3273 81.512 85.894 81.512C85.4087 81.512 85.0577 81.5813 84.841 81.72C84.633 81.85 84.529 82.0537 84.529 82.331C84.529 82.4957 84.568 82.6343 84.646 82.747C84.724 82.8597 84.8323 82.9637 84.971 83.059C85.1183 83.1457 85.283 83.228 85.465 83.306C85.6557 83.3753 85.8637 83.449 86.089 83.527C86.557 83.7003 86.9643 83.8737 87.311 84.047C87.6577 84.2117 87.9437 84.4067 88.169 84.632C88.403 84.8573 88.5763 85.1217 88.689 85.425C88.8017 85.7283 88.858 86.0967 88.858 86.53C88.858 87.3707 88.5633 88.025 87.974 88.493C87.3847 88.9523 86.4963 89.182 85.309 89.182C84.9103 89.182 84.5507 89.156 84.23 89.104C83.9093 89.0607 83.6233 89.0043 83.372 88.935C83.1293 88.8657 82.917 88.792 82.735 88.714C82.5617 88.636 82.4143 88.5623 82.293 88.493L82.865 86.881C83.1337 87.0283 83.463 87.1627 83.853 87.284C84.2517 87.3967 84.737 87.453 85.309 87.453ZM96.2195 89C95.8641 88.246 95.5131 87.4617 95.1665 86.647C94.8198 85.8323 94.4905 85.0263 94.1785 84.229C93.8665 83.4317 93.5761 82.669 93.3075 81.941C93.0475 81.213 92.8221 80.563 92.6315 79.991H94.8675C95.0408 80.511 95.2271 81.0743 95.4265 81.681C95.6345 82.279 95.8425 82.877 96.0505 83.475C96.2671 84.073 96.4751 84.645 96.6745 85.191C96.8738 85.737 97.0601 86.2093 97.2335 86.608C97.3981 86.2093 97.5801 85.737 97.7795 85.191C97.9875 84.645 98.1955 84.073 98.4035 83.475C98.6201 82.877 98.8281 82.279 99.0275 81.681C99.2355 81.0743 99.4261 80.511 99.5995 79.991H101.757C101.558 80.563 101.328 81.213 101.068 81.941C100.808 82.669 100.522 83.4317 100.21 84.229C99.8985 85.0263 99.5691 85.8323 99.2225 86.647C98.8758 87.4617 98.5248 88.246 98.1695 89H96.2195ZM102.923 79.991H104.951V89H102.923V79.991ZM111.145 89.182C109.68 89.182 108.562 88.7747 107.791 87.96C107.028 87.1453 106.647 85.9883 106.647 84.489C106.647 83.7437 106.764 83.0807 106.998 82.5C107.232 81.9107 107.552 81.4167 107.96 81.018C108.367 80.6107 108.852 80.303 109.416 80.095C109.979 79.887 110.59 79.783 111.249 79.783C111.63 79.783 111.977 79.8133 112.289 79.874C112.601 79.926 112.874 79.991 113.108 80.069C113.342 80.1383 113.537 80.212 113.693 80.29C113.849 80.368 113.961 80.4287 114.031 80.472L113.446 82.11C113.168 81.9627 112.843 81.837 112.471 81.733C112.107 81.629 111.691 81.577 111.223 81.577C110.911 81.577 110.603 81.629 110.3 81.733C110.005 81.837 109.741 82.006 109.507 82.24C109.281 82.4653 109.099 82.76 108.961 83.124C108.822 83.488 108.753 83.93 108.753 84.45C108.753 84.866 108.796 85.256 108.883 85.62C108.978 85.9753 109.125 86.283 109.325 86.543C109.533 86.803 109.801 87.011 110.131 87.167C110.46 87.3143 110.859 87.388 111.327 87.388C111.621 87.388 111.886 87.3707 112.12 87.336C112.354 87.3013 112.562 87.2623 112.744 87.219C112.926 87.167 113.086 87.1107 113.225 87.05C113.363 86.9893 113.489 86.933 113.602 86.881L114.161 88.506C113.875 88.6793 113.472 88.8353 112.952 88.974C112.432 89.1127 111.829 89.182 111.145 89.182ZM122.428 79.991V81.72H119.711V89H117.683V81.72H114.966V79.991H122.428ZM123.731 79.991H125.759V89H123.731V79.991ZM130.236 79.991C130.392 80.277 130.57 80.6323 130.769 81.057C130.977 81.473 131.19 81.928 131.406 82.422C131.632 82.9073 131.853 83.4057 132.069 83.917C132.286 84.4283 132.49 84.9093 132.68 85.36C132.871 84.9093 133.075 84.4283 133.291 83.917C133.508 83.4057 133.725 82.9073 133.941 82.422C134.167 81.928 134.379 81.473 134.578 81.057C134.786 80.6323 134.968 80.277 135.124 79.991H136.97C137.057 80.589 137.135 81.2607 137.204 82.006C137.282 82.7427 137.347 83.514 137.399 84.32C137.46 85.1173 137.512 85.919 137.555 86.725C137.607 87.531 137.651 88.2893 137.685 89H135.709C135.683 88.1247 135.649 87.1713 135.605 86.14C135.562 85.1087 135.497 84.0687 135.41 83.02C135.254 83.384 135.081 83.787 134.89 84.229C134.7 84.671 134.509 85.113 134.318 85.555C134.136 85.997 133.959 86.4217 133.785 86.829C133.612 87.2277 133.465 87.57 133.343 87.856H131.926C131.805 87.57 131.658 87.2277 131.484 86.829C131.311 86.4217 131.129 85.997 130.938 85.555C130.756 85.113 130.57 84.671 130.379 84.229C130.189 83.787 130.015 83.384 129.859 83.02C129.773 84.0687 129.708 85.1087 129.664 86.14C129.621 87.1713 129.586 88.1247 129.56 89H127.584C127.619 88.2893 127.658 87.531 127.701 86.725C127.753 85.919 127.805 85.1173 127.857 84.32C127.918 83.514 127.983 82.7427 128.052 82.006C128.13 81.2607 128.213 80.589 128.299 79.991H130.236ZM139.511 89V79.991H145.595V81.694H141.539V83.462H145.14V85.126H141.539V87.297H145.894V89H139.511ZM149.852 87.453C150.138 87.453 150.372 87.4313 150.554 87.388C150.745 87.336 150.896 87.271 151.009 87.193C151.122 87.1063 151.2 87.0067 151.243 86.894C151.286 86.7813 151.308 86.6557 151.308 86.517C151.308 86.2223 151.169 85.9797 150.892 85.789C150.615 85.5897 150.138 85.3773 149.462 85.152C149.167 85.048 148.873 84.931 148.578 84.801C148.283 84.6623 148.019 84.4933 147.785 84.294C147.551 84.086 147.36 83.839 147.213 83.553C147.066 83.2583 146.992 82.903 146.992 82.487C146.992 82.071 147.07 81.6983 147.226 81.369C147.382 81.031 147.603 80.745 147.889 80.511C148.175 80.277 148.522 80.0993 148.929 79.978C149.336 79.848 149.796 79.783 150.307 79.783C150.914 79.783 151.438 79.848 151.88 79.978C152.322 80.108 152.686 80.251 152.972 80.407L152.387 82.006C152.136 81.876 151.854 81.7633 151.542 81.668C151.239 81.564 150.87 81.512 150.437 81.512C149.952 81.512 149.601 81.5813 149.384 81.72C149.176 81.85 149.072 82.0537 149.072 82.331C149.072 82.4957 149.111 82.6343 149.189 82.747C149.267 82.8597 149.375 82.9637 149.514 83.059C149.661 83.1457 149.826 83.228 150.008 83.306C150.199 83.3753 150.407 83.449 150.632 83.527C151.1 83.7003 151.507 83.8737 151.854 84.047C152.201 84.2117 152.487 84.4067 152.712 84.632C152.946 84.8573 153.119 85.1217 153.232 85.425C153.345 85.7283 153.401 86.0967 153.401 86.53C153.401 87.3707 153.106 88.025 152.517 88.493C151.928 88.9523 151.039 89.182 149.852 89.182C149.453 89.182 149.094 89.156 148.773 89.104C148.452 89.0607 148.166 89.0043 147.915 88.935C147.672 88.8657 147.46 88.792 147.278 88.714C147.105 88.636 146.957 88.5623 146.836 88.493L147.408 86.881C147.677 87.0283 148.006 87.1627 148.396 87.284C148.795 87.3967 149.28 87.453 149.852 87.453ZM48.4318 102.349C48.5271 102.358 48.6354 102.366 48.7568 102.375C48.8868 102.375 49.0384 102.375 49.2118 102.375C50.2258 102.375 50.9754 102.119 51.4608 101.608C51.9548 101.097 52.2018 100.39 52.2018 99.489C52.2018 98.5443 51.9678 97.8293 51.4998 97.344C51.0318 96.8587 50.2908 96.616 49.2768 96.616C49.1381 96.616 48.9951 96.6203 48.8478 96.629C48.7004 96.629 48.5618 96.6377 48.4318 96.655V102.349ZM54.2948 99.489C54.2948 100.269 54.1734 100.949 53.9308 101.53C53.6881 102.111 53.3414 102.592 52.8908 102.973C52.4488 103.354 51.9071 103.64 51.2658 103.831C50.6244 104.022 49.9051 104.117 49.1078 104.117C48.7438 104.117 48.3191 104.1 47.8338 104.065C47.3484 104.039 46.8718 103.978 46.4038 103.883V95.108C46.8718 95.0213 47.3571 94.965 47.8598 94.939C48.3711 94.9043 48.8088 94.887 49.1728 94.887C49.9441 94.887 50.6418 94.9737 51.2658 95.147C51.8984 95.3203 52.4401 95.5933 52.8908 95.966C53.3414 96.3387 53.6881 96.8153 53.9308 97.396C54.1734 97.9767 54.2948 98.6743 54.2948 99.489ZM55.9887 104V94.991H62.0727V96.694H58.0167V98.462H61.6177V100.126H58.0167V102.297H62.3717V104H55.9887ZM69.6736 104C69.3182 103.246 68.9672 102.462 68.6206 101.647C68.2739 100.832 67.9446 100.026 67.6326 99.229C67.3206 98.4317 67.0302 97.669 66.7616 96.941C66.5016 96.213 66.2762 95.563 66.0856 94.991H68.3216C68.4949 95.511 68.6812 96.0743 68.8806 96.681C69.0886 97.279 69.2966 97.877 69.5046 98.475C69.7212 99.073 69.9292 99.645 70.1286 100.191C70.3279 100.737 70.5142 101.209 70.6876 101.608C70.8522 101.209 71.0342 100.737 71.2336 100.191C71.4416 99.645 71.6496 99.073 71.8576 98.475C72.0742 97.877 72.2822 97.279 72.4816 96.681C72.6896 96.0743 72.8802 95.511 73.0536 94.991H75.2116C75.0122 95.563 74.7826 96.213 74.5226 96.941C74.2626 97.669 73.9766 98.4317 73.6646 99.229C73.3526 100.026 73.0232 100.832 72.6766 101.647C72.3299 102.462 71.9789 103.246 71.6236 104H69.6736ZM76.3774 94.991H78.4054V104H76.3774V94.991ZM82.1937 99.489C82.1937 99.931 82.2457 100.33 82.3497 100.685C82.4624 101.04 82.6184 101.348 82.8177 101.608C83.0257 101.859 83.277 102.054 83.5717 102.193C83.8664 102.332 84.2044 102.401 84.5857 102.401C84.9584 102.401 85.292 102.332 85.5867 102.193C85.89 102.054 86.1414 101.859 86.3407 101.608C86.5487 101.348 86.7047 101.04 86.8087 100.685C86.9214 100.33 86.9777 99.931 86.9777 99.489C86.9777 99.047 86.9214 98.6483 86.8087 98.293C86.7047 97.929 86.5487 97.6213 86.3407 97.37C86.1414 97.11 85.89 96.9107 85.5867 96.772C85.292 96.6333 84.9584 96.564 84.5857 96.564C84.2044 96.564 83.8664 96.6377 83.5717 96.785C83.277 96.9237 83.0257 97.123 82.8177 97.383C82.6184 97.6343 82.4624 97.942 82.3497 98.306C82.2457 98.6613 82.1937 99.0557 82.1937 99.489ZM89.0707 99.489C89.0707 100.26 88.9537 100.941 88.7197 101.53C88.4944 102.111 88.1824 102.6 87.7837 102.999C87.385 103.389 86.9084 103.684 86.3537 103.883C85.8077 104.082 85.2184 104.182 84.5857 104.182C83.9704 104.182 83.3897 104.082 82.8437 103.883C82.2977 103.684 81.821 103.389 81.4137 102.999C81.0064 102.6 80.6857 102.111 80.4517 101.53C80.2177 100.941 80.1007 100.26 80.1007 99.489C80.1007 98.7177 80.222 98.0417 80.4647 97.461C80.7074 96.8717 81.0324 96.3777 81.4397 95.979C81.8557 95.5803 82.3324 95.2813 82.8697 95.082C83.4157 94.8827 83.9877 94.783 84.5857 94.783C85.201 94.783 85.7817 94.8827 86.3277 95.082C86.8737 95.2813 87.3504 95.5803 87.7577 95.979C88.165 96.3777 88.4857 96.8717 88.7197 97.461C88.9537 98.0417 89.0707 98.7177 89.0707 99.489ZM96.7802 102.258V104H90.7612V94.991H92.7892V102.258H96.7802ZM98.0864 104V94.991H104.17V96.694H100.114V98.462H103.715V100.126H100.114V102.297H104.469V104H98.0864ZM112.015 104C111.435 102.969 110.806 101.95 110.13 100.945C109.454 99.9397 108.735 98.9907 107.972 98.098V104H105.97V94.991H107.621C107.907 95.277 108.224 95.628 108.57 96.044C108.917 96.46 109.268 96.9063 109.623 97.383C109.987 97.851 110.347 98.3407 110.702 98.852C111.058 99.3547 111.391 99.84 111.703 100.308V94.991H113.718V104H112.015ZM119.904 104.182C118.44 104.182 117.322 103.775 116.55 102.96C115.788 102.145 115.406 100.988 115.406 99.489C115.406 98.7437 115.523 98.0807 115.757 97.5C115.991 96.9107 116.312 96.4167 116.719 96.018C117.127 95.6107 117.612 95.303 118.175 95.095C118.739 94.887 119.35 94.783 120.008 94.783C120.39 94.783 120.736 94.8133 121.048 94.874C121.36 94.926 121.633 94.991 121.867 95.069C122.101 95.1383 122.296 95.212 122.452 95.29C122.608 95.368 122.721 95.4287 122.79 95.472L122.205 97.11C121.928 96.9627 121.603 96.837 121.23 96.733C120.866 96.629 120.45 96.577 119.982 96.577C119.67 96.577 119.363 96.629 119.059 96.733C118.765 96.837 118.5 97.006 118.266 97.24C118.041 97.4653 117.859 97.76 117.72 98.124C117.582 98.488 117.512 98.93 117.512 99.45C117.512 99.866 117.556 100.256 117.642 100.62C117.738 100.975 117.885 101.283 118.084 101.543C118.292 101.803 118.561 102.011 118.89 102.167C119.22 102.314 119.618 102.388 120.086 102.388C120.381 102.388 120.645 102.371 120.879 102.336C121.113 102.301 121.321 102.262 121.503 102.219C121.685 102.167 121.846 102.111 121.984 102.05C122.123 101.989 122.249 101.933 122.361 101.881L122.92 103.506C122.634 103.679 122.231 103.835 121.711 103.974C121.191 104.113 120.589 104.182 119.904 104.182ZM124.226 104V94.991H130.31V96.694H126.254V98.462H129.855V100.126H126.254V102.297H130.609V104H124.226ZM134.567 102.453C134.853 102.453 135.087 102.431 135.269 102.388C135.459 102.336 135.611 102.271 135.724 102.193C135.836 102.106 135.914 102.007 135.958 101.894C136.001 101.781 136.023 101.656 136.023 101.517C136.023 101.222 135.884 100.98 135.607 100.789C135.329 100.59 134.853 100.377 134.177 100.152C133.882 100.048 133.587 99.931 133.293 99.801C132.998 99.6623 132.734 99.4933 132.5 99.294C132.266 99.086 132.075 98.839 131.928 98.553C131.78 98.2583 131.707 97.903 131.707 97.487C131.707 97.071 131.785 96.6983 131.941 96.369C132.097 96.031 132.318 95.745 132.604 95.511C132.89 95.277 133.236 95.0993 133.644 94.978C134.051 94.848 134.51 94.783 135.022 94.783C135.628 94.783 136.153 94.848 136.595 94.978C137.037 95.108 137.401 95.251 137.687 95.407L137.102 97.006C136.85 96.876 136.569 96.7633 136.257 96.668C135.953 96.564 135.585 96.512 135.152 96.512C134.666 96.512 134.315 96.5813 134.099 96.72C133.891 96.85 133.787 97.0537 133.787 97.331C133.787 97.4957 133.826 97.6343 133.904 97.747C133.982 97.8597 134.09 97.9637 134.229 98.059C134.376 98.1457 134.541 98.228 134.723 98.306C134.913 98.3753 135.121 98.449 135.347 98.527C135.815 98.7003 136.222 98.8737 136.569 99.047C136.915 99.2117 137.201 99.4067 137.427 99.632C137.661 99.8573 137.834 100.122 137.947 100.425C138.059 100.728 138.116 101.097 138.116 101.53C138.116 102.371 137.821 103.025 137.232 103.493C136.642 103.952 135.754 104.182 134.567 104.182C134.168 104.182 133.808 104.156 133.488 104.104C133.167 104.061 132.881 104.004 132.63 103.935C132.387 103.866 132.175 103.792 131.993 103.714C131.819 103.636 131.672 103.562 131.551 103.493L132.123 101.881C132.391 102.028 132.721 102.163 133.111 102.284C133.509 102.397 133.995 102.453 134.567 102.453ZM56.6366 117.453C56.9226 117.453 57.1566 117.431 57.3386 117.388C57.5293 117.336 57.681 117.271 57.7936 117.193C57.9063 117.106 57.9843 117.007 58.0276 116.894C58.071 116.781 58.0926 116.656 58.0926 116.517C58.0926 116.222 57.954 115.98 57.6766 115.789C57.3993 115.59 56.9226 115.377 56.2466 115.152C55.952 115.048 55.6573 114.931 55.3626 114.801C55.068 114.662 54.8036 114.493 54.5696 114.294C54.3356 114.086 54.145 113.839 53.9976 113.553C53.8503 113.258 53.7766 112.903 53.7766 112.487C53.7766 112.071 53.8546 111.698 54.0106 111.369C54.1666 111.031 54.3876 110.745 54.6736 110.511C54.9596 110.277 55.3063 110.099 55.7136 109.978C56.121 109.848 56.5803 109.783 57.0916 109.783C57.6983 109.783 58.2226 109.848 58.6646 109.978C59.1066 110.108 59.4706 110.251 59.7566 110.407L59.1716 112.006C58.9203 111.876 58.6386 111.763 58.3266 111.668C58.0233 111.564 57.655 111.512 57.2216 111.512C56.7363 111.512 56.3853 111.581 56.1686 111.72C55.9606 111.85 55.8566 112.054 55.8566 112.331C55.8566 112.496 55.8956 112.634 55.9736 112.747C56.0516 112.86 56.16 112.964 56.2986 113.059C56.446 113.146 56.6106 113.228 56.7926 113.306C56.9833 113.375 57.1913 113.449 57.4166 113.527C57.8846 113.7 58.292 113.874 58.6386 114.047C58.9853 114.212 59.2713 114.407 59.4966 114.632C59.7306 114.857 59.904 115.122 60.0166 115.425C60.1293 115.728 60.1856 116.097 60.1856 116.53C60.1856 117.371 59.891 118.025 59.3016 118.493C58.7123 118.952 57.824 119.182 56.6366 119.182C56.238 119.182 55.8783 119.156 55.5576 119.104C55.237 119.061 54.951 119.004 54.6996 118.935C54.457 118.866 54.2446 118.792 54.0626 118.714C53.8893 118.636 53.742 118.562 53.6206 118.493L54.1926 116.881C54.4613 117.028 54.7906 117.163 55.1806 117.284C55.5793 117.397 56.0646 117.453 56.6366 117.453ZM61.7461 119V109.991H67.8301V111.694H63.7741V113.462H67.3751V115.126H63.7741V117.297H68.1291V119H61.7461ZM75.0578 119C74.8064 118.497 74.5291 117.99 74.2258 117.479C73.9311 116.959 73.5888 116.43 73.1988 115.893C73.0774 116.049 72.9214 116.266 72.7308 116.543C72.5488 116.82 72.3624 117.115 72.1718 117.427C71.9898 117.739 71.8164 118.038 71.6518 118.324C71.4871 118.61 71.3658 118.835 71.2878 119H68.9738C69.3551 118.298 69.7971 117.561 70.2998 116.79C70.8111 116.019 71.3788 115.2 72.0028 114.333L69.1038 109.991H71.5608L73.3158 112.799L75.0318 109.991H77.3458L74.4858 114.359C75.2138 115.304 75.8248 116.179 76.3188 116.985C76.8128 117.782 77.2028 118.454 77.4888 119H75.0578ZM82.1792 119.182C81.5465 119.182 81.0005 119.095 80.5412 118.922C80.0819 118.74 79.7005 118.493 79.3972 118.181C79.1025 117.86 78.8815 117.483 78.7342 117.05C78.5955 116.608 78.5262 116.123 78.5262 115.594V109.991H80.5542V115.425C80.5542 115.789 80.5932 116.101 80.6712 116.361C80.7579 116.612 80.8705 116.82 81.0092 116.985C81.1565 117.141 81.3299 117.254 81.5292 117.323C81.7372 117.392 81.9625 117.427 82.2052 117.427C82.6992 117.427 83.0979 117.275 83.4012 116.972C83.7132 116.669 83.8692 116.153 83.8692 115.425V109.991H85.8972V115.594C85.8972 116.123 85.8235 116.608 85.6762 117.05C85.5289 117.492 85.3035 117.873 85.0002 118.194C84.6969 118.506 84.3112 118.749 83.8432 118.922C83.3752 119.095 82.8205 119.182 82.1792 119.182ZM87.8476 119V109.991H93.9316V111.694H89.8756V113.462H93.4766V115.126H89.8756V117.297H94.2306V119H87.8476ZM101.75 117.258V119H95.7314V109.991H97.7594V117.258H101.75ZM109.076 117.258V119H103.057V109.991H105.085V117.258H109.076ZM110.382 119V109.991H116.466V111.694H112.41V113.462H116.011V115.126H112.41V117.297H116.765V119H110.382ZM120.723 117.453C121.009 117.453 121.243 117.431 121.425 117.388C121.615 117.336 121.767 117.271 121.88 117.193C121.992 117.106 122.07 117.007 122.114 116.894C122.157 116.781 122.179 116.656 122.179 116.517C122.179 116.222 122.04 115.98 121.763 115.789C121.485 115.59 121.009 115.377 120.333 115.152C120.038 115.048 119.743 114.931 119.449 114.801C119.154 114.662 118.89 114.493 118.656 114.294C118.422 114.086 118.231 113.839 118.084 113.553C117.936 113.258 117.863 112.903 117.863 112.487C117.863 112.071 117.941 111.698 118.097 111.369C118.253 111.031 118.474 110.745 118.76 110.511C119.046 110.277 119.392 110.099 119.8 109.978C120.207 109.848 120.666 109.783 121.178 109.783C121.784 109.783 122.309 109.848 122.751 109.978C123.193 110.108 123.557 110.251 123.843 110.407L123.258 112.006C123.006 111.876 122.725 111.763 122.413 111.668C122.109 111.564 121.741 111.512 121.308 111.512C120.822 111.512 120.471 111.581 120.255 111.72C120.047 111.85 119.943 112.054 119.943 112.331C119.943 112.496 119.982 112.634 120.06 112.747C120.138 112.86 120.246 112.964 120.385 113.059C120.532 113.146 120.697 113.228 120.879 113.306C121.069 113.375 121.277 113.449 121.503 113.527C121.971 113.7 122.378 113.874 122.725 114.047C123.071 114.212 123.357 114.407 123.583 114.632C123.817 114.857 123.99 115.122 124.103 115.425C124.215 115.728 124.272 116.097 124.272 116.53C124.272 117.371 123.977 118.025 123.388 118.493C122.798 118.952 121.91 119.182 120.723 119.182C120.324 119.182 119.964 119.156 119.644 119.104C119.323 119.061 119.037 119.004 118.786 118.935C118.543 118.866 118.331 118.792 118.149 118.714C117.975 118.636 117.828 118.562 117.707 118.493L118.279 116.881C118.547 117.028 118.877 117.163 119.267 117.284C119.665 117.397 120.151 117.453 120.723 117.453ZM128.014 112.032C128.101 111.954 128.209 111.872 128.339 111.785C128.469 111.69 128.599 111.599 128.729 111.512C128.868 111.417 129.006 111.334 129.145 111.265C129.284 111.187 129.405 111.131 129.509 111.096L129.821 110.992L130.341 112.604L130.029 112.708C129.916 112.743 129.786 112.769 129.639 112.786C129.492 112.803 129.336 112.816 129.171 112.825C129.006 112.825 128.846 112.825 128.69 112.825C128.534 112.825 128.395 112.825 128.274 112.825C128.378 112.894 128.491 112.977 128.612 113.072C128.742 113.159 128.868 113.254 128.989 113.358C129.119 113.453 129.24 113.553 129.353 113.657C129.466 113.761 129.557 113.861 129.626 113.956L129.834 114.229L128.456 115.204L128.261 114.944C128.192 114.857 128.122 114.745 128.053 114.606C127.992 114.467 127.932 114.324 127.871 114.177C127.81 114.021 127.758 113.869 127.715 113.722C127.672 113.575 127.633 113.44 127.598 113.319C127.563 113.44 127.524 113.575 127.481 113.722C127.438 113.869 127.386 114.021 127.325 114.177C127.264 114.324 127.199 114.467 127.13 114.606C127.069 114.745 127.004 114.857 126.935 114.944L126.74 115.204L125.362 114.229L125.57 113.956C125.639 113.861 125.73 113.761 125.843 113.657C125.956 113.553 126.073 113.453 126.194 113.358C126.324 113.254 126.45 113.159 126.571 113.072C126.701 112.977 126.818 112.894 126.922 112.825C126.801 112.825 126.662 112.825 126.506 112.825C126.35 112.825 126.19 112.825 126.025 112.825C125.86 112.816 125.704 112.803 125.557 112.786C125.41 112.769 125.28 112.743 125.167 112.708L124.855 112.604L125.375 110.992L125.687 111.096C125.791 111.131 125.912 111.187 126.051 111.265C126.19 111.334 126.324 111.417 126.454 111.512C126.593 111.599 126.723 111.69 126.844 111.785C126.974 111.872 127.087 111.954 127.182 112.032C127.139 111.919 127.091 111.789 127.039 111.642C126.996 111.486 126.952 111.33 126.909 111.174C126.866 111.018 126.827 110.866 126.792 110.719C126.766 110.563 126.753 110.429 126.753 110.316V109.991H128.443V110.316C128.443 110.429 128.426 110.563 128.391 110.719C128.365 110.866 128.33 111.018 128.287 111.174C128.244 111.33 128.196 111.486 128.144 111.642C128.101 111.789 128.057 111.919 128.014 112.032Z" fill="#333D7B"/>
<path d="M50.1433 130.52C50.1433 130.744 50.1219 130.96 50.0793 131.168C50.0419 131.371 50.0019 131.581 49.9593 131.8C50.1513 131.693 50.3406 131.589 50.5273 131.488C50.7139 131.387 50.9166 131.299 51.1353 131.224L51.1833 131.208L51.4073 131.88L51.3433 131.904C51.1299 131.984 50.9166 132.037 50.7033 132.064C50.4899 132.085 50.2713 132.104 50.0473 132.12C50.2233 132.269 50.3886 132.416 50.5433 132.56C50.6979 132.699 50.8419 132.861 50.9753 133.048L51.0153 133.104L50.4313 133.512L50.3993 133.464C50.2713 133.272 50.1593 133.083 50.0633 132.896C49.9726 132.704 49.8793 132.507 49.7833 132.304C49.6873 132.507 49.5913 132.704 49.4953 132.896C49.4046 133.083 49.2953 133.272 49.1673 133.464L49.1353 133.512L48.5513 133.104L48.5913 133.048C48.7246 132.861 48.8686 132.699 49.0233 132.56C49.1779 132.416 49.3433 132.269 49.5193 132.12C49.2953 132.104 49.0766 132.085 48.8633 132.064C48.6499 132.037 48.4366 131.984 48.2233 131.904L48.1593 131.88L48.3833 131.208L48.4313 131.224C48.6499 131.299 48.8526 131.387 49.0393 131.488C49.2259 131.589 49.4153 131.693 49.6073 131.8C49.5646 131.581 49.5219 131.371 49.4793 131.168C49.4419 130.96 49.4233 130.744 49.4233 130.52V130.456H50.1433V130.52ZM54.155 136.096C53.819 136.096 53.523 136.043 53.267 135.936C53.0164 135.829 52.803 135.68 52.627 135.488C52.4564 135.296 52.3284 135.069 52.243 134.808C52.1577 134.541 52.115 134.248 52.115 133.928C52.115 133.608 52.1604 133.315 52.251 133.048C52.347 132.781 52.4804 132.552 52.651 132.36C52.8217 132.163 53.0297 132.011 53.275 131.904C53.5257 131.792 53.803 131.736 54.107 131.736C54.2937 131.736 54.4804 131.752 54.667 131.784C54.8537 131.816 55.0324 131.867 55.203 131.936L55.035 132.568C54.923 132.515 54.7924 132.472 54.643 132.44C54.499 132.408 54.3444 132.392 54.179 132.392C53.763 132.392 53.443 132.523 53.219 132.784C53.0004 133.045 52.891 133.427 52.891 133.928C52.891 134.152 52.915 134.357 52.963 134.544C53.0164 134.731 53.0964 134.891 53.203 135.024C53.315 135.157 53.4564 135.261 53.627 135.336C53.7977 135.405 54.0057 135.44 54.251 135.44C54.4484 135.44 54.627 135.421 54.787 135.384C54.947 135.347 55.0724 135.307 55.163 135.264L55.267 135.888C55.2244 135.915 55.163 135.941 55.083 135.968C55.003 135.989 54.9124 136.008 54.811 136.024C54.7097 136.045 54.6004 136.061 54.483 136.072C54.371 136.088 54.2617 136.096 54.155 136.096ZM56.0658 136V129.92L56.8098 129.792V131.92C56.9484 131.867 57.0951 131.827 57.2498 131.8C57.4098 131.768 57.5671 131.752 57.7218 131.752C58.0524 131.752 58.3271 131.8 58.5458 131.896C58.7644 131.987 58.9378 132.117 59.0658 132.288C59.1991 132.453 59.2924 132.653 59.3458 132.888C59.3991 133.123 59.4258 133.381 59.4258 133.664V136H58.6818V133.824C58.6818 133.568 58.6631 133.349 58.6258 133.168C58.5938 132.987 58.5378 132.84 58.4578 132.728C58.3778 132.616 58.2711 132.536 58.1378 132.488C58.0044 132.435 57.8391 132.408 57.6418 132.408C57.5618 132.408 57.4791 132.413 57.3938 132.424C57.3084 132.435 57.2258 132.448 57.1458 132.464C57.0711 132.475 57.0018 132.488 56.9378 132.504C56.8791 132.52 56.8364 132.533 56.8098 132.544V136H56.0658ZM62.0441 135.464C62.2201 135.464 62.3748 135.461 62.5081 135.456C62.6468 135.445 62.7614 135.429 62.8521 135.408V134.168C62.7988 134.141 62.7108 134.12 62.5881 134.104C62.4708 134.083 62.3268 134.072 62.1561 134.072C62.0441 134.072 61.9241 134.08 61.7961 134.096C61.6734 134.112 61.5588 134.147 61.4521 134.2C61.3508 134.248 61.2654 134.317 61.1961 134.408C61.1268 134.493 61.0921 134.608 61.0921 134.752C61.0921 135.019 61.1774 135.205 61.3481 135.312C61.5188 135.413 61.7508 135.464 62.0441 135.464ZM61.9801 131.736C62.2788 131.736 62.5294 131.776 62.7321 131.856C62.9401 131.931 63.1054 132.04 63.2281 132.184C63.3561 132.323 63.4468 132.491 63.5001 132.688C63.5534 132.88 63.5801 133.093 63.5801 133.328V135.928C63.5161 135.939 63.4254 135.955 63.3081 135.976C63.1961 135.992 63.0681 136.008 62.9241 136.024C62.7801 136.04 62.6228 136.053 62.4521 136.064C62.2868 136.08 62.1214 136.088 61.9561 136.088C61.7214 136.088 61.5054 136.064 61.3081 136.016C61.1108 135.968 60.9401 135.893 60.7961 135.792C60.6521 135.685 60.5401 135.547 60.4601 135.376C60.3801 135.205 60.3401 135 60.3401 134.76C60.3401 134.531 60.3854 134.333 60.4761 134.168C60.5721 134.003 60.7001 133.869 60.8601 133.768C61.0201 133.667 61.2068 133.592 61.4201 133.544C61.6334 133.496 61.8574 133.472 62.0921 133.472C62.1668 133.472 62.2441 133.477 62.3241 133.488C62.4041 133.493 62.4788 133.504 62.5481 133.52C62.6228 133.531 62.6868 133.541 62.7401 133.552C62.7934 133.563 62.8308 133.571 62.8521 133.576V133.368C62.8521 133.245 62.8388 133.125 62.8121 133.008C62.7854 132.885 62.7374 132.779 62.6681 132.688C62.5988 132.592 62.5028 132.517 62.3801 132.464C62.2628 132.405 62.1081 132.376 61.9161 132.376C61.6708 132.376 61.4548 132.395 61.2681 132.432C61.0868 132.464 60.9508 132.499 60.8601 132.536L60.7721 131.92C60.8681 131.877 61.0281 131.837 61.2521 131.8C61.4761 131.757 61.7188 131.736 61.9801 131.736ZM65.3598 133.928C65.3598 134.141 65.3811 134.341 65.4238 134.528C65.4664 134.709 65.5358 134.869 65.6318 135.008C65.7278 135.141 65.8504 135.248 65.9998 135.328C66.1544 135.403 66.3384 135.44 66.5518 135.44C66.7544 135.44 66.9411 135.405 67.1118 135.336C67.2824 135.267 67.4131 135.195 67.5038 135.12V132.496C67.4291 132.475 67.3278 132.456 67.1998 132.44C67.0771 132.424 66.9038 132.416 66.6798 132.416C66.2798 132.416 65.9598 132.547 65.7198 132.808C65.4798 133.069 65.3598 133.443 65.3598 133.928ZM64.5838 133.928C64.5838 133.592 64.6318 133.291 64.7278 133.024C64.8291 132.752 64.9704 132.523 65.1518 132.336C65.3331 132.149 65.5518 132.005 65.8078 131.904C66.0638 131.803 66.3518 131.752 66.6718 131.752C67.0184 131.752 67.3224 131.779 67.5838 131.832C67.8504 131.88 68.0718 131.925 68.2478 131.968V137.48H67.5038V135.816C67.4131 135.875 67.2744 135.936 67.0878 136C66.9064 136.064 66.6958 136.096 66.4558 136.096C66.1571 136.096 65.8904 136.043 65.6558 135.936C65.4264 135.829 65.2318 135.68 65.0718 135.488C64.9118 135.296 64.7891 135.067 64.7038 134.8C64.6238 134.533 64.5838 134.243 64.5838 133.928ZM72.8387 135.88C72.6681 135.923 72.4414 135.968 72.1587 136.016C71.8814 136.064 71.5587 136.088 71.1907 136.088C70.8707 136.088 70.6014 136.043 70.3827 135.952C70.1641 135.856 69.9881 135.723 69.8547 135.552C69.7214 135.381 69.6254 135.181 69.5667 134.952C69.5081 134.717 69.4787 134.459 69.4787 134.176V131.84H70.2227V134.016C70.2227 134.523 70.3027 134.885 70.4627 135.104C70.6227 135.323 70.8921 135.432 71.2707 135.432C71.3507 135.432 71.4334 135.429 71.5187 135.424C71.6041 135.419 71.6841 135.413 71.7587 135.408C71.8334 135.397 71.9001 135.389 71.9587 135.384C72.0227 135.373 72.0681 135.363 72.0947 135.352V131.84H72.8387V135.88ZM73.8885 133.928C73.8885 133.56 73.9418 133.24 74.0485 132.968C74.1551 132.691 74.2965 132.461 74.4725 132.28C74.6485 132.099 74.8511 131.963 75.0805 131.872C75.3098 131.781 75.5445 131.736 75.7845 131.736C76.3445 131.736 76.7738 131.912 77.0725 132.264C77.3711 132.611 77.5205 133.141 77.5205 133.856C77.5205 133.888 77.5205 133.931 77.5205 133.984C77.5205 134.032 77.5178 134.077 77.5125 134.12H74.6645C74.6965 134.552 74.8218 134.88 75.0405 135.104C75.2591 135.328 75.6005 135.44 76.0645 135.44C76.3258 135.44 76.5445 135.419 76.7205 135.376C76.9018 135.328 77.0378 135.283 77.1285 135.24L77.2325 135.864C77.1418 135.912 76.9818 135.963 76.7525 136.016C76.5285 136.069 76.2725 136.096 75.9845 136.096C75.6218 136.096 75.3071 136.043 75.0405 135.936C74.7791 135.824 74.5631 135.672 74.3925 135.48C74.2218 135.288 74.0938 135.061 74.0085 134.8C73.9285 134.533 73.8885 134.243 73.8885 133.928ZM76.7445 133.52C76.7498 133.184 76.6645 132.909 76.4885 132.696C76.3178 132.477 76.0805 132.368 75.7765 132.368C75.6058 132.368 75.4538 132.403 75.3205 132.472C75.1925 132.536 75.0831 132.621 74.9925 132.728C74.9018 132.835 74.8298 132.957 74.7765 133.096C74.7285 133.235 74.6965 133.376 74.6805 133.52H76.7445ZM81.8488 135.464C82.0248 135.464 82.1794 135.461 82.3128 135.456C82.4514 135.445 82.5661 135.429 82.6568 135.408V134.168C82.6034 134.141 82.5154 134.12 82.3928 134.104C82.2754 134.083 82.1314 134.072 81.9608 134.072C81.8488 134.072 81.7288 134.08 81.6008 134.096C81.4781 134.112 81.3634 134.147 81.2568 134.2C81.1554 134.248 81.0701 134.317 81.0008 134.408C80.9314 134.493 80.8968 134.608 80.8968 134.752C80.8968 135.019 80.9821 135.205 81.1528 135.312C81.3234 135.413 81.5554 135.464 81.8488 135.464ZM81.7848 131.736C82.0834 131.736 82.3341 131.776 82.5368 131.856C82.7448 131.931 82.9101 132.04 83.0328 132.184C83.1608 132.323 83.2514 132.491 83.3048 132.688C83.3581 132.88 83.3848 133.093 83.3848 133.328V135.928C83.3208 135.939 83.2301 135.955 83.1128 135.976C83.0008 135.992 82.8728 136.008 82.7288 136.024C82.5848 136.04 82.4274 136.053 82.2568 136.064C82.0914 136.08 81.9261 136.088 81.7608 136.088C81.5261 136.088 81.3101 136.064 81.1128 136.016C80.9154 135.968 80.7448 135.893 80.6008 135.792C80.4568 135.685 80.3448 135.547 80.2648 135.376C80.1848 135.205 80.1448 135 80.1448 134.76C80.1448 134.531 80.1901 134.333 80.2808 134.168C80.3768 134.003 80.5048 133.869 80.6648 133.768C80.8248 133.667 81.0114 133.592 81.2248 133.544C81.4381 133.496 81.6621 133.472 81.8968 133.472C81.9714 133.472 82.0488 133.477 82.1288 133.488C82.2088 133.493 82.2834 133.504 82.3528 133.52C82.4274 133.531 82.4914 133.541 82.5448 133.552C82.5981 133.563 82.6354 133.571 82.6568 133.576V133.368C82.6568 133.245 82.6434 133.125 82.6168 133.008C82.5901 132.885 82.5421 132.779 82.4728 132.688C82.4034 132.592 82.3074 132.517 82.1848 132.464C82.0674 132.405 81.9128 132.376 81.7208 132.376C81.4754 132.376 81.2594 132.395 81.0728 132.432C80.8914 132.464 80.7554 132.499 80.6648 132.536L80.5768 131.92C80.6728 131.877 80.8328 131.837 81.0568 131.8C81.2808 131.757 81.5234 131.736 81.7848 131.736ZM84.6205 131.96C84.7911 131.917 85.0178 131.872 85.3005 131.824C85.5831 131.776 85.9085 131.752 86.2765 131.752C86.6071 131.752 86.8818 131.8 87.1005 131.896C87.3191 131.987 87.4925 132.117 87.6205 132.288C87.7538 132.453 87.8471 132.653 87.9005 132.888C87.9538 133.123 87.9805 133.381 87.9805 133.664V136H87.2365V133.824C87.2365 133.568 87.2178 133.349 87.1805 133.168C87.1485 132.987 87.0925 132.84 87.0125 132.728C86.9325 132.616 86.8258 132.536 86.6925 132.488C86.5591 132.435 86.3938 132.408 86.1965 132.408C86.1165 132.408 86.0338 132.411 85.9485 132.416C85.8631 132.421 85.7805 132.429 85.7005 132.44C85.6258 132.445 85.5565 132.453 85.4925 132.464C85.4338 132.475 85.3911 132.483 85.3645 132.488V136H84.6205V131.96ZM89.2142 131.96C89.3849 131.917 89.6116 131.872 89.8942 131.824C90.1769 131.776 90.5022 131.752 90.8702 131.752C91.2009 131.752 91.4756 131.8 91.6942 131.896C91.9129 131.987 92.0862 132.117 92.2142 132.288C92.3476 132.453 92.4409 132.653 92.4942 132.888C92.5476 133.123 92.5742 133.381 92.5742 133.664V136H91.8302V133.824C91.8302 133.568 91.8116 133.349 91.7742 133.168C91.7422 132.987 91.6862 132.84 91.6062 132.728C91.5262 132.616 91.4196 132.536 91.2862 132.488C91.1529 132.435 90.9876 132.408 90.7902 132.408C90.7102 132.408 90.6276 132.411 90.5422 132.416C90.4569 132.421 90.3742 132.429 90.2942 132.44C90.2196 132.445 90.1502 132.453 90.0862 132.464C90.0276 132.475 89.9849 132.483 89.9582 132.488V136H89.2142V131.96ZM93.576 133.928C93.576 133.56 93.6293 133.24 93.736 132.968C93.8426 132.691 93.984 132.461 94.16 132.28C94.336 132.099 94.5386 131.963 94.768 131.872C94.9973 131.781 95.232 131.736 95.472 131.736C96.032 131.736 96.4613 131.912 96.76 132.264C97.0586 132.611 97.208 133.141 97.208 133.856C97.208 133.888 97.208 133.931 97.208 133.984C97.208 134.032 97.2053 134.077 97.2 134.12H94.352C94.384 134.552 94.5093 134.88 94.728 135.104C94.9466 135.328 95.288 135.44 95.752 135.44C96.0133 135.44 96.232 135.419 96.408 135.376C96.5893 135.328 96.7253 135.283 96.816 135.24L96.92 135.864C96.8293 135.912 96.6693 135.963 96.44 136.016C96.216 136.069 95.96 136.096 95.672 136.096C95.3093 136.096 94.9946 136.043 94.728 135.936C94.4666 135.824 94.2506 135.672 94.08 135.48C93.9093 135.288 93.7813 135.061 93.696 134.8C93.616 134.533 93.576 134.243 93.576 133.928ZM96.432 133.52C96.4373 133.184 96.352 132.909 96.176 132.696C96.0053 132.477 95.768 132.368 95.464 132.368C95.2933 132.368 95.1413 132.403 95.008 132.472C94.88 132.536 94.7706 132.621 94.68 132.728C94.5893 132.835 94.5173 132.957 94.464 133.096C94.416 133.235 94.384 133.376 94.368 133.52H96.432ZM96.424 130.264L95.296 131.36L94.92 131.024L95.944 129.792L96.424 130.264ZM98.0447 133.928C98.0447 133.56 98.0981 133.24 98.2047 132.968C98.3114 132.691 98.4527 132.461 98.6287 132.28C98.8047 132.099 99.0074 131.963 99.2367 131.872C99.4661 131.781 99.7007 131.736 99.9407 131.736C100.501 131.736 100.93 131.912 101.229 132.264C101.527 132.611 101.677 133.141 101.677 133.856C101.677 133.888 101.677 133.931 101.677 133.984C101.677 134.032 101.674 134.077 101.669 134.12H98.8207C98.8527 134.552 98.9781 134.88 99.1967 135.104C99.4154 135.328 99.7567 135.44 100.221 135.44C100.482 135.44 100.701 135.419 100.877 135.376C101.058 135.328 101.194 135.283 101.285 135.24L101.389 135.864C101.298 135.912 101.138 135.963 100.909 136.016C100.685 136.069 100.429 136.096 100.141 136.096C99.7781 136.096 99.4634 136.043 99.1967 135.936C98.9354 135.824 98.7194 135.672 98.5487 135.48C98.3781 135.288 98.2501 135.061 98.1647 134.8C98.0847 134.533 98.0447 134.243 98.0447 133.928ZM100.901 133.52C100.906 133.184 100.821 132.909 100.645 132.696C100.474 132.477 100.237 132.368 99.9327 132.368C99.7621 132.368 99.6101 132.403 99.4767 132.472C99.3487 132.536 99.2394 132.621 99.1487 132.728C99.0581 132.835 98.9861 132.957 98.9327 133.096C98.8847 133.235 98.8527 133.376 98.8367 133.52H100.901ZM104.365 133.928C104.365 133.56 104.418 133.24 104.525 132.968C104.632 132.691 104.773 132.461 104.949 132.28C105.125 132.099 105.328 131.963 105.557 131.872C105.786 131.781 106.021 131.736 106.261 131.736C106.821 131.736 107.25 131.912 107.549 132.264C107.848 132.611 107.997 133.141 107.997 133.856C107.997 133.888 107.997 133.931 107.997 133.984C107.997 134.032 107.994 134.077 107.989 134.12H105.141C105.173 134.552 105.298 134.88 105.517 135.104C105.736 135.328 106.077 135.44 106.541 135.44C106.802 135.44 107.021 135.419 107.197 135.376C107.378 135.328 107.514 135.283 107.605 135.24L107.709 135.864C107.618 135.912 107.458 135.963 107.229 136.016C107.005 136.069 106.749 136.096 106.461 136.096C106.098 136.096 105.784 136.043 105.517 135.936C105.256 135.824 105.04 135.672 104.869 135.48C104.698 135.288 104.57 135.061 104.485 134.8C104.405 134.533 104.365 134.243 104.365 133.928ZM107.221 133.52C107.226 133.184 107.141 132.909 106.965 132.696C106.794 132.477 106.557 132.368 106.253 132.368C106.082 132.368 105.93 132.403 105.797 132.472C105.669 132.536 105.56 132.621 105.469 132.728C105.378 132.835 105.306 132.957 105.253 133.096C105.205 133.235 105.173 133.376 105.157 133.52H107.221ZM109.066 131.96C109.236 131.917 109.463 131.872 109.746 131.824C110.028 131.776 110.354 131.752 110.722 131.752C111.052 131.752 111.327 131.8 111.546 131.896C111.764 131.987 111.938 132.117 112.066 132.288C112.199 132.453 112.292 132.653 112.346 132.888C112.399 133.123 112.426 133.381 112.426 133.664V136H111.682V133.824C111.682 133.568 111.663 133.349 111.626 133.168C111.594 132.987 111.538 132.84 111.458 132.728C111.378 132.616 111.271 132.536 111.138 132.488C111.004 132.435 110.839 132.408 110.642 132.408C110.562 132.408 110.479 132.411 110.394 132.416C110.308 132.421 110.226 132.429 110.146 132.44C110.071 132.445 110.002 132.453 109.938 132.464C109.879 132.475 109.836 132.483 109.81 132.488V136H109.066V131.96ZM115.559 136V130.456H118.903V131.12H116.335V132.792H118.615V133.448H116.335V136H115.559ZM121.117 131.752C121.181 131.752 121.253 131.757 121.333 131.768C121.419 131.773 121.501 131.784 121.581 131.8C121.661 131.811 121.733 131.824 121.797 131.84C121.867 131.851 121.917 131.861 121.949 131.872L121.821 132.52C121.763 132.499 121.664 132.475 121.525 132.448C121.392 132.416 121.219 132.4 121.005 132.4C120.867 132.4 120.728 132.416 120.589 132.448C120.456 132.475 120.368 132.493 120.325 132.504V136H119.581V132.016C119.757 131.952 119.976 131.893 120.237 131.84C120.499 131.781 120.792 131.752 121.117 131.752ZM124.075 135.464C124.251 135.464 124.406 135.461 124.539 135.456C124.678 135.445 124.793 135.429 124.883 135.408V134.168C124.83 134.141 124.742 134.12 124.619 134.104C124.502 134.083 124.358 134.072 124.187 134.072C124.075 134.072 123.955 134.08 123.827 134.096C123.705 134.112 123.59 134.147 123.483 134.2C123.382 134.248 123.297 134.317 123.227 134.408C123.158 134.493 123.123 134.608 123.123 134.752C123.123 135.019 123.209 135.205 123.379 135.312C123.55 135.413 123.782 135.464 124.075 135.464ZM124.011 131.736C124.31 131.736 124.561 131.776 124.763 131.856C124.971 131.931 125.137 132.04 125.259 132.184C125.387 132.323 125.478 132.491 125.531 132.688C125.585 132.88 125.611 133.093 125.611 133.328V135.928C125.547 135.939 125.457 135.955 125.339 135.976C125.227 135.992 125.099 136.008 124.955 136.024C124.811 136.04 124.654 136.053 124.483 136.064C124.318 136.08 124.153 136.088 123.987 136.088C123.753 136.088 123.537 136.064 123.339 136.016C123.142 135.968 122.971 135.893 122.827 135.792C122.683 135.685 122.571 135.547 122.491 135.376C122.411 135.205 122.371 135 122.371 134.76C122.371 134.531 122.417 134.333 122.507 134.168C122.603 134.003 122.731 133.869 122.891 133.768C123.051 133.667 123.238 133.592 123.451 133.544C123.665 133.496 123.889 133.472 124.123 133.472C124.198 133.472 124.275 133.477 124.355 133.488C124.435 133.493 124.51 133.504 124.579 133.52C124.654 133.531 124.718 133.541 124.771 133.552C124.825 133.563 124.862 133.571 124.883 133.576V133.368C124.883 133.245 124.87 133.125 124.843 133.008C124.817 132.885 124.769 132.779 124.699 132.688C124.63 132.592 124.534 132.517 124.411 132.464C124.294 132.405 124.139 132.376 123.947 132.376C123.702 132.376 123.486 132.395 123.299 132.432C123.118 132.464 122.982 132.499 122.891 132.536L122.803 131.92C122.899 131.877 123.059 131.837 123.283 131.8C123.507 131.757 123.75 131.736 124.011 131.736ZM126.847 131.96C127.018 131.917 127.244 131.872 127.527 131.824C127.81 131.776 128.135 131.752 128.503 131.752C128.834 131.752 129.108 131.8 129.327 131.896C129.546 131.987 129.719 132.117 129.847 132.288C129.98 132.453 130.074 132.653 130.127 132.888C130.18 133.123 130.207 133.381 130.207 133.664V136H129.463V133.824C129.463 133.568 129.444 133.349 129.407 133.168C129.375 132.987 129.319 132.84 129.239 132.728C129.159 132.616 129.052 132.536 128.919 132.488C128.786 132.435 128.62 132.408 128.423 132.408C128.343 132.408 128.26 132.411 128.175 132.416C128.09 132.421 128.007 132.429 127.927 132.44C127.852 132.445 127.783 132.453 127.719 132.464C127.66 132.475 127.618 132.483 127.591 132.488V136H126.847V131.96ZM133.249 136.096C132.913 136.096 132.617 136.043 132.361 135.936C132.11 135.829 131.897 135.68 131.721 135.488C131.55 135.296 131.422 135.069 131.337 134.808C131.251 134.541 131.209 134.248 131.209 133.928C131.209 133.608 131.254 133.315 131.345 133.048C131.441 132.781 131.574 132.552 131.745 132.36C131.915 132.163 132.123 132.011 132.369 131.904C132.619 131.792 132.897 131.736 133.201 131.736C133.387 131.736 133.574 131.752 133.761 131.784C133.947 131.816 134.126 131.867 134.297 131.936L134.129 132.568C134.017 132.515 133.886 132.472 133.737 132.44C133.593 132.408 133.438 132.392 133.273 132.392C132.857 132.392 132.537 132.523 132.313 132.784C132.094 133.045 131.985 133.427 131.985 133.928C131.985 134.152 132.009 134.357 132.057 134.544C132.11 134.731 132.19 134.891 132.297 135.024C132.409 135.157 132.55 135.261 132.721 135.336C132.891 135.405 133.099 135.44 133.345 135.44C133.542 135.44 133.721 135.421 133.881 135.384C134.041 135.347 134.166 135.307 134.257 135.264L134.361 135.888C134.318 135.915 134.257 135.941 134.177 135.968C134.097 135.989 134.006 136.008 133.905 136.024C133.803 136.045 133.694 136.061 133.577 136.072C133.465 136.088 133.355 136.096 133.249 136.096ZM134.928 133.928C134.928 133.56 134.981 133.24 135.088 132.968C135.194 132.691 135.336 132.461 135.512 132.28C135.688 132.099 135.89 131.963 136.12 131.872C136.349 131.781 136.584 131.736 136.824 131.736C137.384 131.736 137.813 131.912 138.112 132.264C138.41 132.611 138.56 133.141 138.56 133.856C138.56 133.888 138.56 133.931 138.56 133.984C138.56 134.032 138.557 134.077 138.552 134.12H135.704C135.736 134.552 135.861 134.88 136.08 135.104C136.298 135.328 136.64 135.44 137.104 135.44C137.365 135.44 137.584 135.419 137.76 135.376C137.941 135.328 138.077 135.283 138.168 135.24L138.272 135.864C138.181 135.912 138.021 135.963 137.792 136.016C137.568 136.069 137.312 136.096 137.024 136.096C136.661 136.096 136.346 136.043 136.08 135.936C135.818 135.824 135.602 135.672 135.432 135.48C135.261 135.288 135.133 135.061 135.048 134.8C134.968 134.533 134.928 134.243 134.928 133.928ZM137.784 133.52C137.789 133.184 137.704 132.909 137.528 132.696C137.357 132.477 137.12 132.368 136.816 132.368C136.645 132.368 136.493 132.403 136.36 132.472C136.232 132.536 136.122 132.621 136.032 132.728C135.941 132.835 135.869 132.957 135.816 133.096C135.768 133.235 135.736 133.376 135.72 133.52H137.784ZM76.9805 149.505C76.9805 149.932 77.0422 150.327 77.1655 150.69C77.2888 151.053 77.4705 151.39 77.7105 151.7L77.3805 151.925C77.1205 151.608 76.9105 151.245 76.7505 150.835C76.5938 150.422 76.5155 149.978 76.5155 149.505C76.5155 149.032 76.5938 148.59 76.7505 148.18C76.9105 147.767 77.1205 147.402 77.3805 147.085L77.7105 147.31C77.4705 147.62 77.2888 147.957 77.1655 148.32C77.0422 148.683 76.9805 149.078 76.9805 149.505ZM79.5152 151.075C79.2719 151.075 79.0502 151.035 78.8502 150.955C78.6502 150.875 78.4785 150.758 78.3352 150.605C78.1919 150.452 78.0802 150.263 78.0002 150.04C77.9235 149.813 77.8852 149.555 77.8852 149.265C77.8852 148.975 77.9285 148.718 78.0152 148.495C78.1052 148.268 78.2252 148.078 78.3752 147.925C78.5252 147.772 78.7002 147.655 78.9002 147.575C79.1002 147.495 79.3135 147.455 79.5402 147.455C79.6835 147.455 79.8119 147.465 79.9252 147.485C80.0419 147.505 80.1419 147.528 80.2252 147.555C80.3119 147.582 80.3819 147.608 80.4352 147.635C80.4885 147.662 80.5252 147.682 80.5452 147.695L80.4052 148.095C80.3752 148.075 80.3319 148.053 80.2752 148.03C80.2185 148.007 80.1535 147.983 80.0802 147.96C80.0102 147.937 79.9319 147.918 79.8452 147.905C79.7619 147.888 79.6769 147.88 79.5902 147.88C79.4069 147.88 79.2419 147.912 79.0952 147.975C78.9485 148.038 78.8235 148.13 78.7202 148.25C78.6169 148.37 78.5369 148.517 78.4802 148.69C78.4269 148.86 78.4002 149.052 78.4002 149.265C78.4002 149.472 78.4235 149.66 78.4702 149.83C78.5202 150 78.5935 150.147 78.6902 150.27C78.7869 150.39 78.9069 150.483 79.0502 150.55C79.1969 150.617 79.3669 150.65 79.5602 150.65C79.7835 150.65 79.9685 150.627 80.1152 150.58C80.2619 150.533 80.3719 150.492 80.4452 150.455L80.5702 150.855C80.5469 150.872 80.5052 150.893 80.4452 150.92C80.3852 150.943 80.3102 150.967 80.2202 150.99C80.1302 151.013 80.0252 151.033 79.9052 151.05C79.7852 151.067 79.6552 151.075 79.5152 151.075ZM81.1258 147.535H81.6108V151H81.1258V147.535ZM82.4686 147.535H82.9536V151H82.4686V147.535ZM86.6113 147.535C86.4847 147.902 86.363 148.242 86.2463 148.555C86.133 148.865 86.0213 149.16 85.9113 149.44C85.8013 149.72 85.6913 149.988 85.5813 150.245C85.4747 150.498 85.3647 150.75 85.2513 151H84.7963C84.683 150.75 84.5713 150.498 84.4613 150.245C84.3547 149.988 84.2447 149.72 84.1313 149.44C84.0213 149.16 83.908 148.865 83.7913 148.555C83.6747 148.242 83.5547 147.902 83.4313 147.535H83.9663C84.1463 148.062 84.323 148.568 84.4963 149.055C84.6697 149.542 84.848 149.998 85.0313 150.425C85.2147 150.002 85.393 149.547 85.5663 149.06C85.7397 148.57 85.9147 148.062 86.0913 147.535H86.6113ZM87.0926 147.535H87.5776V151H87.0926V147.535ZM89.2404 150.655C89.747 150.655 90.0004 150.482 90.0004 150.135C90.0004 150.028 89.977 149.938 89.9304 149.865C89.887 149.788 89.827 149.723 89.7504 149.67C89.6737 149.613 89.5854 149.565 89.4854 149.525C89.3887 149.485 89.2854 149.445 89.1754 149.405C89.0487 149.362 88.9287 149.313 88.8154 149.26C88.702 149.203 88.6037 149.138 88.5204 149.065C88.437 148.988 88.3704 148.898 88.3204 148.795C88.2737 148.692 88.2504 148.567 88.2504 148.42C88.2504 148.117 88.3537 147.88 88.5604 147.71C88.767 147.54 89.052 147.455 89.4154 147.455C89.6254 147.455 89.8154 147.478 89.9854 147.525C90.1587 147.568 90.2854 147.617 90.3654 147.67L90.2104 148.065C90.1404 148.022 90.0354 147.98 89.8954 147.94C89.7587 147.897 89.5987 147.875 89.4154 147.875C89.322 147.875 89.2354 147.885 89.1554 147.905C89.0754 147.925 89.0054 147.955 88.9454 147.995C88.8854 148.035 88.837 148.087 88.8004 148.15C88.767 148.21 88.7504 148.282 88.7504 148.365C88.7504 148.458 88.7687 148.537 88.8054 148.6C88.842 148.663 88.8937 148.72 88.9604 148.77C89.027 148.817 89.1037 148.86 89.1904 148.9C89.2804 148.94 89.3787 148.98 89.4854 149.02C89.6354 149.08 89.772 149.14 89.8954 149.2C90.022 149.26 90.1304 149.332 90.2204 149.415C90.3137 149.498 90.3854 149.598 90.4354 149.715C90.4854 149.828 90.5104 149.967 90.5104 150.13C90.5104 150.433 90.3987 150.667 90.1754 150.83C89.9554 150.993 89.6437 151.075 89.2404 151.075C89.1037 151.075 88.977 151.065 88.8604 151.045C88.747 151.028 88.6454 151.008 88.5554 150.985C88.4654 150.958 88.387 150.932 88.3204 150.905C88.257 150.875 88.207 150.85 88.1704 150.83L88.3154 150.43C88.392 150.473 88.5087 150.522 88.6654 150.575C88.822 150.628 89.0137 150.655 89.2404 150.655ZM91.0965 151V147.535H93.2115V147.95H91.5815V148.98H93.0315V149.385H91.5815V150.585H93.3365V151H91.0965ZM94.4667 150.43C94.47 150.457 94.4717 150.483 94.4717 150.51C94.4717 150.533 94.4717 150.558 94.4717 150.585C94.4717 150.795 94.44 151.002 94.3767 151.205C94.3167 151.412 94.2333 151.608 94.1267 151.795L93.7667 151.68C93.85 151.51 93.905 151.337 93.9317 151.16C93.9583 150.987 93.9717 150.823 93.9717 150.67C93.9717 150.627 93.97 150.585 93.9667 150.545C93.9667 150.505 93.965 150.467 93.9617 150.43H94.4667ZM98.2994 148.42C98.2994 148.54 98.2744 148.657 98.2244 148.77C98.1777 148.88 98.1144 148.99 98.0344 149.1C97.9544 149.207 97.8644 149.313 97.7644 149.42C97.6644 149.523 97.5644 149.625 97.4644 149.725C97.4077 149.782 97.341 149.848 97.2644 149.925C97.191 150.002 97.121 150.082 97.0544 150.165C96.9877 150.248 96.931 150.328 96.8844 150.405C96.841 150.482 96.8194 150.548 96.8194 150.605H98.4144V151H96.3144C96.311 150.98 96.3094 150.96 96.3094 150.94C96.3094 150.92 96.3094 150.902 96.3094 150.885C96.3094 150.728 96.3344 150.583 96.3844 150.45C96.4377 150.313 96.506 150.185 96.5894 150.065C96.6727 149.945 96.766 149.832 96.8694 149.725C96.9727 149.618 97.0744 149.515 97.1744 149.415C97.2577 149.335 97.336 149.257 97.4094 149.18C97.486 149.1 97.5527 149.022 97.6094 148.945C97.6694 148.865 97.716 148.783 97.7494 148.7C97.786 148.617 97.8044 148.528 97.8044 148.435C97.8044 148.335 97.7877 148.25 97.7544 148.18C97.7244 148.11 97.6827 148.052 97.6294 148.005C97.576 147.958 97.5127 147.925 97.4394 147.905C97.3694 147.882 97.2944 147.87 97.2144 147.87C97.1177 147.87 97.0294 147.883 96.9494 147.91C96.8694 147.937 96.7977 147.968 96.7344 148.005C96.671 148.038 96.6177 148.075 96.5744 148.115C96.531 148.152 96.4977 148.18 96.4744 148.2L96.2444 147.87C96.2744 147.837 96.3194 147.797 96.3794 147.75C96.4394 147.7 96.511 147.653 96.5944 147.61C96.6777 147.567 96.771 147.53 96.8744 147.5C96.9777 147.47 97.0894 147.455 97.2094 147.455C97.5727 147.455 97.8444 147.54 98.0244 147.71C98.2077 147.877 98.2994 148.113 98.2994 148.42ZM99.0366 149.265C99.0366 148.685 99.1383 148.238 99.3416 147.925C99.5483 147.612 99.8333 147.455 100.197 147.455C100.56 147.455 100.843 147.612 101.047 147.925C101.253 148.238 101.357 148.685 101.357 149.265C101.357 149.845 101.253 150.292 101.047 150.605C100.843 150.918 100.56 151.075 100.197 151.075C99.8333 151.075 99.5483 150.918 99.3416 150.605C99.1383 150.292 99.0366 149.845 99.0366 149.265ZM100.867 149.265C100.867 149.075 100.855 148.895 100.832 148.725C100.812 148.555 100.775 148.407 100.722 148.28C100.672 148.153 100.603 148.053 100.517 147.98C100.43 147.903 100.323 147.865 100.197 147.865C100.07 147.865 99.9633 147.903 99.8766 147.98C99.79 148.053 99.72 148.153 99.6666 148.28C99.6166 148.407 99.58 148.555 99.5566 148.725C99.5366 148.895 99.5266 149.075 99.5266 149.265C99.5266 149.455 99.5366 149.635 99.5566 149.805C99.58 149.975 99.6166 150.123 99.6666 150.25C99.72 150.377 99.79 150.478 99.8766 150.555C99.9633 150.628 100.07 150.665 100.197 150.665C100.323 150.665 100.43 150.628 100.517 150.555C100.603 150.478 100.672 150.377 100.722 150.25C100.775 150.123 100.812 149.975 100.832 149.805C100.855 149.635 100.867 149.455 100.867 149.265ZM103.944 148.42C103.944 148.54 103.919 148.657 103.869 148.77C103.822 148.88 103.759 148.99 103.679 149.1C103.599 149.207 103.509 149.313 103.409 149.42C103.309 149.523 103.209 149.625 103.109 149.725C103.052 149.782 102.986 149.848 102.909 149.925C102.836 150.002 102.766 150.082 102.699 150.165C102.632 150.248 102.576 150.328 102.529 150.405C102.486 150.482 102.464 150.548 102.464 150.605H104.059V151H101.959C101.956 150.98 101.954 150.96 101.954 150.94C101.954 150.92 101.954 150.902 101.954 150.885C101.954 150.728 101.979 150.583 102.029 150.45C102.082 150.313 102.151 150.185 102.234 150.065C102.317 149.945 102.411 149.832 102.514 149.725C102.617 149.618 102.719 149.515 102.819 149.415C102.902 149.335 102.981 149.257 103.054 149.18C103.131 149.1 103.197 149.022 103.254 148.945C103.314 148.865 103.361 148.783 103.394 148.7C103.431 148.617 103.449 148.528 103.449 148.435C103.449 148.335 103.432 148.25 103.399 148.18C103.369 148.11 103.327 148.052 103.274 148.005C103.221 147.958 103.157 147.925 103.084 147.905C103.014 147.882 102.939 147.87 102.859 147.87C102.762 147.87 102.674 147.883 102.594 147.91C102.514 147.937 102.442 147.968 102.379 148.005C102.316 148.038 102.262 148.075 102.219 148.115C102.176 148.152 102.142 148.18 102.119 148.2L101.889 147.87C101.919 147.837 101.964 147.797 102.024 147.75C102.084 147.7 102.156 147.653 102.239 147.61C102.322 147.567 102.416 147.53 102.519 147.5C102.622 147.47 102.734 147.455 102.854 147.455C103.217 147.455 103.489 147.54 103.669 147.71C103.852 147.877 103.944 148.113 103.944 148.42ZM105.561 150.66C105.858 150.66 106.069 150.602 106.196 150.485C106.326 150.368 106.391 150.212 106.391 150.015C106.391 149.888 106.364 149.782 106.311 149.695C106.258 149.608 106.188 149.54 106.101 149.49C106.014 149.437 105.913 149.4 105.796 149.38C105.683 149.357 105.566 149.345 105.446 149.345H105.326V148.965H105.491C105.574 148.965 105.659 148.957 105.746 148.94C105.836 148.923 105.918 148.893 105.991 148.85C106.064 148.807 106.124 148.748 106.171 148.675C106.218 148.598 106.241 148.503 106.241 148.39C106.241 148.297 106.224 148.217 106.191 148.15C106.158 148.083 106.113 148.028 106.056 147.985C106.003 147.942 105.939 147.912 105.866 147.895C105.796 147.875 105.721 147.865 105.641 147.865C105.481 147.865 105.344 147.888 105.231 147.935C105.121 147.982 105.028 148.03 104.951 148.08L104.771 147.725C104.811 147.698 104.861 147.67 104.921 147.64C104.984 147.607 105.054 147.577 105.131 147.55C105.208 147.523 105.289 147.502 105.376 147.485C105.466 147.465 105.559 147.455 105.656 147.455C105.839 147.455 105.998 147.478 106.131 147.525C106.264 147.568 106.374 147.632 106.461 147.715C106.548 147.795 106.613 147.892 106.656 148.005C106.699 148.115 106.721 148.235 106.721 148.365C106.721 148.545 106.669 148.7 106.566 148.83C106.463 148.957 106.338 149.053 106.191 149.12C106.281 149.147 106.368 149.185 106.451 149.235C106.534 149.285 106.606 149.348 106.666 149.425C106.729 149.502 106.779 149.59 106.816 149.69C106.856 149.79 106.876 149.902 106.876 150.025C106.876 150.175 106.849 150.315 106.796 150.445C106.746 150.572 106.666 150.682 106.556 150.775C106.449 150.868 106.314 150.942 106.151 150.995C105.988 151.048 105.794 151.075 105.571 151.075C105.484 151.075 105.394 151.068 105.301 151.055C105.211 151.042 105.126 151.025 105.046 151.005C104.966 150.985 104.896 150.965 104.836 150.945C104.776 150.925 104.733 150.908 104.706 150.895L104.796 150.49C104.853 150.517 104.946 150.552 105.076 150.595C105.209 150.638 105.371 150.66 105.561 150.66ZM108.018 149.505C108.018 149.078 107.957 148.683 107.833 148.32C107.71 147.957 107.528 147.62 107.288 147.31L107.618 147.085C107.878 147.402 108.087 147.767 108.243 148.18C108.403 148.59 108.483 149.032 108.483 149.505C108.483 149.978 108.403 150.422 108.243 150.835C108.087 151.245 107.878 151.608 107.618 151.925L107.288 151.7C107.528 151.39 107.71 151.053 107.833 150.69C107.957 150.327 108.018 149.932 108.018 149.505Z" fill="#333D7B"/>
<path d="M428 92C428 142.81 386.81 184 336 184C285.19 184 244 142.81 244 92C244 41.1898 285.19 0 336 0C386.81 0 428 41.1898 428 92Z" fill="#333D7B" fill-opacity="0.12"/>
<path d="M330.003 57.628C330.544 57.404 331.104 57.152 331.683 56.872C332.28 56.5733 332.859 56.256 333.419 55.92C333.979 55.5653 334.511 55.2013 335.015 54.828C335.538 54.436 336.004 54.0253 336.415 53.596H339.327V73H335.155V59.028C334.595 59.4013 333.97 59.7467 333.279 60.064C332.588 60.3627 331.916 60.624 331.263 60.848L330.003 57.628ZM304.478 88C304.383 87.688 304.275 87.3673 304.153 87.038C304.041 86.7087 303.928 86.3793 303.815 86.05H300.305C300.193 86.3793 300.076 86.7087 299.954 87.038C299.842 87.3673 299.738 87.688 299.642 88H297.536C297.874 87.0293 298.195 86.1323 298.498 85.309C298.802 84.4857 299.096 83.71 299.382 82.982C299.677 82.254 299.963 81.565 300.24 80.915C300.526 80.2563 300.821 79.615 301.124 78.991H303.061C303.356 79.615 303.646 80.2563 303.932 80.915C304.218 81.565 304.504 82.254 304.79 82.982C305.085 83.71 305.384 84.4857 305.687 85.309C305.991 86.1323 306.311 87.0293 306.649 88H304.478ZM302.047 81.032C302.004 81.162 301.939 81.3397 301.852 81.565C301.766 81.7903 301.666 82.0503 301.553 82.345C301.441 82.6397 301.315 82.9647 301.176 83.32C301.046 83.6753 300.912 84.048 300.773 84.438H303.334C303.196 84.048 303.061 83.6753 302.931 83.32C302.801 82.9647 302.676 82.6397 302.554 82.345C302.442 82.0503 302.342 81.7903 302.255 81.565C302.169 81.3397 302.099 81.162 302.047 81.032ZM311.879 80.551C310.935 80.551 310.25 80.8153 309.825 81.344C309.409 81.864 309.201 82.579 309.201 83.489C309.201 83.931 309.253 84.334 309.357 84.698C309.461 85.0533 309.617 85.361 309.825 85.621C310.033 85.881 310.293 86.0847 310.605 86.232C310.917 86.3707 311.281 86.44 311.697 86.44C311.923 86.44 312.113 86.4357 312.269 86.427C312.434 86.4183 312.577 86.401 312.698 86.375V83.242H314.726V87.701C314.484 87.7963 314.094 87.896 313.556 88C313.019 88.1127 312.356 88.169 311.567 88.169C310.891 88.169 310.276 88.065 309.721 87.857C309.175 87.649 308.707 87.3457 308.317 86.947C307.927 86.5483 307.624 86.0587 307.407 85.478C307.199 84.8973 307.095 84.2343 307.095 83.489C307.095 82.735 307.212 82.0677 307.446 81.487C307.68 80.9063 308.001 80.4167 308.408 80.018C308.816 79.6107 309.292 79.303 309.838 79.095C310.393 78.887 310.982 78.783 311.606 78.783C312.031 78.783 312.412 78.8133 312.75 78.874C313.097 78.926 313.392 78.991 313.634 79.069C313.886 79.1383 314.089 79.212 314.245 79.29C314.41 79.368 314.527 79.4287 314.596 79.472L314.011 81.097C313.734 80.9497 313.413 80.824 313.049 80.72C312.694 80.6073 312.304 80.551 311.879 80.551ZM319.252 78.887C320.604 78.887 321.64 79.1297 322.359 79.615C323.079 80.0917 323.438 80.837 323.438 81.851C323.438 82.4837 323.291 82.9993 322.996 83.398C322.71 83.788 322.294 84.0957 321.748 84.321C321.93 84.5463 322.121 84.8063 322.32 85.101C322.52 85.387 322.715 85.6903 322.905 86.011C323.105 86.323 323.295 86.6523 323.477 86.999C323.659 87.337 323.828 87.6707 323.984 88H321.709C321.545 87.7053 321.376 87.4063 321.202 87.103C321.038 86.7997 320.864 86.505 320.682 86.219C320.509 85.933 320.336 85.6643 320.162 85.413C319.989 85.153 319.816 84.919 319.642 84.711H318.641V88H316.613V79.121C317.055 79.0343 317.51 78.9737 317.978 78.939C318.455 78.9043 318.88 78.887 319.252 78.887ZM319.369 80.616C319.222 80.616 319.088 80.6203 318.966 80.629C318.854 80.6377 318.745 80.6463 318.641 80.655V83.099H319.213C319.976 83.099 320.522 83.0037 320.851 82.813C321.181 82.6223 321.345 82.2973 321.345 81.838C321.345 81.396 321.176 81.084 320.838 80.902C320.509 80.7113 320.019 80.616 319.369 80.616ZM325.284 88V78.991H331.368V80.694H327.312V82.462H330.913V84.126H327.312V86.297H331.667V88H325.284ZM335.625 86.453C335.911 86.453 336.145 86.4313 336.327 86.388C336.518 86.336 336.669 86.271 336.782 86.193C336.895 86.1063 336.973 86.0067 337.016 85.894C337.059 85.7813 337.081 85.6557 337.081 85.517C337.081 85.2223 336.942 84.9797 336.665 84.789C336.388 84.5897 335.911 84.3773 335.235 84.152C334.94 84.048 334.646 83.931 334.351 83.801C334.056 83.6623 333.792 83.4933 333.558 83.294C333.324 83.086 333.133 82.839 332.986 82.553C332.839 82.2583 332.765 81.903 332.765 81.487C332.765 81.071 332.843 80.6983 332.999 80.369C333.155 80.031 333.376 79.745 333.662 79.511C333.948 79.277 334.295 79.0993 334.702 78.978C335.109 78.848 335.569 78.783 336.08 78.783C336.687 78.783 337.211 78.848 337.653 78.978C338.095 79.108 338.459 79.251 338.745 79.407L338.16 81.006C337.909 80.876 337.627 80.7633 337.315 80.668C337.012 80.564 336.643 80.512 336.21 80.512C335.725 80.512 335.374 80.5813 335.157 80.72C334.949 80.85 334.845 81.0537 334.845 81.331C334.845 81.4957 334.884 81.6343 334.962 81.747C335.04 81.8597 335.148 81.9637 335.287 82.059C335.434 82.1457 335.599 82.228 335.781 82.306C335.972 82.3753 336.18 82.449 336.405 82.527C336.873 82.7003 337.28 82.8737 337.627 83.047C337.974 83.2117 338.26 83.4067 338.485 83.632C338.719 83.8573 338.892 84.1217 339.005 84.425C339.118 84.7283 339.174 85.0967 339.174 85.53C339.174 86.3707 338.879 87.025 338.29 87.493C337.701 87.9523 336.812 88.182 335.625 88.182C335.226 88.182 334.867 88.156 334.546 88.104C334.225 88.0607 333.939 88.0043 333.688 87.935C333.445 87.8657 333.233 87.792 333.051 87.714C332.878 87.636 332.73 87.5623 332.609 87.493L333.181 85.881C333.45 86.0283 333.779 86.1627 334.169 86.284C334.568 86.3967 335.053 86.453 335.625 86.453ZM343.191 86.453C343.477 86.453 343.711 86.4313 343.893 86.388C344.084 86.336 344.236 86.271 344.348 86.193C344.461 86.1063 344.539 86.0067 344.582 85.894C344.626 85.7813 344.647 85.6557 344.647 85.517C344.647 85.2223 344.509 84.9797 344.231 84.789C343.954 84.5897 343.477 84.3773 342.801 84.152C342.507 84.048 342.212 83.931 341.917 83.801C341.623 83.6623 341.358 83.4933 341.124 83.294C340.89 83.086 340.7 82.839 340.552 82.553C340.405 82.2583 340.331 81.903 340.331 81.487C340.331 81.071 340.409 80.6983 340.565 80.369C340.721 80.031 340.942 79.745 341.228 79.511C341.514 79.277 341.861 79.0993 342.268 78.978C342.676 78.848 343.135 78.783 343.646 78.783C344.253 78.783 344.777 78.848 345.219 78.978C345.661 79.108 346.025 79.251 346.311 79.407L345.726 81.006C345.475 80.876 345.193 80.7633 344.881 80.668C344.578 80.564 344.21 80.512 343.776 80.512C343.291 80.512 342.94 80.5813 342.723 80.72C342.515 80.85 342.411 81.0537 342.411 81.331C342.411 81.4957 342.45 81.6343 342.528 81.747C342.606 81.8597 342.715 81.9637 342.853 82.059C343.001 82.1457 343.165 82.228 343.347 82.306C343.538 82.3753 343.746 82.449 343.971 82.527C344.439 82.7003 344.847 82.8737 345.193 83.047C345.54 83.2117 345.826 83.4067 346.051 83.632C346.285 83.8573 346.459 84.1217 346.571 84.425C346.684 84.7283 346.74 85.0967 346.74 85.53C346.74 86.3707 346.446 87.025 345.856 87.493C345.267 87.9523 344.379 88.182 343.191 88.182C342.793 88.182 342.433 88.156 342.112 88.104C341.792 88.0607 341.506 88.0043 341.254 87.935C341.012 87.8657 340.799 87.792 340.617 87.714C340.444 87.636 340.297 87.5623 340.175 87.493L340.747 85.881C341.016 86.0283 341.345 86.1627 341.735 86.284C342.134 86.3967 342.619 86.453 343.191 86.453ZM348.301 78.991H350.329V88H348.301V78.991ZM354.117 83.489C354.117 83.931 354.169 84.3297 354.273 84.685C354.386 85.0403 354.542 85.348 354.741 85.608C354.949 85.8593 355.2 86.0543 355.495 86.193C355.79 86.3317 356.128 86.401 356.509 86.401C356.882 86.401 357.215 86.3317 357.51 86.193C357.813 86.0543 358.065 85.8593 358.264 85.608C358.472 85.348 358.628 85.0403 358.732 84.685C358.845 84.3297 358.901 83.931 358.901 83.489C358.901 83.047 358.845 82.6483 358.732 82.293C358.628 81.929 358.472 81.6213 358.264 81.37C358.065 81.11 357.813 80.9107 357.51 80.772C357.215 80.6333 356.882 80.564 356.509 80.564C356.128 80.564 355.79 80.6377 355.495 80.785C355.2 80.9237 354.949 81.123 354.741 81.383C354.542 81.6343 354.386 81.942 354.273 82.306C354.169 82.6613 354.117 83.0557 354.117 83.489ZM360.994 83.489C360.994 84.2603 360.877 84.9407 360.643 85.53C360.418 86.1107 360.106 86.6003 359.707 86.999C359.308 87.389 358.832 87.6837 358.277 87.883C357.731 88.0823 357.142 88.182 356.509 88.182C355.894 88.182 355.313 88.0823 354.767 87.883C354.221 87.6837 353.744 87.389 353.337 86.999C352.93 86.6003 352.609 86.1107 352.375 85.53C352.141 84.9407 352.024 84.2603 352.024 83.489C352.024 82.7177 352.145 82.0417 352.388 81.461C352.631 80.8717 352.956 80.3777 353.363 79.979C353.779 79.5803 354.256 79.2813 354.793 79.082C355.339 78.8827 355.911 78.783 356.509 78.783C357.124 78.783 357.705 78.8827 358.251 79.082C358.797 79.2813 359.274 79.5803 359.681 79.979C360.088 80.3777 360.409 80.8717 360.643 81.461C360.877 82.0417 360.994 82.7177 360.994 83.489ZM368.73 88C368.149 86.9687 367.521 85.9503 366.845 84.945C366.169 83.9397 365.449 82.9907 364.687 82.098V88H362.685V78.991H364.336C364.622 79.277 364.938 79.628 365.285 80.044C365.631 80.46 365.982 80.9063 366.338 81.383C366.702 81.851 367.061 82.3407 367.417 82.852C367.772 83.3547 368.106 83.84 368.418 84.308V78.991H370.433V88H368.73ZM305.893 101.453C306.179 101.453 306.413 101.431 306.595 101.388C306.785 101.336 306.937 101.271 307.05 101.193C307.162 101.106 307.24 101.007 307.284 100.894C307.327 100.781 307.349 100.656 307.349 100.517C307.349 100.222 307.21 99.9797 306.933 99.789C306.655 99.5897 306.179 99.3773 305.503 99.152C305.208 99.048 304.913 98.931 304.619 98.801C304.324 98.6623 304.06 98.4933 303.826 98.294C303.592 98.086 303.401 97.839 303.254 97.553C303.106 97.2583 303.033 96.903 303.033 96.487C303.033 96.071 303.111 95.6983 303.267 95.369C303.423 95.031 303.644 94.745 303.93 94.511C304.216 94.277 304.562 94.0993 304.97 93.978C305.377 93.848 305.836 93.783 306.348 93.783C306.954 93.783 307.479 93.848 307.921 93.978C308.363 94.108 308.727 94.251 309.013 94.407L308.428 96.006C308.176 95.876 307.895 95.7633 307.583 95.668C307.279 95.564 306.911 95.512 306.478 95.512C305.992 95.512 305.641 95.5813 305.425 95.72C305.217 95.85 305.113 96.0537 305.113 96.331C305.113 96.4957 305.152 96.6343 305.23 96.747C305.308 96.8597 305.416 96.9637 305.555 97.059C305.702 97.1457 305.867 97.228 306.049 97.306C306.239 97.3753 306.447 97.449 306.673 97.527C307.141 97.7003 307.548 97.8737 307.895 98.047C308.241 98.2117 308.527 98.4067 308.753 98.632C308.987 98.8573 309.16 99.1217 309.273 99.425C309.385 99.7283 309.442 100.097 309.442 100.53C309.442 101.371 309.147 102.025 308.558 102.493C307.968 102.952 307.08 103.182 305.893 103.182C305.494 103.182 305.134 103.156 304.814 103.104C304.493 103.061 304.207 103.004 303.956 102.935C303.713 102.866 303.501 102.792 303.319 102.714C303.145 102.636 302.998 102.562 302.877 102.493L303.449 100.881C303.717 101.028 304.047 101.163 304.437 101.284C304.835 101.397 305.321 101.453 305.893 101.453ZM311.002 103V93.991H317.086V95.694H313.03V97.462H316.631V99.126H313.03V101.297H317.385V103H311.002ZM324.314 103C324.062 102.497 323.785 101.99 323.482 101.479C323.187 100.959 322.845 100.43 322.455 99.893C322.333 100.049 322.177 100.266 321.987 100.543C321.805 100.82 321.618 101.115 321.428 101.427C321.246 101.739 321.072 102.038 320.908 102.324C320.743 102.61 320.622 102.835 320.544 103H318.23C318.611 102.298 319.053 101.561 319.556 100.79C320.067 100.019 320.635 99.1997 321.259 98.333L318.36 93.991H320.817L322.572 96.799L324.288 93.991H326.602L323.742 98.359C324.47 99.3037 325.081 100.179 325.575 100.985C326.069 101.782 326.459 102.454 326.745 103H324.314ZM331.435 103.182C330.802 103.182 330.256 103.095 329.797 102.922C329.338 102.74 328.956 102.493 328.653 102.181C328.358 101.86 328.137 101.483 327.99 101.05C327.851 100.608 327.782 100.123 327.782 99.594V93.991H329.81V99.425C329.81 99.789 329.849 100.101 329.927 100.361C330.014 100.612 330.126 100.82 330.265 100.985C330.412 101.141 330.586 101.254 330.785 101.323C330.993 101.392 331.218 101.427 331.461 101.427C331.955 101.427 332.354 101.275 332.657 100.972C332.969 100.669 333.125 100.153 333.125 99.425V93.991H335.153V99.594C335.153 100.123 335.079 100.608 334.932 101.05C334.785 101.492 334.559 101.873 334.256 102.194C333.953 102.506 333.567 102.749 333.099 102.922C332.631 103.095 332.076 103.182 331.435 103.182ZM337.103 103V93.991H343.187V95.694H339.131V97.462H342.732V99.126H339.131V101.297H343.486V103H337.103ZM351.006 101.258V103H344.987V93.991H347.015V101.258H351.006ZM358.331 101.258V103H352.312V93.991H354.34V101.258H358.331ZM359.638 103V93.991H365.722V95.694H361.666V97.462H365.267V99.126H361.666V101.297H366.021V103H359.638ZM303.922 108.991V110.72H301.205V118H299.177V110.72H296.46V108.991H303.922ZM306.624 113.489C306.624 113.931 306.676 114.33 306.78 114.685C306.893 115.04 307.049 115.348 307.248 115.608C307.456 115.859 307.707 116.054 308.002 116.193C308.297 116.332 308.635 116.401 309.016 116.401C309.389 116.401 309.722 116.332 310.017 116.193C310.32 116.054 310.572 115.859 310.771 115.608C310.979 115.348 311.135 115.04 311.239 114.685C311.352 114.33 311.408 113.931 311.408 113.489C311.408 113.047 311.352 112.648 311.239 112.293C311.135 111.929 310.979 111.621 310.771 111.37C310.572 111.11 310.32 110.911 310.017 110.772C309.722 110.633 309.389 110.564 309.016 110.564C308.635 110.564 308.297 110.638 308.002 110.785C307.707 110.924 307.456 111.123 307.248 111.383C307.049 111.634 306.893 111.942 306.78 112.306C306.676 112.661 306.624 113.056 306.624 113.489ZM313.501 113.489C313.501 114.26 313.384 114.941 313.15 115.53C312.925 116.111 312.613 116.6 312.214 116.999C311.815 117.389 311.339 117.684 310.784 117.883C310.238 118.082 309.649 118.182 309.016 118.182C308.401 118.182 307.82 118.082 307.274 117.883C306.728 117.684 306.251 117.389 305.844 116.999C305.437 116.6 305.116 116.111 304.882 115.53C304.648 114.941 304.531 114.26 304.531 113.489C304.531 112.718 304.652 112.042 304.895 111.461C305.138 110.872 305.463 110.378 305.87 109.979C306.286 109.58 306.763 109.281 307.3 109.082C307.846 108.883 308.418 108.783 309.016 108.783C309.631 108.783 310.212 108.883 310.758 109.082C311.304 109.281 311.781 109.58 312.188 109.979C312.595 110.378 312.916 110.872 313.15 111.461C313.384 112.042 313.501 112.718 313.501 113.489ZM318.714 118.182C318.082 118.182 317.536 118.095 317.076 117.922C316.617 117.74 316.236 117.493 315.932 117.181C315.638 116.86 315.417 116.483 315.269 116.05C315.131 115.608 315.061 115.123 315.061 114.594V108.991H317.089V114.425C317.089 114.789 317.128 115.101 317.206 115.361C317.293 115.612 317.406 115.82 317.544 115.985C317.692 116.141 317.865 116.254 318.064 116.323C318.272 116.392 318.498 116.427 318.74 116.427C319.234 116.427 319.633 116.275 319.936 115.972C320.248 115.669 320.404 115.153 320.404 114.425V108.991H322.432V114.594C322.432 115.123 322.359 115.608 322.211 116.05C322.064 116.492 321.839 116.873 321.535 117.194C321.232 117.506 320.846 117.749 320.378 117.922C319.91 118.095 319.356 118.182 318.714 118.182ZM331.065 108.991V110.72H328.348V118H326.32V110.72H323.603V108.991H331.065ZM332.368 118V108.991H338.452V110.694H334.396V112.462H337.997V114.126H334.396V116.297H338.751V118H332.368ZM342.709 116.453C342.995 116.453 343.229 116.431 343.411 116.388C343.602 116.336 343.753 116.271 343.866 116.193C343.979 116.106 344.057 116.007 344.1 115.894C344.143 115.781 344.165 115.656 344.165 115.517C344.165 115.222 344.026 114.98 343.749 114.789C343.472 114.59 342.995 114.377 342.319 114.152C342.024 114.048 341.73 113.931 341.435 113.801C341.14 113.662 340.876 113.493 340.642 113.294C340.408 113.086 340.217 112.839 340.07 112.553C339.923 112.258 339.849 111.903 339.849 111.487C339.849 111.071 339.927 110.698 340.083 110.369C340.239 110.031 340.46 109.745 340.746 109.511C341.032 109.277 341.379 109.099 341.786 108.978C342.193 108.848 342.653 108.783 343.164 108.783C343.771 108.783 344.295 108.848 344.737 108.978C345.179 109.108 345.543 109.251 345.829 109.407L345.244 111.006C344.993 110.876 344.711 110.763 344.399 110.668C344.096 110.564 343.727 110.512 343.294 110.512C342.809 110.512 342.458 110.581 342.241 110.72C342.033 110.85 341.929 111.054 341.929 111.331C341.929 111.496 341.968 111.634 342.046 111.747C342.124 111.86 342.232 111.964 342.371 112.059C342.518 112.146 342.683 112.228 342.865 112.306C343.056 112.375 343.264 112.449 343.489 112.527C343.957 112.7 344.364 112.874 344.711 113.047C345.058 113.212 345.344 113.407 345.569 113.632C345.803 113.857 345.976 114.122 346.089 114.425C346.202 114.728 346.258 115.097 346.258 115.53C346.258 116.371 345.963 117.025 345.374 117.493C344.785 117.952 343.896 118.182 342.709 118.182C342.31 118.182 341.951 118.156 341.63 118.104C341.309 118.061 341.023 118.004 340.772 117.935C340.529 117.866 340.317 117.792 340.135 117.714C339.962 117.636 339.814 117.562 339.693 117.493L340.265 115.881C340.534 116.028 340.863 116.163 341.253 116.284C341.652 116.397 342.137 116.453 342.709 116.453ZM356.96 116.258V118H350.941V108.991H352.969V116.258H356.96ZM358.267 118V108.991H364.351V110.694H360.295V112.462H363.896V114.126H360.295V116.297H364.65V118H358.267ZM368.607 116.453C368.893 116.453 369.127 116.431 369.309 116.388C369.5 116.336 369.652 116.271 369.764 116.193C369.877 116.106 369.955 116.007 369.998 115.894C370.042 115.781 370.063 115.656 370.063 115.517C370.063 115.222 369.925 114.98 369.647 114.789C369.37 114.59 368.893 114.377 368.217 114.152C367.923 114.048 367.628 113.931 367.333 113.801C367.039 113.662 366.774 113.493 366.54 113.294C366.306 113.086 366.116 112.839 365.968 112.553C365.821 112.258 365.747 111.903 365.747 111.487C365.747 111.071 365.825 110.698 365.981 110.369C366.137 110.031 366.358 109.745 366.644 109.511C366.93 109.277 367.277 109.099 367.684 108.978C368.092 108.848 368.551 108.783 369.062 108.783C369.669 108.783 370.193 108.848 370.635 108.978C371.077 109.108 371.441 109.251 371.727 109.407L371.142 111.006C370.891 110.876 370.609 110.763 370.297 110.668C369.994 110.564 369.626 110.512 369.192 110.512C368.707 110.512 368.356 110.581 368.139 110.72C367.931 110.85 367.827 111.054 367.827 111.331C367.827 111.496 367.866 111.634 367.944 111.747C368.022 111.86 368.131 111.964 368.269 112.059C368.417 112.146 368.581 112.228 368.763 112.306C368.954 112.375 369.162 112.449 369.387 112.527C369.855 112.7 370.263 112.874 370.609 113.047C370.956 113.212 371.242 113.407 371.467 113.632C371.701 113.857 371.875 114.122 371.987 114.425C372.1 114.728 372.156 115.097 372.156 115.53C372.156 116.371 371.862 117.025 371.272 117.493C370.683 117.952 369.795 118.182 368.607 118.182C368.209 118.182 367.849 118.156 367.528 118.104C367.208 118.061 366.922 118.004 366.67 117.935C366.428 117.866 366.215 117.792 366.033 117.714C365.86 117.636 365.713 117.562 365.591 117.493L366.163 115.881C366.432 116.028 366.761 116.163 367.151 116.284C367.55 116.397 368.035 116.453 368.607 116.453ZM304.591 133.195C304.357 133.195 304.11 133.178 303.85 133.143C303.59 133.117 303.339 133.078 303.096 133.026C302.854 132.974 302.633 132.918 302.433 132.857C302.234 132.796 302.078 132.74 301.965 132.688L302.342 131.076C302.568 131.171 302.854 131.275 303.2 131.388C303.556 131.492 303.993 131.544 304.513 131.544C305.111 131.544 305.549 131.431 305.826 131.206C306.104 130.981 306.242 130.677 306.242 130.296C306.242 130.062 306.19 129.867 306.086 129.711C305.991 129.546 305.857 129.416 305.683 129.321C305.51 129.217 305.302 129.148 305.059 129.113C304.825 129.07 304.574 129.048 304.305 129.048H303.551V127.488H304.409C304.6 127.488 304.782 127.471 304.955 127.436C305.137 127.401 305.298 127.345 305.436 127.267C305.575 127.18 305.683 127.068 305.761 126.929C305.848 126.782 305.891 126.6 305.891 126.383C305.891 126.218 305.857 126.075 305.787 125.954C305.718 125.833 305.627 125.733 305.514 125.655C305.41 125.577 305.285 125.521 305.137 125.486C304.999 125.443 304.856 125.421 304.708 125.421C304.336 125.421 303.989 125.477 303.668 125.59C303.356 125.703 303.07 125.841 302.81 126.006L302.121 124.589C302.26 124.502 302.42 124.411 302.602 124.316C302.793 124.221 303.001 124.134 303.226 124.056C303.452 123.978 303.69 123.913 303.941 123.861C304.201 123.809 304.474 123.783 304.76 123.783C305.289 123.783 305.744 123.848 306.125 123.978C306.515 124.099 306.836 124.277 307.087 124.511C307.339 124.736 307.525 125.005 307.646 125.317C307.768 125.62 307.828 125.954 307.828 126.318C307.828 126.673 307.729 127.02 307.529 127.358C307.33 127.687 307.061 127.939 306.723 128.112C307.191 128.303 307.551 128.589 307.802 128.97C308.062 129.343 308.192 129.793 308.192 130.322C308.192 130.738 308.123 131.124 307.984 131.479C307.846 131.826 307.629 132.129 307.334 132.389C307.04 132.64 306.663 132.84 306.203 132.987C305.753 133.126 305.215 133.195 304.591 133.195ZM315.571 123.991C315.727 124.277 315.905 124.632 316.104 125.057C316.312 125.473 316.524 125.928 316.741 126.422C316.966 126.907 317.187 127.406 317.404 127.917C317.621 128.428 317.824 128.909 318.015 129.36C318.206 128.909 318.409 128.428 318.626 127.917C318.843 127.406 319.059 126.907 319.276 126.422C319.501 125.928 319.714 125.473 319.913 125.057C320.121 124.632 320.303 124.277 320.459 123.991H322.305C322.392 124.589 322.47 125.261 322.539 126.006C322.617 126.743 322.682 127.514 322.734 128.32C322.795 129.117 322.847 129.919 322.89 130.725C322.942 131.531 322.985 132.289 323.02 133H321.044C321.018 132.125 320.983 131.171 320.94 130.14C320.897 129.109 320.832 128.069 320.745 127.02C320.589 127.384 320.416 127.787 320.225 128.229C320.034 128.671 319.844 129.113 319.653 129.555C319.471 129.997 319.293 130.422 319.12 130.829C318.947 131.228 318.799 131.57 318.678 131.856H317.261C317.14 131.57 316.992 131.228 316.819 130.829C316.646 130.422 316.464 129.997 316.273 129.555C316.091 129.113 315.905 128.671 315.714 128.229C315.523 127.787 315.35 127.384 315.194 127.02C315.107 128.069 315.042 129.109 314.999 130.14C314.956 131.171 314.921 132.125 314.895 133H312.919C312.954 132.289 312.993 131.531 313.036 130.725C313.088 129.919 313.14 129.117 313.192 128.32C313.253 127.514 313.318 126.743 313.387 126.006C313.465 125.261 313.547 124.589 313.634 123.991H315.571ZM324.846 123.991H326.874V133H324.846V123.991ZM335.004 133C334.424 131.969 333.795 130.95 333.119 129.945C332.443 128.94 331.724 127.991 330.961 127.098V133H328.959V123.991H330.61C330.896 124.277 331.213 124.628 331.559 125.044C331.906 125.46 332.257 125.906 332.612 126.383C332.976 126.851 333.336 127.341 333.691 127.852C334.047 128.355 334.38 128.84 334.692 129.308V123.991H336.707V133H335.004ZM342.309 133.182C341.676 133.182 341.13 133.095 340.671 132.922C340.211 132.74 339.83 132.493 339.527 132.181C339.232 131.86 339.011 131.483 338.864 131.05C338.725 130.608 338.656 130.123 338.656 129.594V123.991H340.684V129.425C340.684 129.789 340.723 130.101 340.801 130.361C340.887 130.612 341 130.82 341.139 130.985C341.286 131.141 341.459 131.254 341.659 131.323C341.867 131.392 342.092 131.427 342.335 131.427C342.829 131.427 343.227 131.275 343.531 130.972C343.843 130.669 343.999 130.153 343.999 129.425V123.991H346.027V129.594C346.027 130.123 345.953 130.608 345.806 131.05C345.658 131.492 345.433 131.873 345.13 132.194C344.826 132.506 344.441 132.749 343.973 132.922C343.505 133.095 342.95 133.182 342.309 133.182ZM354.659 123.991V125.72H351.942V133H349.914V125.72H347.197V123.991H354.659ZM355.962 133V123.991H362.046V125.694H357.99V127.462H361.591V129.126H357.99V131.297H362.345V133H355.962ZM366.303 131.453C366.589 131.453 366.823 131.431 367.005 131.388C367.196 131.336 367.347 131.271 367.46 131.193C367.573 131.106 367.651 131.007 367.694 130.894C367.737 130.781 367.759 130.656 367.759 130.517C367.759 130.222 367.62 129.98 367.343 129.789C367.066 129.59 366.589 129.377 365.913 129.152C365.618 129.048 365.324 128.931 365.029 128.801C364.734 128.662 364.47 128.493 364.236 128.294C364.002 128.086 363.811 127.839 363.664 127.553C363.517 127.258 363.443 126.903 363.443 126.487C363.443 126.071 363.521 125.698 363.677 125.369C363.833 125.031 364.054 124.745 364.34 124.511C364.626 124.277 364.973 124.099 365.38 123.978C365.787 123.848 366.247 123.783 366.758 123.783C367.365 123.783 367.889 123.848 368.331 123.978C368.773 124.108 369.137 124.251 369.423 124.407L368.838 126.006C368.587 125.876 368.305 125.763 367.993 125.668C367.69 125.564 367.321 125.512 366.888 125.512C366.403 125.512 366.052 125.581 365.835 125.72C365.627 125.85 365.523 126.054 365.523 126.331C365.523 126.496 365.562 126.634 365.64 126.747C365.718 126.86 365.826 126.964 365.965 127.059C366.112 127.146 366.277 127.228 366.459 127.306C366.65 127.375 366.858 127.449 367.083 127.527C367.551 127.7 367.958 127.874 368.305 128.047C368.652 128.212 368.938 128.407 369.163 128.632C369.397 128.857 369.57 129.122 369.683 129.425C369.796 129.728 369.852 130.097 369.852 130.53C369.852 131.371 369.557 132.025 368.968 132.493C368.379 132.952 367.49 133.182 366.303 133.182C365.904 133.182 365.545 133.156 365.224 133.104C364.903 133.061 364.617 133.004 364.366 132.935C364.123 132.866 363.911 132.792 363.729 132.714C363.556 132.636 363.408 132.562 363.287 132.493L363.859 130.881C364.128 131.028 364.457 131.163 364.847 131.284C365.246 131.397 365.731 131.453 366.303 131.453Z" fill="#333D7B"/>
</svg>
