<svg width="197" height="137" viewBox="0 0 197 137" fill="none" xmlns="http://www.w3.org/2000/svg">
<path d="M38.7707 76.2185L20.0014 50.4205C14.2079 44.9024 14.2079 35.9639 20.0014 30.4458L38.7707 4.64002C44.5642 -0.878055 53.9489 -0.878055 59.7424 4.64002L79.0541 30.438C84.8476 35.9561 84.8476 44.8946 79.0541 50.4127L59.7424 76.2107C53.9489 81.7288 44.5642 81.7288 38.7707 76.2107V76.2185Z" fill="#F9CDAB"/>
<path d="M42.9698 37.608C44.1907 37.608 45.1804 36.3359 45.1804 34.7668C45.1804 33.1976 44.1907 31.9255 42.9698 31.9255C41.749 31.9255 40.7593 33.1976 40.7593 34.7668C40.7593 36.3359 41.749 37.608 42.9698 37.608Z" fill="#333D7B"/>
<path d="M56.0854 39.6273C57.3063 39.6273 58.296 38.3552 58.296 36.786C58.296 35.2169 57.3063 33.9448 56.0854 33.9448C54.8645 33.9448 53.8748 35.2169 53.8748 36.786C53.8748 38.3552 54.8645 39.6273 56.0854 39.6273Z" fill="#333D7B"/>
<path d="M48.9853 46.6559C51.6857 46.6559 53.8749 45.2612 53.8749 43.5407C53.8749 41.8202 51.6857 40.4255 48.9853 40.4255C46.2849 40.4255 44.0958 41.8202 44.0958 43.5407C44.0958 45.2612 46.2849 46.6559 48.9853 46.6559Z" fill="#333D7B"/>
<path d="M75.9559 40.4334C75.9559 40.4334 122.025 18.0245 132.33 43.9242" stroke="#333D7B" stroke-width="1.5" stroke-linecap="round" stroke-linejoin="round"/>
<path d="M80.7057 43.5404C80.7057 43.5404 116.954 25.4599 130.44 46.6555" stroke="#333D7B" stroke-width="1.5" stroke-linecap="round" stroke-linejoin="round"/>
<mask id="mask0_2404_5811" style="mask-type:luminance" maskUnits="userSpaceOnUse" x="80" y="43" width="104" height="89">
<path d="M183.428 43.5405H80.7057V131.986H183.428V43.5405Z" fill="white"/>
</mask>
<g mask="url(#mask0_2404_5811)">
<path d="M127.53 48.5107H101.916" stroke="#333D7B" stroke-width="1.5" stroke-linecap="round" stroke-linejoin="round"/>
<path d="M162.744 48.5107H137.129" stroke="#333D7B" stroke-width="1.5" stroke-linecap="round" stroke-linejoin="round"/>
<path d="M132.33 53.0974C134.984 53.0974 137.129 51.0467 137.129 48.5107C137.129 45.9748 134.976 43.9241 132.33 43.9241C129.684 43.9241 127.531 45.9748 127.531 48.5107C127.531 51.0467 129.684 53.0974 132.33 53.0974Z" fill="#858BB0" stroke="#858BB0" stroke-width="1.5" stroke-linecap="round" stroke-linejoin="round"/>
<path d="M101.645 51.5712C103.264 51.5712 104.578 50.3189 104.578 48.7691C104.578 47.2194 103.264 45.967 101.645 45.967C100.026 45.967 98.7109 47.2194 98.7109 48.7691C98.7109 50.3189 100.026 51.5712 101.645 51.5712Z" fill="#333D7B" stroke="#333D7B" stroke-width="1.5" stroke-linecap="round" stroke-linejoin="round"/>
<path d="M162.481 51.5712C164.099 51.5712 165.414 50.3189 165.414 48.7691C165.414 47.2194 164.099 45.967 162.481 45.967C160.862 45.967 159.547 47.2194 159.547 48.7691C159.547 50.3189 160.862 51.5712 162.481 51.5712Z" fill="#333D7B" stroke="#333D7B" stroke-width="1.5" stroke-linecap="round" stroke-linejoin="round"/>
<path d="M85.4556 78.5903C84.5024 78.5903 83.7628 79.3887 83.8614 80.2966C84.7489 88.789 92.2599 95.4185 101.382 95.4185C110.503 95.4185 118.006 88.789 118.902 80.2966C119 79.3887 118.261 78.5903 117.308 78.5903H85.4638H85.4556Z" fill="#858BB0" stroke="#858BB0" stroke-width="1.5" stroke-linecap="round" stroke-linejoin="round"/>
<path d="M147.434 79.0991C146.152 79.0991 145.125 80.1714 145.297 81.3846C146.464 89.5952 153.827 95.9273 162.744 95.9273C171.66 95.9273 178.974 89.65 180.173 81.4785C180.362 80.2262 179.376 79.1069 178.053 79.1069H147.426L147.434 79.0991Z" fill="#858BB0" stroke="#858BB0" stroke-width="1.5" stroke-linecap="round" stroke-linejoin="round"/>
<path d="M103.518 51.219L116.856 80.2731" stroke="#333D7B" stroke-width="1.5" stroke-linecap="round" stroke-linejoin="round"/>
<path d="M99.7792 51.219L86.976 78.7468" stroke="#333D7B" stroke-width="1.5" stroke-linecap="round" stroke-linejoin="round"/>
<path d="M161.149 51.5713L148.346 79.0991" stroke="#333D7B" stroke-width="1.5" stroke-linecap="round" stroke-linejoin="round"/>
<path d="M164.346 51.0623L177.683 79.0988" stroke="#333D7B" stroke-width="1.5" stroke-linecap="round" stroke-linejoin="round"/>
</g>
<path d="M43.6685 72.8212C43.6685 72.8212 40.0691 134.123 38.9679 136.385L15.6706 136.048C15.194 136.048 14.7749 135.774 14.6023 135.352C13.912 133.606 12.6876 130.875 15.0379 128.91C17.9387 126.468 29.9695 129.622 30.4379 126.491C37.5298 79.0594 36.3958 69.8313 36.3958 69.8313" stroke="#333D7B" stroke-miterlimit="10" stroke-linecap="round"/>
<path d="M54.2775 73.4323C54.2775 73.4323 56.143 134.123 57.2441 136.385H81.9467C82.4233 136.385 82.8424 136.111 83.015 135.689C83.7053 133.943 85.4885 131.212 83.1465 129.247C80.2456 126.805 68.2148 129.959 67.7464 126.829C60.6545 79.3966 61.0818 70.9512 61.0818 70.9512" stroke="#333D7B" stroke-miterlimit="10" stroke-linecap="round"/>
<path d="M24.2993 43.5403C24.2993 43.5403 10.2962 44.2761 11.4467 51.0543C12.0959 54.8896 20.3958 60.8068 24.1924 65.8788C27.1015 69.7688 26.2715 73.4084 23.8637 73.7606C18.3167 74.5825 1.51145 57.6446 1.18274 46.2954C1.18274 46.2954 3.64806 36.5116 21.2998 37.6779" stroke="#333D7B" stroke-width="1.19" stroke-miterlimit="10" stroke-linecap="round"/>
</svg>
