<svg width="223" height="121" viewBox="0 0 223 121" fill="none" xmlns="http://www.w3.org/2000/svg">
<path d="M84.2407 92.1753L135.682 90.5235C151.675 90.01 161.077 73.3487 152.609 60.5368L125.377 19.3031C116.909 6.49118 96.9207 7.1286 89.3954 20.46L65.1869 63.3395C57.6616 76.6709 68.2477 92.6888 84.2344 92.1753L84.2407 92.1753Z" fill="#858BB0"/>
<path d="M115.103 65.0703C113.738 65.0722 112.629 63.6636 112.627 61.9241C112.624 60.1846 113.728 58.7729 115.093 58.771C116.458 58.7691 117.566 60.1777 117.569 61.9172C117.572 63.6567 116.467 65.0684 115.103 65.0703Z" fill="#333D7B"/>
<path d="M103.219 66.4602C101.854 66.4621 100.746 65.0535 100.743 63.314C100.741 61.5745 101.845 60.1628 103.21 60.1609C104.574 60.159 105.683 61.5676 105.686 63.3071C105.688 65.0466 104.584 66.4583 103.219 66.4602Z" fill="#333D7B"/>
<path d="M103.906 68.7802C103.906 68.7802 103.337 69.5684 103.564 70.3792C103.791 71.19 104.301 72.4444 104.301 72.4444C104.301 72.4444 105.234 71.4722 106.727 71.9556C108.221 72.4331 113.642 74.0123 113.642 74.0123L114.997 69.7536C114.997 69.7536 112.335 68.2535 108.904 68.0688C105.473 67.8841 103.912 68.7861 103.912 68.7861L103.906 68.7802Z" fill="#333D7B"/>
<path d="M103.906 68.7801C105.478 67.0255 114.249 68.9612 114.99 69.7476C115.732 70.534 113.513 76.0549 109.989 76.7584C106.466 77.4618 102.328 70.5288 103.9 68.7801L103.906 68.7801Z" stroke="#333D7B" stroke-width="1.74" stroke-miterlimit="10"/>
<path d="M74.5609 64.7502C62.9927 82.5175 72.2337 93.0595 72.2337 93.0595C72.2337 93.0595 81.4466 103.362 86.001 105.484C86.6811 105.799 87.4885 105.732 88.1057 105.315C88.6276 104.958 89.186 104.437 89.2907 103.772C89.3279 103.544 89.6435 103.459 89.8048 103.634C90.7071 104.596 91.3211 105.946 92.107 105.138C92.7565 104.472 90.0191 101.6 88.2733 99.9011C87.5473 99.1915 86.7554 98.5482 85.9108 97.9677C81.8818 95.1994 67.723 83.8515 78.0101 67.1634" stroke="#333D7B" stroke-width="1.74" stroke-miterlimit="10" stroke-linecap="round"/>
<path d="M132.316 61.9383C132.316 61.9383 146.443 76.2836 156.223 69.3695C166.004 62.4554 171.944 55.2243 173.225 56.0707C174.142 56.68 172.955 58.0328 172.209 58.7487C172.008 58.9399 172.107 59.2557 172.391 59.3215C173.255 59.5223 174.581 60.1087 174.459 61.8313C174.275 64.3596 158.737 76.8445 151.436 77.8054C144.136 78.7663 128.394 64.739 128.394 64.739" stroke="#333D7B" stroke-width="1.47" stroke-miterlimit="10" stroke-linecap="round"/>
</svg>
