<svg width="223" height="112" viewBox="0 0 223 112" fill="none" xmlns="http://www.w3.org/2000/svg">
<path d="M103.01 34.3474C99.9358 31.1777 98.3614 27.3514 102.142 23.6599C105.923 19.9683 109.161 22.4361 109.479 22.1253C109.797 21.8145 107.372 18.5535 111.207 14.8086C115.043 11.0636 118.533 12.5683 121.832 15.9698C125.131 19.3713 124.029 36.4323 123.716 36.7373C123.404 37.0424 106.087 37.5152 103.012 34.3455L103.01 34.3474Z" fill="#858BB0"/>
<path d="M115.347 31.3742C116.236 31.5457 118.358 28.8975 118.389 28.4819C118.42 28.0662 116.425 26.883 115.211 27.4893C113.997 28.0956 114.459 31.2027 115.347 31.3742Z" stroke="#333D7B" stroke-width="1.19" stroke-miterlimit="10"/>
<path d="M115.826 25.7474C115.557 26.0047 114.335 25.8104 114.373 25.1958C113.791 24.9135 113.519 23.8995 113.895 23.7125C113.752 23.3145 114.996 23.5874 115.348 24.2641C116.006 24.4454 116.096 25.4901 115.826 25.7474Z" fill="#333D7B"/>
<path d="M112.888 28.9547C112.618 29.212 111.396 29.0177 111.434 28.4031C110.852 28.1207 110.58 27.1067 110.956 26.9197C110.813 26.5217 112.057 26.7947 112.409 27.4714C113.068 27.6526 113.157 28.6974 112.888 28.9547Z" fill="#333D7B"/>
<path d="M63.9875 76.2075C59.5797 76.1473 55.7697 74.5587 55.8415 69.2661C55.9132 63.9735 59.9419 63.4214 59.9479 62.9758C59.9539 62.5302 55.9407 61.945 56.0135 56.5758C56.0863 51.2067 59.6145 49.7947 64.3447 49.8593C69.0749 49.9238 80.3193 62.7698 80.3134 63.2073C80.3075 63.6447 68.3953 76.2649 63.9875 76.2048L63.9875 76.2075Z" fill="#F489AC"/>
<path d="M70.6159 65.3522C71.3652 64.8429 70.999 61.4653 70.7281 61.1492C70.4573 60.8332 68.2124 61.4121 67.7816 62.7018C67.3508 63.9915 69.8666 65.8614 70.6159 65.3522Z" stroke="#333D7B" stroke-width="1.19" stroke-miterlimit="10"/>
<path d="M66.9891 61.0336C66.98 61.4066 65.9788 62.1363 65.5727 61.6746C64.9618 61.8882 64.0547 61.3643 64.1891 60.965C63.8073 60.7852 64.8792 60.0957 65.6055 60.324C66.1986 59.9853 66.9982 60.6606 66.9891 61.0336Z" fill="#333D7B"/>
<path d="M67.1716 65.3869C67.1626 65.7598 66.1614 66.4896 65.7552 66.0279C65.1444 66.2414 64.2373 65.7175 64.3717 65.3183C63.9899 65.1384 65.0618 64.449 65.7881 64.6772C66.3812 64.3386 67.1807 65.0139 67.1716 65.3869Z" fill="#333D7B"/>
<path d="M142.762 33.5152C147.035 32.4287 151.125 32.9738 152.421 38.1047C153.717 43.2356 149.968 44.815 150.077 45.247C150.186 45.679 154.213 45.2021 155.528 50.4072C156.843 55.6123 153.799 57.8924 149.213 59.0584C144.628 60.2244 130.453 50.736 130.346 50.3119C130.238 49.8879 138.489 34.6043 142.762 33.5178L142.762 33.5152Z" fill="#F489AC"/>
<path d="M139.159 45.7215C138.567 46.4079 139.792 49.5754 140.135 49.8103C140.478 50.0453 142.497 48.9031 142.581 47.5455C142.664 46.1878 139.752 45.0351 139.159 45.7215Z" stroke="#333D7B" stroke-width="1.19" stroke-miterlimit="10"/>
<path d="M143.777 48.9515C143.689 48.5889 144.468 47.624 144.979 47.9645C145.514 47.5996 146.526 47.8701 146.499 48.2907C146.914 48.3652 146.056 49.3096 145.296 49.2777C144.811 49.7588 143.864 49.3141 143.777 48.9515Z" fill="#333D7B"/>
<path d="M142.477 44.7938C142.39 44.4312 143.169 43.4663 143.68 43.8068C144.215 43.4419 145.226 43.7124 145.2 44.133C145.615 44.2075 144.757 45.1518 143.997 45.12C143.511 45.6011 142.565 45.1564 142.477 44.7938Z" fill="#333D7B"/>
<path d="M160.006 64.7236C163.794 66.9869 166.301 70.2741 163.602 74.8216C160.902 79.3691 157.138 77.8262 156.911 78.2091C156.683 78.592 159.867 81.1121 157.129 85.7254C154.39 90.3387 150.631 89.7915 146.566 87.3627C142.502 84.9338 139.166 68.1679 139.389 67.7921C139.612 67.4163 156.218 62.4626 160.005 64.726L160.006 64.7236Z" fill="#F489AC"/>
<path d="M148.856 70.7987C147.954 70.8637 146.588 73.9726 146.665 74.3822C146.742 74.7918 148.974 75.4165 149.99 74.5158C151.006 73.615 149.759 70.7336 148.856 70.7987Z" stroke="#333D7B" stroke-width="1.19" stroke-miterlimit="10"/>
<path d="M149.845 76.3582C150.039 76.0398 151.27 75.9101 151.391 76.5137C152.027 76.6351 152.551 77.5439 152.236 77.8223C152.477 78.1695 151.205 78.2289 150.69 77.6669C150.007 77.6626 149.651 76.6767 149.845 76.3582Z" fill="#333D7B"/>
<path d="M151.856 72.4969C152.05 72.1785 153.281 72.0487 153.403 72.6523C154.038 72.7738 154.562 73.6826 154.247 73.961C154.488 74.3082 153.216 74.3676 152.701 73.8055C152.019 73.8013 151.663 72.8154 151.856 72.4969Z" fill="#333D7B"/>
<path d="M137.77 91.6105C139.922 95.4705 140.456 99.5753 135.851 102.159C131.247 104.743 128.756 101.519 128.369 101.736C127.981 101.954 129.482 105.734 124.812 108.355C120.141 110.976 117.158 108.617 114.849 104.474C112.539 100.332 118.005 84.1386 118.386 83.925C118.766 83.7115 135.616 87.7518 137.768 91.6118L137.77 91.6105Z" fill="#F489AC"/>
<path d="M125.086 91.2788C124.272 90.8823 121.54 92.8894 121.402 93.2828C121.265 93.6762 122.887 95.3372 124.216 95.0667C125.544 94.7962 125.9 91.6753 125.086 91.2788Z" stroke="#333D7B" stroke-width="1.19" stroke-miterlimit="10"/>
<path d="M123.172 96.5896C123.498 96.411 124.629 96.9161 124.433 97.4998C124.923 97.9238 124.924 98.9739 124.512 99.0568C124.548 99.4784 123.417 98.8918 123.251 98.1466C122.662 97.8006 122.845 96.7682 123.172 96.5896Z" fill="#333D7B"/>
<path d="M126.838 94.2544C127.164 94.0758 128.295 94.5808 128.099 95.1646C128.589 95.5886 128.59 96.6387 128.179 96.7216C128.214 97.1432 127.083 96.5566 126.917 95.8114C126.328 95.4654 126.511 94.433 126.838 94.2544Z" fill="#333D7B"/>
<path d="M76.0638 51.0728C72.9893 47.9031 71.4149 44.0767 75.1957 40.3852C78.9765 36.6937 82.2143 39.1615 82.5326 38.8507C82.8509 38.5398 80.4256 35.2788 84.2611 31.5339C88.0965 27.789 91.5864 29.2936 94.8857 32.6952C98.185 36.0967 97.0825 53.1576 96.7701 53.4627C96.4576 53.7678 79.1401 54.2405 76.0657 51.0709L76.0638 51.0728Z" fill="#F489AC"/>
<path d="M88.4011 48.0998C89.2899 48.2713 91.4113 45.6231 91.4426 45.2075C91.4738 44.7918 89.4784 43.6086 88.2648 44.2149C87.0513 44.8212 87.5124 47.9282 88.4011 48.0998Z" stroke="#333D7B" stroke-width="1.19" stroke-miterlimit="10"/>
<path d="M88.8803 42.4728C88.611 42.7301 87.3888 42.5358 87.427 41.9212C86.8446 41.6388 86.5724 40.6248 86.9488 40.4378C86.8056 40.0398 88.0494 40.3127 88.4021 40.9894C89.0602 41.1707 89.1496 42.2155 88.8803 42.4728Z" fill="#333D7B"/>
<path d="M85.9414 45.6805C85.6721 45.9378 84.4499 45.7435 84.4881 45.1289C83.9056 44.8466 83.6334 43.8326 84.0099 43.6456C83.8666 43.2476 85.1105 43.5205 85.4632 44.1972C86.1212 44.3785 86.2107 45.4233 85.9414 45.6805Z" fill="#333D7B"/>
<path d="M61.558 13.1873C62.7568 8.9311 65.2723 5.64994 70.3491 7.08931C75.4259 8.52867 74.9146 12.5758 75.3421 12.697C75.7695 12.8182 77.3716 9.08033 82.5218 10.5405C87.672 12.0007 88.1182 15.7854 86.8318 20.3529C85.5454 24.9204 70.2679 32.4929 69.8483 32.374C69.4287 32.255 60.3619 17.4442 61.5606 13.188L61.558 13.1873Z" fill="#F489AC"/>
<path d="M70.3029 22.4624C70.5992 23.3203 73.9458 23.8396 74.3202 23.6589C74.6945 23.4782 74.7182 21.1528 73.588 20.4015C72.4579 19.6502 70.0066 21.6044 70.3029 22.4624Z" stroke="#333D7B" stroke-width="1.19" stroke-miterlimit="10"/>
<path d="M75.3994 20.0654C75.0427 19.9601 74.5992 18.8009 75.1489 18.5268C75.1014 17.8795 75.8405 17.136 76.1901 17.3696C76.4621 17.0461 76.8484 18.2634 76.4407 18.9082C76.6132 19.5706 75.7561 20.1707 75.3994 20.0654Z" fill="#333D7B"/>
<path d="M71.1612 19.1157C70.8045 19.0104 70.3611 17.8512 70.9107 17.5771C70.8632 16.9298 71.6024 16.1863 71.952 16.4199C72.2239 16.0964 72.6103 17.3137 72.2025 17.9585C72.3751 18.6209 71.518 19.221 71.1612 19.1157Z" fill="#333D7B"/>
<path d="M134.402 7.76894C136.658 3.96906 139.934 1.45293 144.467 4.16158C148.999 6.87023 147.461 10.6467 147.843 10.8748C148.225 11.1028 150.736 7.90836 155.334 10.6562C159.932 13.404 159.387 17.1756 156.966 21.2534C154.545 25.3312 137.835 28.6785 137.46 28.4546C137.086 28.2308 132.149 11.5702 134.404 7.77034L134.402 7.76894Z" fill="#F489AC"/>
<path d="M140.458 18.956C140.522 19.8616 143.621 21.2322 144.029 21.1549C144.438 21.0776 145.06 18.8376 144.162 17.8184C143.265 16.7992 140.393 18.0503 140.458 18.956Z" stroke="#333D7B" stroke-width="1.19" stroke-miterlimit="10"/>
<path d="M145.999 17.964C145.681 17.7696 145.552 16.5348 146.154 16.4127C146.275 15.7752 147.18 15.249 147.458 15.5654C147.804 15.3236 147.863 16.5997 147.303 17.1166C147.299 17.8013 146.316 18.1583 145.999 17.964Z" fill="#333D7B"/>
<path d="M142.15 15.9459C141.833 15.7515 141.703 14.5167 142.305 14.3947C142.426 13.7571 143.332 13.2309 143.609 13.5473C143.955 13.3055 144.014 14.5816 143.454 15.0986C143.45 15.7832 142.467 16.1403 142.15 15.9459Z" fill="#333D7B"/>
<path d="M111.169 50.2405C115.442 49.154 119.532 49.6992 120.828 54.8301C122.124 59.961 118.375 61.5404 118.485 61.9723C118.594 62.4043 122.621 61.9275 123.936 67.1326C125.251 72.3377 122.207 74.6177 117.621 75.7837C113.035 76.9497 98.8604 67.4613 98.7532 67.0373C98.6461 66.6132 106.897 51.3297 111.17 50.2432L111.169 50.2405Z" fill="#F489AC"/>
<path d="M107.567 62.4473C106.974 63.1337 108.2 66.3012 108.543 66.5361C108.886 66.7711 110.905 65.6289 110.988 64.2713C111.072 62.9137 108.159 61.7609 107.567 62.4473Z" stroke="#333D7B" stroke-width="1.19" stroke-miterlimit="10"/>
<path d="M112.184 65.6768C112.097 65.3142 112.876 64.3494 113.387 64.6898C113.922 64.325 114.933 64.5954 114.907 65.016C115.322 65.0906 114.464 66.0349 113.704 66.003C113.218 66.4842 112.272 66.0395 112.184 65.6768Z" fill="#333D7B"/>
<path d="M110.885 61.5194C110.797 61.1568 111.576 60.1919 112.088 60.5324C112.623 60.1675 113.634 60.438 113.607 60.8585C114.022 60.9331 113.165 61.8774 112.404 61.8455C111.919 62.3267 110.972 61.882 110.885 61.5194Z" fill="#333D7B"/>
<path d="M102.702 97.8729C100.446 101.673 97.1698 104.189 92.6373 101.48C88.1048 98.7716 89.6426 94.9951 89.261 94.7671C88.8794 94.539 86.3677 97.7335 81.7696 94.9857C77.1716 92.2378 77.7169 88.4662 80.1377 84.3884C82.5586 80.3106 99.269 76.9633 99.6435 77.1872C100.018 77.4111 104.955 94.0716 102.7 97.8715L102.702 97.8729Z" fill="#F489AC"/>
<path d="M96.6465 86.6859C96.5816 85.7802 93.483 84.4096 93.0748 84.487C92.6666 84.5643 92.0439 86.8043 92.9417 87.8235C93.8395 88.8427 96.7114 87.5916 96.6465 86.6859Z" stroke="#333D7B" stroke-width="1.19" stroke-miterlimit="10"/>
<path d="M91.1051 87.6779C91.4225 87.8722 91.5518 89.1071 90.9502 89.2291C90.8291 89.8666 89.9234 90.3929 89.6459 90.0765C89.2998 90.3183 89.2406 89.0422 89.8008 88.5252C89.8051 87.8406 90.7877 87.4835 91.1051 87.6779Z" fill="#333D7B"/>
<path d="M94.954 89.6957C95.2714 89.8901 95.4007 91.1249 94.7991 91.2469C94.678 91.8845 93.7722 92.4107 93.4948 92.0943C93.1487 92.3361 93.0895 91.06 93.6497 90.543C93.6539 89.8584 94.6366 89.5013 94.954 89.6957Z" fill="#333D7B"/>
</svg>
