<svg width="223" height="112" viewBox="0 0 223 112" fill="none" xmlns="http://www.w3.org/2000/svg">
<mask id="mask0_2352_7881" style="mask-type:alpha" maskUnits="userSpaceOnUse" x="51" y="0" width="121" height="112">
<path d="M51.8083 38.0003C51.8928 17.9368 58.9364 0.529267 82.9475 0.630356C106.959 0.731445 109.635 19.0431 111.657 19.0516C113.678 19.0601 116.161 0.770189 140.52 0.87274C164.878 0.975291 171.434 16.9726 171.343 38.5035C171.253 60.0345 113.462 111.757 111.477 111.749C109.493 111.741 51.7362 58.0638 51.8207 38.0003L51.8083 38.0003Z" fill="#F489AC"/>
</mask>
<g mask="url(#mask0_2352_7881)">
<path d="M51.8083 38.0003C51.8928 17.9368 58.9364 0.529267 82.9475 0.630356C106.959 0.731445 109.635 19.0431 111.657 19.0516C113.678 19.0601 116.161 0.770189 140.52 0.87274C164.878 0.975291 171.434 16.9726 171.343 38.5035C171.253 60.0345 113.462 111.757 111.477 111.749C109.493 111.741 51.7362 58.0638 51.8207 38.0003L51.8083 38.0003Z" fill="#F489AC"/>
<path d="M51.8084 55.9381C51.8929 35.8746 57.1349 26.6102 81.1461 26.7113C105.157 26.8123 107.393 32.2185 109.414 32.227C111.436 32.2355 123.893 17.0475 149.403 23.2639C171.343 21.8737 171.434 34.9104 171.343 56.4413C171.253 77.9723 113.462 129.695 111.477 129.687C109.493 129.679 51.7364 76.0016 51.8208 55.9381L51.8084 55.9381Z" fill="#858BB0"/>
<path d="M105.092 69.5715C106.884 72.1056 118.402 70.6165 119.463 69.6659C120.524 68.7154 118.39 61.0582 113.953 59.67C109.515 58.2819 103.3 67.0374 105.092 69.5715Z" stroke="#333D7B" stroke-width="1.19" stroke-miterlimit="10"/>
<path d="M119.6 56.8372C118.325 56.8319 115.762 53.4493 117.311 52.0248C116.539 49.9451 118.267 46.7986 119.641 47.2317C120.229 45.9103 122.659 49.538 121.929 52.0442C123.128 54.0544 120.875 56.8426 119.6 56.8372Z" fill="#333D7B"/>
<path d="M104.735 57.7635C103.46 57.7581 100.896 54.3756 102.446 52.951C101.674 50.8713 103.402 47.7248 104.775 48.158C105.363 46.8365 107.794 50.4643 107.064 52.9705C108.263 54.9807 106.01 57.7689 104.735 57.7635Z" fill="#333D7B"/>
</g>
</svg>
