<svg width="223" height="112" viewBox="0 0 223 112" fill="none" xmlns="http://www.w3.org/2000/svg">
<path d="M111.5 111.5C144.544 111.5 171.331 109.813 171.331 107.733C171.331 105.653 144.544 103.966 111.5 103.966C78.4565 103.966 51.6694 105.653 51.6694 107.733C51.6694 109.813 78.4565 111.5 111.5 111.5Z" fill="#F9CDAB"/>
<path d="M106.852 2.63318L110.261 12.29C110.575 13.1734 111.562 13.5568 112.343 13.087L120.844 8.00103C123.931 6.1516 127.54 9.34299 126.349 12.8727L123.072 22.5822C122.773 23.4731 123.3 24.4354 124.181 24.6045L133.794 26.469C137.288 27.1456 138.105 32.0361 135.042 33.9306L126.613 39.1481C125.839 39.6255 125.657 40.7193 126.228 41.4486L132.457 49.3913C134.721 52.2783 132.364 56.5785 128.863 55.9546L119.225 54.2405C118.34 54.0826 117.535 54.7968 117.528 55.7403L117.456 66.0437C117.431 69.7877 113.006 71.4867 110.703 68.6337L104.367 60.7886C103.786 60.0707 102.734 60.0707 102.153 60.7886L95.8167 68.6337C93.5134 71.483 89.0885 69.7877 89.0635 66.0437L88.9922 55.7403C88.9851 54.7968 88.1792 54.0826 87.295 54.2405L77.6572 55.9546C74.1558 56.5785 71.799 52.2783 74.0631 49.3913L80.2922 41.4486C80.8627 40.7193 80.6808 39.6255 79.9071 39.1481L71.4781 33.9306C68.4152 32.0361 69.2317 27.1456 72.726 26.469L82.3388 24.6045C83.2195 24.4354 83.7472 23.4731 83.4477 22.5822L80.1709 12.8727C78.98 9.34299 82.5884 6.1516 85.6762 8.00103L94.1765 13.087C94.9574 13.5531 95.9451 13.1734 96.2588 12.29L99.6675 2.63318C100.908 -0.877726 105.615 -0.877726 106.856 2.63318H106.852Z" fill="#858BB0"/>
<path d="M91.8349 33.9674C91.6126 33.0676 92.3606 32.2316 93.2178 32.4228C95.2711 32.8802 98.5415 33.8999 98.912 35.8156C99.2824 37.7314 97.4549 38.6724 96.2448 39.0847C95.6133 39.2984 94.9183 39.1297 94.442 38.6386C93.6236 37.8026 92.3958 36.2393 91.8384 33.9674H91.8349Z" fill="#333D7B"/>
<path d="M113.252 33.9674C113.474 33.0676 112.726 32.2316 111.869 32.4228C109.815 32.8802 106.545 33.8999 106.175 35.8156C105.804 37.7314 107.632 38.6724 108.842 39.0847C109.473 39.2984 110.168 39.1297 110.644 38.6386C111.463 37.8026 112.691 36.2393 113.248 33.9674H113.252Z" fill="#333D7B"/>
<path d="M106.839 44.6825C106.893 43.8531 106.243 43.1755 105.481 43.2845C103.738 43.5377 100.571 43.8453 98.9038 43.0782C96.5245 41.9878 101.1 47.8406 104.395 47.4434C106.275 47.2175 106.764 45.8312 106.836 44.6825H106.839Z" stroke="#333D7B" stroke-miterlimit="10"/>
<path d="M106.297 46.7093C106.297 46.7093 98.1755 43.9904 98.2446 43.7323C98.3136 43.4742 100.715 44.6956 106.01 43.9468C106.704 44.4229 107.329 45.0736 106.297 46.7093Z" fill="#333D7B"/>
<path d="M152.682 58.7443L160.177 76.7628C160.209 76.8428 160.251 76.9152 160.298 76.9875L171.108 92.9566C171.694 93.8251 171.047 95.0289 170.052 94.9184L151.748 92.869C151.666 92.8613 151.588 92.8613 151.506 92.869L133.201 94.9184C132.206 95.0289 131.556 93.8251 132.146 92.9566L142.956 76.9875C143.002 76.919 143.045 76.8428 143.077 76.7628L150.571 58.7443C150.98 57.7653 152.277 57.7653 152.686 58.7443H152.682Z" fill="#F9CDAB"/>
<path d="M159.285 106.064C159.523 107.174 154.764 106.758 154.764 106.758L153.825 91.6018" stroke="#333D7B" stroke-width="1.02" stroke-miterlimit="10" stroke-linecap="round"/>
<path d="M155.849 92.0477C155.849 92.0477 155.749 102.807 156.261 104.345C156.301 104.465 156.432 104.525 156.535 104.462C157.136 104.101 159.071 103.899 159.284 106.063" stroke="#333D7B" stroke-width="1.02" stroke-miterlimit="10" stroke-linecap="round"/>
<path d="M143.753 106.064C143.515 107.174 148.273 106.758 148.273 106.758L149.227 91.6018" stroke="#333D7B" stroke-width="1.02" stroke-miterlimit="10" stroke-linecap="round"/>
<path d="M147.203 92.0477C147.203 92.0477 147.288 102.755 146.79 104.304C146.744 104.447 146.591 104.51 146.463 104.443C145.823 104.098 143.959 103.944 143.753 106.067" stroke="#333D7B" stroke-width="1.02" stroke-miterlimit="10" stroke-linecap="round"/>
<path d="M155.567 82.8715C155.567 82.8715 155.558 84.1271 156.283 84.3782" stroke="#333D7B" stroke-width="1.84" stroke-miterlimit="10" stroke-linecap="round"/>
<path d="M147.685 82.8715C147.685 82.8715 147.415 83.6185 146.252 83.6239" stroke="#333D7B" stroke-width="1.84" stroke-miterlimit="10" stroke-linecap="round"/>
<path d="M148.472 84.3855C148.472 84.3855 147.009 84.6305 146.915 85.2045C146.821 85.7784 146.63 85.5124 146.423 85.8204C146.215 86.1284 146.176 86.5798 146.423 86.9683C146.669 87.3567 146.423 87.8292 146.423 87.8292C146.423 87.8292 146.231 88.2807 146.763 88.3611C147.295 88.4416 147.068 88.8546 147.363 88.8931C147.658 88.9351 148.154 88.7286 148.17 88.3191C148.17 88.3191 148.206 88.0812 148.475 87.9097C148.939 87.6157 148.712 87.5317 148.666 87.1293C148.627 86.7828 148.767 86.9298 149.007 86.4748C149.354 85.8239 148.78 85.9219 148.78 85.6139C148.78 85.3059 149.026 85.4494 149.065 84.8755C149.104 84.3015 148.475 84.382 148.475 84.382L148.472 84.3855Z" fill="#333D7B"/>
<path d="M154.064 83.6335C154.064 83.6335 155.526 83.9193 155.62 84.589C155.714 85.2587 155.905 84.9484 156.113 85.3077C156.32 85.6671 156.359 86.1939 156.113 86.6472C155.866 87.1004 156.113 87.6517 156.113 87.6517C156.113 87.6517 156.304 88.1785 155.772 88.2724C155.241 88.3664 155.468 88.8482 155.172 88.8931C154.877 88.938 154.381 88.7012 154.365 88.2234C154.365 88.2234 154.329 87.9457 154.06 87.7456C153.597 87.4026 153.824 87.3046 153.869 86.835C153.908 86.4307 153.769 86.6022 153.529 86.0714C153.182 85.3118 153.756 85.4262 153.756 85.0668C153.756 84.7074 153.509 84.8749 153.47 84.2052C153.431 83.5355 154.06 83.6294 154.06 83.6294L154.064 83.6335Z" fill="#333D7B"/>
<path d="M163.192 92.6655L163.996 95.8774C164.13 96.5809 164.223 97.2691 164.123 97.9689C164.015 98.7298 163.363 98.8292 163.11 98.55C162.815 98.2289 162.663 97.7968 162.543 97.3762L161.299 93.0899" stroke="#333D7B" stroke-width="0.98" stroke-miterlimit="10" stroke-linecap="round"/>
<path d="M101.767 40.6925C102.557 40.5609 102.867 41.753 102.108 42.0201C102.096 42.0201 102.085 42.028 102.077 42.032C101.334 42.2752 97.7336 42.1835 95.5445 42.1038C95.3336 42.0958 95.3183 41.7809 95.5253 41.745L101.771 40.6925H101.767Z" fill="#333D7B"/>
<path d="M103.32 40.6925C102.53 40.5609 102.22 41.753 102.979 42.0201C102.99 42.0201 103.002 42.028 103.009 42.032C103.753 42.2752 107.353 42.1835 109.542 42.1038C109.753 42.0958 109.768 41.7809 109.561 41.745L103.316 40.6925H103.32Z" fill="#333D7B"/>
<path d="M98.9607 58.7634C98.9607 58.7634 96.5564 105.266 95.818 106.98L80.2414 106.722C79.9229 106.722 79.6394 106.514 79.5275 106.193C79.062 104.866 78.2501 102.801 79.8144 101.303C81.7532 99.4541 89.7952 101.84 90.1102 99.4692C94.8521 63.4867 93.6728 59.0168 93.6728 59.0168" stroke="#333D7B" stroke-width="1.57" stroke-miterlimit="10" stroke-linecap="round"/>
<path d="M106.126 59.2285C106.126 59.2285 107.415 105.267 108.179 106.98H125.264C125.594 106.98 125.887 106.772 126.003 106.45C126.484 105.123 127.715 103.058 126.097 101.561C124.091 99.7118 115.771 102.098 115.445 99.7269C110.539 63.7473 112.255 58.7634 112.255 58.7634" stroke="#333D7B" stroke-width="1.57" stroke-miterlimit="10" stroke-linecap="round"/>
<path d="M128.325 53.49L140.389 94.5308C140.479 94.8355 140.526 95.1554 140.519 95.4752C140.497 96.5025 140.206 98.6585 138.178 99.3095C137.101 99.6557 136.331 99.2982 135.798 98.7451C135.013 97.9361 134.804 96.6868 135.182 95.6032C135.376 95.05 135.531 94.3652 135.387 93.8008C135.095 92.6343 123.323 53.6894 123.323 53.6894" stroke="#333D7B" stroke-width="1.57" stroke-miterlimit="10" stroke-linecap="round"/>
<path d="M79.6632 49.9571L76.7559 93.0193C76.7341 93.3409 76.756 93.6624 76.8324 93.9765C77.0761 94.9753 77.8366 97.0221 79.9761 97.1772C81.1113 97.2604 81.7917 96.727 82.1956 96.0573C82.7887 95.0774 82.7268 93.8024 82.1156 92.8377C81.8026 92.3421 81.5043 91.7102 81.5188 91.1238C81.5516 89.9131 84.6298 48.9696 84.6298 48.9696" stroke="#333D7B" stroke-width="1.57" stroke-miterlimit="10" stroke-linecap="round"/>
</svg>
