<svg width="180" height="200" viewBox="0 0 180 200" fill="none" xmlns="http://www.w3.org/2000/svg">
<g clip-path="url(#clip0_2164_12503)">
<path d="M0 184.262C0 186.674 12.3398 200.499 86.1235 199.988C161.189 199.467 173.79 186.674 173.79 184.262C173.79 181.85 134.885 174.538 86.8948 174.538C38.904 174.538 0 181.844 0 184.262Z" fill="#999EBD"/>
<path d="M128.715 47.2832L139.739 81.2177C140.052 82.1861 140.951 82.8356 141.971 82.8356H177.651C179.924 82.8356 180.869 85.7407 179.031 87.0803L150.165 108.054C149.341 108.652 148.999 109.713 149.312 110.676L160.336 144.61C161.038 146.773 158.567 148.565 156.729 147.231L127.863 126.257C127.039 125.66 125.926 125.66 125.108 126.257L96.242 147.231C94.4038 148.565 91.9335 146.767 92.6352 144.61L103.659 110.676C103.972 109.707 103.63 108.652 102.806 108.054L73.9399 87.0803C72.1017 85.7465 73.0469 82.8356 75.32 82.8356H111C112.015 82.8356 112.914 82.1803 113.232 81.2177L124.256 47.2832C124.958 45.1203 128.014 45.1203 128.715 47.2832Z" fill="#F9CDAB"/>
<path d="M130.605 126.118C130.605 126.118 131.209 180.104 132.055 181.925L147.103 182.018C147.468 182.018 147.787 181.722 147.921 181.386C148.454 179.977 149.272 176.451 147.468 174.857C145.236 172.885 140.231 175.57 139.872 173.042C134.415 134.741 136.77 124.175 136.77 124.175" stroke="#333D7B" stroke-width="1.29" stroke-miterlimit="10" stroke-linecap="round"/>
<path d="M123.091 124.262C123.091 124.262 120.603 179.698 119.757 181.519L113.048 181.38C112.682 181.38 105.016 181.45 104.889 181.108C104.355 179.698 103.538 175.987 105.341 174.398C107.574 172.427 112.508 174.839 112.868 172.311C118.325 134.01 116.968 129.255 116.968 129.255" stroke="#333D7B" stroke-width="1.29" stroke-miterlimit="10" stroke-linecap="round"/>
<path d="M123.038 101.711C124.981 101.531 125.456 102.151 128.988 102.395" stroke="#333D7B" stroke-width="1.83" stroke-miterlimit="10" stroke-linecap="round"/>
<path d="M132.484 91.3946C133.783 90.7335 134.433 90.548 136.201 91.5686" stroke="#333D7B" stroke-width="1.21" stroke-miterlimit="10" stroke-linecap="round"/>
<path d="M115.239 93.0356C117.362 92.218 117.234 93.7895 120.052 93.9808" stroke="#333D7B" stroke-width="1.46" stroke-miterlimit="10" stroke-linecap="round"/>
<path d="M117.258 99.9189C118.356 99.9189 119.247 98.7168 119.247 97.234C119.247 95.7512 118.356 94.5492 117.258 94.5492C116.159 94.5492 115.269 95.7512 115.269 97.234C115.269 98.7168 116.159 99.9189 117.258 99.9189Z" fill="#333D7B"/>
<path d="M134.155 99.9942C135.253 99.9942 136.144 98.7921 136.144 97.3093C136.144 95.8266 135.253 94.6245 134.155 94.6245C133.057 94.6245 132.166 95.8266 132.166 97.3093C132.166 98.7921 133.057 99.9942 134.155 99.9942Z" fill="#333D7B"/>
<path d="M124.367 98.8402C124.703 98.8402 124.976 98.5676 124.976 98.2313C124.976 97.895 124.703 97.6224 124.367 97.6224C124.03 97.6224 123.758 97.895 123.758 98.2313C123.758 98.5676 124.03 98.8402 124.367 98.8402Z" fill="#FF7B73"/>
<path d="M135.848 88.9823C136.184 88.9823 136.457 88.7097 136.457 88.3734C136.457 88.0371 136.184 87.7645 135.848 87.7645C135.512 87.7645 135.239 88.0371 135.239 88.3734C135.239 88.7097 135.512 88.9823 135.848 88.9823Z" fill="#FF7B73"/>
<path d="M137.176 107.782C137.513 107.782 137.785 107.509 137.785 107.173C137.785 106.837 137.513 106.564 137.176 106.564C136.84 106.564 136.567 106.837 136.567 107.173C136.567 107.509 136.84 107.782 137.176 107.782Z" fill="#FF7B73"/>
<path d="M108.512 90.519C108.848 90.519 109.121 90.2464 109.121 89.9101C109.121 89.5739 108.848 89.3013 108.512 89.3013C108.176 89.3013 107.903 89.5739 107.903 89.9101C107.903 90.2464 108.176 90.519 108.512 90.519Z" fill="#FF7B73"/>
<path d="M106.703 110.449C106.703 110.449 99.3796 110.966 99.9826 115.692C100.325 118.371 104.662 122.494 106.645 126.031C108.165 128.745 107.73 131.284 106.471 131.534C103.572 132.108 93.5402 124.164 93.3662 116.242" stroke="#333D7B" stroke-width="0.99" stroke-miterlimit="10" stroke-linecap="round"/>
<path d="M101.792 105.318C101.792 105.318 92.9723 108.437 93.3434 116.353" stroke="#333D7B" stroke-width="0.99" stroke-miterlimit="10" stroke-linecap="round"/>
<path d="M142.783 108.379C142.783 108.379 150.107 107.863 149.504 103.137C149.162 100.458 144.824 96.3352 142.841 92.7979C141.322 90.0841 141.757 87.5442 143.015 87.2949C145.914 86.7208 155.946 94.6651 156.12 102.586" stroke="#333D7B" stroke-width="0.99" stroke-miterlimit="10" stroke-linecap="round"/>
<path d="M147.399 113.401C147.399 113.401 156.295 110.502 156.121 102.58" stroke="#333D7B" stroke-width="0.99" stroke-miterlimit="10" stroke-linecap="round"/>
<path d="M116.944 114.601C118.765 116.231 121.404 116.932 123.804 114.277" stroke="#F7B98A" stroke-width="1.31" stroke-linecap="round" stroke-linejoin="round"/>
<path d="M129.44 114.445C131.261 116.074 133.911 116.886 136.312 114.23" stroke="#F7B98A" stroke-width="1.31" stroke-miterlimit="10" stroke-linecap="round"/>
<path d="M44.2334 131.725L53.0186 153.215C53.0824 153.372 53.1694 153.523 53.2737 153.656L67.4923 172.009C68.5303 173.343 67.417 175.262 65.7469 175.036L42.7431 171.899C42.575 171.876 42.401 171.876 42.2329 171.899L19.2291 175.036C17.5532 175.262 16.4457 173.343 17.4836 172.009L31.7023 153.656C31.8066 153.523 31.8936 153.372 31.9574 153.215L40.7426 131.725C41.3804 130.159 43.5956 130.159 44.2392 131.725H44.2334Z" fill="#F9CDAB"/>
<path d="M40.7246 160.423C40.8638 160.447 41.6814 161.879 43.3573 160.487" stroke="#333D7B" stroke-width="0.65" stroke-miterlimit="10" stroke-linecap="round"/>
<path d="M46.5986 154.984C47.1727 154.688 47.4626 154.607 48.2455 155.059" stroke="#333D7B" stroke-width="0.54" stroke-miterlimit="10" stroke-linecap="round"/>
<path d="M36.3818 154.961C36.9617 154.665 37.2575 154.578 38.0461 155.036" stroke="#333D7B" stroke-width="0.54" stroke-miterlimit="10" stroke-linecap="round"/>
<path d="M37.2163 158.805C37.8601 158.805 38.3819 158.099 38.3819 157.228C38.3819 156.357 37.8601 155.651 37.2163 155.651C36.5726 155.651 36.0508 156.357 36.0508 157.228C36.0508 158.099 36.5726 158.805 37.2163 158.805Z" fill="#333D7B"/>
<path d="M47.1324 158.852C47.7761 158.852 48.2979 158.146 48.2979 157.275C48.2979 156.403 47.7761 155.697 47.1324 155.697C46.4886 155.697 45.9668 156.403 45.9668 157.275C45.9668 158.146 46.4886 158.852 47.1324 158.852Z" fill="#333D7B"/>
<path d="M52.8678 180.36C53.2563 182.076 45.4976 181.432 45.4976 181.432L43.9551 170.246" stroke="#333D7B" stroke-width="1.02" stroke-miterlimit="10" stroke-linecap="round"/>
<path d="M47.2542 170.937C47.2542 170.937 47.0803 175.906 48.1124 178.133C48.3792 177.495 52.4673 176.521 52.8674 180.36" stroke="#333D7B" stroke-width="1.02" stroke-miterlimit="10" stroke-linecap="round"/>
<path d="M30.977 180.064C30.5885 181.78 38.3473 181.137 38.3473 181.137L39.8897 169.951" stroke="#333D7B" stroke-width="1.02" stroke-miterlimit="10" stroke-linecap="round"/>
<path d="M36.5908 170.641C36.5908 170.641 36.7647 175.61 35.7325 177.837C35.4658 177.199 31.3777 176.225 30.9775 180.064" stroke="#333D7B" stroke-width="1.02" stroke-miterlimit="10" stroke-linecap="round"/>
<path d="M81.5421 116.973C81.1942 117.767 80.9274 118.568 80.7709 119.42C80.6143 120.273 80.3998 121.009 80.0634 121.774C79.9823 121.966 80.0054 122.186 80.2026 122.302C80.365 122.401 80.6491 122.354 80.7303 122.163C81.0782 121.368 81.345 120.568 81.5015 119.716C81.6581 118.863 81.8727 118.127 82.209 117.362C82.2902 117.17 82.267 116.95 82.0698 116.834C81.9074 116.735 81.6233 116.782 81.5421 116.973Z" fill="#333D7B"/>
<path d="M59.8261 135.39C61.9948 134.427 63.6359 132.705 65.1146 130.89C66.5932 129.075 68.0661 127.144 69.7188 125.41C72.9719 121.995 76.7933 119.374 81.2758 117.866C81.7455 117.709 81.5425 116.961 81.0728 117.124C77.7037 118.255 74.613 119.971 71.9049 122.273C69.0113 124.726 66.7556 127.701 64.3549 130.606C62.9748 132.276 61.4439 133.83 59.4376 134.723C58.9852 134.926 59.3796 135.593 59.8261 135.39Z" fill="#333D7B"/>
<path d="M29.1393 162.412C29.1393 162.412 27.0808 168.408 30.8558 164.813" stroke="#333D7B" stroke-width="0.98" stroke-miterlimit="10"/>
<path d="M53.7721 162.76C53.7721 162.76 55.8307 168.756 52.0557 165.161" stroke="#333D7B" stroke-width="0.98" stroke-miterlimit="10"/>
<path d="M76.4109 117.101C78.1505 117.222 79.8844 117.344 81.624 117.472C82.1227 117.507 82.1169 116.735 81.624 116.701C79.8844 116.579 78.1505 116.457 76.4109 116.329C75.9122 116.295 75.918 117.066 76.4109 117.101Z" fill="#333D7B"/>
</g>
<defs>
<clipPath id="clip0_2164_12503">
<rect width="180" height="154.335" fill="white" transform="translate(0 45.6654)"/>
</clipPath>
</defs>
</svg>
