<svg width="180" height="200" viewBox="0 0 180 200" fill="none" xmlns="http://www.w3.org/2000/svg">
<path d="M90 200C139.706 200 180 196.621 180 192.453C180 188.285 139.706 184.906 90 184.906C40.2944 184.906 0 188.285 0 192.453C0 196.621 40.2944 200 90 200Z" fill="#F9CDAB"/>
<path d="M89.9206 83.2813C88.9717 84.3396 88.8958 84.5716 89.7877 85.6392C94.3802 91.5616 94.959 89.213 89.4936 94.3464C88.725 95.3397 90.5468 96.1937 91.1636 96.9642C93.2131 99.0064 94.4846 99.0157 92.084 101.568C91.4957 102.515 89.9491 103.49 90.2527 104.641C90.6797 105.569 93.0328 106.813 93.4883 107.946C93.5547 108.187 93.4693 108.447 93.346 108.679C92.3117 110.461 89.8352 114.499 88.725 116.328C88.6301 116.384 88.5542 116.412 88.5163 116.412C86.9981 116.412 42.9521 77.2939 42.9521 61.0861C42.9521 44.8784 48.0285 32.8571 66.6546 32.8571C85.2807 32.8571 87.1309 46.6235 88.6776 46.6235C88.7155 46.6235 88.7535 46.6143 88.7914 46.5957C89.3797 47.9138 91.7044 48.6565 92.1884 49.7518C92.1789 50.4945 91.4957 50.9679 90.7746 51.7941C90.0534 52.6759 89.2659 53.0658 89.2469 53.9477C90.0345 55.3122 92.3307 56.8718 93.5262 58.1342C94.0576 58.6819 94.7313 59.0346 94.8641 59.703C94.6364 60.6963 91.9796 62.2279 91.3818 63.1005C90.841 63.7782 91.5052 64.3908 91.9417 64.9942C92.6153 65.8668 93.5927 67.1014 94.2284 67.9276C95.0919 69.0137 95.0919 69.3571 93.9627 70.0533C93.0233 70.6753 91.6475 71.3808 90.7651 72.0677C90.3855 72.3555 90.3855 72.7175 90.6986 73.0517C91.4103 73.8314 93.6211 75.6416 94.4751 76.4956C94.7313 76.7648 95.0065 77.0433 94.9116 77.4146C94.5605 78.1943 93.3744 79.2804 92.6723 80.153C91.7614 81.1834 90.8125 82.2602 89.9206 83.2813Z" fill="#F49B58"/>
<path d="M136.985 63.2118C136.198 77.8972 92.2561 114.574 88.5176 116.411C89.7226 114.638 92.3035 110.368 93.4327 108.642C93.5655 108.419 93.6699 108.159 93.6129 107.918C93.2144 106.767 90.9372 105.402 90.5576 104.455C90.3204 103.286 91.9145 102.394 92.5502 101.485C95.0837 99.0619 93.8122 98.9877 91.8765 96.8434C91.2977 96.045 89.5329 95.0982 90.3489 94.1421C96.08 89.2964 95.3778 91.6078 91.108 85.4626C90.273 84.3487 90.3584 84.1259 91.3642 83.1141C92.313 82.1394 93.3188 81.109 94.2771 80.1343C95.0267 79.2989 96.2697 78.2777 96.6588 77.5166C96.7726 77.1545 96.5164 76.8575 96.2697 76.579C95.4632 75.6786 93.3473 73.757 92.6831 72.9494C92.3889 72.5967 92.4079 72.2346 92.8064 71.9747C93.7268 71.3342 95.1406 70.703 96.1084 70.1275C97.2755 69.4869 97.2945 69.1435 96.488 68.0203C95.8997 67.1662 94.9888 65.8759 94.3625 64.9755C93.9545 64.3535 93.3283 63.7038 93.9071 63.054C94.5523 62.2092 97.285 60.8168 97.5697 59.8421C97.4748 59.1645 96.8201 58.7839 96.3172 58.2083C95.188 56.8902 92.9772 55.21 92.2656 53.8083C92.332 52.9264 93.1385 52.583 93.9071 51.7382C94.6757 50.9492 95.3778 50.5129 95.4253 49.7703C94.9983 48.647 92.721 47.793 92.1991 46.447C93.7648 45.8901 96.915 32.9313 114.81 33.8503C132.706 34.7693 137.782 48.1643 136.966 63.2582L136.985 63.2118Z" fill="#F49B58"/>
<path d="M84.8532 70.7214C86.2629 70.7214 87.4056 69.2127 87.4056 67.3517C87.4056 65.4907 86.2629 63.9821 84.8532 63.9821C83.4435 63.9821 82.3008 65.4907 82.3008 67.3517C82.3008 69.2127 83.4435 70.7214 84.8532 70.7214Z" fill="#333D7B"/>
<path d="M102.54 71.8078C103.949 71.8078 105.092 70.2991 105.092 68.4381C105.092 66.5771 103.949 65.0685 102.54 65.0685C101.13 65.0685 99.9873 66.5771 99.9873 68.4381C99.9873 70.2991 101.13 71.8078 102.54 71.8078Z" fill="#333D7B"/>
<path d="M84.8542 108.54C84.8542 108.54 81.3434 190.108 80.0625 192.781H48.7502C48.1998 192.781 47.7159 192.456 47.5167 191.955C46.7196 189.885 44.9832 184.464 47.6874 182.124C51.0369 179.228 64.9282 182.969 65.469 179.256C73.6577 123.002 75.6028 103.954 75.6028 103.954" stroke="#333D7B" stroke-width="1.19" stroke-miterlimit="10" stroke-linecap="round"/>
<path d="M93.3457 108.679C93.3457 108.679 94.0099 190.098 95.2814 192.781H126.594C127.144 192.781 127.628 192.456 127.827 191.955C128.624 189.885 130.361 184.464 127.656 182.124C124.307 179.228 110.416 182.969 109.875 179.256C101.686 123.002 106.127 98.5234 106.127 98.5234" stroke="#333D7B" stroke-width="1.19" stroke-miterlimit="10" stroke-linecap="round"/>
<path d="M112.684 91.5335C115.198 102.664 121.565 112.541 127.827 122.157C128.539 123.253 129.289 124.385 130.399 125.119C131.509 125.852 133.084 126.056 134.137 125.267C135.01 124.608 135.333 123.448 135.342 122.371C135.361 120.811 134.887 119.289 134.365 117.804C131.813 110.526 128.159 103.675 124.516 96.8619C122.476 93.0374 120.436 89.2221 118.396 85.3976" stroke="#333D7B" stroke-width="1.19" stroke-miterlimit="10" stroke-linecap="round"/>
<path d="M61.4745 89.0085C57.5178 100.222 55.0508 111.937 54.1683 123.773C53.9501 126.743 54.0165 130.196 56.3697 132.099C56.8915 132.526 57.5557 132.851 58.2294 132.758C59.4914 132.591 60.0702 131.152 60.3928 129.946C63.581 118.092 66.4845 106.163 69.1128 94.1791" stroke="#333D7B" stroke-width="1.19" stroke-miterlimit="10" stroke-linecap="round"/>
<path d="M82.3105 84.7946C82.9083 84.1356 83.5251 83.4672 84.3126 83.0495C85.1002 82.6317 86.106 82.4925 86.884 82.9288C87.6716 83.3744 88.0511 84.2655 88.6869 84.906C89.7591 85.9921 91.6473 86.1963 92.9378 85.3609C94.1997 84.544 95.0727 82.8545 96.5814 82.9566C97.6631 83.0309 98.3747 84.0242 99.0389 84.8596C99.7031 85.6951 100.718 86.5491 101.734 86.1871C102.113 86.0571 102.407 85.7693 102.692 85.4908C103.508 84.7111 104.324 83.922 105.131 83.1423" stroke="#333D7B" stroke-width="1.19" stroke-miterlimit="10" stroke-linecap="round"/>
<path d="M104.135 73.711C104.135 73.711 106.943 78.2317 106.383 79.0486C105.824 79.8655 102.588 80.3482 104.135 73.711Z" stroke="#333D7B" stroke-width="1.19" stroke-linecap="round" stroke-linejoin="round"/>
<path d="M88.7252 116.328C88.7252 116.328 88.6967 116.385 88.6777 116.413" stroke="white" stroke-width="0.25" stroke-miterlimit="10"/>
<path d="M88.792 46.5957C88.6497 46.3172 88.6118 46.0016 88.6782 45.6581" stroke="white" stroke-width="0.25" stroke-miterlimit="10"/>
<path d="M90.5661 84.4607C90.5661 84.4607 90.3194 84.5349 92.6251 87.4869L91.7047 87.9324C91.7047 87.9324 89.4939 85.8902 89.1808 84.6278C89.1048 84.3121 89.2282 84.0522 89.4369 83.8758C90.3384 83.1147 90.5756 84.4607 90.5756 84.4607H90.5661Z" fill="white"/>
</svg>
