<svg width="466" height="278" viewBox="0 0 466 278" fill="none" xmlns="http://www.w3.org/2000/svg">
<g clip-path="url(#clip0_2124_4594)">
<path d="M233 277.984C361.682 277.984 466 266.878 466 253.177C466 239.477 361.682 228.37 233 228.37C104.318 228.37 0 239.477 0 253.177C0 266.878 104.318 277.984 233 277.984Z" fill="#F9CDAB"/>
<path d="M151.338 12.3725L126.589 113.06C122.92 124.423 131.408 136.066 143.363 136.066H209.774C221.807 136.066 230.31 124.283 226.486 112.873L202.794 11.8446C197.4 -4.26904 156.53 -3.80333 151.322 12.3725H151.338Z" fill="#F489AC"/>
<path d="M172.869 79.6991C175.178 79.6991 177.051 77.1762 177.051 74.064C177.051 70.9518 175.178 68.4289 172.869 68.4289C170.559 68.4289 168.687 70.9518 168.687 74.064C168.687 77.1762 170.559 79.6991 172.869 79.6991Z" fill="#333D7B"/>
<path d="M191.011 81.4223C193.32 81.4223 195.193 78.8993 195.193 75.7871C195.193 72.6749 193.32 70.152 191.011 70.152C188.701 70.152 186.829 72.6749 186.829 75.7871C186.829 78.8993 188.701 81.4223 191.011 81.4223Z" fill="#333D7B"/>
<path d="M149.519 129.53C149.519 129.53 145.415 251.237 147.094 255.894L180.362 261.56C181.248 261.638 182.103 261.172 182.492 260.365C184.108 257.027 187.062 254.28 183.005 249.995C177.968 244.686 163.261 246.238 162.935 239.982C157.991 145.085 164.35 131.549 164.35 131.549" stroke="#333D7B" stroke-miterlimit="10" stroke-linecap="round"/>
<path d="M185.958 133.474C185.958 133.474 189.487 253.845 191.571 258.331L230.761 261.576C231.663 261.576 232.456 261.033 232.782 260.194C234.088 256.732 237.462 251.315 233.031 247.418C227.543 242.575 209.044 247.946 208.158 241.752C194.742 147.678 202.717 132.278 202.717 132.278" stroke="#333D7B" stroke-miterlimit="10" stroke-linecap="round"/>
<path d="M145.804 103.419C145.804 103.419 146.534 99.8956 144.809 89.5412C143.083 79.1868 137.207 72.2322 137.207 72.2322L138.078 68.6772C138.078 68.6772 146.255 81.5465 147.358 91.4351C148.462 101.324 147.732 103.435 147.732 103.435H145.804V103.419Z" stroke="#333D7B" stroke-width="0.75" stroke-miterlimit="10" stroke-linecap="round"/>
<path d="M146.379 112.734C148.783 112.734 150.732 110.788 150.732 108.387C150.732 105.986 148.783 104.04 146.379 104.04C143.975 104.04 142.026 105.986 142.026 108.387C142.026 110.788 143.975 112.734 146.379 112.734Z" stroke="#333D7B" stroke-width="0.95" stroke-miterlimit="10" stroke-linecap="round"/>
<path d="M209.479 93.8102C209.479 93.8102 208.282 91.8698 209.386 87.7249C211.127 81.1118 216.646 73.2878 216.646 73.2878L215.9 70.1209C215.9 70.1209 208.733 81.7017 207.007 85.4895C205.468 88.8737 207.101 94.3381 207.101 94.3381" stroke="#333D7B" stroke-width="0.75" stroke-miterlimit="10" stroke-linecap="round"/>
<path d="M201.395 99.8645C201.395 99.8645 192.472 118.741 196.016 124.811C199.561 130.881 203.914 130.136 203.914 130.136L203.152 126.767C203.152 126.767 199.841 125.603 198.784 122.079C197.726 118.555 203.898 101.805 203.898 101.805L201.395 99.849V99.8645Z" stroke="#333D7B" stroke-width="0.75" stroke-miterlimit="10" stroke-linecap="round"/>
<path d="M207.442 131.378C209.245 131.378 210.707 129.918 210.707 128.118C210.707 126.317 209.245 124.858 207.442 124.858C205.639 124.858 204.178 126.317 204.178 128.118C204.178 129.918 205.639 131.378 207.442 131.378Z" stroke="#333D7B" stroke-width="0.75" stroke-miterlimit="10" stroke-linecap="round"/>
<path d="M217.112 97.3652C217.112 97.3652 231.912 112.128 230.621 119.036C229.331 125.944 224.994 126.721 224.994 126.721L224.574 123.29C224.574 123.29 227.31 121.07 227.092 117.406C226.875 113.743 215.417 100.051 215.417 100.051L217.112 97.3652Z" stroke="#333D7B" stroke-width="0.75" stroke-miterlimit="10" stroke-linecap="round"/>
<path d="M220.983 129.251C222.786 129.251 224.247 127.791 224.247 125.991C224.247 124.191 222.786 122.731 220.983 122.731C219.18 122.731 217.718 124.191 217.718 125.991C217.718 127.791 219.18 129.251 220.983 129.251Z" stroke="#333D7B" stroke-width="0.75" stroke-miterlimit="10" stroke-linecap="round"/>
<path d="M200.758 98.8244L204.598 102.022C204.971 102.333 205.484 102.379 205.904 102.162C206.712 101.727 208.096 101.075 209.479 100.889C210.754 100.718 211.935 100.967 212.651 101.184C213.117 101.324 213.614 101.184 213.925 100.78L216.708 97.1789C217.205 96.5424 216.879 95.611 216.102 95.4092C213.832 94.8348 209.883 93.9344 208.484 94.1207C206.93 94.3225 202.67 96.6977 200.851 97.7378C200.447 97.9706 200.4 98.545 200.758 98.8399V98.8244Z" stroke="#333D7B" stroke-width="0.75" stroke-miterlimit="10" stroke-linecap="round"/>
<path d="M247.318 159.134V247.403H253.723L253.785 163.031" fill="#F9CDAB"/>
<path d="M247.318 159.134V247.403H253.723L253.785 163.031" stroke="#333D7B" stroke-miterlimit="10"/>
<path d="M351.365 165.763V253.177H344.945L344.883 167.036" fill="#F9CDAB"/>
<path d="M351.365 165.763V253.177H344.945L344.883 167.036" stroke="#333D7B" stroke-miterlimit="10"/>
<path d="M377.793 150.705V238.989H371.388L371.326 154.617" fill="#F9CDAB"/>
<path d="M377.793 150.705V238.989H371.388L371.326 154.617" stroke="#333D7B" stroke-miterlimit="10"/>
<path d="M292.431 168.93V234.316H286.011L285.964 169.07" fill="#F9CDAB"/>
<path d="M292.431 168.93V234.316H286.011L285.964 169.07" stroke="#333D7B" stroke-miterlimit="10"/>
<path d="M247.317 159.134L246.556 153.81C256.039 152.04 286.042 145.66 286.244 140.226C286.493 133.458 285 53.4639 293.193 51.0267C301.386 48.5895 370.766 53.0914 375.368 56.8792C379.969 60.667 383.032 145.644 376.891 150.519C370.751 155.393 353.324 165.67 347.183 166.757C341.043 167.843 262.661 174.022 247.302 159.15L247.317 159.134Z" fill="#F9CDAB" stroke="#333D7B" stroke-miterlimit="10"/>
<path d="M266.656 106.804L271.025 123.461C271.274 124.439 271.087 125.463 270.512 126.27C268.615 128.894 264.418 134.7 263.749 135.243C262.894 135.942 259.863 136.811 259.179 137.618C253.8 143.968 259.645 147.088 261.728 148.268C263.812 149.447 265.568 145.411 265.568 145.411C265.568 145.411 266.89 143.626 268.817 142.493C269.222 142.26 269.595 141.981 269.874 141.608L276.077 133.784" stroke="#333D7B" stroke-miterlimit="10" stroke-linecap="round"/>
<path d="M366.694 95.9836C370.549 134.126 349.453 148.47 321.797 151.248C294.157 154.027 270.419 144.2 266.563 106.059C262.708 67.9166 282 34.7267 309.656 31.948C337.312 29.1692 362.838 57.8261 366.694 95.9836Z" fill="#858BB0"/>
<path d="M216.941 79.6836C216.941 79.6836 228.523 101.495 254.997 103.28C256.163 103.357 257.329 103.249 258.464 103.016C260.392 102.612 263.19 101.867 263.874 100.874C264.947 99.3057 265.056 98.8399 265.724 98.1724C266.392 97.5049 267.434 97.6601 267.279 101.65C267.123 105.639 266.563 107.238 264.885 107.58C263.781 107.813 260.47 108.403 258.324 108.775C257.065 108.993 255.79 109.117 254.516 109.07C228.259 108.154 216.553 89.417 216.553 89.417" stroke="#333D7B" stroke-miterlimit="10" stroke-linecap="round"/>
<path d="M297.204 135.569C297.204 135.569 266.968 138.565 265.118 146.467C263.268 154.369 261.651 239.78 257.951 244.872C254.251 249.964 247.427 250.399 245.033 259.154C243.167 265.985 244.209 269.089 244.768 270.129C244.908 270.393 245.173 270.549 245.483 270.549C249.37 270.549 253.21 269.617 256.661 267.816L268.74 261.529C271.523 260.086 273.264 257.214 273.264 254.093C273.295 233.866 273.792 159.879 279.42 154.57C285.949 148.423 297.064 146.482 297.064 146.482" stroke="#333D7B" stroke-miterlimit="10" stroke-linecap="round"/>
<path d="M331.965 139.062C331.965 139.062 301.728 142.058 299.878 149.96C298.028 157.861 296.411 243.273 292.711 248.365C289.012 253.457 282.187 253.892 279.793 262.647C277.927 269.477 278.969 272.582 279.529 273.622C279.669 273.886 279.933 274.041 280.244 274.041C284.13 274.041 287.97 273.11 291.421 271.309L303.5 265.022C306.283 263.578 308.024 260.706 308.024 257.586C308.055 237.359 308.553 163.372 314.18 158.063C320.709 151.916 331.825 149.975 331.825 149.975" stroke="#333D7B" stroke-miterlimit="10" stroke-linecap="round"/>
<path d="M306.019 97.7378C306.019 97.7378 305.987 100.47 308.366 101.013" stroke="#333D7B" stroke-width="1.13" stroke-miterlimit="10" stroke-linecap="round"/>
<path d="M285.063 95.7818C285.063 95.7818 284.503 98.4519 282.062 98.4674" stroke="#333D7B" stroke-width="1.13" stroke-miterlimit="10" stroke-linecap="round"/>
<path d="M294.048 115.807C294.048 115.807 294.639 114.348 295.758 113.96C296.878 113.572 298.215 114.395 298.215 114.395" stroke="#333D7B" stroke-width="1.13" stroke-miterlimit="10" stroke-linecap="round"/>
<path d="M343.468 103.311C343.468 103.311 364.331 127.311 363.802 135.569C363.273 143.828 339.255 157.535 339.255 157.535C339.255 157.535 334.187 160.997 331.964 159.134C329.741 157.272 333.97 151.698 333.97 151.698C333.97 151.698 353.246 140.226 353.775 135.569C354.304 130.912 339.784 113.51 339.784 113.51" stroke="#333D7B" stroke-miterlimit="10"/>
<path d="M340.111 65.3707C340.111 65.3707 334.747 58.6489 332.897 56.9102C331.047 55.1715 323.306 50.4213 323.306 50.4213C321.347 48.6826 321.176 45.6555 322.917 43.6995C324.658 41.7435 327.689 41.5727 329.648 43.3114C329.648 43.3114 335.074 46.649 338.867 49.909C342.66 53.169 346.453 58.2608 346.453 58.2608C348.412 59.9994 348.583 63.0266 346.842 64.9826C345.101 66.9386 342.069 67.1093 340.111 65.3707Z" stroke="#333D7B" stroke-width="0.76" stroke-miterlimit="10"/>
<path d="M333.923 57.0189C333.441 56.4445 332.275 55.5596 332.275 55.5596C331.296 54.6903 331.218 53.2 332.089 52.222L334.156 49.909C335.027 48.931 336.519 48.8534 337.499 49.7227C337.499 49.7227 338.851 50.6075 339.147 51.1819C339.442 51.7563 340.204 53.5415 339.333 54.5195L337.266 56.8326C336.395 57.8106 334.405 57.6088 333.923 57.0189Z" fill="#333D7B"/>
<path d="M329.711 47.3285C329.546 47.5141 329.562 47.7987 329.748 47.9641C329.934 48.1295 330.219 48.1131 330.384 47.9274C330.55 47.7418 330.534 47.4572 330.348 47.2918C330.162 47.1264 329.877 47.1428 329.711 47.3285Z" fill="#333D7B"/>
<path d="M325.802 46.3415C325.637 46.5271 325.653 46.8117 325.839 46.9771C326.025 47.1425 326.31 47.1261 326.476 46.9405C326.641 46.7548 326.625 46.4703 326.439 46.3049C326.253 46.1395 325.968 46.1559 325.802 46.3415Z" fill="#333D7B"/>
<path d="M330.048 50.1339C329.882 50.3195 329.898 50.6041 330.084 50.7695C330.27 50.9349 330.555 50.9185 330.721 50.7328C330.886 50.5472 330.87 50.2626 330.684 50.0972C330.498 49.9318 330.213 49.9482 330.048 50.1339Z" fill="#333D7B"/>
<path d="M326.484 49.6005C326.318 49.7861 326.335 50.0707 326.521 50.2361C326.707 50.4015 326.992 50.3851 327.157 50.1995C327.323 50.0138 327.307 49.7293 327.121 49.5639C326.935 49.3985 326.65 49.4149 326.484 49.6005Z" fill="#333D7B"/>
<path d="M342.457 58.5967C342.623 58.4111 342.607 58.1265 342.421 57.9611C342.235 57.7957 341.95 57.8121 341.784 57.9978C341.618 58.1834 341.635 58.468 341.821 58.6334C342.007 58.7988 342.292 58.7824 342.457 58.5967Z" fill="#333D7B"/>
<path d="M343.9 62.3737C344.065 62.188 344.049 61.9035 343.863 61.7381C343.677 61.5727 343.392 61.5891 343.226 61.7747C343.061 61.9604 343.077 62.2449 343.263 62.4103C343.449 62.5757 343.734 62.5593 343.9 62.3737Z" fill="#333D7B"/>
<path d="M339.636 58.5789C339.802 58.3932 339.785 58.1086 339.599 57.9432C339.413 57.7778 339.128 57.7943 338.963 57.9799C338.797 58.1655 338.814 58.4501 338.999 58.6155C339.185 58.7809 339.47 58.7645 339.636 58.5789Z" fill="#333D7B"/>
<path d="M340.581 62.0587C340.747 61.873 340.731 61.5885 340.545 61.4231C340.359 61.2577 340.074 61.2741 339.908 61.4597C339.742 61.6454 339.759 61.9299 339.945 62.0953C340.131 62.2607 340.416 62.2443 340.581 62.0587Z" fill="#333D7B"/>
<path d="M186.611 85.0238C186.611 85.0238 178.668 84.853 177.191 84.5426C175.714 84.2321 175.605 86.157 175.823 87.2282C176.04 88.2993 182.616 89.6499 184.979 89.386C187.342 89.1221 186.58 86.3588 187.218 85.7379C187.855 85.1169 186.611 85.0238 186.611 85.0238Z" stroke="#333D7B" stroke-width="1.19" stroke-miterlimit="10"/>
<path d="M176.289 85.4584C176.289 85.4584 185.306 87.135 185.741 88.4545C186.176 89.7741 186.674 85.7379 186.674 85.7379L176.74 84.7444L176.289 85.4584Z" fill="#333D7B"/>
<path d="M189.332 64.8894C189.332 64.8894 191.182 63.8649 193.187 64.9671" stroke="#333D7B" stroke-miterlimit="10" stroke-linecap="round"/>
<path d="M170.941 63.5389C170.941 63.5389 172.791 62.5143 174.797 63.6165" stroke="#333D7B" stroke-miterlimit="10" stroke-linecap="round"/>
<path d="M137.829 86.0328C137.829 86.0328 112.66 110.39 119.873 123.368C127.086 136.345 140.083 154.338 140.083 154.338C140.083 154.338 144.513 158.995 147.669 155.828C150.825 152.661 128.517 125.991 128.61 118.027C128.703 110.064 140.083 99.7093 140.083 99.7093" stroke="#333D7B" stroke-miterlimit="10" stroke-linecap="round"/>
<path d="M288.156 98.5916C288.156 98.5916 283.835 99.2591 283.555 100.827C283.275 102.395 282.715 101.665 282.093 102.504C281.472 103.342 281.363 104.584 282.093 105.639C282.824 106.695 282.093 107.999 282.093 107.999C282.093 107.999 281.534 109.225 283.104 109.458C284.674 109.691 284.006 110.809 284.876 110.917C285.747 111.026 287.208 110.467 287.27 109.35C287.27 109.35 287.379 108.698 288.172 108.232C289.54 107.425 288.871 107.207 288.731 106.105C288.607 105.158 289.027 105.562 289.742 104.32C290.768 102.535 289.073 102.814 289.073 101.96C289.073 101.106 289.804 101.51 289.913 99.9421C290.022 98.3742 288.172 98.5916 288.172 98.5916H288.156Z" fill="#333D7B"/>
<path d="M301.044 100.206C301.044 100.206 305.366 100.874 305.646 102.441C305.925 104.009 306.485 103.28 307.107 104.118C307.729 104.956 307.838 106.198 307.107 107.254C306.376 108.309 307.107 109.613 307.107 109.613C307.107 109.613 307.667 110.84 306.096 111.073C304.526 111.306 305.195 112.423 304.324 112.532C303.454 112.641 301.992 112.082 301.93 110.964C301.93 110.964 301.821 110.312 301.028 109.846C299.66 109.039 300.329 108.822 300.469 107.72C300.593 106.773 300.173 107.176 299.458 105.934C298.432 104.149 300.127 104.429 300.127 103.575C300.127 102.736 299.396 103.125 299.287 101.557C299.179 99.9887 301.028 100.206 301.028 100.206H301.044Z" fill="#333D7B"/>
</g>
<defs>
<clipPath id="clip0_2124_4594">
<rect width="466" height="278" fill="white"/>
</clipPath>
</defs>
</svg>
