<svg width="172" height="106" viewBox="0 0 172 106" fill="none" xmlns="http://www.w3.org/2000/svg">
<g clip-path="url(#clip0_2581_1946)">
<path d="M91.8482 38.926C96.01 38.926 99.2086 39.6584 101.444 41.1232C103.673 42.588 104.788 44.9849 104.788 48.314C104.788 51.6431 103.661 54.0945 101.402 55.5835C99.142 57.0725 95.9191 57.817 91.727 57.817H89.7521V67.1626H83.4639V39.6584C84.833 39.3921 86.2869 39.2045 87.8196 39.0955C89.3522 38.9866 90.6971 38.9321 91.8482 38.9321V38.926ZM92.254 44.2828C91.7997 44.2828 91.3453 44.2949 90.9031 44.3252C90.4609 44.3494 90.0792 44.3797 89.7521 44.4039V52.4602H91.727C93.9018 52.4602 95.5435 52.1636 96.6461 51.5765C97.7486 50.9894 98.2999 49.8878 98.2999 48.2717C98.2999 47.4908 98.1606 46.8492 97.8759 46.3408C97.5911 45.8323 97.1913 45.4208 96.6643 45.1121C96.1433 44.8034 95.5011 44.5915 94.7499 44.4705C93.9987 44.3494 93.1627 44.2889 92.248 44.2889L92.254 44.2828Z" fill="#333D7B"/>
<path d="M121.799 51.292C121.26 51.1588 120.63 51.0196 119.903 50.8683C119.176 50.723 118.4 50.6443 117.564 50.6443C117.189 50.6443 116.74 50.6806 116.213 50.7472C115.692 50.8138 115.292 50.8864 115.026 50.9712V67.1626H109.022V47.1094C110.095 46.7342 111.367 46.377 112.833 46.0441C114.299 45.7112 115.929 45.5417 117.728 45.5417C118.049 45.5417 118.437 45.5599 118.897 45.6023C119.351 45.6446 119.812 45.6991 120.266 45.7657C120.72 45.8323 121.181 45.911 121.635 46.0078C122.09 46.1047 122.483 46.2136 122.804 46.3528L121.799 51.3041V51.292Z" fill="#333D7B"/>
<path d="M145.455 56.5278C145.455 58.1923 145.213 59.7177 144.728 61.0977C144.244 62.4838 143.547 63.6641 142.632 64.6447C141.717 65.6253 140.621 66.3819 139.349 66.9206C138.071 67.4593 136.641 67.7256 135.054 67.7256C133.466 67.7256 132.079 67.4593 130.801 66.9206C129.523 66.3819 128.426 65.6253 127.518 64.6447C126.603 63.6641 125.894 62.4838 125.379 61.0977C124.87 59.7177 124.616 58.1923 124.616 56.5278C124.616 54.8633 124.876 53.344 125.403 51.9761C125.93 50.6081 126.651 49.4399 127.578 48.4714C128.505 47.503 129.608 46.7524 130.886 46.2137C132.164 45.675 133.551 45.4087 135.06 45.4087C136.568 45.4087 137.998 45.675 139.27 46.2137C140.548 46.7524 141.639 47.503 142.553 48.4714C143.468 49.4399 144.177 50.6081 144.692 51.9761C145.201 53.344 145.455 54.8633 145.455 56.5278ZM139.331 56.5278C139.331 54.6756 138.961 53.2169 138.222 52.1576C137.483 51.0984 136.429 50.5657 135.06 50.5657C133.691 50.5657 132.63 51.0984 131.873 52.1576C131.122 53.2169 130.746 54.6756 130.746 56.5278C130.746 58.38 131.122 59.8508 131.873 60.9403C132.624 62.0299 133.685 62.5686 135.06 62.5686C136.435 62.5686 137.483 62.0238 138.222 60.9403C138.961 59.8508 139.331 58.386 139.331 56.5278Z" fill="#333D7B"/>
<path d="M91.7266 24.163C92.6111 24.163 93.3441 24.0903 93.9257 23.939C94.5012 23.7937 94.9676 23.5879 95.319 23.3337C95.6704 23.0795 95.9066 22.7769 96.046 22.4258C96.1792 22.0747 96.2459 21.6873 96.2459 21.2576C96.2459 20.3436 95.8158 19.587 94.9555 18.9817C94.0953 18.3764 92.6171 17.7288 90.5211 17.0266C89.6063 16.7058 88.6915 16.3366 87.7828 15.919C86.8681 15.5013 86.0503 14.9808 85.3233 14.3513C84.5963 13.7218 84.0087 12.9531 83.5483 12.0572C83.0939 11.1554 82.8637 10.0658 82.8637 8.77658C82.8637 7.48732 83.1061 6.32517 83.5907 5.29013C84.0753 4.25509 84.7599 3.37742 85.6444 2.65108C86.5288 1.92474 87.6072 1.36787 88.8672 0.980489C90.1273 0.593106 91.5509 0.399414 93.1381 0.399414C95.0161 0.399414 96.6457 0.599159 98.0148 1.0047C99.3839 1.41024 100.517 1.8521 101.401 2.33633L99.5899 7.28757C98.8084 6.88203 97.9421 6.53097 96.991 6.22227C96.0338 5.91357 94.8889 5.7562 93.544 5.7562C92.0416 5.7562 90.9572 5.962 90.2969 6.37964C89.6366 6.79729 89.3095 7.43284 89.3095 8.29235C89.3095 8.80079 89.4306 9.23054 89.6729 9.58161C89.9153 9.93268 90.2545 10.2474 90.7028 10.5259C91.145 10.8103 91.6539 11.0646 92.2355 11.2885C92.811 11.5185 93.4531 11.7485 94.1498 11.9907C95.6037 12.5294 96.8638 13.056 97.9361 13.5826C99.0083 14.1031 99.9049 14.7144 100.614 15.4166C101.322 16.1127 101.856 16.9358 102.207 17.874C102.558 18.8122 102.728 19.9562 102.728 21.3C102.728 23.9027 101.813 25.9243 99.9897 27.3589C98.1602 28.7934 95.4099 29.5137 91.7266 29.5137C90.4908 29.5137 89.3761 29.4411 88.3826 29.2897C87.3891 29.1445 86.5107 28.9629 85.7413 28.745C84.9719 28.5271 84.3177 28.3031 83.7664 28.061C83.2151 27.8189 82.7547 27.5889 82.373 27.377L84.148 22.3834C84.978 22.8374 86.0078 23.249 87.2316 23.6122C88.4553 23.9753 89.9516 24.1569 91.7266 24.1569V24.163Z" fill="#333D7B"/>
<path d="M106.157 18.5278C106.157 16.6515 106.448 15.0051 107.023 13.5948C107.599 12.1844 108.362 11.0102 109.301 10.072C110.24 9.1338 111.324 8.41956 112.548 7.93533C113.772 7.4511 115.026 7.20898 116.316 7.20898C119.327 7.20898 121.702 8.12902 123.452 9.96909C125.197 11.8092 126.069 14.5148 126.069 18.086C126.069 18.437 126.057 18.8184 126.027 19.236C126.003 19.6537 125.972 20.0229 125.948 20.3437H112.324C112.457 21.5785 113.033 22.5591 114.056 23.2854C115.08 24.0117 116.449 24.3749 118.17 24.3749C119.272 24.3749 120.351 24.272 121.417 24.0723C122.477 23.8725 123.343 23.6244 124.016 23.3278L124.821 28.2003C124.5 28.3637 124.07 28.5211 123.531 28.6846C122.992 28.848 122.398 28.9872 121.738 29.1083C121.078 29.2293 120.375 29.3322 119.624 29.4109C118.872 29.4896 118.121 29.532 117.364 29.532C115.456 29.532 113.796 29.2475 112.384 28.6846C110.973 28.1216 109.804 27.3469 108.877 26.3663C107.95 25.3857 107.265 24.2236 106.823 22.8799C106.381 21.5361 106.157 20.0895 106.157 18.5278ZM120.266 16.2278C120.242 15.7193 120.151 15.223 120.005 14.7387C119.86 14.2545 119.63 13.8248 119.321 13.4495C119.012 13.0742 118.624 12.7655 118.152 12.5234C117.679 12.2813 117.097 12.1602 116.401 12.1602C115.704 12.1602 115.153 12.2752 114.668 12.5052C114.184 12.7353 113.784 13.0379 113.457 13.4132C113.136 13.7884 112.887 14.2243 112.711 14.7206C112.536 15.2169 112.409 15.7193 112.33 16.2338H120.272L120.266 16.2278Z" fill="#333D7B"/>
<path d="M139.106 13.7098L143.323 7.77192H149.532L142.172 18.0739C143.856 20.0108 145.358 21.9296 146.667 23.8423C147.975 25.755 149.023 27.4558 149.811 28.9569H143.371C143.153 28.5514 142.88 28.049 142.559 27.4437C142.238 26.8384 141.875 26.2089 141.475 25.5492C141.069 24.8894 140.651 24.3326 140.215 23.8786C139.779 23.4246 139.342 23.007 138.918 22.6317C138.513 22.9767 138.101 23.3641 137.677 23.7817C137.259 24.2055 136.859 24.726 136.483 25.3555C136.108 25.985 135.732 26.6084 135.368 27.2258C135.005 27.8432 134.684 28.4182 134.399 28.9509H128.287C128.626 28.2911 129.068 27.4982 129.625 26.5782C130.183 25.6581 130.789 24.7078 131.449 23.7333C132.109 22.7528 132.824 21.8025 133.593 20.8824C134.363 19.9624 135.12 19.0968 135.859 18.2857C134.538 16.4154 133.272 14.6177 132.061 12.8866C130.843 11.1615 129.644 9.45462 128.45 7.76587H134.938L139.106 13.7037V13.7098Z" fill="#333D7B"/>
<path d="M171.898 18.322C171.898 19.9865 171.656 21.5119 171.171 22.8919C170.687 24.278 169.99 25.4583 169.075 26.4389C168.16 27.4194 167.064 28.1761 165.792 28.7148C164.513 29.2535 163.084 29.5198 161.497 29.5198C159.909 29.5198 158.522 29.2535 157.244 28.7148C155.966 28.1761 154.869 27.4194 153.96 26.4389C153.046 25.4583 152.337 24.278 151.822 22.8919C151.313 21.5119 151.059 19.9865 151.059 18.322C151.059 16.6575 151.319 15.1382 151.846 13.7702C152.373 12.4023 153.094 11.2341 154.021 10.2656C154.948 9.29717 156.05 8.54662 157.329 8.00791C158.607 7.46921 159.994 7.20288 161.503 7.20288C163.011 7.20288 164.441 7.46921 165.713 8.00791C166.991 8.54662 168.082 9.29717 168.996 10.2656C169.911 11.2341 170.62 12.4023 171.135 13.7702C171.644 15.1382 171.898 16.6575 171.898 18.322ZM165.767 18.322C165.767 16.4698 165.398 15.0111 164.659 13.9518C163.92 12.8926 162.866 12.3599 161.497 12.3599C160.127 12.3599 159.067 12.8926 158.31 13.9518C157.559 15.0111 157.183 16.4698 157.183 18.322C157.183 20.1742 157.559 21.645 158.31 22.7345C159.061 23.824 160.121 24.3628 161.497 24.3628C162.872 24.3628 163.92 23.818 164.659 22.7345C165.398 21.645 165.767 20.1802 165.767 18.322Z" fill="#333D7B"/>
<path d="M83.8271 75.4915H90.1154V103.401H83.8271V75.4915Z" fill="#333D7B"/>
<path d="M96.1611 82.9423C97.1849 82.6457 98.4995 82.3733 100.111 82.1191C101.722 81.8649 103.419 81.7378 105.188 81.7378C106.956 81.7378 108.483 81.9739 109.683 82.4399C110.876 82.9121 111.827 83.5718 112.524 84.4313C113.22 85.2908 113.717 86.3077 114.014 87.4941C114.311 88.6744 114.456 89.9939 114.456 91.4405V103.401H108.453V92.1669C108.453 90.236 108.198 88.862 107.69 88.057C107.181 87.252 106.223 86.8464 104.83 86.8464C104.4 86.8464 103.946 86.8646 103.461 86.9069C102.976 86.9493 102.546 86.9917 102.171 87.0462V103.395H96.1672V82.9363L96.1611 82.9423Z" fill="#333D7B"/>
<path d="M129.092 72.1501C130.219 72.1501 131.255 72.2652 132.194 72.4952C133.133 72.7252 133.86 72.9431 134.369 73.161L133.2 77.9548C132.66 77.7127 132.079 77.5311 131.449 77.4101C130.819 77.289 130.231 77.2285 129.698 77.2285C128.971 77.2285 128.359 77.3314 127.863 77.5311C127.366 77.7309 126.978 78.0093 126.693 78.3543C126.409 78.7054 126.209 79.117 126.088 79.6012C125.966 80.0855 125.906 80.606 125.906 81.1689V82.2161H133.321V87.2097H125.906V103.401H119.902V81.0902C119.902 78.3543 120.672 76.1753 122.223 74.5652C123.767 72.9552 126.057 72.1501 129.092 72.1501Z" fill="#333D7B"/>
<path d="M156.42 92.7661C156.42 94.4306 156.178 95.9559 155.693 97.336C155.209 98.7221 154.512 99.9024 153.597 100.883C152.682 101.864 151.586 102.62 150.314 103.159C149.035 103.698 147.606 103.964 146.019 103.964C144.431 103.964 143.044 103.698 141.766 103.159C140.488 102.62 139.391 101.864 138.482 100.883C137.568 99.9024 136.859 98.7221 136.344 97.336C135.835 95.9559 135.581 94.4306 135.581 92.7661C135.581 91.1015 135.841 89.5823 136.368 88.2143C136.895 86.8464 137.616 85.6782 138.543 84.7097C139.47 83.7413 140.572 82.9907 141.851 82.452C143.129 81.9133 144.516 81.647 146.025 81.647C147.533 81.647 148.963 81.9133 150.235 82.452C151.513 82.9907 152.604 83.7413 153.518 84.7097C154.433 85.6782 155.142 86.8464 155.657 88.2143C156.166 89.5823 156.42 91.1015 156.42 92.7661ZM150.295 92.7661C150.295 90.9139 149.926 89.4552 149.187 88.3959C148.448 87.3367 147.394 86.804 146.025 86.804C144.655 86.804 143.595 87.3367 142.838 88.3959C142.087 89.4552 141.711 90.9139 141.711 92.7661C141.711 94.6183 142.087 96.0891 142.838 97.1786C143.589 98.2681 144.649 98.8068 146.025 98.8068C147.4 98.8068 148.448 98.2621 149.187 97.1786C149.926 96.0891 150.295 94.6243 150.295 92.7661Z" fill="#333D7B"/>
<path d="M62.2669 18.4068C62.2669 8.55875 58.8623 0 47.134 0C35.4057 0 34.0609 8.98245 33.0734 8.98245C32.086 8.98245 30.9107 0 19.0128 0C7.11486 0 3.87988 7.83846 3.87988 18.4068C3.87988 28.9751 32.0011 54.4818 32.9704 54.4818C33.9397 54.4818 62.2609 28.2548 62.2609 18.4068H62.2669Z" fill="#F489AC"/>
<path d="M24.5075 29.9194C24.5075 29.9194 14.1846 30.4884 15.0327 35.7302C15.5113 38.6961 21.6299 43.2721 24.4287 47.1943C26.5732 50.2026 25.9614 53.0172 24.1864 53.2895C20.0972 53.9251 5.95179 45.1182 5.70947 36.3415" stroke="#333D7B" stroke-width="1.19" stroke-miterlimit="10" stroke-linecap="round"/>
<path d="M18.0014 24.3567C18.0014 24.3567 5.46134 27.5647 5.70366 36.3414" stroke="#333D7B" stroke-width="1.19" stroke-miterlimit="10" stroke-linecap="round"/>
<path d="M33.7217 27.6314C34.7576 26.4148 40.5248 27.7706 41.0155 28.3154C41.5062 28.8601 40.0402 32.7037 37.7199 33.194C35.3997 33.6843 32.6857 28.848 33.7217 27.6314Z" stroke="#333D7B" stroke-width="1.19" stroke-miterlimit="10"/>
<path d="M33.7212 27.6313C33.7212 27.6313 33.3456 28.1821 33.491 28.7451C33.6364 29.308 33.9756 30.1796 33.9756 30.1796C33.9756 30.1796 34.5875 29.5017 35.5689 29.8406C36.5503 30.1735 40.1124 31.2812 40.1124 31.2812L41.009 28.3214C41.009 28.3214 39.2582 27.2742 37.0046 27.1411C34.751 27.0079 33.7212 27.6374 33.7212 27.6374V27.6313Z" fill="#333D7B"/>
<path d="M52.6767 33.3756C52.81 31.4689 67.9671 21.1488 70.4569 22.087C72.9286 23.0191 74.2674 24.8047 74.2674 24.8047C74.2674 24.8047 76.412 25.0892 77.2783 26.6085C78.1506 28.1217 71.9411 27.6556 69.0757 28.1883C66.2103 28.7209 52.7857 43.502 50.9744 42.8483C49.1631 42.1886 47.4365 39.5495 47.4365 39.5495" stroke="#333D7B" stroke-width="1.19" stroke-miterlimit="10" stroke-linecap="round"/>
<path d="M31.4436 24.9862C32.3436 24.9862 33.0732 24.0025 33.0732 22.789C33.0732 21.5755 32.3436 20.5918 31.4436 20.5918C30.5436 20.5918 29.814 21.5755 29.814 22.789C29.814 24.0025 30.5436 24.9862 31.4436 24.9862Z" fill="#333D7B"/>
<path d="M42.7356 26.5538C43.6356 26.5538 44.3652 25.5701 44.3652 24.3566C44.3652 23.1431 43.6356 22.1594 42.7356 22.1594C41.8356 22.1594 41.106 23.1431 41.106 24.3566C41.106 25.5701 41.8356 26.5538 42.7356 26.5538Z" fill="#333D7B"/>
<path d="M30.4566 45.1665C30.4566 45.1665 28.0153 101.337 27.1974 103.08H7.20601C6.85464 103.08 6.54569 102.868 6.41847 102.542C5.9096 101.192 4.80098 97.657 6.52751 96.1316C8.66599 94.2431 17.5349 96.6824 17.8802 94.2613C23.1083 57.5809 21.8119 53.0231 21.8119 53.0231" stroke="#333D7B" stroke-width="1.19" stroke-miterlimit="10" stroke-linecap="round"/>
<path d="M35.1753 45.1664C35.1753 45.1664 36.1022 101.337 36.9139 103.08H56.9054C57.2567 103.08 57.5657 102.868 57.6929 102.541C58.2018 101.192 59.3104 97.6568 57.5839 96.1315C55.4454 94.243 46.5765 96.6823 46.2312 94.2611C41.0031 57.5808 43.8382 41.6194 43.8382 41.6194" stroke="#333D7B" stroke-width="1.19" stroke-miterlimit="10" stroke-linecap="round"/>
<path d="M23.3811 9.42433C23.3811 9.42433 19.1829 10.7439 18.0016 11.3128C16.8203 11.8818 13.137 14.6964 13.137 14.6964C11.9436 15.3138 10.4594 14.8356 9.84755 13.6432C9.22963 12.4508 9.70821 10.9678 10.9016 10.3565C10.9016 10.3565 13.4945 8.37719 15.748 7.17267C18.0016 5.96815 21.1457 5.09048 21.1457 5.09048C22.3392 4.47309 23.8234 4.95127 24.4352 6.14368C25.0531 7.33609 24.5746 8.81905 23.3811 9.43039V9.42433Z" stroke="#333D7B" stroke-miterlimit="10"/>
<path d="M18.2433 10.8345C17.8738 10.9616 17.2437 11.349 17.2437 11.349C16.65 11.6517 15.917 11.4216 15.6141 10.8285L14.8872 9.41815C14.5843 8.82497 14.8145 8.09257 15.4082 7.78993C15.4082 7.78993 16.0745 7.3057 16.4077 7.27544C16.7409 7.24517 17.7344 7.2028 18.0373 7.79598L18.7643 9.2063C19.0672 9.79948 18.6068 10.7135 18.2433 10.8345Z" fill="#333D7B"/>
<path d="M12.8432 11.0686C12.9014 11.1815 13.0402 11.2259 13.1532 11.1678C13.2663 11.1096 13.3107 10.9709 13.2525 10.858C13.1943 10.7451 13.0555 10.7006 12.9425 10.7588C12.8295 10.8169 12.785 10.9556 12.8432 11.0686Z" fill="#333D7B"/>
<path d="M11.6459 12.75C11.7041 12.8629 11.8429 12.9073 11.956 12.8492C12.069 12.791 12.1135 12.6523 12.0553 12.5394C11.9971 12.4265 11.8583 12.382 11.7452 12.4402C11.6322 12.4983 11.5877 12.637 11.6459 12.75Z" fill="#333D7B"/>
<path d="M14.2416 11.4179C14.2998 11.5309 14.4386 11.5753 14.5517 11.5171C14.6647 11.459 14.7092 11.3203 14.651 11.2074C14.5928 11.0944 14.454 11.05 14.3409 11.1081C14.2279 11.1663 14.1834 11.305 14.2416 11.4179Z" fill="#333D7B"/>
<path d="M13.332 13.0236C13.3902 13.1366 13.529 13.181 13.642 13.1229C13.755 13.0647 13.7995 12.926 13.7413 12.8131C13.6831 12.7001 13.5443 12.6557 13.4313 12.7139C13.3182 12.772 13.2738 12.9107 13.332 13.0236Z" fill="#333D7B"/>
<path d="M20.567 7.05742C20.5088 6.94448 20.37 6.90005 20.2569 6.9582C20.1439 7.01634 20.0994 7.15503 20.1576 7.26798C20.2158 7.38092 20.3546 7.42534 20.4677 7.3672C20.5807 7.30905 20.6252 7.17036 20.567 7.05742Z" fill="#333D7B"/>
<path d="M22.6363 7.0623C22.5781 6.94936 22.4393 6.90494 22.3263 6.96308C22.2132 7.02122 22.1688 7.15992 22.227 7.27286C22.2851 7.3858 22.424 7.43022 22.537 7.37208C22.65 7.31394 22.6945 7.17524 22.6363 7.0623Z" fill="#333D7B"/>
<path d="M20.0382 8.39702C19.98 8.28408 19.8412 8.23965 19.7281 8.2978C19.6151 8.35594 19.5706 8.49463 19.6288 8.60758C19.687 8.72052 19.8258 8.76494 19.9388 8.7068C20.0519 8.64865 20.0963 8.50996 20.0382 8.39702Z" fill="#333D7B"/>
<path d="M21.8741 8.58916C21.8159 8.47621 21.6771 8.43179 21.564 8.48994C21.451 8.54808 21.4066 8.68677 21.4647 8.79972C21.5229 8.91266 21.6617 8.95708 21.7748 8.89894C21.8878 8.84079 21.9323 8.7021 21.8741 8.58916Z" fill="#333D7B"/>
</g>
<defs>
<clipPath id="clip0_2581_1946">
<rect width="170.763" height="106" fill="white" transform="translate(0.830566)"/>
</clipPath>
</defs>
</svg>
